<svg id="Capa_1" enable-background="new 0 0 512 512" height="512" viewBox="0 0 512 512" width="512" xmlns="http://www.w3.org/2000/svg"><g><path d="m413.978 0h-315.956c-8.284 0-15 6.716-15 15v421.273c0 8.284 6.716 15 15 15h112.853v45.727c0 4.657 2.163 9.051 5.855 11.89 3.691 2.839 8.492 3.803 12.994 2.607l26.276-6.977 26.275 6.978c1.27.337 2.562.502 3.849.502 3.272 0 6.495-1.071 9.146-3.11 3.692-2.839 5.855-7.233 5.855-11.89v-45.727h112.853c8.284 0 15-6.716 15-15v-421.273c0-8.284-6.716-15-15-15zm-67.603 180.625h-180.75c-8.284 0-15-6.716-15-15s6.716-15 15-15h180.75c8.284 0 15 6.716 15 15s-6.716 15-15 15zm15 45.25c0 8.284-6.716 15-15 15h-180.75c-8.284 0-15-6.716-15-15s6.716-15 15-15h180.75c8.284 0 15 6.716 15 15zm-210.75-120.5c0-8.284 6.716-15 15-15h120.5c8.284 0 15 6.716 15 15s-6.716 15-15 15h-120.5c-8.284 0-15-6.716-15-15zm0 180.75c0-8.284 6.716-15 15-15h180.75c8.284 0 15 6.716 15 15s-6.716 15-15 15h-180.75c-8.284 0-15-6.716-15-15zm105.375 165.625c-32.058 0-58.139-26.081-58.139-58.138s26.081-58.138 58.139-58.138 58.139 26.081 58.139 58.138-26.081 58.138-58.139 58.138z"/><circle cx="256" cy="393.612" r="28.138"/></g></svg>