<?xml version="1.0" encoding="utf-8"?>
<!-- Generator: Adobe Illustrator 25.0.1, SVG Export Plug-In . SVG Version: 6.00 Build 0)  -->
<svg version="1.1" id="Layer_1" xmlns="http://www.w3.org/2000/svg" xmlns:xlink="http://www.w3.org/1999/xlink" x="0px" y="0px"
	 viewBox="0 0 639 639" style="enable-background:new 0 0 639 639;" xml:space="preserve">
<style type="text/css">
	.st0{fill-rule:evenodd;clip-rule:evenodd;fill:#FFFFFF;}
</style>
<path class="st0" d="M101.5,19h416.9c4.1,0,8.1,4,8.1,8.6v175.6C500,175,462,157.2,419.9,157.2c-47.2,0-89.2,22.5-115.8,57.6H150.5
	c-1.7,0-3.5,1.7-3.5,4v5.8c0,1.7,1.8,3.4,3.5,3.4H295c-2.9,4.6-5.2,9.2-7.5,14.4H150.5c-1.7,0-3.5,1.7-3.5,3.5v5.8
	c0,2.3,1.8,4,3.5,4h131.9c-1.2,4.6-2.9,9.2-4,13.8H150.5c-1.7,0-3.5,1.7-3.5,4v5.8c0,2.3,1.8,4,3.5,4H276c-0.6,4.6-0.6,9.2-1.2,13.8
	H150.5c-1.7,0-3.5,1.7-3.5,4v5.8c0,1.7,1.8,3.5,3.5,3.5h124.9c0,5.2,0.6,9.8,1.2,14.4H150.5c-1.7,0-3.5,1.7-3.5,3.5v5.8
	c0,2.3,1.8,4,3.5,4h129c1.1,4.6,2.9,9.2,4.6,13.8H150.5c-1.7,0-3.5,1.8-3.5,4v5.7c0,2.3,1.8,4,3.5,4h139.4c2.3,4.6,4.6,9.2,7.5,13.8
	H150.5c-1.7,0-3.5,1.7-3.5,4v5.7c0,1.7,1.8,3.5,3.5,3.5h156.6c4,5.2,8,9.8,12.6,14.4H150.5c-1.7,0-3.5,1.7-3.5,3.5v5.7
	c0,2.3,1.8,4,3.5,4h185.4c15,10.9,32.3,18.4,50.7,23v165.2c0,4.6,1.1,8.6,2.9,12.1H101.5c-4.6,0-8.1-3.5-8.1-8.1v-585
	C93.5,23,96.9,19,101.5,19L101.5,19z M526.5,400.8v211.9c0,4.6-4,8.1-8.1,8.1h-67.9c1.7-3.5,2.8-7.5,2.8-12.1V443.4
	C482.1,436.4,507.5,421.5,526.5,400.8L526.5,400.8z M159.7,80.6h228.6c5.7,0,9.8,4.6,9.8,9.8v15c0,5.2-4.1,9.2-9.8,9.2H159.7
	c-5.2,0-9.2-4-9.2-9.2v-15C150.5,85.2,154.5,80.6,159.7,80.6L159.7,80.6z M155.7,131.9h126.1c2.9,0,5.2,2.3,5.2,5.2v8.1
	c0,2.9-2.3,5.7-5.2,5.7H155.7c-2.9,0-5.2-2.9-5.2-5.7V137C150.5,134.2,152.8,131.9,155.7,131.9L155.7,131.9z M380.8,214.8h78.3
	c-1.7-1.1-4-1.7-6.3-2.3h-65.7C384.8,213,383.1,213.6,380.8,214.8L380.8,214.8z M481,228h-0.6H358.9c-4,3.5-7.5,7.5-10.9,11.5h144.5
	C488.5,235.5,485,231.5,481,228L481,228z M331.3,265.4c-0.6,1.8-0.6,2.9-1.1,4h150.3c1.7,0,3.5,1.7,3.5,4v5.8c0,2.3-1.7,4-3.5,4
	H326.1c-0.6,2.9-1.2,6.4-1.2,9.8h190c-0.6-9.8-2.9-19-6.3-27.7H331.3z M326.1,319c0,2.3,0.6,4,1.1,5.7h153.1c1.7,0,3.5,1.7,3.5,3.5
	v5.8c0,2.3-1.7,4-3.5,4H331.3c1.2,2.9,2.9,5.7,4,8.6h169.3c4.6-8.6,7.5-17.9,9.2-27.6H326.1z M355.5,372.5c2.9,2.3,5.7,4.6,8.7,6.9
	h112.3c2.9-2.3,5.2-4.6,8.1-6.9H355.5z M449.9,392.7h-59.3c9.2,3.5,19,5.2,29.4,5.2C430.3,397.9,440.1,396.2,449.9,392.7
	L449.9,392.7z M150.5,434.1h203.8c2.3,0,4,1.7,4,4v5.8c0,2.3-1.7,4-4,4H150.5c-1.7,0-3.5-1.7-3.5-4v-5.8
	C147,435.9,148.8,434.1,150.5,434.1L150.5,434.1z M150.5,491.7h103.6c1.7,0,3.5,1.7,3.5,3.5v6.3c0,1.8-1.8,3.5-3.5,3.5H150.5
	c-1.7,0-3.5-1.7-3.5-3.5v-6.3C147,493.4,148.8,491.7,150.5,491.7L150.5,491.7z M514.9,293.1H325 M504.6,346.6H335.3
	c-4.6-8.6-7.5-17.9-9.2-27.6h187.7C512.1,328.8,509.2,338,504.6,346.6L504.6,346.6z M355.5,372.5h129
	c-17.3,15.6-39.7,25.4-64.5,25.4C395.2,397.9,372.7,388.1,355.5,372.5L355.5,372.5z M387.1,212.5h65.7c15.5,5.2,28.8,15,39.7,27.1
	H348C358.3,227.4,371.6,217.6,387.1,212.5L387.1,212.5z M435.5,428.4v40.3c-2.3-0.6-4.6-1.1-7.4-1.1h-16.1c-2.9,0-5.2,0.6-7.5,1.1
	v-40.3c-63.3-7.5-111.7-61-111.7-126.1c0-70.8,57-127.8,127.2-127.8c70.2,0,127.8,57,127.8,127.8
	C547.8,367.4,498.9,420.9,435.5,428.4L435.5,428.4z M419.9,188.9c62.8,0,113.4,50.6,113.4,113.4c0,62.2-50.7,112.9-113.4,112.9
	c-62.2,0-112.8-50.7-112.8-112.9C307.1,239.5,357.8,188.9,419.9,188.9L419.9,188.9z M411.9,484.8H428c7.4,0,13.2,6.3,13.2,13.2
	v111.7c0,7.5-5.8,13.2-13.2,13.2h-16.1c-7.5,0-13.2-5.7-13.2-13.2V498.1C398.7,491.2,404.4,484.8,411.9,484.8L411.9,484.8z
	 M452.8,212.5h-65.7l0,0l0.6-0.6h0.6l0,0l0.6-0.6h0.6l0,0h0.6l1.1-0.6h0.6l0,0l1.8-0.6h0.6l0,0l1.8-0.6h0.6l0,0l1.1-0.6h0.6h0.6l0,0
	l0.6-0.6h1.2l0,0h0.6l0,0h0.6l0.6-0.6h0.6h0.6l0,0h0.6l0,0h0.6l0.6-0.6h0.6l0,0l0,0h1.2h0.6h0.6l0,0h0.6l1.1-0.6l0,0h0.6l0,0h1.7
	h0.6l0,0h0.6h1.7h0.6l0,0h0.6h1.1h0.6l0,0l2.3-0.6l2.3,0.6l0,0h0.6h1.7l0,0h0.6l0,0h1.7h0.6l0,0h0.6h1.7l0,0h0.6h0.6l0.6,0.6h0.6
	l0,0h0.6h0.6h1.1l0,0l0,0h0.6l0.6,0.6h0.6h0.6l0,0l0,0h0.6h0.6l0.6,0.6h0.6h0.6l0,0l0,0h1.7v0.6h0.6l0,0h0.6l1.2,0.6h0.6l0,0
	l1.7,0.6h0.6l0,0l1.7,0.6h0.6l0,0l1.2,0.6h0.6l0,0h0.6l0.6,0.6h0.6l0,0L452.8,212.5L452.8,212.5z M508.6,265.4H331.3h0.6v-0.6l0,0
	v-0.6l0.6-0.6l0,0v-0.6l0.6-0.6V262v-0.6h0.6l0,0l0.6-1.1v-0.6l0,0l0.6-0.6v-0.6v-0.6h0.6v-0.6l0.6-0.6v-0.6l0,0l0.6-0.6v-0.6
	l0.6-0.6l0,0l0,0l0.6-0.6v-0.6l0,0l0.6-0.6v-0.6l0,0l0.6-0.6l0,0l0.6-0.6v-0.6l0,0l0,0l0.6-0.6v-0.6l0.6-0.6l0,0l0,0l0.6-0.6l0,0
	l0.6-0.6V247l0.6-0.6l0,0l0,0l0.6-0.6v-0.6h0.6v-0.6l0,0l0.6-0.6l0,0l0.6-0.6V243l0,0h0.6l0.6-1.1l0,0l0.6-0.6l0,0v-0.6l1.7-1.2l0,0
	h144.5l0,0l1.1,1.7l0,0l1.1,1.7h0.6l0,0v0.6l1.1,1.2l0,0v0.6c1.1,0.6,1.7,1.7,2.3,2.9l0.6,0.6l0,0l0,0l0.6,0.6v0.6l0.6,0.6l0,0l0,0
	l0.6,0.6v0.6l0,0l0.6,0.6l0,0v0.6l0.6,0.6l0,0l0.6,0.6v0.6l0,0l0,0l0.6,0.6v0.6l0.6,0.6l0.6,0.6v0.6v0.6h0.6v0.6l0,0v0.6l0.6,0.6
	l0,0l0.6,1.7h0.6v0.6v0.6l0.6,0.6v0.6l0,0l0.6,0.6v0.6l0,0v0.6H508.6z M513.8,319H326.1l0,0l0,0l0,0l-0.6-0.6l0,0v-0.6v-0.6l0,0
	v-0.6l0,0l0,0v-0.6l0,0v-0.6l0,0l0,0L325,315v-0.6l0,0l0,0v-0.6v-1.7l0,0l0,0l0,0v-1.7v-0.6l0,0v-0.6h-0.6l0,0v-0.6v-1.7l0,0v-1.7
	l0,0v-0.6l0,0V304l0,0v-1.7v-0.6l0,0l0,0v-1.1l0,0l0,0V300l0,0l0,0l0,0v-0.6l0,0l0,0l0,0l0,0v-0.6l0,0l0,0l0,0v-0.6l0,0l0,0l0,0
	v-0.6l0,0l0,0l0,0v-0.6l0,0l0,0l0,0l0,0v-0.6l0,0l0,0l0,0V296l0,0l0,0l0,0v-0.6l0,0l0,0l0,0v-0.6l0,0l0,0l0.6-0.6l0,0l0,0v-0.6l0,0
	l0,0l0,0v-0.6l0,0l0,0l0,0h190l0,0l0,0l0,0v0.6l0,0h0.6l0,0v0.6l0,0l0,0v0.6l0,0l0,0v0.6l0,0l0,0l0,0v0.6l0,0l0,0l0,0v0.6l0,0l0,0
	l0,0v0.6l0,0l0,0l0,0l0,0v0.6l0,0l0,0l0,0v0.6l0,0l0,0l0,0v0.6l0,0l0,0l0,0v0.6l0,0l0,0l0,0l0,0v0.6l0,0l0,0l0,0v0.6l0,0l0,0v1.1
	l0,0l0,0v0.6v1.7l0,0v0.6l0,0v0.6l0,0v1.7l0,0v1.7v0.6l0,0l0,0v0.6l0,0v0.6l-0.6,1.7l0,0l0,0l0,0v1.7v0.6l0,0l0,0v0.6v0.6h-0.6l0,0
	v0.6l0,0v0.6l0,0l0,0v0.6l0,0v0.6v0.6l0,0v0.6l0,0l0,0H513.8z M484.4,372.5h-129l0,0l-0.6-0.6h-0.6v-0.6h-0.6v-0.6h-0.6l-0.6-1.1
	l0,0H352v-0.6l-0.6-0.6l0,0l-0.6-0.6l0,0h-0.6v-0.6l-0.6-0.6h-0.6v-0.6l0,0l0,0l-0.6-1.2H348v-0.6h-0.6v-0.6h-0.6v-0.6l-0.6-0.6l0,0
	l-0.6-0.6l-0.6-0.6l0,0l-0.6-0.6l0,0v-0.6l-0.6-0.6l0,0l-0.6-1.2l-0.6-0.6h-0.6v-0.6l-0.6-0.6l0,0l-0.6-0.6v-0.6l-0.6-0.6l0,0l0,0
	l-0.6-0.6v-0.6l-0.6-0.6l0,0V353h-0.6v-0.6l-0.6-0.6l0,0v-0.6h-0.6v-0.6v-0.6l-0.6-0.6l0,0v-0.6h-0.6v-0.6l-0.6-0.6l0,0v-0.6
	l-0.6-0.6l0,0h169.3l0,0l-1.1,1.7v0.6l-0.6,1.1l-0.6,0.6v0.6l-1.1,1.1l0,0v0.6h-0.6l-0.6,1.2v0.6l0,0l-1.2,1.1v0.6l-0.6,0.6l0,0
	l-0.6,0.6l0,0v0.6h-0.6v0.6l-0.6,0.6l0,0v0.6h-0.6l-0.6,0.6v0.6l0,0l-0.6,0.6l0,0l-0.6,1.1h-0.6l0,0l-0.6,0.6v0.6h-0.6v0.6l0,0
	l-0.6,0.6l-0.6,0.6l-0.6,0.6l0,0v0.6l-1.1,0.6v0.6H489l0,0v0.6h-0.6l-0.6,0.6v0.6h-0.6l0,0l-1.2,1.7h-0.6L485,372L484.4,372.5
	L484.4,372.5z"/>
</svg>
