<svg id="Capa_1" enable-background="new 0 0 512 512" height="512" viewBox="0 0 512 512" width="512" xmlns="http://www.w3.org/2000/svg"><g><g fill="#8c808a"><path d="m388.395 353.178c6.36-5.33 10.406-13.329 10.406-22.276v-132.891c0-16.047-13.008-29.055-29.055-29.055h-34.568l-4.139-13.694c-2.384-12.909-13.641-22.277-26.768-22.277h-96.544c-10.553 0-19.887 6.061-24.384 15.142z"/><path d="m134.723 169.947c-12.395 3.318-21.525 14.623-21.525 28.064v132.891c0 16.047 13.009 29.055 29.055 29.055h182.48z"/></g><g fill="#7b7179"><path d="m306.698 341.922h-164.445c-16.047 0-29.055-13.009-29.055-29.055v18.035c0 16.047 13.009 29.055 29.055 29.055h182.48z"/><path d="m388.395 353.178c6.36-5.33 10.406-13.329 10.406-22.276v-18.035c0 13.766-9.577 25.288-22.43 28.288z"/></g><g fill="#eaeaea"><path d="m314.069 278.851c2.664-6.928 4.139-14.445 4.139-22.312 0-34.356-27.851-62.207-62.207-62.207-7.866 0-15.384 1.475-22.312 4.138z"/><path d="m198.235 233.458c-2.855 7.139-4.442 14.923-4.442 23.081 0 34.356 27.851 62.207 62.207 62.207 8.159 0 15.942-1.587 23.081-4.442z"/></g><g><g><g><path d="m314.069 278.851c2.664-6.928 4.139-14.445 4.139-22.312 0-3.064-.231-6.072-.659-9.018-1.338 9.21-4.701 17.76-9.61 25.2z" fill="#cbcbcb"/></g><g><path d="m264.857 300.081c-2.893.413-5.849.63-8.857.63-31.292 0-57.179-23.108-61.548-53.19-.428 2.945-.659 5.954-.659 9.018 0 34.356 27.851 62.207 62.207 62.207 8.159 0 15.942-1.587 23.081-4.442z" fill="#cbcbcb"/></g></g></g><g><g><path d="m256 7.515c-137.235 0-248.485 111.25-248.485 248.485s111.25 248.485 248.485 248.485 248.485-111.25 248.485-248.485-111.25-248.485-248.485-248.485zm205.925 248.485c0 47.89-16.35 91.96-43.77 126.938l-289.093-289.094c34.978-27.419 79.048-43.769 126.938-43.769 113.729 0 205.925 92.196 205.925 205.925zm-411.85 0c0-47.889 16.349-91.957 43.767-126.934l289.093 289.093c-34.977 27.418-79.046 43.767-126.935 43.767-113.729-.001-205.925-92.197-205.925-205.926z" fill="#dd636e"/></g></g><g><g fill="#da4a54"><path d="m98.472 123.42-4.631 5.646 289.093 289.093 5.935-4.876c2.288-1.88 2.455-5.324.359-7.417l-283.343-282.815c-2.095-2.091-5.536-1.919-7.413.369z"/><path d="m256 486.45c-134.214 0-243.556-106.412-248.305-239.468-.107 2.994-.18 5.997-.18 9.018 0 137.235 111.251 248.485 248.485 248.485s248.485-111.25 248.485-248.485c0-3.02-.073-6.023-.18-9.018-4.749 133.056-114.091 239.468-248.305 239.468z"/></g></g><g><path d="m399.137 43.725c-3.439-2.324-8.11-1.419-10.433 2.02s-1.419 8.111 2.02 10.434c66.528 44.945 106.247 119.645 106.247 199.821 0 64.366-25.066 124.879-70.578 170.392-45.514 45.513-106.027 70.579-170.393 70.579s-124.879-25.065-170.392-70.579c-45.513-45.513-70.579-106.026-70.579-170.392s25.066-124.879 70.579-170.392 106.026-70.579 170.392-70.579c38.587 0 75.448 8.844 109.557 26.286 3.696 1.889 8.222.426 10.113-3.27 1.889-3.695.426-8.222-3.269-10.112-36.249-18.535-75.412-27.933-116.401-27.933-68.381 0-132.667 26.629-181.02 74.98-48.352 48.353-74.98 112.64-74.98 181.02s26.628 132.667 74.98 181.02c48.353 48.351 112.639 74.98 181.02 74.98s132.667-26.629 181.02-74.98c48.352-48.353 74.98-112.64 74.98-181.02 0-85.176-42.192-164.531-112.863-212.275z"/><path d="m418.155 390.453c2.289 0 4.502-1.077 5.914-2.879 29.682-37.863 45.371-83.361 45.371-131.574 0-117.691-95.749-213.44-213.44-213.44-48.214 0-93.712 15.689-131.574 45.37-3.494 2.738-3.819 8.086-.678 11.228l289.094 289.094c1.413 1.413 3.326 2.201 5.313 2.201zm-162.155-332.863c109.404 0 198.411 89.006 198.411 198.41 0 41.968-12.786 81.72-37.063 115.502l-18.482-18.482c4.796-6.303 7.451-14.036 7.451-22.119v-64.251c0-4.15-3.364-7.515-7.515-7.515s-7.515 3.365-7.515 7.515v64.252c0 4.053-1.137 7.957-3.219 11.321l-65.382-65.382c2.005-6.573 3.037-13.378 3.037-20.301 0-38.445-31.277-69.722-69.722-69.722-6.922 0-13.727 1.032-20.301 3.037l-42.716-42.716c3.678-4.178 8.982-6.639 14.745-6.639h96.544c9.503 0 17.653 6.782 19.379 16.127.05.273.116.543.196.809l4.139 13.694c.959 3.171 3.881 5.341 7.194 5.341h34.567c11.878 0 21.54 9.663 21.54 21.541v38.58c0 4.15 3.364 7.515 7.515 7.515s7.515-3.365 7.515-7.515v-38.58c0-20.165-16.405-36.57-36.569-36.57h-28.988l-2.412-7.978c-3.212-16.248-17.472-27.992-34.074-27.992h-96.544c-9.847 0-18.937 4.071-25.391 11.023l-41.84-41.84c33.779-24.28 73.53-37.065 115.5-37.065zm-7.755 144.811c2.557-.365 5.145-.554 7.755-.554 30.158 0 54.693 24.535 54.693 54.692 0 2.61-.189 5.198-.554 7.755z"/><path d="m256 454.41c-42.626 0-83.246-13.311-117.468-38.494-3.343-2.461-8.046-1.744-10.507 1.598-2.46 3.343-1.744 8.047 1.599 10.506 36.822 27.097 80.523 41.42 126.376 41.42 48.211 0 93.707-15.688 131.57-45.367 3.494-2.739 3.82-8.086.678-11.228l-289.092-289.093c-3.143-3.141-8.488-2.818-11.228.678-29.679 37.861-45.367 83.358-45.367 131.57 0 57.471 22.509 111.376 63.379 151.785 2.951 2.918 7.708 2.891 10.627-.061 2.918-2.951 2.892-7.709-.06-10.627-37.993-37.564-58.917-87.673-58.917-141.097 0-41.968 12.785-81.718 37.06-115.499l27.176 27.176c-9.87 6.661-16.142 17.933-16.142 30.333v132.89c0 20.165 16.405 36.571 36.569 36.571h179.367l49.878 49.878c-33.781 24.277-73.531 37.061-115.498 37.061zm-53.99-206.548 62.668 62.668c-2.856.458-5.752.703-8.678.703-30.158 0-54.693-24.535-54.693-54.693 0-2.927.245-5.822.703-8.678zm-59.757 104.581c-11.878 0-21.54-9.663-21.54-21.541v-132.89c0-8.337 4.818-15.794 12.098-19.348l56.76 56.76c-2.175 6.823-3.294 13.901-3.294 21.116 0 38.445 31.277 69.722 69.722 69.722 7.216 0 14.294-1.119 21.116-3.293l29.475 29.475h-164.337z"/></g></g></svg>