<svg xmlns="http://www.w3.org/2000/svg" viewBox="0 0 300 300"><defs><style>.cls-1{fill:none;}.cls-2{fill:#fff;}.cls-3{fill:#ae99c9;}.cls-4{fill:#c8badc;}.cls-5{fill:#2c130e;}.cls-6{fill:#ef753f;}.cls-7{fill:#f8b895;}.cls-8{fill:#fcdc6a;}.cls-9{fill:#fde7a0;}.cls-10{fill:#f26b4c;}.cls-11{fill:#f8a487;}.cls-12{fill:#fabba3;}.cls-13{fill:#f04b33;}.cls-14{fill:#f28c5d;}.cls-15{fill:#ee6730;}.cls-16{fill:#f7ef7a;}.cls-17{fill:#f5eb3a;}.cls-18{fill:#9477b6;}.cls-19{fill:#aacf78;}.cls-20{fill:#dfebcc;}.cls-21{fill:#87bf40;}</style></defs><g id="Layer_7" data-name="Layer 7"><rect class="cls-1" width="300" height="300"/></g><g id="Layer_4" data-name="Layer 4"><path class="cls-2" d="M240.81,263c-1.5-.59-1.5-176.17,0-176.77C242.32,86.81,242.32,262.39,240.81,263Z"/><path class="cls-2" d="M212.81,263c-1.51-.59-1.51-176.17,0-176.77C214.31,86.81,214.31,262.39,212.81,263Z"/><path class="cls-2" d="M184.8,263c-1.5-.59-1.5-176.17,0-176.77C186.3,86.81,186.3,262.39,184.8,263Z"/><path class="cls-2" d="M156.79,263c-1.5-.59-1.5-176.17,0-176.77C158.3,86.81,158.3,262.39,156.79,263Z"/><path class="cls-2" d="M128.78,263c-1.5-.59-1.5-176.17,0-176.77C130.29,86.81,130.29,262.39,128.78,263Z"/><path class="cls-2" d="M100.78,263c-1.51-.59-1.51-176.17,0-176.77C102.28,86.81,102.28,262.39,100.78,263Z"/><path class="cls-2" d="M72.77,263c-1.5-.59-1.5-176.17,0-176.77C74.27,86.81,74.27,262.39,72.77,263Z"/><path class="cls-2" d="M244.39,259.41c-.86-.79-176.1,1.51-176-.78C67.58,257.78,249.08,255.79,244.39,259.41Z"/><path class="cls-2" d="M244.39,231.41c-.86-.79-176.1,1.5-176-.79C67.58,229.77,249.08,227.78,244.39,231.41Z"/><path class="cls-2" d="M244.39,203.4c-.86-.79-176.1,1.51-176-.79C67.58,201.76,249.08,199.77,244.39,203.4Z"/><path class="cls-2" d="M244.39,175.39c-.86-.79-176.1,1.51-176-.79C67.58,173.76,249.08,171.76,244.39,175.39Z"/><path class="cls-2" d="M244.39,147.38c-.86-.79-176.1,1.51-176-.78C67.58,145.75,249.08,143.76,244.39,147.38Z"/><path class="cls-2" d="M244.39,119.37c-.86-.78-176.1,1.51-176-.78C67.58,117.74,249.08,115.75,244.39,119.37Z"/><path class="cls-2" d="M244.39,91.37c-.86-.79-176.1,1.51-176-.79C67.58,89.73,249.08,87.74,244.39,91.37Z"/><path class="cls-3" d="M122.09,200.2h8.62a12.4,12.4,0,0,1,12.4,12.4V265a0,0,0,0,1,0,0H109.69a0,0,0,0,1,0,0V212.6A12.4,12.4,0,0,1,122.09,200.2Z"/><path class="cls-4" d="M121.69,225.31c0,8.71-5.19,8.71-5.2,0S121.69,216.6,121.69,225.31Z"/><path class="cls-4" d="M114.24,209.56a5.45,5.45,0,0,1,5.45-5.46h22.52a5.34,5.34,0,0,1,.69.05,5.45,5.45,0,0,0-5.24-4H115.14a5.45,5.45,0,0,0-5.45,5.46V265h4.55Z"/><path class="cls-5" d="M143.12,266.74H109.69A1.71,1.71,0,0,1,108,265V205.66a7.17,7.17,0,0,1,7.16-7.16h22.52a7.17,7.17,0,0,1,7.16,7.16V265A1.7,1.7,0,0,1,143.12,266.74Zm-31.72-3.41h30V205.66a3.75,3.75,0,0,0-3.75-3.75H115.14a3.75,3.75,0,0,0-3.74,3.75Z"/><path class="cls-6" d="M178.18,155.55h8.62a12.4,12.4,0,0,1,12.4,12.4V265a0,0,0,0,1,0,0H165.78a0,0,0,0,1,0,0V167.95A12.4,12.4,0,0,1,178.18,155.55Z"/><path class="cls-7" d="M177.79,180.66c0,8.71-5.19,8.71-5.2,0S177.78,171.94,177.79,180.66Z"/><path class="cls-7" d="M170.33,164.9a5.46,5.46,0,0,1,5.46-5.45H198.3c.24,0,.47,0,.69,0a5.45,5.45,0,0,0-5.24-3.94H171.24a5.46,5.46,0,0,0-5.46,5.45V265h4.55Z"/><path class="cls-5" d="M199.21,266.74H165.78a1.7,1.7,0,0,1-1.7-1.7V161a7.17,7.17,0,0,1,7.16-7.16h22.51a7.17,7.17,0,0,1,7.17,7.16V265A1.71,1.71,0,0,1,199.21,266.74Zm-31.72-3.41h30V161a3.75,3.75,0,0,0-3.75-3.75H171.24a3.75,3.75,0,0,0-3.75,3.75Z"/><path class="cls-8" d="M66,171.31h8.62A12.4,12.4,0,0,1,87,183.71V265a0,0,0,0,1,0,0H53.6a0,0,0,0,1,0,0V183.71A12.4,12.4,0,0,1,66,171.31Z"/><path class="cls-9" d="M65.6,196.42c0,8.71-5.19,8.71-5.2,0S65.59,187.71,65.6,196.42Z"/><path class="cls-9" d="M58.15,180.66a5.45,5.45,0,0,1,5.45-5.45H86.12a5.34,5.34,0,0,1,.69,0,5.46,5.46,0,0,0-5.24-3.95H59.05a5.45,5.45,0,0,0-5.45,5.45V265h4.55Z"/><path class="cls-5" d="M87,266.74H53.6a1.7,1.7,0,0,1-1.71-1.7V176.76a7.17,7.17,0,0,1,7.16-7.16H81.57a7.17,7.17,0,0,1,7.16,7.16V265A1.7,1.7,0,0,1,87,266.74ZM55.3,263.33h30V176.76A3.76,3.76,0,0,0,81.57,173H59.05a3.76,3.76,0,0,0-3.75,3.75Z"/><path class="cls-10" d="M234.28,134.53h8.62a12.4,12.4,0,0,1,12.4,12.4V265a0,0,0,0,1,0,0H221.88a0,0,0,0,1,0,0V146.93A12.4,12.4,0,0,1,234.28,134.53Z"/><path class="cls-11" d="M233.88,159.64c0,8.71-5.19,8.71-5.2,0S233.87,150.93,233.88,159.64Z"/><path class="cls-11" d="M226.43,143.89a5.45,5.45,0,0,1,5.45-5.46H254.4a5.34,5.34,0,0,1,.69,0,5.46,5.46,0,0,0-5.24-3.95H227.33a5.45,5.45,0,0,0-5.45,5.46V265h4.55Z"/><path class="cls-5" d="M255.3,266.74H221.88a1.7,1.7,0,0,1-1.71-1.7V140a7.17,7.17,0,0,1,7.16-7.17h22.52A7.17,7.17,0,0,1,257,140V265A1.7,1.7,0,0,1,255.3,266.74Zm-31.72-3.41h30V140a3.75,3.75,0,0,0-3.74-3.75H227.33a3.76,3.76,0,0,0-3.75,3.75Z"/><path class="cls-10" d="M84.84,44.21A54.88,54.88,0,0,0,30,99.1c1.23,72.16,108.56,72.14,109.78,0H84.84Z"/><path class="cls-12" d="M43.24,82.58c-3.59,9.85-8.61,8-5-1.83S46.82,72.73,43.24,82.58Z"/><path class="cls-13" d="M132.18,99.1c-4.34,42.45-61.43,62.56-91.57,32.51,28.59,42.11,101,19.37,99.12-32.51Z"/><path class="cls-5" d="M84.84,155.7c-74.84-2.27-74.79-111,0-113.2a1.71,1.71,0,0,1,1.71,1.71V97.39h53.18a1.71,1.71,0,0,1,1.71,1.71C142.07,129.52,115.26,156.33,84.84,155.7ZM83.13,45.94A53.25,53.25,0,0,0,31.65,99.1C32.76,168,134.76,169.46,138,100.8H84.84a1.71,1.71,0,0,1-1.71-1.7Z"/><path class="cls-14" d="M151.69,89.68A54.9,54.9,0,0,0,96.8,34.78V89.5Z"/><path class="cls-15" d="M139.76,89.64l11.93,0A54.9,54.9,0,0,0,96.8,34.78v1.31A54.91,54.91,0,0,1,139.76,89.64Z"/><path class="cls-5" d="M151.69,91.38l-54.9-.18a1.7,1.7,0,0,1-1.7-1.7V34.78a1.7,1.7,0,0,1,1.71-1.7,56.59,56.59,0,0,1,56.6,56.6A1.72,1.72,0,0,1,151.69,91.38ZM98.5,87.79,150,88A53.25,53.25,0,0,0,98.5,36.52Z"/><path class="cls-16" d="M84.92,99h54.72a54.75,54.75,0,0,1-17,39.71Z"/><path class="cls-17" d="M130.91,99A54.7,54.7,0,0,1,115,130.68l7.61,8a54.75,54.75,0,0,0,17-39.71Z"/><path class="cls-5" d="M122.64,140.4a1.71,1.71,0,0,1-1.24-.54L83.69,100.15a1.72,1.72,0,0,1,1.23-2.88h54.72a1.7,1.7,0,0,1,1.7,1.71C141.2,114.28,135,131.09,122.64,140.4ZM88.9,100.68l33.78,35.57a53.06,53.06,0,0,0,15.22-35.57Z"/><path class="cls-3" d="M85,99.11,122.48,139a54.64,54.64,0,0,1-28.76,14.21Z"/><path class="cls-18" d="M95.31,152.88A54.55,54.55,0,0,0,122.48,139l-6-6.35a54.46,54.46,0,0,1-23.69,9.59Z"/><path class="cls-5" d="M94.7,154.7A1.72,1.72,0,0,1,93,153.29L83.31,99.41a1.68,1.68,0,0,1,.91-1.82,1.71,1.71,0,0,1,2,.35l37.49,39.84C126,143.76,100.16,154.76,94.7,154.7Zm-7-50.23L96.07,151a53,53,0,0,0,24-12.12Z"/><path class="cls-19" d="M266.2,75l-16.33,3.11c-3.71,1.21-1,4.71.76,6.54l-40.5,31.5L186.12,91a4.92,4.92,0,0,0-6,.56L151.89,118.1a4.92,4.92,0,1,0,6.74,7.18l25.43-23.89c36.86,37.36,15,32,72.88-9.22,1.58,2,4.8,6.49,6.89,2.57l5.69-15.89A3.07,3.07,0,0,0,266.2,75Z"/><path class="cls-20" d="M261.39,79.38c.05,3.39-5.33,3.39-5.28,0S261.44,76,261.39,79.38Z"/><path class="cls-20" d="M172.8,103.55c-8.82,8-9.88,6.86-1-1.14S181.66,95.55,172.8,103.55Z"/><path class="cls-20" d="M236.49,100.07c-13.73,10.63-14.7,9.38-1-1.22S250.24,89.47,236.49,100.07Z"/><path class="cls-21" d="M151.42,118.61c-2.63,3-.13,8.16,3.84,8,2.87.89,16.28-14.12,18.44-15.49A49.77,49.77,0,0,1,151.42,118.61Z"/><path class="cls-21" d="M260.79,91.41c-1,.6-2.1,1.11-3.16,1.59l1.75,2.1L260.46,94l-1.08,1.07c1.36,1.66,3.8,1.47,4.45-.36l3-8.37A26,26,0,0,1,260.79,91.41Z"/><path class="cls-21" d="M202.08,120.3l5.69,6a4.92,4.92,0,0,0,5.67-.27l16.86-13.11C220.29,116.43,213.72,124.61,202.08,120.3Z"/><path class="cls-5" d="M210.41,128.74c-3.17,2-24.23-23.59-26.42-25L159.8,126.52a6.63,6.63,0,1,1-9.08-9.66l28.22-26.51a6.53,6.53,0,0,1,8.42-.5l22.94,24,37.89-29.47c-2.71-2.29-2.5-7.23,1.36-8l16.33-3.11a4.76,4.76,0,0,1,5.24,6.16l-5.68,15.89c-1.88,4.41-6.77,2.62-8.76-.79l-42.19,32.82A6.6,6.6,0,0,1,210.41,128.74Zm-1.56-3.82c1.1,4.41,45.69-34.17,47-34.1,1.91-1.6,3.73,2.23,4.82,3.21.49.58,1.28.72,1.51.13l5.69-15.88a1.35,1.35,0,0,0-1.4-1.65l-16.34,3.11c-.65.16-.51,1-.1,1.51,1.34,1.57,3.32,3.52,1.6,4.71-.89.68-40.45,31.47-40.55,31.54-1.34,3.22-25.05-25.18-26.17-25.17-2.44-3.83-29.95,26.47-32,27.09a3.23,3.23,0,0,0,0,4.55c1.14,1.43,3.89.9,4.47.06.61-.55,25.39-23.87,25.49-23.94C184.35,96.55,207.75,124.88,208.85,124.92ZM266.2,75Z"/></g></svg>