<svg xmlns="http://www.w3.org/2000/svg" viewBox="0 0 300 300"><defs><style>.cls-1{fill:none;}.cls-2{fill:#c7d5ea;}.cls-3{fill:#9ebadc;}.cls-4{fill:#2c130e;}.cls-5{fill:#b5d488;}.cls-6{fill:#97c556;}.cls-7{fill:#8cafd6;}.cls-8{fill:#fff;}.cls-9{fill:#b8b9c4;}.cls-10{fill:#24405a;}.cls-11{fill:#a1dadb;}.cls-12{fill:#e7f5f4;}.cls-13{fill:#73cbcd;}.cls-14{fill:#23a9e1;}.cls-15{fill:#9477b6;}.cls-16{fill:#87bf40;}.cls-17{fill:#f37152;}.cls-18{fill:#afc5e1;}.cls-19{fill:#95b5d9;}.cls-20{fill:#94b4d8;}.cls-21{fill:#f8f08b;}.cls-22{fill:#f5eb3a;}.cls-23{fill:#fefef5;}.cls-24{fill:#ebf3fb;}.cls-25{fill:#cecfd6;}.cls-26{fill:#b29fcc;}.cls-27{fill:#d7cee6;}.cls-28{fill:#79bee9;}.cls-29{fill:#cfe4f6;}</style></defs><g id="Layer_7" data-name="Layer 7"><rect class="cls-1" width="300" height="300"/></g><g id="Layer_6" data-name="Layer 6"><path class="cls-2" d="M233.1,245.29H77.1c-11.63-.53-13.68-10.28-12.86-20H246C246.82,234.93,244.67,244.83,233.1,245.29Z"/><path class="cls-3" d="M233.1,239.58H77.1a12.86,12.86,0,0,1-12.86-12.86c-1,9.2,2.31,18.27,12.86,18.57h156C243.64,245,247,236,246,226.72A12.86,12.86,0,0,1,233.1,239.58Z"/><path class="cls-4" d="M233.1,246.71H77.1c-12.24-.44-15.33-10.92-14.28-21.44-.33-4.1,181.74,0,183.15-1.42a1.42,1.42,0,0,1,1.41,1.42C248.38,235.8,245.43,246.23,233.1,246.71Zm-167.44-20c-.8,8.44,1.55,16.8,11.44,17.18h156c9.79-.34,12.29-8.75,11.44-17.18Z"/><path class="cls-2" d="M219,225.41c-165.25-7-142.25,35.51-143.27-97a15.53,15.53,0,0,1,15.53-15.53c165.25,7,142.25-35.51,143.27,97A15.53,15.53,0,0,1,219,225.41Z"/><path class="cls-3" d="M229.67,117.15a12.92,12.92,0,0,1,.8,4.46v87a12.77,12.77,0,0,1-12.77,12.77H84.43a12.92,12.92,0,0,1-4.46-.8,15.52,15.52,0,0,0,11.26,4.83H219a15.53,15.53,0,0,0,15.53-15.53V128.41A15.52,15.52,0,0,0,229.67,117.15Z"/><path class="cls-4" d="M219,226.83c-164.38-7.05-144.26,35.9-144.69-98.42a17,17,0,0,1,17-17c164.38,7.06,144.26-35.9,144.69,98.42A17,17,0,0,1,219,226.83ZM91.23,114.3a14.13,14.13,0,0,0-14.11,14.11C78.82,258.91,52.62,217.17,219,224a14.14,14.14,0,0,0,14.12-14.12C231.38,79.38,257.58,121.12,91.23,114.3Z"/><rect class="cls-5" x="84.99" y="122.11" width="140.75" height="93.23" rx="18.86"/><path class="cls-6" d="M90.51,131.1A4.07,4.07,0,0,1,94.57,127H225.45a6.9,6.9,0,0,0-6.6-4.92h-127A6.89,6.89,0,0,0,85,129v79.45a6.9,6.9,0,0,0,5.52,6.76Z"/><path class="cls-4" d="M218.85,216.76h-127a8.32,8.32,0,0,1-8.31-8.31V129a8.31,8.31,0,0,1,8.31-8.3h127a8.31,8.31,0,0,1,8.31,8.3v79.45A8.32,8.32,0,0,1,218.85,216.76Zm-127-93.23A5.48,5.48,0,0,0,86.41,129v79.45a5.47,5.47,0,0,0,5.47,5.47h127a5.47,5.47,0,0,0,5.47-5.47V129a5.48,5.48,0,0,0-5.47-5.47Z"/><path class="cls-7" d="M182.62,232.33h-55c-4-.05-4.9-3.77-4.53-7.06h64.1C187.51,228.56,186.58,232.28,182.62,232.33Z"/><path class="cls-4" d="M182.62,233.75h-55c-4.68-.05-6.47-4.35-6-8.48a1.42,1.42,0,0,1,1.42-1.42h64.1c1.95,0,1.34,2.77,1.42,3.94A6,6,0,0,1,182.62,233.75Zm-58.16-7.06c-.28,2,.84,4.25,3.12,4.22h55c2.26,0,3.42-2.18,3.12-4.22Z"/><path class="cls-8" d="M207.65,210.69a1.08,1.08,0,0,1-1.09-1.08v-73a1.09,1.09,0,1,1,2.17,0v73A1.08,1.08,0,0,1,207.65,210.69Z"/><path class="cls-8" d="M190.93,210.69a1.08,1.08,0,0,1-1.09-1.08v-73a1.09,1.09,0,1,1,2.17,0v73A1.08,1.08,0,0,1,190.93,210.69Z"/><path class="cls-8" d="M174.21,210.69a1.08,1.08,0,0,1-1.09-1.08v-73a1.09,1.09,0,1,1,2.17,0v73A1.08,1.08,0,0,1,174.21,210.69Z"/><path class="cls-8" d="M157.48,210.69a1.08,1.08,0,0,1-1.08-1.08v-73a1.09,1.09,0,1,1,2.17,0v73A1.08,1.08,0,0,1,157.48,210.69Z"/><path class="cls-8" d="M140.76,210.69a1.08,1.08,0,0,1-1.08-1.08v-73a1.09,1.09,0,1,1,2.17,0v73A1.08,1.08,0,0,1,140.76,210.69Z"/><path class="cls-8" d="M124,210.69a1.08,1.08,0,0,1-1.08-1.08v-73a1.09,1.09,0,1,1,2.17,0v73A1.08,1.08,0,0,1,124,210.69Z"/><path class="cls-8" d="M107.32,210.69a1.08,1.08,0,0,1-1.08-1.08v-73a1.09,1.09,0,1,1,2.17,0v73A1.08,1.08,0,0,1,107.32,210.69Z"/><path class="cls-8" d="M209.78,206.75c-1.09-1-105.91,2-105.67-1.08-.25-3.1,104.59-.06,105.67-1.09A1.09,1.09,0,0,1,209.78,206.75Z"/><path class="cls-8" d="M209.78,190c-1.09-1-105.91,2-105.67-1.08-.25-3.1,104.59-.06,105.67-1.09A1.09,1.09,0,0,1,209.78,190Z"/><path class="cls-8" d="M209.78,173.31c-1.09-1-105.91,2-105.67-1.08-.25-3.1,104.59-.06,105.67-1.09A1.09,1.09,0,0,1,209.78,173.31Z"/><path class="cls-8" d="M209.78,156.59c-1.09-1-105.91,2-105.67-1.08-.25-3.1,104.59-.06,105.67-1.09A1.09,1.09,0,0,1,209.78,156.59Z"/><path class="cls-8" d="M209.78,139.87c-1.09-1-105.91,2-105.67-1.08-.25-3.1,104.59-.06,105.67-1.09A1.09,1.09,0,0,1,209.78,139.87Z"/><polygon class="cls-8" points="54.58 245.59 29.94 245.59 25.65 197.75 58.87 197.75 54.58 245.59"/><path class="cls-9" d="M58.87,197.74H25.65l.43,4.81s13.47-.35,14.7-.34c8.91-.28,13.37-1.5,12.91,9.31.7,10.11-.37,21.21-6.35,29.79-1.76,2.47-5.27,3.12-8,4.29H54.58Z"/><path class="cls-4" d="M54.58,247H29.94a1.41,1.41,0,0,1-1.41-1.29c.4-1.37-5.24-47.75-3.93-48.93a1.4,1.4,0,0,1,1-.46H58.87a1.42,1.42,0,0,1,1.41,1.54L56,245.72A1.42,1.42,0,0,1,54.58,247Zm-23.34-2.83h22l4-45H27.2Z"/><path class="cls-10" d="M56.24,194.27h-28c-.08-2.31-.35-6,2.92-6H53.31C56.57,188.3,56.33,192,56.24,194.27Z"/><path class="cls-4" d="M56.24,195.69h-28a1.42,1.42,0,0,1-1.42-1.42c-.28-3.27.18-7.32,4.34-7.39H53.31a4.34,4.34,0,0,1,4.34,4.34C57.46,192.43,58.35,195.74,56.24,195.69ZM29.7,192.85H54.82c0-1.17.18-3.16-1.51-3.13H31.2C29.53,189.69,29.64,191.69,29.7,192.85Z"/><path class="cls-10" d="M61.21,199.27H23.31A6.31,6.31,0,0,1,29.62,193H54.89a6.32,6.32,0,0,1,6.32,6.32Z"/><path class="cls-4" d="M61.21,200.69c-.7-.76-40.9,1.75-39.32-1.42a7.74,7.74,0,0,1,7.73-7.74H54.89C60.12,190.84,65.35,199.74,61.21,200.69Zm-36.28-2.84H59.58a4.91,4.91,0,0,0-4.69-3.48H29.62A4.92,4.92,0,0,0,24.93,197.85Z"/><polygon class="cls-11" points="27.01 212.07 57.55 212.07 55.74 230.36 28.6 230.36 27.01 212.07"/><path class="cls-12" d="M34,220.89c.62,7.52-2,7.73-2.63.22S33.38,213.38,34,220.89Z"/><path class="cls-13" d="M57.55,212.07H52.27c0,6.06-.2,12.71-2.59,18.29h6.06Z"/><path class="cls-4" d="M55.74,231.77H28.6a1.41,1.41,0,0,1-1.41-1.29c.23-.36-2.29-19.73-1.23-19.37-.08-.82,32.66-.79,32.64,0,1.2.1-1.75,18.72-1.45,19.38A1.41,1.41,0,0,1,55.74,231.77ZM29.9,228.94H54.46L56,213.49H28.55Z"/><path class="cls-14" d="M111.86,79.89c-5.89,0-9.14-3.24-9.14-9.14a1.71,1.71,0,0,0-3.42,0C98.94,83,88.89,77.56,88.45,81.6c.46,4,10.52-1.34,10.85,10.85a1.71,1.71,0,0,0,3.42,0c0-5.89,3.25-9.14,9.14-9.14A1.71,1.71,0,0,0,111.86,79.89Z"/><path class="cls-15" d="M120.52,61c-3.29,0-5.1-1.81-5.1-5.1a1,1,0,0,0-1.91,0c-.19,6.79-5.71,3.78-6.06,6.06.33,2.26,5.88-.73,6.06,6.06a1,1,0,0,0,1.91,0c0-3.29,1.81-5.11,5.1-5.11A1,1,0,0,0,120.52,61Z"/><path class="cls-15" d="M222.86,97.28c-8.77-.46-11.8,2.33-4.86-7a1,1,0,0,1,1.69,0l4,5.36A1,1,0,0,1,222.86,97.28Z"/><path class="cls-16" d="M231.87,88.28c-5.44-.28-7.5,1.47-3.08-4.42a.66.66,0,0,1,1.07,0l2.54,3.39A.66.66,0,0,1,231.87,88.28Z"/><path class="cls-17" d="M210.62,87.43c-6.4-.34-8.75,1.73-3.6-5.17a.78.78,0,0,1,1.26,0l3,4A.77.77,0,0,1,210.62,87.43Z"/><path class="cls-17" d="M193.32,86.74c-3.6-.17-5,.94-2.07-3,.63-.93,2.05,2,2.43,2.27A.44.44,0,0,1,193.32,86.74Z"/><path class="cls-17" d="M207.65,99.79c-3.6-.17-5,.94-2.07-3,.63-.92,2,2,2.43,2.27A.44.44,0,0,1,207.65,99.79Z"/><path class="cls-17" d="M220.17,75.05c-3.6-.17-5,.94-2.08-3,.64-.92,2.06,2,2.43,2.27A.44.44,0,0,1,220.17,75.05Z"/><path class="cls-18" d="M163.87,119.7H144.46a3.43,3.43,0,0,1-3.43-3.42h0a3.43,3.43,0,0,1,3.43-3.43h19.41a3.42,3.42,0,0,1,3.42,3.43h0A3.42,3.42,0,0,1,163.87,119.7Z"/><path class="cls-19" d="M166.12,113.69a3.45,3.45,0,0,1-3.38,4c-1.42-.31-21.13.83-21.65-.84a3.42,3.42,0,0,0,3.37,2.82h19.41A3.45,3.45,0,0,0,166.12,113.69Z"/><path class="cls-4" d="M163.87,120.67H144.46a4.4,4.4,0,1,1,0-8.79h19.41C169.61,111.91,169.62,120.64,163.87,120.67Zm-19.41-6.85c-3.18,0-3.19,5,0,4.91h19.41c3.17,0,3.18-5,0-4.91Z"/><path class="cls-20" d="M154.16,131.54c-6,0-6-9.11,0-9.14S160.13,131.51,154.16,131.54Z"/><path class="cls-4" d="M154.16,132.51c-7.24,0-7.24-11,0-11.08S161.4,132.47,154.16,132.51Zm0-9.14c-4.66-.06-4.66,7.26,0,7.19S158.83,123.31,154.16,123.37Z"/><path class="cls-18" d="M163.87,127H144.46a3.43,3.43,0,0,1-3.43-3.43h0a3.43,3.43,0,0,1,3.43-3.42h19.41a3.42,3.42,0,0,1,3.42,3.42h0A3.42,3.42,0,0,1,163.87,127Z"/><path class="cls-19" d="M166.12,121a3.45,3.45,0,0,1-3.38,4c-1.42-.32-21.13.83-21.65-.85a3.42,3.42,0,0,0,3.37,2.83h19.41A3.45,3.45,0,0,0,166.12,121Z"/><path class="cls-4" d="M163.87,127.94H144.46c-5.75,0-5.76-8.76,0-8.79h19.41C169.61,119.18,169.62,127.91,163.87,127.94Zm-19.41-6.85c-3.18,0-3.19,5,0,4.91h19.41c3.17,0,3.18-5,0-4.91Z"/><path class="cls-21" d="M180.42,81.3A26.26,26.26,0,0,0,154.16,55c-23.95-.86-35.44,31.86-16.92,46.34-.58,5.79,1.14,11.68,7.93,11.89h18c6.77-.2,8.52-6.11,7.92-11.89A26.22,26.22,0,0,0,180.42,81.3Z"/><path class="cls-22" d="M173.62,63.66c7.24,10.4,4.67,26.68-5.13,34.34.59,5.8-1.15,11.69-7.93,11.89-3.67-.49-19.95,1.37-22.74-1.58a7.92,7.92,0,0,0,7.35,5h18c6.77-.21,8.51-6.11,7.92-11.89C182.2,92.79,183.54,73.74,173.62,63.66Z"/><path class="cls-4" d="M163.16,114.24c-10.69-1-28.56,5-26.89-12.42-18.89-15.49-6.63-48.51,17.89-47.75,24.52-.76,36.79,32.26,17.9,47.75C172.82,107.92,170,114.17,163.16,114.24Zm-9-58.23c-24-.08-33.74,30.33-15.95,45.37-.45,5.24.65,10.66,7,10.92h18c6.3-.27,7.41-5.67,7-10.92C187.9,86.35,178.18,55.92,154.16,56Z"/><path class="cls-23" d="M134.89,67.53s2.09-6.17,10.8-8.07a8.23,8.23,0,0,1,3.2-.48c-2.76,2-6.57,2.77-9.1,5.23-.92.36-5.33,6.47-5.47,4.77C134.21,68.54,134.76,67.93,134.89,67.53Z"/><path class="cls-4" d="M158.7,113.1c-2.11,1.22-.49-27.93-1-28.25-1.33,0-4.25,0-7.1.08v27.2a1,1,0,0,1-1.94,0V84a1,1,0,0,1,.94-1c9.91,0,9.24-.71,10,1C159.11,84.64,160.93,113.92,158.7,113.1Z"/><path class="cls-4" d="M149.78,85c-10.93,1.39-6.5-12.13.18-6.51h0a4.37,4.37,0,0,1,1,3.15C150.73,82.44,151.21,85.06,149.78,85Zm-2.73-5.94c-3.21.47-2.59,4.66,1.83,4C149.1,81.48,149.22,79.17,147.05,79.05Z"/><path class="cls-4" d="M161.27,85c-.83-.15-3.34.52-3.38-.9-.15-1.76-.58-4.21.79-5.61h0C164.4,73.11,169.22,84.53,161.27,85ZM159.76,83c6.13.83,3.77-6.12.41-3.3h0C159.38,80.53,159.69,82,159.76,83Z"/><path class="cls-24" d="M270.45,212.25c-.6,35.35-53.19,35.35-53.79,0C217.26,176.9,269.85,176.9,270.45,212.25Z"/><path class="cls-25" d="M264.63,195.54c10.11,28.44-27.94,49.2-46.41,25.74C234,259.52,288.74,229.33,264.63,195.54Z"/><path class="cls-25" d="M223.93,226.88c-10.11-28.44,27.93-49.2,46.41-25.74C254.56,162.9,199.82,193.09,223.93,226.88Z"/><path class="cls-26" d="M243.55,245.52c-43.72-.78-43.71-65.76,0-66.54C287.28,179.76,287.27,244.74,243.55,245.52Zm0-56.28c-30.24.54-30.24,45.49,0,46C273.8,234.72,273.79,189.77,243.55,189.24Z"/><path class="cls-15" d="M270.67,193c19.32,36.56-32.38,68.39-56.36,35.1C237.27,268.21,296.6,231.53,270.67,193Z"/><path class="cls-4" d="M243.55,246.94c-45.58-.82-45.58-68.57,0-69.38C289.14,178.38,289.14,246.13,243.55,246.94Zm0-66.54c-41.86.75-41.85,63,0,63.7C285.41,243.35,285.41,181.14,243.55,180.4Zm0,56.28c-32.1-.57-32.1-48.29,0-48.86C275.66,188.39,275.66,236.11,243.55,236.68Zm0-46c-28.38.51-28.37,42.69,0,43.2C271.94,233.34,271.93,191.16,243.55,190.65Z"/><path class="cls-4" d="M243.55,195.47a1.42,1.42,0,0,1-1.41-1.42v-4.81a1.42,1.42,0,1,1,2.83,0v4.81A1.42,1.42,0,0,1,243.55,195.47Z"/><path class="cls-4" d="M243.55,235.62a1.41,1.41,0,0,1-1.41-1.42v-4.81a1.42,1.42,0,1,1,2.83,0v4.81A1.41,1.41,0,0,1,243.55,235.62Z"/><path class="cls-4" d="M266,213.14h-4.81a1.42,1.42,0,0,1,0-2.84H266A1.42,1.42,0,0,1,266,213.14Z"/><path class="cls-4" d="M225.88,213.14h-4.81a1.42,1.42,0,0,1,0-2.84h4.81A1.42,1.42,0,0,1,225.88,213.14Z"/><path class="cls-4" d="M259.45,229c-.91.21-3.76-3.37-4.4-3.82-1.32-1.28.72-3.33,2-2l3.41,3.41A1.43,1.43,0,0,1,259.45,229Z"/><path class="cls-4" d="M231.06,200.64c-.92.21-3.76-3.37-4.41-3.81-1.32-1.29.73-3.33,2-2l3.4,3.4A1.43,1.43,0,0,1,231.06,200.64Z"/><path class="cls-4" d="M227.66,229a1.43,1.43,0,0,1-1-2.42l3.41-3.41c1.28-1.32,3.32.73,2,2C231.4,225.68,228.59,229.23,227.66,229Z"/><path class="cls-4" d="M256.05,200.64a1.43,1.43,0,0,1-1-2.42l3.4-3.4c1.28-1.32,3.33.72,2,2C259.79,197.29,257,200.84,256.05,200.64Z"/><path class="cls-4" d="M243.49,212a1.86,1.86,0,0,1-1.84-1.84V200.05a1.84,1.84,0,0,1,3.68.07v10A1.84,1.84,0,0,1,243.49,212Z"/><path class="cls-4" d="M237.55,209.27h0c-.05-2.06,19.12,8.39,19.62,8.15a.84.84,0,0,1,.41,1.12h0c.05,2.06-19.11-8.39-19.62-8.15A.84.84,0,0,1,237.55,209.27Z"/><path class="cls-4" d="M247.17,212.25c.06,4.64-7.22,4.64-7.15,0S247.24,207.61,247.17,212.25Z"/><path class="cls-27" d="M230.65,185.4c.91,1-7.23,6.37-7.81,5.13C221.94,189.5,230.07,184.17,230.65,185.4Z"/><path class="cls-28" d="M201.48,145.62l-13.57,2.58c-3.07,1-.84,3.92.64,5.44L154.9,179.81,135,159a4.09,4.09,0,0,0-5,.47l-23.44,22a4.09,4.09,0,1,0,5.6,6l21.12-19.85c30.63,31,12.46,26.6,60.55-7.66,1.31,1.69,4,5.4,5.72,2.14l4.73-13.2A2.55,2.55,0,0,0,201.48,145.62Z"/><path class="cls-29" d="M197.48,149.3c0,2.81-4.42,2.81-4.38,0S197.52,146.49,197.48,149.3Z"/><path class="cls-29" d="M123.89,169.38c-7.32,6.67-8.21,5.7-.85-.95S131.25,162.74,123.89,169.38Z"/><path class="cls-29" d="M176.8,166.49c-11.4,8.83-12.21,7.79-.79-1S188.22,157.68,176.8,166.49Z"/><path class="cls-14" d="M106.13,181.89a4.12,4.12,0,0,0,3.19,6.65c2.38.74,13.52-11.73,15.32-12.87A41.31,41.31,0,0,1,106.13,181.89Z"/><path class="cls-14" d="M197,159.29a26.77,26.77,0,0,1-2.62,1.32l1.45,1.75c.31-.29.6-.59.9-.89-.3.3-.59.6-.9.89,1.13,1.38,3.16,1.22,3.7-.3l2.49-6.95A21.28,21.28,0,0,1,197,159.29Z"/><path class="cls-14" d="M148.21,183.29l4.73,5a4.09,4.09,0,0,0,4.71-.22l14-10.89C163.34,180.08,157.88,186.88,148.21,183.29Z"/><path class="cls-4" d="M155.14,190.31c-2.64,1.67-20.14-19.6-21.95-20.73l-20.1,18.88a5.5,5.5,0,1,1-7.54-8l23.44-22a5.43,5.43,0,0,1,7-.41L155,177.9l31.48-24.48c-2.25-1.91-2.08-6,1.13-6.61l13.56-2.58a4,4,0,0,1,4.36,5.11l-4.72,13.2c-1.56,3.67-5.63,2.18-7.28-.65l-35,27.26A5.49,5.49,0,0,1,155.14,190.31Zm-1.3-3.17c.91,3.65,37.95-28.4,39.08-28.33,1.58-1.34,3.1,1.85,4,2.66.41.48,1.06.6,1.26.11l4.72-13.2a1.12,1.12,0,0,0-1.16-1.37l-13.58,2.59c-.53.13-.42.85-.08,1.25,1.11,1.31,2.76,2.93,1.33,3.92-.74.56-33.6,26.14-33.69,26.19-1.11,2.68-20.81-20.91-21.73-20.9-2-3.19-24.89,22-26.57,22.5a2.68,2.68,0,0,0,0,3.78,2.78,2.78,0,0,0,3.72,0c.5-.46,21.09-19.82,21.17-19.88C133.49,163.56,152.92,187.09,153.84,187.14Zm47.64-41.52Z"/></g></svg>