<?xml version="1.0" encoding="utf-8"?>
<!-- Generator: Adobe Illustrator 25.0.1, SVG Export Plug-In . SVG Version: 6.00 Build 0)  -->
<svg version="1.1" id="Layer_1" xmlns="http://www.w3.org/2000/svg" xmlns:xlink="http://www.w3.org/1999/xlink" x="0px" y="0px"
	 viewBox="0 0 150 150" style="enable-background:new 0 0 150 150;" xml:space="preserve">
<style type="text/css">
	.st0{fill:#2BB673;}
	.st1{fill:#FFFFFF;}
	.st2{fill:#DCDDDE;}
</style>
<g>
	<g>
		<g>
			<circle class="st0" cx="39.5" cy="102.08" r="6.53"/>
			<path d="M39.5,109.86c-4.29,0-7.78-3.49-7.78-7.78s3.49-7.78,7.78-7.78c4.29,0,7.78,3.49,7.78,7.78S43.79,109.86,39.5,109.86z
				 M39.5,96.8c-2.91,0-5.28,2.37-5.28,5.28c0,2.91,2.37,5.28,5.28,5.28c2.91,0,5.28-2.37,5.28-5.28
				C44.78,99.17,42.41,96.8,39.5,96.8z"/>
		</g>
		<g>
			<path class="st1" d="M87.42,21.25H55.65c-8.67,0-15.7,7.03-15.7,15.7v75.32c0,8.67,7.03,15.7,15.7,15.7h45.32
				c8.67,0,15.7-7.03,15.7-15.7V50.5L87.42,21.25z"/>
			<path d="M100.97,129.21H55.65c-9.34,0-16.95-7.6-16.95-16.95V36.95C38.7,27.6,46.3,20,55.65,20h31.77c0.33,0,0.65,0.13,0.88,0.37
				l29.25,29.25c0.23,0.23,0.37,0.55,0.37,0.88v61.76C117.92,121.61,110.32,129.21,100.97,129.21z M55.65,22.49
				c-7.97,0-14.45,6.48-14.45,14.45v75.32c0,7.97,6.48,14.45,14.45,14.45h45.32c7.97,0,14.45-6.48,14.45-14.45V51.02L86.9,22.49
				H55.65z"/>
		</g>
		<g>
			<path class="st2" d="M87.42,21.25l29.25,29.25H93.66c-3.45,0-6.24-2.79-6.24-6.24V21.25z"/>
			<path d="M116.68,51.75C116.68,51.75,116.67,51.75,116.68,51.75H93.66c-4.13,0-7.49-3.36-7.49-7.49V21.25
				c0-0.5,0.3-0.96,0.77-1.15c0.47-0.19,1-0.09,1.36,0.27l29.2,29.2c0.26,0.23,0.43,0.56,0.43,0.94
				C117.92,51.19,117.37,51.75,116.68,51.75z M88.67,24.26v20.01c0,2.75,2.24,4.99,4.99,4.99h20.01L88.67,24.26z"/>
		</g>
		<g>
			<path class="st0" d="M40.09,64.43c-3.88,0-7.02,3.14-7.02,7.02v29.41h0.13c0.62-3.24,3.47-5.69,6.89-5.69h70.72V64.43H40.09z"/>
			<path d="M33.2,102.1h-0.13c-0.69,0-1.25-0.56-1.25-1.25V71.45c0-4.56,3.71-8.27,8.27-8.27h70.72c0.69,0,1.25,0.56,1.25,1.25
				v30.74c0,0.69-0.56,1.25-1.25,1.25H40.09c-2.76,0-5.15,1.97-5.67,4.67C34.31,101.68,33.8,102.1,33.2,102.1z M40.09,65.67
				c-3.18,0-5.78,2.59-5.78,5.78v24.83c1.5-1.47,3.55-2.35,5.78-2.35h69.47V65.67H40.09z"/>
		</g>
	</g>
	<g>
		<path class="st1" d="M50.95,85.63c-0.14-0.14-0.26-0.38-0.26-0.64c0-0.5,0.42-0.92,0.92-0.92c0.31,0,0.52,0.17,0.66,0.33
			c0.9,1.23,1.87,1.87,3.4,1.87c1.87,0,3.23-1.35,3.23-3.97V72.05c0-0.52,0.43-0.94,0.94-0.94c0.52,0,0.92,0.43,0.92,0.94v10.22
			c0,1.94-0.57,3.4-1.51,4.34c-0.92,0.9-2.17,1.37-3.64,1.37C53.46,87.99,51.97,87,50.95,85.63z"/>
		<path class="st1" d="M65.19,72.17c0-0.52,0.43-0.94,0.92-0.94h5.27c3.73,0,6.19,1.98,6.19,5.24v0.05c0,3.57-2.97,5.41-6.49,5.41
			h-4.01v5.01c0,0.52-0.43,0.94-0.94,0.94c-0.5,0-0.92-0.42-0.92-0.94V72.17z M71.14,80.22c2.74,0,4.53-1.46,4.53-3.64v-0.05
			c0-2.36-1.77-3.59-4.44-3.59h-4.18v7.27H71.14z"/>
		<path class="st1" d="M80.23,79.54v-0.05c0-4.53,3.33-8.55,8.29-8.55c2.5,0,4.13,0.66,5.64,1.77c0.21,0.17,0.38,0.43,0.38,0.76
			c0,0.52-0.42,0.94-0.92,0.94c-0.21,0-0.4-0.09-0.59-0.24c-1.18-0.9-2.5-1.51-4.58-1.51c-3.66,0-6.28,3.09-6.28,6.78v0.05
			c0,3.94,2.53,6.87,6.54,6.87c1.89,0,3.64-0.73,4.77-1.65V80.6h-4.44c-0.45,0-0.83-0.38-0.83-0.83c0-0.47,0.38-0.85,0.83-0.85h5.31
			c0.5,0,0.92,0.43,0.92,0.94v5.03c0,0.45-0.21,0.85-0.64,1.13c-1.51,1.11-3.54,2.01-6,2.01C83.44,88.04,80.23,84.26,80.23,79.54z"
			/>
	</g>
</g>
</svg>
