<svg xmlns="http://www.w3.org/2000/svg" viewBox="0 0 300 300"><defs><style>.cls-1{fill:none;}.cls-2{fill:#d9ae99;}.cls-3{fill:#e6cbbc;}.cls-4{fill:#c1785b;}.cls-5{fill:#2c130e;}.cls-6{fill:#a7c0df;}.cls-7{fill:#c7d5ea;}.cls-8{fill:#aad2f0;}.cls-9{fill:#69b8e7;}.cls-10{fill:#fff;}.cls-11{fill:#aacf78;}.cls-12{fill:#f37556;}.cls-13{fill:#f36d4e;}.cls-14{fill:#fccbb7;}.cls-15{fill:#f68f70;}.cls-16{fill:#ee3528;}.cls-17{fill:#dfebcc;}.cls-18{fill:#bbd791;}.cls-19{fill:#87bf40;}.cls-20{fill:#d1dded;}.cls-21{fill:#73bce8;}.cls-22{fill:#23a9e1;}.cls-23{fill:#f8f299;}.cls-24{fill:#f5eb3a;}.cls-25{fill:#ebf3fb;}</style></defs><g id="Layer_7" data-name="Layer 7"><rect class="cls-1" width="300" height="300"/></g><g id="Layer_3" data-name="Layer 3"><g id="Objects_1" data-name="Objects 1"><path class="cls-2" d="M259.6,240.2H39.76a8.31,8.31,0,0,1-8.3-8.3h0a8.31,8.31,0,0,1,8.3-8.31H259.6a8.31,8.31,0,0,1,8.31,8.31h0A8.31,8.31,0,0,1,259.6,240.2Z"/><path class="cls-3" d="M264.35,227.57c-1.25-1.78-233.71,3.45-232.26-1.83-.29-3.59,231,0,232.26-1.24C266,224.48,266.05,227.6,264.35,227.57Z"/><path class="cls-4" d="M259.6,235.26H39.76a8.33,8.33,0,0,1-7.93-5.84,8.46,8.46,0,0,0-.37,2.48h0a8.31,8.31,0,0,0,8.3,8.3H259.6a8.31,8.31,0,0,0,8.31-8.3h0a8.46,8.46,0,0,0-.38-2.48A8.31,8.31,0,0,1,259.6,235.26Z"/><path class="cls-5" d="M259.6,241.81H39.76a9.92,9.92,0,0,1,0-19.83H259.6C272.56,222.2,272.68,241.57,259.6,241.81ZM39.76,225.2c-8.72.14-8.86,13.23,0,13.39H259.6a6.7,6.7,0,1,0,0-13.39Z"/><rect class="cls-6" x="134.89" y="184.95" width="29.59" height="31.53"/><path class="cls-5" d="M164.47,218.08H134.89a1.61,1.61,0,0,1-1.61-1.6V185a1.61,1.61,0,0,1,1.61-1.61h29.58a1.61,1.61,0,0,1,1.61,1.61v31.53A1.61,1.61,0,0,1,164.47,218.08Zm-28-3.21h26.37V186.56H136.5Z"/><path class="cls-7" d="M189.18,223.55h-79c-7.65,0-7.69-11.69,0-11.73h79C196.82,211.85,196.87,223.52,189.18,223.55Z"/><path class="cls-6" d="M189.18,218.6h-79a5.86,5.86,0,0,1-5.32-3.39,5.85,5.85,0,0,0-.55,2.48h0a5.87,5.87,0,0,0,5.87,5.86h79a5.86,5.86,0,0,0,5.86-5.86h0a5.7,5.7,0,0,0-.55-2.48A5.86,5.86,0,0,1,189.18,218.6Z"/><path class="cls-5" d="M189.18,225.16h-79c-9.8-.17-9.84-14.77,0-14.95h79C199,210.38,199,225,189.18,225.16Zm-79-11.73c-5.54,0-5.59,8.48,0,8.51h79a4.26,4.26,0,0,0,0-8.51Z"/><path class="cls-7" d="M78.12,61.47H221.25a19,19,0,0,1,19,19v86.06a19,19,0,0,1-19,19H78.12a19,19,0,0,1-19-19V80.5A19,19,0,0,1,78.12,61.47Z"/><path class="cls-6" d="M232.4,180.66H67a7.89,7.89,0,0,1-7.89-7.89c-.45,6.06.42,12.5,7.89,12.83H232.4c7.4-.32,8.37-6.73,7.88-12.83A7.88,7.88,0,0,1,232.4,180.66Z"/><path class="cls-5" d="M232.4,187.21H67a9.51,9.51,0,0,1-9.5-9.49V69.35A9.51,9.51,0,0,1,67,59.86H232.4a9.5,9.5,0,0,1,9.49,9.49V177.72A9.5,9.5,0,0,1,232.4,187.21ZM67,63.08a6.28,6.28,0,0,0-6.28,6.27V177.72A6.28,6.28,0,0,0,67,184H232.4a6.27,6.27,0,0,0,6.27-6.27V69.35a6.27,6.27,0,0,0-6.27-6.27Z"/><path class="cls-5" d="M75.35,61.47H224a16.27,16.27,0,0,1,16.27,16.27v86a0,0,0,0,1,0,0H59.08a0,0,0,0,1,0,0v-86A16.27,16.27,0,0,1,75.35,61.47Z"/><path class="cls-5" d="M240.28,165.39c-1.65-1.59-183.12,3-182.8-1.61,0,0,0-95.57,0-95.57a8.36,8.36,0,0,1,8.35-8.35H233.54a8.36,8.36,0,0,1,8.35,8.35v95.57A1.61,1.61,0,0,1,240.28,165.39ZM60.69,162.17h178v-94a5.13,5.13,0,0,0-5.13-5.13H65.82a5.13,5.13,0,0,0-5.13,5.13Z"/><rect class="cls-8" x="66.34" y="69.67" width="166.68" height="85.39" rx="7.89"/><path class="cls-5" d="M229.75,156.66H69.61a4.88,4.88,0,0,1-4.88-4.87V72.94a4.89,4.89,0,0,1,4.88-4.88H229.75a4.89,4.89,0,0,1,4.88,4.88v78.85A4.88,4.88,0,0,1,229.75,156.66ZM69.61,71.27A1.66,1.66,0,0,0,68,72.94v78.85a1.66,1.66,0,0,0,1.66,1.66c1.65-1.58,162.17,3.06,161.8-1.66V72.94C231.78,68.21,71.26,72.85,69.61,71.27Z"/><path class="cls-9" d="M228.65,132c-.4,23.73-35.7,23.73-36.1,0C193,108.26,228.25,108.27,228.65,132Z"/><path class="cls-10" d="M215.9,148.61c-1-.39-1-71.12,0-71.52C216.85,77.48,216.85,148.22,215.9,148.61Z"/><path class="cls-10" d="M194.12,148.61c-1-.39-1-71.12,0-71.52C195.07,77.48,195.07,148.22,194.12,148.61Z"/><path class="cls-10" d="M172.34,148.61c-.94-.39-.94-71.12,0-71.52C173.29,77.48,173.29,148.22,172.34,148.61Z"/><path class="cls-10" d="M150.57,148.61c-.95-.39-.95-71.12,0-71.52C151.51,77.48,151.51,148.22,150.57,148.61Z"/><path class="cls-10" d="M128.79,148.61c-.95-.39-.95-71.12,0-71.52C129.74,77.48,129.74,148.22,128.79,148.61Z"/><path class="cls-10" d="M107,148.61c-1-.39-1-71.12,0-71.52C108,77.48,108,148.22,107,148.61Z"/><path class="cls-10" d="M85.23,148.61c-.94-.39-.94-71.12,0-71.52C86.18,77.48,86.18,148.22,85.23,148.61Z"/><path class="cls-10" d="M218.68,147.17c-.5-.49-136.83,1-136.72-.49C81.43,146.14,221.63,144.89,218.68,147.17Z"/><path class="cls-10" d="M218.68,135.9c-.5-.49-136.83.94-136.72-.49C81.43,134.87,221.63,133.62,218.68,135.9Z"/><path class="cls-10" d="M218.68,124.62c-.5-.49-136.83.94-136.72-.49C81.43,123.59,221.63,122.34,218.68,124.62Z"/><path class="cls-10" d="M218.68,113.35c-.5-.49-136.83.94-136.72-.5C81.43,112.31,221.63,111.07,218.68,113.35Z"/><path class="cls-10" d="M218.68,102.07c-.5-.49-136.83.94-136.72-.49C81.43,101,221.63,99.79,218.68,102.07Z"/><path class="cls-10" d="M218.68,90.8c-.5-.49-136.83.94-136.72-.5C81.43,89.76,221.63,88.52,218.68,90.8Z"/><path class="cls-10" d="M218.68,79.52C218.18,79,81.85,80.46,82,79,81.43,78.49,221.63,77.24,218.68,79.52Z"/><path class="cls-5" d="M143.17,113.71a1,1,0,0,1-.65-1.73l18.32-16.14A1,1,0,0,1,162,95.7l26,13.66,27.85-23.14a1,1,0,0,1,1.26,1.52L188.74,111.3a1,1,0,0,1-1.1.12l-26-13.65-17.81,15.69A1,1,0,0,1,143.17,113.71Z"/><path class="cls-11" d="M191.59,110.54c.07,4.53-7,4.53-7,0S191.66,106,191.59,110.54Z"/><path class="cls-5" d="M188.1,115c-5.85,0-5.85-8.93,0-9S194,115,188.1,115Zm0-7c-3.24-.05-3.24,5,0,5S191.35,108,188.1,108Z"/><path class="cls-11" d="M220,87c.06,4.53-7,4.53-7,0S220,82.46,220,87Z"/><path class="cls-5" d="M216.46,91.46c-5.86,0-5.86-8.93,0-9S222.31,91.43,216.46,91.46Zm0-7c-3.25,0-3.25,5,0,5S219.7,84.44,216.46,84.48Z"/><path class="cls-11" d="M165,96.35c.07,4.53-7,4.53-7,0S165.07,91.82,165,96.35Z"/><path class="cls-5" d="M161.51,100.83c-5.85,0-5.85-8.93,0-9S167.37,100.8,161.51,100.83Zm0-7c-3.24,0-3.24,5.05,0,5S164.76,93.8,161.51,93.85Z"/><path class="cls-11" d="M145.79,112.72c.07,4.53-7,4.53-7,0S145.86,108.19,145.79,112.72Z"/><path class="cls-5" d="M142.3,117.2c-5.86,0-5.86-8.93,0-9S148.16,117.17,142.3,117.2Zm0-7c-3.24,0-3.24,5,0,5S145.54,110.17,142.3,110.22Z"/><path class="cls-5" d="M153.94,144.08c-.35,0-17.69-5.17-18-5.21a1,1,0,0,1-.7-.78L128.65,99.7,114.13,124a1,1,0,0,1-.77.48c-1.22.43-27.75-34-28.56-34.36-2.42-9.44,28.71,33.41,28.36,31.66l15.17-25.4a1,1,0,0,1,1.82.34l6.92,40.41,17.14,5A1,1,0,0,1,153.94,144.08Z"/><path class="cls-12" d="M139.52,137.92c.07,4.79-7.45,4.79-7.38,0S139.59,133.13,139.52,137.92Z"/><path class="cls-5" d="M135.83,142.6c-6.12,0-6.12-9.33,0-9.36S142,142.57,135.83,142.6Zm0-7.38c-3.51-.05-3.51,5.45,0,5.4S139.33,135.17,135.83,135.22Z"/><path class="cls-12" d="M158.05,143.16c.07,4.79-7.45,4.79-7.38,0S158.12,138.37,158.05,143.16Z"/><path class="cls-5" d="M154.36,147.84c-6.12,0-6.12-9.33,0-9.36S160.48,147.81,154.36,147.84Zm0-7.38c-3.51-.05-3.51,5.45,0,5.41S157.86,140.41,154.36,140.46Z"/><path class="cls-12" d="M133.24,97.64c.07,4.79-7.46,4.79-7.38,0S133.31,92.85,133.24,97.64Z"/><path class="cls-5" d="M129.55,102.32c-6.12,0-6.12-9.33,0-9.36S135.67,102.29,129.55,102.32Zm0-7.38c-3.51,0-3.51,5.45,0,5.4S133.05,94.89,129.55,94.94Z"/><path class="cls-12" d="M88.89,89.51c.07,4.79-7.45,4.79-7.38,0S89,84.72,88.89,89.51Z"/><path class="cls-5" d="M85.2,94.19c-6.12,0-6.12-9.33,0-9.36S91.32,94.16,85.2,94.19Zm0-7.39c-3.51,0-3.51,5.46,0,5.41S88.7,86.76,85.2,86.8Z"/><path class="cls-12" d="M117,123.13c.07,4.79-7.46,4.79-7.39,0S117.05,118.34,117,123.13Z"/><path class="cls-5" d="M113.29,127.81c-6.12,0-6.12-9.33,0-9.36S119.4,127.78,113.29,127.81Zm0-7.38c-3.51-.05-3.51,5.45,0,5.4S116.79,120.38,113.29,120.43Z"/><path class="cls-13" d="M17.29,169.07l12.12,16.32a3.08,3.08,0,0,0,5-.07L45.82,169a3.07,3.07,0,0,0-2.52-4.83H40.83V126.42a3.06,3.06,0,0,0-3.07-3.07H25.09A3.07,3.07,0,0,0,22,126.42v37.75H19.76A3.07,3.07,0,0,0,17.29,169.07Z"/><path class="cls-14" d="M36.69,173.27c2.53-4.46,5.49-2.75,2.9,1.67S34.1,177.68,36.69,173.27Z"/><path class="cls-15" d="M37.21,177.73c-2.05,3.33-3.42,7.41-7.72,7.76a3.08,3.08,0,0,0,4.91-.17L45.82,169a3.09,3.09,0,0,0-1.55-4.68c-.29.6.14,2.36-.19,3C41.78,171.11,39.84,173.89,37.21,177.73Z"/><path class="cls-16" d="M32.71,132.44a44.11,44.11,0,0,1,7.47-7.92c-1-2.25-13.22-.78-15.09-1.17A3.07,3.07,0,0,0,22,126.42v32.3C23.55,149.18,26.78,140.16,32.71,132.44Z"/><path class="cls-5" d="M31.87,188.24C28.08,189.21,18.25,172,16,170c-2.52-3.2.43-8,4.41-7.47V126.42a4.69,4.69,0,0,1,4.68-4.68H37.76a4.69,4.69,0,0,1,4.68,4.68v36.14c4-.64,7.14,4,4.69,7.37C44.81,172.07,35.92,189.14,31.87,188.24ZM19.76,165.78a1.44,1.44,0,0,0-1.18,2.34h0c17.1,21.45,9.29,22.74,25.92,0a1.43,1.43,0,0,0-1.2-2.3c-1.33-.07-4.11.48-4.07-1.61-.8-.71,1.82-40.71-1.47-39.22H25.09a1.47,1.47,0,0,0-1.47,1.47v37.75C23.67,166.17,21.05,165.75,19.76,165.78Z"/><path class="cls-11" d="M283.71,80.78,271.64,64.53a3.07,3.07,0,0,0-5,.07L255.3,80.85a3.06,3.06,0,0,0,2.51,4.82h2.45v37.59a3.06,3.06,0,0,0,3.06,3.06h12.62a3.06,3.06,0,0,0,3.06-3.06V85.67h2.25A3.06,3.06,0,0,0,283.71,80.78Z"/><path class="cls-17" d="M264.39,76.61c-2.52,4.43-5.47,2.73-2.89-1.67S267,72.21,264.39,76.61Z"/><path class="cls-18" d="M263.87,72.16c2-3.32,3.41-7.38,7.69-7.73a3.07,3.07,0,0,0-4.89.17L255.3,80.85a3.06,3.06,0,0,0,1.54,4.66c.29-.59-.14-2.34.19-2.93C259.32,78.75,261.25,76,263.87,72.16Z"/><path class="cls-19" d="M268.35,117.27a43.66,43.66,0,0,1-7.43,7.88c1,2.24,13.16.78,15,1.17a3.06,3.06,0,0,0,3.06-3.06V91.09C277.48,100.6,274.26,109.57,268.35,117.27Z"/><path class="cls-5" d="M275.94,127.93H263.32a4.68,4.68,0,0,1-4.67-4.67v-36c-4,.64-7.11-4-4.67-7.34,2.3-2.13,11.16-19.07,15.13-18.24,3.9-1,13.59,16.14,15.89,18.13,2.5,3.19-.42,8-4.39,7.45v36A4.68,4.68,0,0,1,275.94,127.93Zm-6.76-63c-.65-1.2-12.18,16.71-12.56,16.86a1.43,1.43,0,0,0-.1,1.51c.84,1.84,5.35-.52,5.35,2.39.79.69-1.81,40.55,1.45,39h12.62a1.46,1.46,0,0,0,1.46-1.45V85.67a1.61,1.61,0,0,1,1.6-1.61h2.25a1.43,1.43,0,0,0,1.17-2.32h0C282,81.58,269.8,63.77,269.18,64.91Z"/><path class="cls-7" d="M246.55,223H216.11C216.07,202.48,246.6,202.49,246.55,223Z"/><path class="cls-5" d="M246.55,224.55H216.11a1.67,1.67,0,0,1-1.6-2c.39-22.11,33.26-22.11,33.65,0A1.67,1.67,0,0,1,246.55,224.55Zm-28.77-3.21h27.11C243.5,205.16,219.16,205.17,217.78,221.34Z"/><rect class="cls-20" x="226.94" y="139.64" width="7.27" height="21.6" transform="translate(499.99 93.77) rotate(135)"/><path class="cls-5" d="M235.64,162.25a1.56,1.56,0,0,1-1.13-.47l-15.28-15.27a1.61,1.61,0,0,1,0-2.28l5.14-5.13a1.6,1.6,0,0,1,2.27,0l15.28,15.27a1.61,1.61,0,0,1,.47,1.14c.33,1-5.14,5.55-5.61,6.27A1.58,1.58,0,0,1,235.64,162.25Zm-13-16.88,13,13,2.87-2.86-13-13Z"/><path class="cls-21" d="M258.05,177.92h0a6,6,0,0,0,0-8.42l-19.62-19.63L230,158.29l19.63,19.63A6,6,0,0,0,258.05,177.92Z"/><path class="cls-22" d="M232.72,155.58l19.05,19.06a6,6,0,0,0,7.86.5,5.92,5.92,0,0,1-1.58,2.78h0a6,6,0,0,1-8.42,0L230,158.29Z"/><path class="cls-5" d="M253.84,181.27a7.54,7.54,0,0,1-5.34-2.21l-19.63-19.63a1.61,1.61,0,0,1-.47-1.14c-.73-.6,8.63-9,8.89-9.56a1.6,1.6,0,0,1,2.27,0l19.63,19.63a7.59,7.59,0,0,1,0,10.7h0A7.55,7.55,0,0,1,253.84,181.27Zm-21.56-23,18.49,18.49a4.35,4.35,0,0,0,6.15,0h0a4.38,4.38,0,0,0,0-6.15l-18.49-18.49Z"/><path class="cls-23" d="M212,154.93c-30.45-.55-30.45-45.81,0-46.35C242.43,109.13,242.42,154.39,212,154.93Zm0-38.68c-20.38.36-20.37,30.65,0,31C232.35,146.89,232.35,116.61,212,116.25Z"/><path class="cls-24" d="M224.77,145.6c-14.67,8.37-29.26-.64-36-14.27-.63,27.93,40.87,32,45.92,4.84A31.63,31.63,0,0,1,224.77,145.6Z"/><path class="cls-10" d="M224.77,115.67a38.32,38.32,0,0,1,8.38,6.68c-5.25-13.25-24.28-18.22-35.36-8.91C206,109.7,216.76,111,224.77,115.67Z"/><path class="cls-5" d="M212,156.54c-32.57-.59-32.56-49,0-49.57C244.54,107.56,244.53,156,212,156.54Zm0-46.35c-28.34.51-28.34,42.63,0,43.13C240.31,152.81,240.31,110.69,212,110.19Zm0,38.68c-22.49-.41-22.49-33.83,0-34.23C234.46,115,234.46,148.47,212,148.87Zm0-31c-18.26.32-18.26,27.47,0,27.79C230.24,145.33,230.23,118.18,212,117.86Z"/><path class="cls-25" d="M211.08,140.71c-4.44-2.3-7.89-5.17-8.58-10.45-.25-1.92-3.16-2.07-3.11,0C199.08,141.66,215,147.25,211.08,140.71Z"/><path class="cls-25" d="M214.24,122.33c3.18,1.65,5.64,3.7,6.13,7.47.18,1.37,2.26,1.47,2.23,0C222.88,121.8,211.48,117.58,214.24,122.33Z"/><path class="cls-5" d="M172.9,129.85c.9,1.21,2.08,4.35,4,2.67,1.94-1.16-.66-3.48-1.29-4.62,1-.22,3.58-.73,2.07-2.15l-6.84-4.46a1,1,0,0,0-1.56.89l.39,8.43C170.13,132.7,172.16,130.46,172.9,129.85Z"/></g></g></svg>