<svg xmlns="http://www.w3.org/2000/svg" viewBox="0 0 300 300"><defs><style>.cls-1{fill:none;}.cls-2{fill:#d9ae99;}.cls-3{fill:#e6cbbc;}.cls-4{fill:#c1785b;}.cls-5{fill:#2c130e;}.cls-6{fill:#ee6730;}.cls-7{fill:#f28756;}.cls-8{fill:#fcd6c0;}.cls-9{fill:#f37556;}.cls-10{fill:#ef3e2c;}.cls-11{fill:#fdddcf;}.cls-12{fill:#f8f297;}.cls-13{fill:#f5eb3a;}.cls-14{fill:#8dc6ec;}.cls-15{fill:#d1dded;}.cls-16{fill:#73bce8;}.cls-17{fill:#23a9e1;}.cls-18{fill:#f8f299;}.cls-19{fill:#fff;}.cls-20{fill:#ebf3fb;}.cls-21{fill:#fad00a;}.cls-22{fill:#9477b6;}.cls-23{fill:#87bf40;}.cls-24{fill:#f37152;}.cls-25{fill:#75bce8;}.cls-26{fill:#ad97c8;}</style></defs><g id="Layer_7" data-name="Layer 7"><rect class="cls-1" width="300" height="300"/></g><g id="Layer_1" data-name="Layer 1"><g id="Objects_4" data-name="Objects 4"><path class="cls-2" d="M253.15,265.49H59.85a7.3,7.3,0,0,1-7.3-7.31h0a7.3,7.3,0,0,1,7.3-7.3h193.3a7.3,7.3,0,0,1,7.3,7.3h0A7.3,7.3,0,0,1,253.15,265.49Z"/><path class="cls-3" d="M257.33,254.38c-1.1-1.57-205.5,3-204.23-1.61-.25-3.16,203.15,0,204.23-1.09C258.81,251.66,258.82,254.41,257.33,254.38Z"/><path class="cls-4" d="M253.15,261.14H59.85a7.32,7.32,0,0,1-7-5.13,7.45,7.45,0,0,0-.32,2.17h0a7.3,7.3,0,0,0,7.3,7.31h193.3a7.3,7.3,0,0,0,7.3-7.31h0a7.45,7.45,0,0,0-.33-2.17A7.31,7.31,0,0,1,253.15,261.14Z"/><path class="cls-5" d="M253.15,266.9H59.85a8.72,8.72,0,1,1,0-17.43h193.3C264.54,249.65,264.65,266.69,253.15,266.9ZM59.85,252.3c-7.67.11-7.79,11.63,0,11.77h193.3a5.89,5.89,0,1,0,0-11.77Z"/><path class="cls-6" d="M259.19,239.22c-16.48-.3-16.48-24.78,0-25.07C275.66,214.44,275.66,238.93,259.19,239.22Zm0-20.59c-10.59.19-10.59,15.92,0,16.11C269.77,234.55,269.77,218.82,259.19,218.63Z"/><path class="cls-5" d="M259.19,240.63c-18.34-.33-18.33-27.57,0-27.9C277.52,213.06,277.52,240.31,259.19,240.63Zm0-25.07c-14.62.26-14.62,22,0,22.25C273.8,237.54,273.8,215.82,259.19,215.56Zm0,20.59c-12.45-.22-12.44-18.71,0-18.93C271.63,217.44,271.63,235.93,259.19,236.15Zm0-16.11c-8.73.16-8.73,13.13,0,13.28C267.91,233.17,267.91,220.2,259.19,220Z"/><path class="cls-7" d="M249.29,249.53c-8.95-.29-24.11,2.88-24.54-10.52V209.77a4.36,4.36,0,0,1,4.35-4.36h26.36a4.36,4.36,0,0,1,4.35,4.36V239A10.52,10.52,0,0,1,249.29,249.53Z"/><path class="cls-6" d="M255.46,205.41H254v27.83a10.52,10.52,0,0,1-10.52,10.52c-3-.26-15.4.67-18-.78,3.19,9.19,16.45,6.06,23.76,6.55A10.52,10.52,0,0,0,259.81,239V209.77A4.36,4.36,0,0,0,255.46,205.41Z"/><path class="cls-5" d="M249.29,251h-14A12,12,0,0,1,223.34,239V209.77A5.77,5.77,0,0,1,229.1,204h26.36a5.77,5.77,0,0,1,5.76,5.77V239A12,12,0,0,1,249.29,251ZM229.1,206.83a2.94,2.94,0,0,0-2.94,2.94V239a9.12,9.12,0,0,0,9.11,9.11c7.8-.45,22.89,3,23.12-9.11C256.4,200,268.84,207.48,229.1,206.83Z"/><path class="cls-8" d="M234.13,215.07c0,6.16-5.45,6.16-5.47,0S234.11,208.91,234.13,215.07Z"/><path class="cls-9" d="M186.52,157.54c9.69,20.91-6.91,46.55-30.1,46-52-2.92-36.73-80.24,12.42-63.28l7.74-10.56c-46.06-22.25-88.43,36.81-52.44,73.27,36.94,36.38,96.35-7.33,72.77-53.42Z"/><path class="cls-10" d="M199,187.16a46,46,0,0,0-2.12-37.59l-10.39,8c4.51,9.74,3.31,22.69-2.75,31.35A55.07,55.07,0,0,0,199,187.16Z"/><path class="cls-9" d="M170.11,170.12a13.73,13.73,0,0,1-13.69,14.29c-18.11-.34-17.95-27.29.16-27.4l8.36-11.4c-39-11.44-49.19,49.87-8.52,51.59,18.07.36,31.39-18.89,24.87-35.65Z"/><path class="cls-10" d="M181.29,161.55l-11.18,8.57a13.75,13.75,0,0,1-8.06,13.07c4.08,3.1,9,4.54,14.18,5.09A26.68,26.68,0,0,0,181.29,161.55Z"/><path class="cls-9" d="M164.65,170.7c-.18,10.83-16.28,10.82-16.46,0C148.37,159.88,164.47,159.88,164.65,170.7Z"/><path class="cls-10" d="M158.8,162.82c-8.19,1.53-8.7,13.72-.69,15.94C166.31,177.23,166.82,165,158.8,162.82Z"/><path class="cls-9" d="M218.83,144.34a67.05,67.05,0,0,0-4.22-8.33l-10.23,7.84c30.37,55.46-41.63,110.08-86.81,65.7-43.91-44.61,9.11-116.2,64.57-87.42l7.63-10.4C120.44,74.52,54.1,161.78,108.52,218.6,161.67,270.33,246.73,213,218.83,144.34Z"/><path class="cls-10" d="M224.16,170.7A67.43,67.43,0,0,0,214.61,136l-10.23,7.84a55.37,55.37,0,0,1,5.26,40.59,48.45,48.45,0,0,0,14.05-5.72A68.8,68.8,0,0,0,224.16,170.7Z"/><path class="cls-11" d="M102.08,136.12c-3.44,5.88-1.48,7,1.89,1.09S105.46,130.2,102.08,136.12Z"/><path class="cls-11" d="M120.55,148.26c-3.44,5.89-1.49,7,1.89,1.1S123.92,142.34,120.55,148.26Z"/><path class="cls-11" d="M137.41,158.41c-3.44,5.88-1.49,7,1.89,1.09S140.78,152.49,137.41,158.41Z"/><path class="cls-5" d="M156.42,217.77c-62.22-1.87-62.21-92.27,0-94.14,3.17-.4,23.35,2.61,21.3,6.92L170,141.12a1.42,1.42,0,0,1-1.68.47c-20-8.63-43.76,7.24-43.33,29.11.75,41.33,62.16,41.33,62.89,0a31.09,31.09,0,0,0-2.63-12.59,1.42,1.42,0,0,1,.43-1.69l10.39-8a1.43,1.43,0,0,1,2.12.47C214.91,178.73,190.68,218.9,156.42,217.77Zm0-91.31c-38.52-.95-59.2,49-31.28,75.53,35,34.63,92.06-5.63,71.27-50.25L188.25,158c9.18,21.82-8.09,47.45-31.83,47-53.41-2.84-39.1-82.34,11.92-66.41l6.09-8.3A43.81,43.81,0,0,0,156.42,126.46Z"/><path class="cls-5" d="M156.42,198.62c-36.68-.66-36.68-55.17,0-55.83,2,.14,11.51.3,9.66,3.66l-8.36,11.39a1.44,1.44,0,0,1-1.3.58c-16.14.28-16.15,24.29,0,24.57a12.31,12.31,0,0,0,12.29-12.29,1.75,1.75,0,0,1,.54-1.7l11.18-8.57a1.42,1.42,0,0,1,2.18.63C189.48,178.77,175.46,199,156.42,198.62Zm0-53c-33,.59-33,49.58,0,50.17,16.35.24,28.79-16.26,24.14-31.9l-9,6.92a15.13,15.13,0,0,1-15.11,15c-19.53-.31-20-29.21-.56-30.22l6.75-9.21A25.23,25.23,0,0,0,156.42,145.62Z"/><path class="cls-5" d="M156.42,180.35c-12.68-.23-12.68-19.07,0-19.29C169.1,161.29,169.09,180.13,156.42,180.35Zm0-16.46c-9,.16-9,13.47,0,13.63C165.38,177.36,165.38,164,156.42,163.89Z"/><path class="cls-5" d="M156.42,239.86c-75.17-1-95.74-102.7-26.92-132.87a69.36,69.36,0,0,1,61,3.51,1.43,1.43,0,0,1,.45,2.07L183.28,123a1.41,1.41,0,0,1-1.8.41c-33.9-19.32-79.88,8.23-78.59,47.33-1.15,46.58,59.24,71.62,91.38,37.84,16.84-16.33,20.53-43.74,8.87-64a1.43,1.43,0,0,1,.38-1.82l10.23-7.84c2.58-1.92,5.26,7.19,6.38,8.89h0C239.81,188.08,204.91,240.78,156.42,239.86Zm0-135.48c-72.1.94-91.82,98.5-25.82,127.43,57.88,24.46,114.49-39,83.59-93.7l-8,6.13c29.62,56.94-43.85,111.36-89.63,66.31C72,165.35,124.81,92.3,181.72,120.32l5.95-8.13A66,66,0,0,0,156.42,104.38Z"/><path class="cls-12" d="M213.83,98.64,228.37,112,160.32,170.8a3.33,3.33,0,0,1-4.7-4.7Z"/><path class="cls-13" d="M165.74,154.38,155.62,166.1a3.33,3.33,0,0,0,4.7,4.7l52-44.92C197,135.66,181.4,145.1,165.74,154.38Z"/><polygon class="cls-12" points="200.92 112.87 213.25 98.64 211.5 75.95 198.41 98.85 200.92 112.87"/><path class="cls-13" d="M200.84,112.42l.08.45,12.33-14.23-1.09-14.1C208.28,93.8,204.26,103,200.84,112.42Z"/><polygon class="cls-12" points="228.37 112.02 248.74 112.61 228.37 127.15 213.27 124.8 228.37 112.02"/><path class="cls-13" d="M228.37,112l-15.1,12.78,1.83.29c8-4.29,16.1-8.48,24.12-12.76Z"/><path class="cls-5" d="M158.18,173.06a4.77,4.77,0,0,1-3.63-7.89l58.21-67.45a1.41,1.41,0,0,1,2-.12L229.33,111a1.44,1.44,0,0,1,.46,1.07c.21,1.64-67.94,58.66-68.55,59.82A4.65,4.65,0,0,1,158.18,173.06Zm55.76-72.39c-81.74,93.49-74.4,86.9,12.31,11.32Z"/><path class="cls-5" d="M200.92,114.29a1.42,1.42,0,0,1-1.39-1.17L197,99.1a1.42,1.42,0,0,1,.16-.95c.75-.34,13.12-25.25,14.63-23.58,2.05-.88,2.34,23.36,2.85,24a1.46,1.46,0,0,1-.35,1L202,113.8A1.44,1.44,0,0,1,200.92,114.29Zm-1-15.19,1.9,10.61,10-11.55-1.35-17.52Z"/><path class="cls-5" d="M228.37,128.56c-26.19-3.46-17.2-2.24-.91-17.62a1.43,1.43,0,0,1,.95-.33l20.37.58a1.43,1.43,0,0,1,.78,2.57L229.2,128.3A1.46,1.46,0,0,1,228.37,128.56Zm-11.82-4.68L228,125.67,244.5,113.9l-15.63-.45Z"/><path class="cls-14" d="M46.17,195.26c.36,20.86,31.39,20.86,31.75,0C77.56,174.4,46.52,174.4,46.17,195.26Z"/><rect class="cls-15" x="41.29" y="201.98" width="6.39" height="18.99" transform="translate(162.57 30.49) rotate(45)"/><path class="cls-5" d="M40,221.87c-.87.29-4.89-4.52-5.52-4.93a1.42,1.42,0,0,1,0-2l13.43-13.43a1.4,1.4,0,0,1,2,0L54.46,206a1.41,1.41,0,0,1,0,2L41,221.46A1.44,1.44,0,0,1,40,221.87Zm-2.52-5.93L40,218.46,51.46,207l-2.52-2.52Z"/><path class="cls-16" d="M20.32,235.64h0a5.22,5.22,0,0,1,0-7.4L37.58,211l7.4,7.4L27.72,235.64A5.22,5.22,0,0,1,20.32,235.64Z"/><path class="cls-17" d="M42.6,216,25.84,232.76a5.24,5.24,0,0,1-6.9.44,5.22,5.22,0,0,0,1.38,2.44h0a5.22,5.22,0,0,0,7.4,0L45,218.38Z"/><path class="cls-5" d="M24,238.59a6.6,6.6,0,0,1-4.7-2h0a6.68,6.68,0,0,1,0-9.4L36.58,210a1.42,1.42,0,0,1,2,0c.29.45,8.4,7.88,7.82,8.4a1.38,1.38,0,0,1-.42,1L28.72,236.64A6.57,6.57,0,0,1,24,238.59ZM37.58,213,21.32,229.24a3.84,3.84,0,0,0,0,5.4h0a3.83,3.83,0,0,0,5.41,0L43,218.38Z"/><path class="cls-18" d="M40.46,195.05c.48-26.78,40.28-26.77,40.76,0C80.74,221.83,40.94,221.83,40.46,195.05Zm6.75,0c.32,17.92,26.95,17.92,27.26,0C74.15,177.13,47.52,177.14,47.21,195.05Z"/><path class="cls-13" d="M49.59,207.23c12.89,7.36,25.73-.57,31.62-12.55.55,24.56-35.93,28.15-40.37,4.26A27.79,27.79,0,0,0,49.59,207.23Z"/><path class="cls-19" d="M49.59,180.91a33.65,33.65,0,0,0-7.37,5.87c4.61-11.65,21.35-16,31.09-7.83C66.13,175.66,56.63,176.83,49.59,180.91Z"/><path class="cls-5" d="M60.84,216.84c-28.64-.51-28.63-43.07,0-43.58C89.48,173.78,89.47,216.33,60.84,216.84Zm0-40.75c-24.92.45-24.92,37.48,0,37.92C85.76,213.57,85.76,176.53,60.84,176.09Zm0,34c-19.78-.35-19.77-29.74,0-30.1C80.62,180.36,80.61,209.75,60.84,210.1Zm0-27.27c-16.06.29-16.06,24.16,0,24.44C76.9,207,76.9,183.12,60.84,182.83Z"/><path class="cls-20" d="M61.62,202.92c3.91-2,6.94-4.54,7.54-9.18.22-1.69,2.79-1.82,2.75,0C72.17,203.76,58.19,208.67,61.62,202.92Z"/><path class="cls-20" d="M58.84,186.77c-2.79,1.44-5,3.24-5.39,6.56-.15,1.21-2,1.3-2,0C51.24,186.3,61.27,182.59,58.84,186.77Z"/><path class="cls-17" d="M251.15,187.05c-3.47-1.22,2.4-7.46,4.41-8.8-2.18-6.53,3.35-12,10.07-12.52.27-6.21,7.22-10.73,12.61-6.92a1.09,1.09,0,1,1-1.2,1.82c-4-2.81-8.82.48-9.21,4.94,5.09.17,6.32,4.14,3.84,6.29-1.66,1.51-5.58-1-5.9-4-4.42.23-9.73,4.11-8.32,9.16,9.66-4.14,7.67,9.49-.71,3-2.07,1.56-4.26,4-4.51,6A1.09,1.09,0,0,1,251.15,187.05Zm7.52-8.16c.62.6,2.83,1,3.06.42C261.8,178.21,260.45,178.14,258.67,178.89Zm9.3-11.14c.21,1.06,1.55,2.66,2.48,2.31C271.25,168.86,270,167.81,268,167.75Z"/><path class="cls-17" d="M72.31,146.64a1.1,1.1,0,0,1-.79-1.84c3-3,1-7.61-2.74-8.69-1,4.48-4.83,4.9-6.36,2.3-1.09-1.69,1.66-4.88,4.42-4.74.37-3.69-1.84-8.88-6.34-8.59.45,2.32-.36,6.31-3.32,6.47-2.69-.71-1.54-6.55.59-7.79A10.36,10.36,0,0,0,52.9,119a1.08,1.08,0,0,1-.61-1.41C54.1,115.15,59,121,59.8,123c6.14-.68,9.65,5.08,9.21,10.94C74.68,135,77.78,143.53,72.31,146.64ZM66.6,135.88c-.84,0-2.34,1-2.19,1.64C65.25,138.27,66.22,137.4,66.6,135.88Zm-9.35-6.43Zm1.21-3.28a5.24,5.24,0,0,0-.67,2.59A4.17,4.17,0,0,0,58.46,126.17Z"/><path class="cls-17" d="M242.12,89.36c-2.49-.71-.63-4.08,1.2-4.81,0-9.61,11.8-14.87,8.57-9.75a11.52,11.52,0,0,0-6.35,9c9.11-1,2.57,10.57-1.79,3.1C242.62,87.58,243.78,89.28,242.12,89.36Zm3.6-3.41c.33,1.09,2,1.81,2.27.44C247.68,85.69,246.64,85.8,245.72,86Z"/><path class="cls-21" d="M86.38,85.52c-5.31-2,1.31-10.34-6.06-12.17-1.8-.23-3.66-2.1-3.46-4-.28-1.16,0-7.2-1.23-7.65a1.09,1.09,0,0,1-1.07-1.11c1-2.77,4.16.1,4,2.89.17,1,.27,6.19.71,7,.39.59,1.7.79,2.48,1.1A7.5,7.5,0,0,1,86.33,80c-.16,1.85-.2,3,.6,3.48A1.1,1.1,0,0,1,86.38,85.52Z"/><path class="cls-21" d="M187,73.82c-2.9-1.07-.18-4.86,1.31-6a5.37,5.37,0,0,0,1.27-7.42c-1.22-1.34-1.42-4,0-5.3.54-1.06,4.66-5.49,4-6.62a1.08,1.08,0,0,1-.1-1.53c2.55-1.4,3.12,2.72,1.19,4.81-.51.86-3.81,4.88-4,5.77-.09.7.78,1.7,1.18,2.45a7.49,7.49,0,0,1-2,9.39C186.5,71.9,189.26,73.35,187,73.82Z"/><path class="cls-21" d="M44.41,157.06a1.1,1.1,0,0,1-1-.77c-2.69-8.74-12.88-2.44-13.74-9.71,0-.55-.21-.68-.69-1.08a5.93,5.93,0,0,1-2.25-5.78,1.09,1.09,0,0,1,2.14.41A3.75,3.75,0,0,0,30,143.56c2.8,1.57.65,4.05,3.65,4.83,4.94.06,10.32,2,11.8,7.26A1.09,1.09,0,0,1,44.41,157.06Z"/><path class="cls-6" d="M121.89,73.07c-5.87,0-9.11-3.23-9.11-9.11,0-2.2-3.44-2.21-3.4,0C109,76.15,99,70.75,98.56,74.78c.46,4,10.48-1.34,10.82,10.81a1.7,1.7,0,0,0,3.4,0c0-5.87,3.24-9.11,9.11-9.11A1.71,1.71,0,0,0,121.89,73.07Z"/><path class="cls-6" d="M281.79,139.48c-2.69,0-4.18-1.48-4.18-4.17a.78.78,0,0,0-1.56,0c-.15,5.52-4.55,3.07-4.95,4.95.38,1.87,4.82-.56,4.95,5a.78.78,0,0,0,1.56,0c0-2.69,1.49-4.17,4.18-4.17A.78.78,0,0,0,281.79,139.48Z"/><path class="cls-13" d="M135.82,48.38c-3.28,0-5.08-1.81-5.08-5.09a1,1,0,0,0-1.91,0c-.19,6.77-5.68,3.77-6,6,.33,2.26,5.86-.72,6,6a1,1,0,0,0,1.91,0c0-3.28,1.8-5.09,5.08-5.09A1,1,0,0,0,135.82,48.38Z"/><path class="cls-22" d="M42.51,129.39c-8.75-.46-11.77,2.33-4.85-7a1,1,0,0,1,1.68,0l4,5.34A1,1,0,0,1,42.51,129.39Z"/><path class="cls-23" d="M154.3,65.13c-5.42-.28-7.48,1.46-3.07-4.41a.66.66,0,0,1,1.07,0l2.53,3.38A.66.66,0,0,1,154.3,65.13Z"/><path class="cls-23" d="M257.49,130.25c-5.41-.28-7.47,1.46-3.07-4.41a.66.66,0,0,1,1.07,0l2.53,3.37A.67.67,0,0,1,257.49,130.25Z"/><path class="cls-24" d="M71.49,82.24c.06,3.94-6.13,3.94-6.07,0S71.55,78.31,71.49,82.24Z"/><path class="cls-24" d="M275.67,109.84c.06,3.93-6.13,3.93-6.07,0S275.73,105.9,275.67,109.84Z"/><path class="cls-24" d="M72.73,49.18c1.59,5.49-6.74,8-8.38,2.47S71.09,43.71,72.73,49.18Z"/><path class="cls-25" d="M204.09,39.42c-2,4.68-9.32,1.42-7.18-3.2S206.23,34.79,204.09,39.42Z"/><path class="cls-26" d="M70.68,107.08c0,2.88-4.49,2.88-4.44,0S70.72,104.2,70.68,107.08Z"/></g></g></svg>