<?xml version="1.0" encoding="utf-8"?>
<!-- Generator: Adobe Illustrator 25.0.1, SVG Export Plug-In . SVG Version: 6.00 Build 0)  -->
<svg version="1.1" xmlns="http://www.w3.org/2000/svg" xmlns:xlink="http://www.w3.org/1999/xlink" x="0px" y="0px"
	 viewBox="0 0 150 150" style="enable-background:new 0 0 150 150;" xml:space="preserve">
<style type="text/css">
	.st0{display:none;}
	.st1{display:inline;}
	.st2{fill:#2BB673;}
	.st3{fill:#FFFFFF;}
	.st4{fill:#DCDDDE;}
	.st5{fill:#00A0DC;}
	.st6{fill:#F7921E;}
</style>
<g id="Layer_1">
</g>
<g id="Layer_2">
	<g class="st0">
		<g class="st1">
			<g>
				<circle class="st2" cx="39.5" cy="102.08" r="6.53"/>
				<path d="M39.5,109.86c-4.29,0-7.78-3.49-7.78-7.78s3.49-7.78,7.78-7.78c4.29,0,7.78,3.49,7.78,7.78S43.79,109.86,39.5,109.86z
					 M39.5,96.8c-2.91,0-5.28,2.37-5.28,5.28c0,2.91,2.37,5.28,5.28,5.28c2.91,0,5.28-2.37,5.28-5.28
					C44.78,99.17,42.41,96.8,39.5,96.8z"/>
			</g>
			<g>
				<path class="st3" d="M87.42,21.25H55.65c-8.67,0-15.7,7.03-15.7,15.7v75.32c0,8.67,7.03,15.7,15.7,15.7h45.32
					c8.67,0,15.7-7.03,15.7-15.7V50.5L87.42,21.25z"/>
				<path d="M100.97,129.21H55.65c-9.34,0-16.95-7.6-16.95-16.95V36.95C38.7,27.6,46.3,20,55.65,20h31.77
					c0.33,0,0.65,0.13,0.88,0.37l29.25,29.25c0.23,0.23,0.37,0.55,0.37,0.88v61.76C117.92,121.61,110.32,129.21,100.97,129.21z
					 M55.65,22.49c-7.97,0-14.45,6.48-14.45,14.45v75.32c0,7.97,6.48,14.45,14.45,14.45h45.32c7.97,0,14.45-6.48,14.45-14.45V51.02
					L86.9,22.49H55.65z"/>
			</g>
			<g>
				<path class="st4" d="M87.42,21.25l29.25,29.25H93.66c-3.45,0-6.24-2.79-6.24-6.24V21.25z"/>
				<path d="M116.68,51.75C116.68,51.75,116.67,51.75,116.68,51.75H93.66c-4.13,0-7.49-3.36-7.49-7.49V21.25
					c0-0.5,0.3-0.96,0.77-1.15c0.47-0.19,1-0.09,1.36,0.27l29.2,29.2c0.26,0.23,0.43,0.56,0.43,0.94
					C117.92,51.19,117.37,51.75,116.68,51.75z M88.67,24.26v20.01c0,2.75,2.24,4.99,4.99,4.99h20.01L88.67,24.26z"/>
			</g>
			<g>
				<path class="st2" d="M40.09,64.43c-3.88,0-7.02,3.14-7.02,7.02v29.41h0.13c0.62-3.24,3.47-5.69,6.89-5.69h70.72V64.43H40.09z"/>
				<path d="M33.2,102.1h-0.13c-0.69,0-1.25-0.56-1.25-1.25V71.45c0-4.56,3.71-8.27,8.27-8.27h70.72c0.69,0,1.25,0.56,1.25,1.25
					v30.74c0,0.69-0.56,1.25-1.25,1.25H40.09c-2.76,0-5.15,1.97-5.67,4.67C34.31,101.68,33.8,102.1,33.2,102.1z M40.09,65.67
					c-3.18,0-5.78,2.59-5.78,5.78v24.83c1.5-1.47,3.55-2.35,5.78-2.35h69.47V65.67H40.09z"/>
			</g>
		</g>
		<g class="st1">
			<path class="st3" d="M50.95,85.63c-0.14-0.14-0.26-0.38-0.26-0.64c0-0.5,0.42-0.92,0.92-0.92c0.31,0,0.52,0.17,0.66,0.33
				c0.9,1.23,1.87,1.87,3.4,1.87c1.87,0,3.23-1.35,3.23-3.97V72.05c0-0.52,0.43-0.94,0.94-0.94c0.52,0,0.92,0.43,0.92,0.94v10.22
				c0,1.94-0.57,3.4-1.51,4.34c-0.92,0.9-2.17,1.37-3.64,1.37C53.46,87.99,51.97,87,50.95,85.63z"/>
			<path class="st3" d="M65.19,72.17c0-0.52,0.43-0.94,0.92-0.94h5.27c3.73,0,6.19,1.98,6.19,5.24v0.05c0,3.57-2.97,5.41-6.49,5.41
				h-4.01v5.01c0,0.52-0.43,0.94-0.94,0.94c-0.5,0-0.92-0.42-0.92-0.94V72.17z M71.14,80.22c2.74,0,4.53-1.46,4.53-3.64v-0.05
				c0-2.36-1.77-3.59-4.44-3.59h-4.18v7.27H71.14z"/>
			<path class="st3" d="M80.23,79.54v-0.05c0-4.53,3.33-8.55,8.29-8.55c2.5,0,4.13,0.66,5.64,1.77c0.21,0.17,0.38,0.43,0.38,0.76
				c0,0.52-0.42,0.94-0.92,0.94c-0.21,0-0.4-0.09-0.59-0.24c-1.18-0.9-2.5-1.51-4.58-1.51c-3.66,0-6.28,3.09-6.28,6.78v0.05
				c0,3.94,2.53,6.87,6.54,6.87c1.89,0,3.64-0.73,4.77-1.65V80.6h-4.44c-0.45,0-0.83-0.38-0.83-0.83c0-0.47,0.38-0.85,0.83-0.85
				h5.31c0.5,0,0.92,0.43,0.92,0.94v5.03c0,0.45-0.21,0.85-0.64,1.13c-1.51,1.11-3.54,2.01-6,2.01
				C83.44,88.04,80.23,84.26,80.23,79.54z"/>
		</g>
	</g>
	<g class="st0">
		<g class="st1">
			<g>
				<circle class="st5" cx="39.8" cy="101.98" r="6.52"/>
				<path d="M39.8,109.75c-4.28,0-7.77-3.48-7.77-7.77s3.48-7.77,7.77-7.77c4.28,0,7.77,3.48,7.77,7.77S44.08,109.75,39.8,109.75z
					 M39.8,96.71c-2.91,0-5.28,2.37-5.28,5.28s2.37,5.28,5.28,5.28c2.91,0,5.28-2.37,5.28-5.28S42.71,96.71,39.8,96.71z"/>
			</g>
			<g>
				<path class="st3" d="M87.66,21.25H55.93c-8.66,0-15.68,7.02-15.68,15.68v75.23c0,8.66,7.02,15.68,15.68,15.68h45.27
					c8.66,0,15.68-7.02,15.68-15.68V50.47L87.66,21.25z"/>
				<path d="M101.2,129.09H55.93c-9.33,0-16.93-7.59-16.93-16.93V36.93C39,27.59,46.6,20,55.93,20h31.73c0.33,0,0.65,0.13,0.88,0.36
					l29.22,29.22c0.23,0.23,0.36,0.55,0.36,0.88v61.69C118.13,121.49,110.54,129.09,101.2,129.09z M55.93,22.49
					c-7.96,0-14.44,6.48-14.44,14.44v75.23c0,7.96,6.48,14.44,14.44,14.44h45.27c7.96,0,14.44-6.48,14.44-14.44V50.98L87.15,22.49
					H55.93z"/>
			</g>
			<g>
				<path class="st4" d="M87.66,21.25l29.22,29.22H93.9c-3.44,0-6.23-2.79-6.23-6.23V21.25z"/>
				<path d="M116.89,51.71C116.89,51.71,116.89,51.71,116.89,51.71H93.9c-4.12,0-7.48-3.35-7.48-7.48V21.25
					c0-0.5,0.3-0.96,0.77-1.15c0.47-0.19,1-0.09,1.36,0.27l29.16,29.16c0.26,0.23,0.42,0.56,0.42,0.94
					C118.13,51.15,117.58,51.71,116.89,51.71z M88.91,24.25v19.98c0,2.75,2.24,4.99,4.99,4.99h19.98L88.91,24.25z"/>
			</g>
			<g>
				<path class="st5" d="M40.39,64.38c-3.87,0-7.01,3.14-7.01,7.01v29.37h0.13c0.62-3.23,3.47-5.68,6.89-5.68h70.64V64.38H40.39z"/>
				<path d="M33.51,102.01h-0.13c-0.69,0-1.25-0.56-1.25-1.25V71.39c0-4.55,3.71-8.26,8.26-8.26h70.64c0.69,0,1.25,0.56,1.25,1.25
					v30.71c0,0.69-0.56,1.25-1.25,1.25H40.39c-2.76,0-5.14,1.96-5.66,4.67C34.61,101.58,34.1,102.01,33.51,102.01z M40.39,65.62
					c-3.18,0-5.77,2.59-5.77,5.77v24.8c1.5-1.46,3.55-2.35,5.77-2.35h69.39V65.62H40.39z"/>
			</g>
		</g>
		<g class="st1">
			<path class="st3" d="M49.39,72.11c0-0.52,0.42-0.94,0.92-0.94h5.26c3.73,0,6.18,1.98,6.18,5.24v0.05c0,3.56-2.97,5.4-6.49,5.4
				h-4.01v5c0,0.52-0.42,0.94-0.94,0.94c-0.5,0-0.92-0.42-0.92-0.94V72.11z M55.33,80.15c2.74,0,4.53-1.46,4.53-3.63v-0.05
				c0-2.36-1.77-3.58-4.43-3.58h-4.17v7.26H55.33z"/>
			<path class="st3" d="M65.15,72.02c0-0.5,0.42-0.92,0.92-0.92h0.26c0.42,0,0.68,0.21,0.94,0.54l10.02,12.78V71.97
				c0-0.5,0.4-0.92,0.92-0.92c0.5,0,0.9,0.42,0.9,0.92v14.9c0,0.5-0.35,0.87-0.85,0.87h-0.09c-0.4,0-0.68-0.24-0.97-0.57
				L66.96,74.09v12.78c0,0.5-0.4,0.92-0.92,0.92c-0.5,0-0.9-0.42-0.9-0.92V72.02z"/>
			<path class="st3" d="M83.05,79.47v-0.05c0-4.53,3.33-8.54,8.28-8.54c2.5,0,4.13,0.66,5.64,1.77c0.21,0.17,0.38,0.42,0.38,0.75
				c0,0.52-0.42,0.94-0.92,0.94c-0.21,0-0.4-0.09-0.59-0.24c-1.18-0.9-2.5-1.51-4.58-1.51c-3.66,0-6.27,3.09-6.27,6.77v0.05
				c0,3.94,2.52,6.86,6.53,6.86c1.89,0,3.63-0.73,4.76-1.65v-4.1h-4.43c-0.45,0-0.83-0.38-0.83-0.83c0-0.47,0.38-0.85,0.83-0.85
				h5.31c0.5,0,0.92,0.42,0.92,0.94v5.02c0,0.45-0.21,0.85-0.64,1.13c-1.51,1.11-3.54,2-5.99,2C86.25,87.96,83.05,84.19,83.05,79.47
				z"/>
		</g>
	</g>
	<g>
		<g>
			<g>
				<circle class="st6" cx="39.64" cy="102.15" r="6.54"/>
				<path d="M39.64,109.94c-4.29,0-7.78-3.49-7.78-7.78s3.49-7.78,7.78-7.78s7.78,3.49,7.78,7.78S43.93,109.94,39.64,109.94z
					 M39.64,96.87c-2.92,0-5.29,2.37-5.29,5.29s2.37,5.29,5.29,5.29c2.92,0,5.29-2.37,5.29-5.29S42.56,96.87,39.64,96.87z"/>
			</g>
			<g>
				<path class="st3" d="M87.61,21.25h-31.8c-8.68,0-15.71,7.04-15.71,15.71v75.39c0,8.68,7.04,15.71,15.71,15.71h45.37
					c8.68,0,15.71-7.04,15.71-15.71V50.53L87.61,21.25z"/>
				<path d="M101.17,129.31H55.81c-9.35,0-16.96-7.61-16.96-16.96V36.96c0-9.35,7.61-16.96,16.96-16.96h31.8
					c0.33,0,0.65,0.13,0.88,0.37l29.28,29.28c0.23,0.23,0.37,0.55,0.37,0.88v61.82C118.14,121.7,110.53,129.31,101.17,129.31z
					 M55.81,22.5c-7.98,0-14.47,6.49-14.47,14.47v75.39c0,7.98,6.49,14.47,14.47,14.47h45.37c7.98,0,14.47-6.49,14.47-14.47v-61.3
					L87.09,22.5H55.81z"/>
			</g>
			<g>
				<path class="st4" d="M87.61,21.25l29.28,29.28H93.85c-3.45,0-6.24-2.8-6.24-6.24V21.25z"/>
				<path d="M116.89,51.78C116.89,51.78,116.89,51.78,116.89,51.78H93.85c-4.13,0-7.49-3.36-7.49-7.49V21.25
					c0-0.5,0.3-0.96,0.77-1.15c0.47-0.19,1-0.09,1.36,0.27l29.23,29.22c0.26,0.23,0.43,0.56,0.43,0.94
					C118.14,51.22,117.58,51.78,116.89,51.78z M88.86,24.26v20.02c0,2.76,2.24,5,5,5h20.02L88.86,24.26z"/>
			</g>
			<g>
				<path class="st6" d="M40.24,64.47c-3.88,0-7.03,3.15-7.03,7.03v29.43h0.13c0.63-3.24,3.48-5.69,6.9-5.69h70.78V64.47H40.24z"/>
				<path d="M33.34,102.18h-0.13c-0.69,0-1.25-0.56-1.25-1.25V71.5c0-4.56,3.71-8.28,8.28-8.28h70.78c0.69,0,1.25,0.56,1.25,1.25
					v30.77c0,0.69-0.56,1.25-1.25,1.25H40.24c-2.77,0-5.15,1.97-5.67,4.68C34.45,101.75,33.93,102.18,33.34,102.18z M40.24,65.72
					c-3.19,0-5.78,2.59-5.78,5.78v24.85c1.5-1.47,3.56-2.36,5.78-2.36h69.53V65.72H40.24z"/>
			</g>
		</g>
		<g>
			<path class="st3" d="M52.03,72.3c0-0.52,0.43-0.95,0.92-0.95h5.27c3.73,0,6.19,1.99,6.19,5.25v0.05c0,3.57-2.98,5.41-6.5,5.41
				H53.9v5.01c0,0.52-0.43,0.95-0.95,0.95c-0.5,0-0.92-0.43-0.92-0.95V72.3z M57.99,80.36c2.74,0,4.54-1.47,4.54-3.64v-0.05
				c0-2.36-1.77-3.59-4.44-3.59H53.9v7.28H57.99z"/>
			<path class="st3" d="M67.82,72.3c0-0.52,0.43-0.95,0.92-0.95h4.82c5.2,0,8.79,3.57,8.79,8.22v0.05c0,4.66-3.59,8.27-8.79,8.27
				h-4.82c-0.5,0-0.92-0.43-0.92-0.95V72.3z M73.56,86.18c4.18,0,6.85-2.84,6.85-6.5v-0.05c0-3.66-2.67-6.55-6.85-6.55h-3.88v13.09
				H73.56z"/>
			<path class="st3" d="M86.3,72.3c0-0.52,0.43-0.95,0.92-0.95h10.23c0.47,0,0.85,0.38,0.85,0.85c0,0.47-0.38,0.87-0.85,0.87h-9.29
				v5.91h8.22c0.47,0,0.85,0.38,0.85,0.85c0,0.47-0.38,0.85-0.85,0.85h-8.22v6.38c0,0.52-0.43,0.95-0.95,0.95
				c-0.5,0-0.92-0.43-0.92-0.95V72.3z"/>
		</g>
	</g>
</g>
</svg>
