<svg xmlns="http://www.w3.org/2000/svg" viewBox="0 0 300 300"><defs><style>.cls-1{fill:none;}.cls-2{fill:#c7d5ea;}.cls-3{fill:#9ebadc;}.cls-4{fill:#2c130e;}.cls-5{fill:#f39264;}.cls-6{fill:#f07c47;}.cls-7{fill:#8cafd6;}.cls-8{fill:#afc5e1;}.cls-9{fill:#95b5d9;}.cls-10{fill:#94b4d8;}.cls-11{fill:#f8f08b;}.cls-12{fill:#f5eb3a;}.cls-13{fill:#ee6730;}.cls-14{fill:#fefef5;}.cls-15{fill:#8dc6ec;}.cls-16{fill:#d1dded;}.cls-17{fill:#73bce8;}.cls-18{fill:#23a9e1;}.cls-19{fill:#f8f299;}.cls-20{fill:#fff;}.cls-21{fill:#ebf3fb;}.cls-22{fill:#f3e8e1;}.cls-23{fill:#e3c5b5;}.cls-24{fill:#743934;}.cls-25{fill:#ead4c8;}.cls-26{fill:#9477b6;}.cls-27{fill:#87bf40;}.cls-28{fill:#f37152;}</style></defs><g id="Layer_7" data-name="Layer 7"><rect class="cls-1" width="300" height="300"/></g><g id="Layer_5" data-name="Layer 5"><path class="cls-2" d="M238.68,249.64H75.22c-12.18-.55-14.33-10.77-13.47-21H252.16C253.05,238.79,250.8,249.16,238.68,249.64Z"/><path class="cls-3" d="M238.68,243.66H75.22a13.48,13.48,0,0,1-13.47-13.48c-1,9.64,2.42,19.15,13.47,19.46H238.68c11-.35,14.51-9.75,13.48-19.46A13.49,13.49,0,0,1,238.68,243.66Z"/><path class="cls-4" d="M238.68,251.13H75.22c-12.82-.46-16-11.44-15-22.47-.34-4.3,190.43,0,191.9-1.49a1.49,1.49,0,0,1,1.48,1.49C254.69,239.69,251.6,250.63,238.68,251.13Zm-175.45-21c-.83,8.84,1.63,17.6,12,18H238.68c10.26-.35,12.88-9.17,12-18Z"/><path class="cls-2" d="M223.87,228.82C50.73,221.5,74.83,266,73.76,127.18A16.27,16.27,0,0,1,90,110.9c173.15,7.31,149.05-37.21,150.12,101.64A16.28,16.28,0,0,1,223.87,228.82Z"/><path class="cls-3" d="M235.08,115.38a13.38,13.38,0,0,1,.84,4.67v91.16a13.38,13.38,0,0,1-13.38,13.38H82.9a13.33,13.33,0,0,1-4.66-.84A16.21,16.21,0,0,0,90,228.82H223.87a16.28,16.28,0,0,0,16.28-16.28V127.18A16.23,16.23,0,0,0,235.08,115.38Z"/><path class="cls-4" d="M223.87,230.3C51.64,222.91,72.72,267.92,72.27,127.18A17.79,17.79,0,0,1,90,109.41c172.24,7.4,151.15-37.61,151.61,103.13A17.79,17.79,0,0,1,223.87,230.3ZM90,112.39a14.81,14.81,0,0,0-14.79,14.79c1.79,136.74-25.67,93,148.63,100.15a14.81,14.81,0,0,0,14.79-14.79C236.88,75.8,264.33,119.54,90,112.39Z"/><rect class="cls-5" x="83.49" y="120.58" width="147.48" height="97.68" rx="18.86"/><path class="cls-6" d="M89.27,130a4.26,4.26,0,0,1,4.26-4.26H230.67a7.22,7.22,0,0,0-6.92-5.15h-133a7.22,7.22,0,0,0-7.22,7.22V211a7.22,7.22,0,0,0,5.78,7.08Z"/><path class="cls-4" d="M223.75,219.75h-133A8.72,8.72,0,0,1,82,211V127.8a8.72,8.72,0,0,1,8.71-8.71h133a8.71,8.71,0,0,1,8.7,8.71V211A8.71,8.71,0,0,1,223.75,219.75Zm-133-97.68A5.74,5.74,0,0,0,85,127.8V211a5.74,5.74,0,0,0,5.73,5.74h133a5.74,5.74,0,0,0,5.73-5.74V127.8a5.74,5.74,0,0,0-5.73-5.73Z"/><path class="cls-7" d="M185.78,236.06H128.12c-4.15-.05-5.13-3.95-4.75-7.4h67.17C190.92,232.11,189.94,236,185.78,236.06Z"/><path class="cls-4" d="M185.78,237.55H128.12c-4.91-.05-6.78-4.56-6.24-8.89a1.49,1.49,0,0,1,1.49-1.48h67.17c2-.05,1.39,2.89,1.49,4.13A6.25,6.25,0,0,1,185.78,237.55Zm-60.93-7.4c-.29,2.14.88,4.45,3.27,4.43h57.66c2.38,0,3.59-2.29,3.27-4.43Z"/><path class="cls-8" d="M171.79,179H142.12a5.24,5.24,0,0,1,0-10.47h29.67C178.62,168.6,178.64,179,171.79,179Z"/><path class="cls-9" d="M175.22,169.86a5.25,5.25,0,0,1-5.15,6.15c-2.19-.48-32.31,1.27-33.1-1.29a5.23,5.23,0,0,0,5.15,4.32h29.67C176.52,179.21,178.84,172.78,175.22,169.86Z"/><path class="cls-4" d="M171.79,180.52H142.12c-8.82-.15-8.84-13.28,0-13.44h29.67a6.72,6.72,0,0,1,0,13.44Zm-29.67-10.47c-4.85-.06-4.87,7.57,0,7.5h29.67c4.85.07,4.86-7.56,0-7.5Z"/><path class="cls-10" d="M157,197.12a7,7,0,0,1-7-7h0c.16-9.17,13.81-9.17,14,0h0A7,7,0,0,1,157,197.12Z"/><path class="cls-4" d="M157,198.61c-11.12-.2-11.12-16.73,0-16.93C168.08,181.88,168.08,198.41,157,198.61Zm0-14c-7.18,0-7.18,10.95,0,11S164.14,184.69,157,184.65Z"/><path class="cls-8" d="M171.79,190.14H142.12a5.24,5.24,0,0,1,0-10.47h29.67C178.62,179.7,178.64,190.11,171.79,190.14Z"/><path class="cls-9" d="M175.22,181a5.26,5.26,0,0,1-5.15,6.16c-2.19-.48-32.31,1.26-33.1-1.29a5.22,5.22,0,0,0,5.15,4.31h29.67C176.52,190.31,178.84,183.88,175.22,181Z"/><path class="cls-4" d="M171.79,191.63H142.12c-8.82-.15-8.84-13.28,0-13.44h29.67a6.72,6.72,0,0,1,0,13.44Zm-29.67-10.47c-4.85-.07-4.87,7.57,0,7.5h29.67c4.85.07,4.86-7.57,0-7.5Z"/><path class="cls-11" d="M197.08,120.35A40.12,40.12,0,0,0,157,80.22c-36.61-1.32-54.17,48.69-25.86,70.81-.85,8.94,1.67,17.78,12.12,18.18H170.7c10.43-.39,13-9.25,12.11-18.18A40,40,0,0,0,197.08,120.35Z"/><path class="cls-12" d="M186.69,93.4c11.06,15.88,7.14,40.76-7.84,52.48.85,8.93-1.67,17.78-12.12,18.17-5.59-.71-30.51,2-34.76-2.42a12.13,12.13,0,0,0,11.24,7.58H170.7c10.43-.39,13-9.25,12.11-18.18C199.8,137.9,201.85,108.79,186.69,93.4Z"/><path class="cls-4" d="M170.7,170.69c-16.48-1.62-43.55,7.74-41.09-19C100.74,128,119.47,77.57,157,78.73c37.48-1.16,56.23,49.31,27.35,73C185.37,161.23,181.38,170.42,170.7,170.69ZM157,81.7c-36.7-.12-51.57,46.36-24.37,69.33-.66,8.07.92,16.24,10.63,16.69H170.7c9.7-.46,11.29-8.59,10.63-16.69C208.52,128.07,193.66,81.56,157,81.7Z"/><path class="cls-13" d="M181,125.76V116.4h-7.52a17.53,17.53,0,0,0-1.53-3.68l5.32-5.32-6.61-6.62-5.33,5.33a16.33,16.33,0,0,0-3.68-1.53V97.05h-9.36v7.53a16.45,16.45,0,0,0-3.67,1.53l-5.33-5.33-6.62,6.62,5.33,5.32a17,17,0,0,0-1.53,3.68h-7.53v9.36h7.53a17,17,0,0,0,1.53,3.68l-5.33,5.32,6.62,6.62,5.33-5.33a16.45,16.45,0,0,0,3.67,1.53v7.53h9.36v-7.53a16.33,16.33,0,0,0,3.68-1.53l5.33,5.33,6.61-6.62-5.32-5.32a17.53,17.53,0,0,0,1.53-3.68Zm-24,4.11c-11.55-.2-11.55-17.38,0-17.58C168.51,112.5,168.51,129.67,157,129.87Z"/><path class="cls-4" d="M161.63,146.6c-11.57-.63-11,3-10.84-7.93a16.76,16.76,0,0,1-1.91-.8c-.7.47-4.67,5.26-5.61,5-.82.42-7.08-6.7-7.72-7.1a1.52,1.52,0,0,1,0-2.06l4.56-4.55a19,19,0,0,1-.8-1.92c-11,.17-7.3.73-7.92-10.84a1.48,1.48,0,0,1,1.48-1.48h6.44a20,20,0,0,1,.8-1.92c-7.91-7.64-5.62-4.69,2.06-13.27a1.48,1.48,0,0,1,2.1,0l4.56,4.56a16.76,16.76,0,0,1,1.91-.8c-.17-11-.73-7.3,10.84-7.93a1.49,1.49,0,0,1,1.49,1.49v6.44a16.76,16.76,0,0,1,1.91.8c7.65-7.91,4.69-5.63,13.27,2.06a1.48,1.48,0,0,1,0,2.1L173.75,113a19.87,19.87,0,0,1,.79,1.92c11-.17,7.31-.73,7.93,10.84a1.49,1.49,0,0,1-1.49,1.48h-6.44a18.88,18.88,0,0,1-.79,1.92l4.55,4.55a1.48,1.48,0,0,1,0,2.1c-8.59,7.7-5.62,10-13.27,2.06a16.76,16.76,0,0,1-1.91.8v6.44A1.49,1.49,0,0,1,161.63,146.6Zm-7.87-3h6.39v-6a1.5,1.5,0,0,1,1.08-1.43c1.72-.12,3.53-2.42,5.13-1.15l4.28,4.28,4.51-4.52-4.27-4.27c-1.28-1.6,1-3.41,1.15-5.14a1.48,1.48,0,0,1,1.43-1.08h6v-6.38h-6a1.48,1.48,0,0,1-1.43-1.08c-.13-1.73-2.43-3.54-1.15-5.14l4.27-4.27-4.51-4.52-4.28,4.28c-1.6,1.27-3.41-1-5.13-1.15a1.49,1.49,0,0,1-1.08-1.43v-6h-6.39v6a1.49,1.49,0,0,1-1.08,1.43c-1.72.12-3.53,2.42-5.13,1.15l-4.28-4.28-4.52,4.52,4.28,4.27c1.28,1.6-1,3.41-1.15,5.14a1.49,1.49,0,0,1-1.43,1.08h-6v6.38h6a1.49,1.49,0,0,1,1.43,1.08c.12,1.73,2.43,3.54,1.15,5.14l-4.28,4.27,4.52,4.52,4.28-4.28c1.59-1.27,3.41,1,5.13,1.15a1.5,1.5,0,0,1,1.08,1.43ZM157,131.36c-13.51-.24-13.5-20.32,0-20.56C170.46,111,170.46,131.12,157,131.36Zm0-17.59c-9.6.18-9.6,14.45,0,14.62C166.55,128.21,166.55,113.94,157,113.77Z"/><path class="cls-14" d="M127.5,99.31S130.69,89.88,144,87c1.43-.31,3.44-1.06,4.9-.73-4.23,3-10,4.23-13.92,8-2.19,1.94-4.09,4.18-6.12,6.29-.62.65-1.84,2.5-2.22,1C126.46,100.85,127.3,99.92,127.5,99.31Z"/><path class="cls-15" d="M252.52,164c-.37,21.93-33,21.93-33.37,0C219.52,142.1,252.15,142.1,252.52,164Z"/><rect class="cls-16" x="250.94" y="171.11" width="6.72" height="19.97" transform="translate(562.17 129.32) rotate(135)"/><path class="cls-4" d="M259,192a1.49,1.49,0,0,1-1.06-.43l-14.12-14.12a1.5,1.5,0,0,1,0-2.11l4.75-4.75a1.52,1.52,0,0,1,2.11,0l14.12,14.12a1.5,1.5,0,0,1,0,2.11C264.11,187.29,259.92,192.29,259,192Zm-12-15.6,12,12,2.64-2.64-12-12Z"/><path class="cls-17" d="M279.7,206.49h0a5.5,5.5,0,0,0,0-7.78l-18.14-18.15-7.79,7.79,18.15,18.14A5.5,5.5,0,0,0,279.7,206.49Z"/><path class="cls-18" d="M256.28,185.84l17.62,17.62a5.51,5.51,0,0,0,7.26.46,5.51,5.51,0,0,1-1.46,2.57h0a5.5,5.5,0,0,1-7.78,0l-18.15-18.14Z"/><path class="cls-4" d="M275.81,209.59a6.9,6.9,0,0,1-4.94-2.05L252.72,189.4a1.48,1.48,0,0,1,0-2.1c.47-.32,8.28-8.83,8.84-8.22a1.48,1.48,0,0,1,1.05.43l18.14,18.15C285.17,201.77,281.85,209.81,275.81,209.59Zm-19.94-21.24L273,205.44a4,4,0,0,0,5.68-5.68l-17.09-17.1Z"/><path class="cls-19" d="M237.1,185.24c-28.15-.5-28.15-42.34,0-42.84C265.26,142.9,265.25,184.74,237.1,185.24Zm0-35.76c-18.83.34-18.83,28.34,0,28.67C255.94,177.81,255.94,149.82,237.1,149.48Z"/><path class="cls-12" d="M248.93,176.62c-13.55,7.74-27.05-.59-33.24-13.19-.59,25.82,37.77,29.59,42.44,4.47A29.21,29.21,0,0,1,248.93,176.62Z"/><path class="cls-20" d="M248.93,149a35.25,35.25,0,0,1,7.75,6.18c-4.85-12.26-22.44-16.85-32.69-8.24C231.54,143.43,241.53,144.66,248.93,149Z"/><path class="cls-4" d="M237.1,186.73c-30.1-.54-30.1-45.28,0-45.82C267.21,141.45,267.2,186.19,237.1,186.73Zm0-42.85c-26.2.47-26.19,39.41,0,39.87C263.3,183.28,263.3,144.35,237.1,143.88Zm0,35.76c-20.79-.37-20.78-31.27,0-31.64C257.89,148.37,257.89,179.27,237.1,179.64Zm0-28.67c-16.88.3-16.88,25.4,0,25.7C254,176.36,254,151.27,237.1,151Z"/><path class="cls-21" d="M236.28,172.09c-4.11-2.12-7.3-4.78-7.93-9.65-.23-1.78-2.92-1.92-2.88,0C225.19,173,239.89,178.14,236.28,172.09Z"/><path class="cls-21" d="M239.2,155.11c2.94,1.52,5.22,3.41,5.67,6.9.16,1.27,2.09,1.36,2.06,0C247.19,154.62,236.65,150.72,239.2,155.11Z"/><polygon class="cls-22" points="51.62 249.96 25.81 249.96 21.31 199.82 56.12 199.82 51.62 249.96"/><path class="cls-23" d="M56.12,199.82H21.31l.45,5s14.12-.37,15.41-.36c9.34-.29,14-1.57,13.53,9.76.73,10.59-.4,22.22-6.66,31.21-1.84,2.59-5.52,3.27-8.36,4.49H51.62Z"/><path class="cls-4" d="M51.62,251.45H25.81a1.49,1.49,0,0,1-1.48-1.36c.42-1.43-5.48-50-4.12-51.27a1.49,1.49,0,0,1,1.1-.48H56.12A1.49,1.49,0,0,1,57.6,200l-4.5,50.13A1.48,1.48,0,0,1,51.62,251.45Zm-24.45-3H50.26l4.24-47.17H22.94Z"/><path class="cls-24" d="M53.36,196.18H24.07c-.08-2.41-.37-6.25,3.06-6.26H50.3C53.72,189.93,53.46,193.77,53.36,196.18Z"/><path class="cls-4" d="M53.36,197.67H24.07a1.49,1.49,0,0,1-1.49-1.49c-.29-3.43.19-7.67,4.55-7.74H50.3A4.55,4.55,0,0,1,54.85,193C54.65,194.25,55.58,197.73,53.36,197.67Zm-27.8-3H51.88c0-1.22.19-3.31-1.58-3.28H27.13C25.38,191.38,25.5,193.48,25.56,194.69Z"/><path class="cls-24" d="M58.57,201.42H18.86a6.62,6.62,0,0,1,6.62-6.62H52a6.62,6.62,0,0,1,6.62,6.62Z"/><path class="cls-4" d="M58.57,202.91c-.73-.8-42.85,1.84-41.2-1.49a8.11,8.11,0,0,1,8.11-8.1H52C57.44,192.59,62.91,201.91,58.57,202.91Zm-38-3h36.3A5.15,5.15,0,0,0,52,196.29H25.48A5.14,5.14,0,0,0,20.57,199.93Z"/><path class="cls-25" d="M29.63,224.61c.65,7.87-2.14,8.09-2.76.22S29,216.73,29.63,224.61Z"/><path class="cls-13" d="M111.65,76.34c-6.18,0-9.58-3.4-9.58-9.58,0-2.32-3.62-2.33-3.58,0-.38,12.81-10.92,7.14-11.37,11.37.48,4.23,11-1.4,11.37,11.37,0,2.32,3.61,2.33,3.58,0,0-6.18,3.4-9.58,9.58-9.58C114,80,114,76.3,111.65,76.34Z"/><path class="cls-12" d="M120.72,56.57c-3.45,0-5.35-1.9-5.35-5.35a1,1,0,0,0-2,0c-.2,7.12-6,4-6.35,6.35.35,2.37,6.16-.76,6.35,6.35a1,1,0,0,0,2,0c0-3.45,1.9-5.35,5.35-5.35A1,1,0,0,0,120.72,56.57Z"/><path class="cls-26" d="M228,94.55c-9.19-.48-12.36,2.45-5.1-7.32a1.1,1.1,0,0,1,1.78,0l4.2,5.61A1.09,1.09,0,0,1,228,94.55Z"/><path class="cls-27" d="M237.39,85.13c-5.69-.29-7.86,1.54-3.23-4.63a.7.7,0,0,1,1.13,0L237.94,84A.69.69,0,0,1,237.39,85.13Z"/><path class="cls-28" d="M215.13,84.24c-6.71-.36-9.18,1.81-3.77-5.42a.81.81,0,0,1,1.31,0L215.78,83A.81.81,0,0,1,215.13,84.24Z"/><path class="cls-28" d="M197,83.51c-3.77-.18-5.28,1-2.17-3.12.66-1,2.15,2.14,2.54,2.38A.46.46,0,0,1,197,83.51Z"/><path class="cls-28" d="M212,97.19c-3.77-.18-5.29,1-2.17-3.12.66-1,2.15,2.14,2.54,2.37A.47.47,0,0,1,212,97.19Z"/><path class="cls-28" d="M225.13,71.26c-3.77-.17-5.29,1-2.17-3.11.66-1,2.15,2.13,2.54,2.37A.46.46,0,0,1,225.13,71.26Z"/></g></svg>