<svg id="Capa_1" enable-background="new 0 0 512 512" height="512" viewBox="0 0 512 512" width="512" xmlns="http://www.w3.org/2000/svg"><g><path d="m512 255.999c0 19.113-14.341 36.356-18.406 54.238-4.197 18.465 1.142 40.203-6.895 56.862-8.169 16.934-28.579 26.27-40.193 40.815-11.671 14.616-16.271 36.57-30.887 48.241-14.545 11.614-36.952 11.252-53.885 19.422-16.659 8.037-30.294 25.86-48.759 30.057-17.882 4.065-37.862-5.984-56.975-5.984s-39.093 10.048-56.975 5.984c-18.465-4.197-32.101-22.021-48.759-30.058-16.934-8.169-39.34-7.808-53.885-19.422-14.616-11.671-19.216-33.625-30.887-48.241-11.615-14.545-32.024-23.881-40.194-40.815-8.037-16.659-2.698-38.397-6.895-56.861-4.064-17.882-18.405-35.125-18.405-54.238s14.341-36.356 18.406-54.238c4.197-18.465-1.142-40.203 6.895-56.862 8.169-16.934 28.579-26.27 40.193-40.815 11.671-14.616 16.271-36.57 30.887-48.241 14.545-11.614 36.952-11.252 53.885-19.422 16.659-8.037 30.294-25.86 48.759-30.057 17.882-4.065 37.862 5.984 56.975 5.984s39.093-10.048 56.975-5.984c18.465 4.197 32.101 22.021 48.759 30.058 16.934 8.169 39.34 7.808 53.885 19.422 14.616 11.671 19.216 33.625 30.887 48.241 11.614 14.545 32.023 23.881 40.193 40.815 8.037 16.659 2.698 38.397 6.895 56.861 4.065 17.882 18.406 35.125 18.406 54.238z" fill="#c1e9af"/><path d="m128.197 467.296c1.461.7 2.892 1.482 4.312 2.326-11.278-2.84-22.957-5.011-32.28-10.774 9.579 2.397 19.458 4.342 27.968 8.448z" fill="#c1e9af"/><path d="m511.998 255.999c0 19.109-14.334 36.355-18.399 54.239-4.198 18.46 1.142 40.203-6.905 56.863-8.16 16.927-28.576 26.271-40.183 40.811-11.679 14.622-16.279 36.571-30.891 48.24-14.55 11.618-36.952 11.257-53.889 19.428-16.66 8.037-30.294 25.859-48.755 30.057-17.884 4.065-37.868-5.989-56.976-5.989s-39.092 10.053-56.976 5.989c-5.907-1.348-11.319-4.085-16.495-7.45 16.402 1.276 56.328-17.491 73.471-17.491 19.109 0 35.25 9.326 53.134 5.262 18.46-4.198 26.391-22.577 43.051-30.614 16.938-8.17 32.6-1.543 47.151-13.161 14.612-11.669 13.424-27.933 25.104-42.545 11.607-14.55 32.023-23.883 40.183-40.821 8.047-16.66 2.706-38.392 6.905-56.853 4.065-17.884 17.549-26.857 17.549-45.966 0-19.119-13.718-34.379-17.783-52.263-4.198-18.471 3.258-35.798-4.779-52.458-8.17-16.938-28.961-29.174-40.568-43.714-11.679-14.622-17.785-48.322-32.397-60.002-1.235-.988-2.531-1.883-3.869-2.696 9.498 2.377 18.697 5.186 25.941 10.98 14.612 11.669 19.212 33.618 30.891 48.24 11.607 14.54 32.023 23.883 40.193 40.811 8.037 16.66 2.696 38.403 6.894 56.863 4.063 17.885 18.398 35.131 18.398 54.24z" fill="#ade194"/><path d="m150.269 475.58c11.329 5.464 21.259 15.456 32.26 22.607-1.873-.154-3.735-.422-5.577-.833-16.845-3.828-29.677-19.006-44.443-27.732 6.194 1.553 12.265 3.303 17.76 5.958z" fill="#c1e9af"/><circle cx="256" cy="255.999" fill="#e6f6df" r="166.151"/><g fill="#c1e9af"><path d="m236.987 265.138c-1.419-3.452-4.746-5.68-8.477-5.68-.003 0-.007 0-.01 0-3.735.004-7.062 2.24-8.475 5.698-.024.058-.047.115-.069.175l-24.143 63.389c-1.516 3.978.481 8.432 4.46 9.948 3.981 1.517 8.433-.481 9.948-4.461l4.122-10.822h28.148l4.076 10.801c1.165 3.087 4.098 4.989 7.214 4.989.904 0 1.824-.161 2.72-.499 3.984-1.503 5.994-5.951 4.491-9.935l-23.923-63.392c-.026-.072-.054-.142-.082-.211zm-16.771 42.827 8.266-21.704 8.191 21.704z"/><path d="m279.175 267.166v64.296c0 4.258 3.452 7.709 7.709 7.709 4.258 0 7.709-3.451 7.709-7.709v-64.296c0-4.258-3.452-7.709-7.709-7.709s-7.709 3.451-7.709 7.709z"/><path d="m314.172 331.302c.008 2.095.847 4.1 2.334 5.577 1.48 1.469 3.48 2.292 5.564 2.292h.03c.547-.002 13.455-.051 18.611-.142 19.146-.334 33.042-17.036 33.042-39.715 0-23.84-13.547-39.857-33.71-39.857h-18.103c-2.097 0-4.108.834-5.59 2.319-1.482 1.484-2.312 3.496-2.308 5.593 0 .001.046 24.586.046 31.875.001 8.886.084 32.058.084 32.058zm25.872-56.05c13.208 0 17.914 12.43 17.914 24.062 0 16.314-8.801 23.77-17.523 23.922-2.409.042-6.676.076-10.494.1-.024-7.553-.057-18.578-.057-24.092 0-4.61-.018-16.133-.032-23.992z"/><path d="m146.668 259.457c-.762 0-1.517.116-2.247.335-2.284.686-4.073 2.352-4.935 4.546-.353.899-.527 1.863-.527 2.828v64.295c0 4.258 3.451 7.709 7.709 7.709s7.709-3.451 7.709-7.709v-20.26c3.687-.019 7.829-.037 10.193-.037 14.452 0 26.208-11.598 26.208-25.854s-11.757-25.854-26.208-25.854h-17.902zm28.693 25.854c0 5.656-4.941 10.435-10.79 10.435-2.348 0-6.439.018-10.112.037-.019-3.794-.037-8.061-.037-10.473 0-2.042-.011-6.464-.022-10.435h10.17c5.85 0 10.791 4.78 10.791 10.436z"/></g><path d="m422.155 255.999c0 91.767-74.387 166.155-166.155 166.155-34.513 0-66.567-10.516-93.126-28.524 22.484 11.35 47.9 17.75 74.809 17.75 91.767 0 166.155-74.387 166.155-166.144 0-57.285-28.987-107.799-73.091-137.672 54.219 27.361 91.408 83.556 91.408 148.435z" fill="#dbf1d0"/><g><g><path d="m256 67.481c-4.262 0-7.718-3.455-7.718-7.718v-13.206c0-4.263 3.455-7.718 7.718-7.718s7.718 3.455 7.718 7.718v13.206c0 4.263-3.456 7.718-7.718 7.718z" fill="#97da7b"/></g><g><path d="m256 473.159c-4.262 0-7.718-3.455-7.718-7.718v-13.206c0-4.263 3.455-7.718 7.718-7.718s7.718 3.455 7.718 7.718v13.206c0 4.263-3.456 7.718-7.718 7.718z" fill="#97da7b"/></g></g><g><g><path d="m188.884 79.316c-3.153 0-6.112-1.945-7.253-5.08l-4.517-12.409c-1.458-4.006.607-8.434 4.613-9.892 4.003-1.457 8.434.607 9.892 4.612l4.516 12.409c1.458 4.006-.607 8.434-4.613 9.892-.87.318-1.762.468-2.638.468z" fill="#97da7b"/></g><g><path d="m327.634 460.529c-3.153 0-6.112-1.945-7.253-5.08l-4.516-12.409c-1.458-4.006.607-8.434 4.613-9.892 4.002-1.455 8.434.607 9.892 4.612l4.517 12.409c1.458 4.005-.607 8.434-4.613 9.892-.872.317-1.764.468-2.64.468z" fill="#97da7b"/></g></g><g><g><path d="m129.866 113.39c-2.203 0-4.389-.938-5.916-2.756l-8.489-10.116c-2.74-3.265-2.314-8.134.951-10.873 3.264-2.738 8.133-2.314 10.872.951l8.489 10.116c2.74 3.265 2.314 8.134-.951 10.873-1.445 1.212-3.205 1.805-4.956 1.805z" fill="#97da7b"/></g><g><path d="m390.631 424.158c-2.203 0-4.389-.938-5.916-2.756l-8.489-10.116c-2.74-3.265-2.314-8.134.951-10.873 3.264-2.739 8.133-2.314 10.872.951l8.489 10.116c2.74 3.265 2.314 8.134-.951 10.873-1.445 1.212-3.206 1.805-4.956 1.805z" fill="#97da7b"/></g></g><g><g><path d="m86.048 165.6c-1.309 0-2.636-.334-3.852-1.035l-11.437-6.603c-3.691-2.131-4.956-6.851-2.825-10.542 2.131-3.692 6.85-4.956 10.542-2.825l11.437 6.603c3.691 2.131 4.956 6.851 2.825 10.542-1.429 2.476-4.023 3.86-6.69 3.86z" fill="#97da7b"/></g><g><path d="m437.375 368.439c-1.309 0-2.636-.334-3.852-1.035l-11.437-6.603c-3.691-2.131-4.956-6.851-2.825-10.542 2.131-3.692 6.85-4.956 10.542-2.825l11.437 6.603c3.691 2.131 4.956 6.851 2.825 10.542-1.429 2.476-4.023 3.86-6.69 3.86z" fill="#97da7b"/></g></g><g><g><path d="m62.754 229.642c-.445 0-.896-.038-1.349-.119l-13.005-2.293c-4.197-.74-7.001-4.742-6.26-8.941.741-4.196 4.745-7.002 8.941-6.259l13.005 2.293c4.197.74 7.001 4.742 6.26 8.941-.66 3.743-3.917 6.378-7.592 6.378z" fill="#97da7b"/></g><g><path d="m462.269 300.087c-.445 0-.896-.038-1.349-.119l-13.005-2.293c-4.197-.74-7.001-4.742-6.26-8.941.74-4.196 4.745-7.005 8.941-6.259l13.005 2.293c4.197.74 7.001 4.742 6.26 8.941-.661 3.743-3.917 6.378-7.592 6.378z" fill="#97da7b"/></g></g><g><g><path d="m49.731 300.087c-3.675 0-6.931-2.634-7.591-6.378-.74-4.198 2.063-8.201 6.26-8.941l13.005-2.293c4.199-.745 8.201 2.062 8.941 6.259.74 4.198-2.063 8.201-6.26 8.941l-13.005 2.293c-.454.081-.906.119-1.35.119z" fill="#97da7b"/></g><g><path d="m449.246 229.642c-3.675 0-6.931-2.634-7.591-6.378-.74-4.198 2.063-8.201 6.26-8.941l13.005-2.293c4.199-.743 8.2 2.062 8.941 6.259.74 4.198-2.063 8.201-6.26 8.941l-13.005 2.293c-.454.08-.906.119-1.35.119z" fill="#97da7b"/></g></g><g><g><path d="m74.625 368.439c-2.667 0-5.261-1.384-6.691-3.86-2.131-3.691-.867-8.411 2.825-10.542l11.437-6.603c3.691-2.13 8.411-.866 10.542 2.825s.867 8.411-2.825 10.542l-11.437 6.603c-1.215.701-2.542 1.035-3.851 1.035z" fill="#97da7b"/></g><g><path d="m425.952 165.6c-2.667 0-5.261-1.384-6.691-3.86-2.131-3.691-.867-8.411 2.825-10.542l11.437-6.603c3.691-2.13 8.411-.867 10.542 2.825 2.131 3.691.867 8.411-2.825 10.542l-11.437 6.603c-1.214.701-2.541 1.035-3.851 1.035z" fill="#97da7b"/></g></g><g><g><path d="m121.369 424.158c-1.751 0-3.511-.592-4.957-1.806-3.265-2.739-3.691-7.608-.951-10.873l8.489-10.116c2.739-3.266 7.607-3.693 10.872-.951 3.265 2.739 3.691 7.608.951 10.873l-8.489 10.116c-1.525 1.819-3.713 2.757-5.915 2.757z" fill="#97da7b"/></g><g><path d="m382.134 113.39c-1.751 0-3.511-.592-4.957-1.806-3.265-2.739-3.691-7.608-.951-10.873l8.489-10.116c2.739-3.265 7.607-3.692 10.872-.951 3.265 2.739 3.691 7.608.951 10.873l-8.489 10.116c-1.526 1.82-3.713 2.757-5.915 2.757z" fill="#97da7b"/></g></g><g><g><path d="m184.366 460.529c-.876 0-1.768-.151-2.639-.467-4.006-1.458-6.071-5.887-4.613-9.892l4.517-12.409c1.458-4.005 5.887-6.069 9.892-4.612 4.006 1.458 6.071 5.887 4.613 9.892l-4.516 12.409c-1.142 3.133-4.102 5.079-7.254 5.079z" fill="#97da7b"/></g><g><path d="m323.116 79.316c-.876 0-1.768-.151-2.639-.467-4.006-1.458-6.071-5.887-4.613-9.892l4.516-12.409c1.458-4.005 5.886-6.069 9.892-4.612 4.006 1.458 6.071 5.887 4.613 9.892l-4.517 12.409c-1.139 3.133-4.099 5.079-7.252 5.079z" fill="#97da7b"/></g></g><g><path d="m245.255 235.89c-5.285 0-10.356-2.133-14.056-5.928l-22.511-23.097c-7.565-7.763-7.406-20.19.357-27.756 7.762-7.566 20.189-7.406 27.756.357l7.695 7.896 30.003-34.21c7.148-8.149 19.549-8.962 27.699-1.815 8.149 7.148 8.962 19.548 1.815 27.699l-44 50.169c-3.608 4.114-8.77 6.535-14.241 6.679-.173.003-.345.006-.517.006z" fill="#97da7b"/></g><g><g><path d="m304.014 179.039-44 50.164c-3.612 4.116-8.767 6.534-14.242 6.678-.175.01-.35.01-.515.01-5.289 0-10.362-2.13-14.056-5.927l-3.879-3.982c.514.051 1.039.072 1.564.072.175 0 .35-.01.515-.01 5.474-.144 10.64-2.562 14.241-6.678l44.001-50.175c5.69-6.483 6.339-15.651 2.274-22.721 4.373.144 8.736 1.749 12.286 4.867 8.139 7.142 8.952 19.552 1.811 27.702z" fill="#80d261"/></g></g></g></svg>