<svg xmlns="http://www.w3.org/2000/svg" xmlns:xlink="http://www.w3.org/1999/xlink" viewBox="0 0 800 299.47"><defs><style>.cls-1{fill:url(#Degradado_sin_nombre_12);}.cls-2{fill:url(#Degradado_sin_nombre_299);}.cls-3{fill:url(#Degradado_sin_nombre_299-2);}.cls-4{fill:url(#Degradado_sin_nombre_299-3);}.cls-101,.cls-102,.cls-107,.cls-108,.cls-140,.cls-144,.cls-145,.cls-146,.cls-5,.cls-65,.cls-69,.cls-75,.cls-78{fill:none;}.cls-6{isolation:isolate;}.cls-7{fill:url(#Degradado_sin_nombre_6);}.cls-11,.cls-112,.cls-114,.cls-131,.cls-133,.cls-135,.cls-137,.cls-15,.cls-16,.cls-20,.cls-27,.cls-8,.cls-95{opacity:0.5;}.cls-10,.cls-103,.cls-11,.cls-117,.cls-118,.cls-12,.cls-127,.cls-138,.cls-15,.cls-16,.cls-18,.cls-20,.cls-23,.cls-26,.cls-27,.cls-30,.cls-62,.cls-8,.cls-89{mix-blend-mode:multiply;}.cls-8{fill:url(#Degradado_sin_nombre_5);}.cls-9{fill:url(#Degradado_sin_nombre_2);}.cls-10,.cls-118,.cls-12{opacity:0.7;}.cls-10{fill:url(#Degradado_sin_nombre_305);}.cls-12{fill:url(#Degradado_sin_nombre_636);}.cls-13{fill:url(#Degradado_sin_nombre_16);}.cls-14{fill:url(#Degradado_sin_nombre_16-2);}.cls-15{fill:url(#Degradado_sin_nombre_16-3);}.cls-16{fill:url(#Degradado_sin_nombre_16-4);}.cls-17{fill:#f9b7b3;}.cls-18{fill:url(#Degradado_sin_nombre_94);}.cls-19{fill:url(#Degradado_sin_nombre_15);}.cls-20{fill:url(#Degradado_sin_nombre_11);}.cls-21{fill:url(#Degradado_sin_nombre_8);}.cls-22{fill:url(#Degradado_sin_nombre_234);}.cls-23{fill:url(#Degradado_sin_nombre_11-2);}.cls-24{fill:url(#Degradado_sin_nombre_15-2);}.cls-25{fill:url(#Degradado_sin_nombre_15-3);}.cls-26{fill:url(#Degradado_sin_nombre_11-3);}.cls-27{fill:url(#Degradado_sin_nombre_11-4);}.cls-28{fill:url(#Degradado_sin_nombre_14);}.cls-29{fill:url(#Degradado_sin_nombre_13);}.cls-30{fill:url(#Degradado_sin_nombre_11-5);}.cls-31{fill:url(#Degradado_sin_nombre_10);}.cls-32{fill:url(#Degradado_sin_nombre_118);}.cls-33{fill:url(#Degradado_sin_nombre_119);}.cls-34{fill:url(#Degradado_sin_nombre_118-2);}.cls-35{fill:url(#Degradado_sin_nombre_119-2);}.cls-36{fill:#f58775;}.cls-37{fill:#fde5e5;}.cls-38{fill:url(#radial-gradient);}.cls-39{fill:url(#radial-gradient-2);}.cls-40{fill:url(#Degradado_sin_nombre_198);}.cls-41{fill:url(#Degradado_sin_nombre_68);}.cls-42{fill:url(#Degradado_sin_nombre_68-2);}.cls-43,.cls-60,.cls-72{fill:#fff;}.cls-117,.cls-43{opacity:0.4;}.cls-44{fill:url(#Degradado_sin_nombre_147);}.cls-45{fill:url(#Degradado_sin_nombre_147-2);}.cls-46{fill:url(#Degradado_sin_nombre_147-3);}.cls-47{fill:url(#Degradado_sin_nombre_148);}.cls-48{fill:url(#Degradado_sin_nombre_180);}.cls-49{fill:url(#Degradado_sin_nombre_180-2);}.cls-50{fill:url(#Degradado_sin_nombre_180-3);}.cls-51{fill:url(#Degradado_sin_nombre_180-4);}.cls-52{fill:url(#Degradado_sin_nombre_180-5);}.cls-53{fill:#a68a7a;}.cls-54{mask:url(#mask);}.cls-55{fill:url(#Degradado_sin_nombre_67);}.cls-56{fill:#ee7071;}.cls-57{fill:url(#Degradado_sin_nombre_147-4);}.cls-58{fill:#ee5b76;}.cls-59{fill:#bc244c;}.cls-61{fill:#ccc;}.cls-62{fill:url(#Degradado_sin_nombre_115);}.cls-116,.cls-63,.cls-67{mix-blend-mode:hard-light;}.cls-63{fill:url(#Degradado_sin_nombre_121);}.cls-64{fill:#3c1d10;}.cls-65{stroke:#3c1d10;stroke-width:5.35px;}.cls-146,.cls-65,.cls-69,.cls-72,.cls-75,.cls-78{stroke-linecap:round;}.cls-146,.cls-65,.cls-72,.cls-78{stroke-linejoin:round;}.cls-66{fill:url(#Degradado_sin_nombre_99);}.cls-68{fill:url(#Degradado_sin_nombre_121-2);}.cls-101,.cls-107,.cls-69,.cls-75{stroke:#fff;}.cls-101,.cls-102,.cls-107,.cls-108,.cls-139,.cls-140,.cls-142,.cls-144,.cls-145,.cls-69,.cls-75{stroke-miterlimit:10;}.cls-69{stroke-width:1.34px;}.cls-70{fill:url(#Degradado_sin_nombre_99-2);}.cls-71{fill:#064056;}.cls-72{fill-opacity:0.24;stroke-width:2.77px;}.cls-72,.cls-78{stroke:#064056;}.cls-73{fill:url(#Degradado_sin_nombre_181);}.cls-74{fill:url(#Degradado_sin_nombre_181-2);}.cls-75{stroke-width:1.17px;opacity:0.41;}.cls-76{fill:url(#Degradado_sin_nombre_181-3);}.cls-77{fill:url(#Degradado_sin_nombre_181-4);}.cls-78{stroke-width:2.81px;}.cls-79{fill:#f3938b;}.cls-80{fill:url(#Degradado_sin_nombre_320);}.cls-81{fill:url(#Degradado_sin_nombre_379);}.cls-82{fill:url(#Degradado_sin_nombre_20);}.cls-83{fill:url(#Degradado_sin_nombre_18);}.cls-84{fill:url(#Degradado_sin_nombre_320-2);}.cls-85{fill:url(#Degradado_sin_nombre_379-2);}.cls-86{fill:#546b6f;}.cls-87{fill:#2f5258;}.cls-88{fill:url(#Degradado_sin_nombre_20-2);}.cls-89{fill:url(#Degradado_sin_nombre_20-3);}.cls-90{fill:url(#Degradado_sin_nombre_20-4);}.cls-91{fill:url(#Degradado_sin_nombre_18-2);}.cls-92{fill:url(#Degradado_sin_nombre_20-5);}.cls-93{fill:url(#Degradado_sin_nombre_18-3);}.cls-94{mask:url(#mask-2);}.cls-95{fill:url(#Degradado_sin_nombre_301);}.cls-96{fill:url(#Degradado_sin_nombre_19);}.cls-97{fill:url(#Degradado_sin_nombre_18-4);}.cls-98{fill:url(#Degradado_sin_nombre_4);}.cls-99{fill:url(#Degradado_sin_nombre_3);}.cls-100{clip-path:url(#clip-path);}.cls-101,.cls-102{stroke-width:0.51px;}.cls-101,.cls-107{opacity:0.57;}.cls-102,.cls-108{stroke:#60929c;}.cls-103{fill:#9dcbd5;}.cls-104{fill:url(#Degradado_sin_nombre_4-2);}.cls-105{fill:url(#Degradado_sin_nombre_3-2);}.cls-106{clip-path:url(#clip-path-2);}.cls-107,.cls-108{stroke-width:0.31px;}.cls-109{fill:url(#Degradado_sin_nombre_323);}.cls-110{fill:url(#Degradado_sin_nombre_401);}.cls-111{mask:url(#mask-3);}.cls-112{fill:url(#Degradado_sin_nombre_301-2);}.cls-113{mask:url(#mask-4);}.cls-114{fill:url(#Degradado_sin_nombre_301-3);}.cls-115{fill:url(#Degradado_sin_nombre_401-2);}.cls-116{fill:url(#Degradado_sin_nombre_396);}.cls-117{fill:url(#Degradado_sin_nombre_404);}.cls-118{fill:#26ada3;}.cls-119{fill:url(#Degradado_sin_nombre_8-2);}.cls-120{fill:url(#Degradado_sin_nombre_7);}.cls-121{fill:#7fa3b3;}.cls-122{fill:#f69d99;}.cls-123{fill:url(#Degradado_sin_nombre_442);}.cls-124{fill:url(#Degradado_sin_nombre_279);}.cls-125{fill:url(#Degradado_sin_nombre_279-2);}.cls-126{fill:url(#Degradado_sin_nombre_279-3);}.cls-127{fill:url(#Degradado_sin_nombre_430);}.cls-128{fill:url(#Degradado_sin_nombre_9);}.cls-129{fill:url(#Degradado_sin_nombre_7-2);}.cls-130{fill:url(#Degradado_sin_nombre_668);}.cls-131{fill:url(#Degradado_sin_nombre_445);}.cls-132{fill:url(#Degradado_sin_nombre_665);}.cls-133{fill:url(#Degradado_sin_nombre_445-2);}.cls-134{fill:url(#Degradado_sin_nombre_665-2);}.cls-135{fill:url(#Degradado_sin_nombre_445-3);}.cls-136{fill:url(#Degradado_sin_nombre_665-3);}.cls-137{fill:url(#Degradado_sin_nombre_445-4);}.cls-138{fill:url(#Degradado_sin_nombre_430-2);}.cls-139,.cls-142{fill:#abdac1;fill-opacity:0.4;}.cls-139,.cls-142,.cls-144{stroke:#abdac1;}.cls-139{stroke-width:5.34px;}.cls-140,.cls-145,.cls-146{stroke:#d1ebe5;}.cls-140{stroke-width:4.57px;}.cls-141{fill:#d1ebe5;}.cls-142{stroke-width:5.12px;}.cls-143{opacity:0.25;}.cls-144{stroke-width:0.53px;}.cls-145{stroke-width:5.2px;}.cls-146{stroke-width:1.36px;}</style><linearGradient id="Degradado_sin_nombre_12" x1="562.6" y1="74.3" x2="562.92" y2="89.46" gradientUnits="userSpaceOnUse"><stop offset="0.01" stop-color="#010101"/><stop offset="0.45" stop-color="#fff" stop-opacity="0.5"/></linearGradient><linearGradient id="Degradado_sin_nombre_299" x1="579.46" y1="229.46" x2="579.79" y2="244.99" gradientUnits="userSpaceOnUse"><stop offset="0.01" stop-color="#010101"/><stop offset="0.45" stop-color="#fff"/></linearGradient><linearGradient id="Degradado_sin_nombre_299-2" x1="579.17" y1="124.82" x2="579.86" y2="157.84" xlink:href="#Degradado_sin_nombre_299"/><linearGradient id="Degradado_sin_nombre_299-3" x1="585.01" y1="124.85" x2="585.7" y2="157.84" xlink:href="#Degradado_sin_nombre_299"/><linearGradient id="Degradado_sin_nombre_6" x1="400" y1="283.74" x2="400" y2="11.2" gradientUnits="userSpaceOnUse"><stop offset="0" stop-color="#73b1c8"/><stop offset="1" stop-color="#4a858a"/></linearGradient><linearGradient id="Degradado_sin_nombre_5" x1="591.14" y1="265.63" x2="591.14" y2="-23.98" gradientUnits="userSpaceOnUse"><stop offset="0" stop-color="#73acba" stop-opacity="0"/><stop offset="1" stop-color="#4a858a"/></linearGradient><linearGradient id="Degradado_sin_nombre_2" x1="400" y1="300.72" x2="400" y2="268.23" gradientUnits="userSpaceOnUse"><stop offset="0" stop-color="#97d2d5"/><stop offset="0.28" stop-color="#a4d8db"/><stop offset="0.79" stop-color="#c7e8ec"/><stop offset="1" stop-color="#d7eff4"/></linearGradient><linearGradient id="Degradado_sin_nombre_305" x1="598.12" y1="297.99" x2="598.12" y2="245.58" gradientUnits="userSpaceOnUse"><stop offset="0" stop-color="#95bec8" stop-opacity="0"/><stop offset="0.82" stop-color="#649396"/></linearGradient><linearGradient id="Degradado_sin_nombre_636" x1="601.77" y1="436.09" x2="599.31" y2="197.92" gradientUnits="userSpaceOnUse"><stop offset="0" stop-color="#949ec8" stop-opacity="0"/><stop offset="1" stop-color="#647297"/></linearGradient><linearGradient id="Degradado_sin_nombre_16" x1="563.38" y1="233.95" x2="563.38" y2="115.57" gradientUnits="userSpaceOnUse"><stop offset="0.16" stop-color="#064056"/><stop offset="0.61" stop-color="#144758"/><stop offset="1" stop-color="#24505a"/></linearGradient><linearGradient id="Degradado_sin_nombre_16-2" x1="561.31" y1="124.54" x2="564.65" y2="223.13" xlink:href="#Degradado_sin_nombre_16"/><linearGradient id="Degradado_sin_nombre_16-3" x1="535.81" y1="119.84" x2="539.29" y2="222.33" xlink:href="#Degradado_sin_nombre_16"/><linearGradient id="Degradado_sin_nombre_16-4" x1="596.27" y1="117.75" x2="599.74" y2="220.15" xlink:href="#Degradado_sin_nombre_16"/><linearGradient id="Degradado_sin_nombre_94" x1="566.38" y1="146.88" x2="563.12" y2="103.32" gradientUnits="userSpaceOnUse"><stop offset="0" stop-color="#ca6464"/><stop offset="1" stop-color="#ca6464" stop-opacity="0"/></linearGradient><linearGradient id="Degradado_sin_nombre_15" x1="604.99" y1="288.31" x2="604.99" y2="134.67" gradientUnits="userSpaceOnUse"><stop offset="0" stop-color="#b5dee7"/><stop offset="0.25" stop-color="#c2e4eb"/><stop offset="0.7" stop-color="#e5f3f6"/><stop offset="1" stop-color="#fff"/></linearGradient><linearGradient id="Degradado_sin_nombre_11" x1="604.99" y1="233.04" x2="604.99" y2="123.76" gradientUnits="userSpaceOnUse"><stop offset="0" stop-color="#9bcdd6"/><stop offset="1" stop-color="#9bcdd6"/></linearGradient><linearGradient id="Degradado_sin_nombre_8" x1="697.65" y1="141.08" x2="571.91" y2="141.08" gradientUnits="userSpaceOnUse"><stop offset="0" stop-color="#b5dee7"/><stop offset="0.17" stop-color="#bde2ea"/><stop offset="0.44" stop-color="#d3ebf1"/><stop offset="0.78" stop-color="#f6fbfc"/><stop offset="0.85" stop-color="#fff"/></linearGradient><linearGradient id="Degradado_sin_nombre_234" x1="729.99" y1="127.27" x2="604.98" y2="127.27" gradientUnits="userSpaceOnUse"><stop offset="0.28" stop-color="#b4bed6"/><stop offset="0.42" stop-color="#c1c9dd"/><stop offset="0.67" stop-color="#e4e7f0"/><stop offset="0.85" stop-color="#fff"/></linearGradient><linearGradient id="Degradado_sin_nombre_11-2" x1="1918.97" y1="76.86" x2="1929.8" y2="195.17" gradientTransform="matrix(-1, 0, 0, 1, 2528, 0)" xlink:href="#Degradado_sin_nombre_11"/><linearGradient id="Degradado_sin_nombre_15-2" x1="608.29" y1="94.84" x2="582.69" y2="214.09" xlink:href="#Degradado_sin_nombre_15"/><linearGradient id="Degradado_sin_nombre_15-3" x1="1874.45" y1="288.31" x2="1874.45" y2="134.67" gradientTransform="matrix(-1, 0, 0, 1, 2396.22, 0)" xlink:href="#Degradado_sin_nombre_15"/><linearGradient id="Degradado_sin_nombre_11-3" x1="1876.93" y1="233.04" x2="1876.93" y2="123.76" gradientTransform="matrix(-1, 0, 0, 1, 2396.22, 0)" xlink:href="#Degradado_sin_nombre_11"/><linearGradient id="Degradado_sin_nombre_11-4" x1="1874.45" y1="233.04" x2="1874.45" y2="123.76" gradientTransform="matrix(-1, 0, 0, 1, 2396.22, 0)" xlink:href="#Degradado_sin_nombre_11"/><linearGradient id="Degradado_sin_nombre_14" x1="1741.55" y1="-75.77" x2="1741.55" y2="-135.06" gradientTransform="matrix(-0.93, 0.37, 0.37, 0.93, 2164.83, -389.04)" gradientUnits="userSpaceOnUse"><stop offset="0.28" stop-color="#b4d1d6"/><stop offset="0.42" stop-color="#c1d9dd"/><stop offset="0.67" stop-color="#e4eef0"/><stop offset="0.85" stop-color="#fff"/></linearGradient><linearGradient id="Degradado_sin_nombre_13" x1="502.86" y1="190.66" x2="502.86" y2="124.49" gradientUnits="userSpaceOnUse"><stop offset="0.28" stop-color="#b5dee7"/><stop offset="0.42" stop-color="#c2e3e9"/><stop offset="0.68" stop-color="#e5eef0"/><stop offset="0.69" stop-color="#e6eff0"/></linearGradient><linearGradient id="Degradado_sin_nombre_11-5" x1="517.81" y1="76.86" x2="528.63" y2="195.17" xlink:href="#Degradado_sin_nombre_11"/><linearGradient id="Degradado_sin_nombre_10" x1="517.7" y1="54.17" x2="530.52" y2="194.22" gradientUnits="userSpaceOnUse"><stop offset="0" stop-color="#b5dee7"/><stop offset="0.37" stop-color="#b7dfe8"/><stop offset="0.56" stop-color="#bfe3ea"/><stop offset="0.72" stop-color="#cde9ef"/><stop offset="0.85" stop-color="#e0f1f5"/><stop offset="0.97" stop-color="#f9fcfd"/><stop offset="1" stop-color="#fff"/></linearGradient><linearGradient id="Degradado_sin_nombre_118" x1="522.77" y1="82.14" x2="537.3" y2="92.49" gradientUnits="userSpaceOnUse"><stop offset="0" stop-color="#f9b7b3"/><stop offset="1" stop-color="#ee7071"/></linearGradient><linearGradient id="Degradado_sin_nombre_119" x1="541.07" y1="82.16" x2="540.86" y2="82.26" gradientUnits="userSpaceOnUse"><stop offset="0" stop-color="#f9b7b3"/><stop offset="1" stop-color="#ee7071"/></linearGradient><linearGradient id="Degradado_sin_nombre_118-2" x1="153.62" y1="82.14" x2="168.16" y2="92.49" gradientTransform="matrix(-1, 0, 0, 1, 757.62, 0)" xlink:href="#Degradado_sin_nombre_118"/><linearGradient id="Degradado_sin_nombre_119-2" x1="171.93" y1="82.16" x2="171.72" y2="82.26" gradientTransform="matrix(-1, 0, 0, 1, 757.62, 0)" xlink:href="#Degradado_sin_nombre_119"/><radialGradient id="radial-gradient" cx="609.78" cy="136.96" r="43.41" gradientTransform="translate(0 1.44)" gradientUnits="userSpaceOnUse"><stop offset="0" stop-color="#fff"/><stop offset="1" stop-color="#fff" stop-opacity="0"/></radialGradient><radialGradient id="radial-gradient-2" cx="600.71" cy="137.14" r="43.41" xlink:href="#radial-gradient"/><linearGradient id="Degradado_sin_nombre_198" x1="564.43" y1="124.02" x2="564.43" y2="90.25" gradientUnits="userSpaceOnUse"><stop offset="0.01" stop-color="#fff" stop-opacity="0"/><stop offset="0.01" stop-color="#fff" stop-opacity="0.02"/><stop offset="0.09" stop-color="#fff" stop-opacity="0.22"/><stop offset="0.18" stop-color="#fff" stop-opacity="0.41"/><stop offset="0.26" stop-color="#fff" stop-opacity="0.57"/><stop offset="0.35" stop-color="#fff" stop-opacity="0.7"/><stop offset="0.45" stop-color="#fff" stop-opacity="0.81"/><stop offset="0.55" stop-color="#fff" stop-opacity="0.89"/><stop offset="0.67" stop-color="#fff" stop-opacity="0.95"/><stop offset="0.8" stop-color="#fff" stop-opacity="0.99"/><stop offset="1" stop-color="#fff"/></linearGradient><linearGradient id="Degradado_sin_nombre_68" x1="613.72" y1="11.05" x2="613.72" y2="-36.2" gradientTransform="matrix(0.82, 0.32, -0.36, 0.93, 76.32, -133.63)" gradientUnits="userSpaceOnUse"><stop offset="0.01" stop-color="#fff" stop-opacity="0"/><stop offset="0.62" stop-color="#fff" stop-opacity="0.61"/><stop offset="1" stop-color="#fff"/></linearGradient><linearGradient id="Degradado_sin_nombre_68-2" x1="255.78" y1="131.21" x2="255.78" y2="83.95" gradientTransform="matrix(-0.82, 0.32, 0.36, 0.93, 712.46, -133.63)" xlink:href="#Degradado_sin_nombre_68"/><linearGradient id="Degradado_sin_nombre_147" x1="535.18" y1="7.91" x2="531.57" y2="111.16" gradientUnits="userSpaceOnUse"><stop offset="0" stop-color="#7b534c"/><stop offset="0.79" stop-color="#270f18"/></linearGradient><linearGradient id="Degradado_sin_nombre_147-2" x1="595.9" y1="10.03" x2="592.28" y2="113.27" xlink:href="#Degradado_sin_nombre_147"/><linearGradient id="Degradado_sin_nombre_147-3" x1="566.38" y1="9" x2="562.76" y2="112.26" xlink:href="#Degradado_sin_nombre_147"/><linearGradient id="Degradado_sin_nombre_148" x1="562.49" y1="11.76" x2="562.49" y2="79" gradientUnits="userSpaceOnUse"><stop offset="0.11" stop-color="#7b534c"/><stop offset="1" stop-color="#492928"/></linearGradient><linearGradient id="Degradado_sin_nombre_180" x1="593.07" y1="-200.74" x2="614.46" y2="-200.74" gradientTransform="translate(84.42 460.01) rotate(-21.75)" gradientUnits="userSpaceOnUse"><stop offset="0" stop-color="#7b534c" stop-opacity="0"/><stop offset="1" stop-color="#7b534c"/></linearGradient><linearGradient id="Degradado_sin_nombre_180-2" x1="738.18" y1="-431.44" x2="753.31" y2="-431.44" gradientTransform="translate(338.97 871.43) rotate(-44.64)" xlink:href="#Degradado_sin_nombre_180"/><linearGradient id="Degradado_sin_nombre_180-3" x1="1686.87" y1="-473.3" x2="1700" y2="-473.3" gradientTransform="matrix(-0.67, 0.74, 0.74, 0.67, 2022.72, -885.39)" xlink:href="#Degradado_sin_nombre_180"/><linearGradient id="Degradado_sin_nombre_180-4" x1="699.4" y1="-411.42" x2="720.09" y2="-411.42" gradientTransform="translate(282.99 806.06) rotate(-40.69)" xlink:href="#Degradado_sin_nombre_180"/><linearGradient id="Degradado_sin_nombre_180-5" x1="558.6" y1="32.34" x2="583.65" y2="32.34" gradientTransform="translate(7.29 -2.29) rotate(0.28)" xlink:href="#Degradado_sin_nombre_180"/><mask id="mask" x="558.38" y="73.96" width="8.96" height="25.19" maskUnits="userSpaceOnUse"><rect class="cls-1" x="558.38" y="73.96" width="8.96" height="25.19"/></mask><linearGradient id="Degradado_sin_nombre_67" x1="560.87" y1="86.56" x2="567.33" y2="86.56" gradientUnits="userSpaceOnUse"><stop offset="0.01" stop-color="#fff" stop-opacity="0"/><stop offset="0.11" stop-color="#fff" stop-opacity="0.12"/><stop offset="0.27" stop-color="#fff" stop-opacity="0.28"/><stop offset="0.41" stop-color="#fff" stop-opacity="0.4"/><stop offset="0.54" stop-color="#fff" stop-opacity="0.47"/><stop offset="0.62" stop-color="#fff" stop-opacity="0.5"/><stop offset="0.98" stop-color="#fff" stop-opacity="0"/></linearGradient><linearGradient id="Degradado_sin_nombre_147-4" x1="560.74" y1="90.77" x2="570.04" y2="116.99" gradientTransform="matrix(1, 0.03, -0.04, 1.08, 3.41, -18.91)" xlink:href="#Degradado_sin_nombre_147"/><radialGradient id="Degradado_sin_nombre_115" cx="691.88" cy="56.24" r="4.66" gradientTransform="matrix(1.2, 0, 0, -1.14, -254.06, 145.86)" gradientUnits="userSpaceOnUse"><stop offset="0" stop-color="#b3412d" stop-opacity="0.5"/><stop offset="1" stop-color="#b3412d" stop-opacity="0"/></radialGradient><radialGradient id="Degradado_sin_nombre_121" cx="691.88" cy="84.76" r="4.66" gradientTransform="translate(-254.06 -8.16) scale(1.2 1.14)" gradientUnits="userSpaceOnUse"><stop offset="0" stop-color="#fff" stop-opacity="0.5"/><stop offset="1" stop-color="#fff" stop-opacity="0"/></radialGradient><radialGradient id="Degradado_sin_nombre_99" cx="691.67" cy="102.05" r="8.75" gradientTransform="translate(-253.61 32.97) scale(1.2 0.62)" gradientUnits="userSpaceOnUse"><stop offset="0" stop-color="#f16263" stop-opacity="0.8"/><stop offset="0" stop-color="#f16263" stop-opacity="0.6"/><stop offset="0.82" stop-color="#f16263" stop-opacity="0"/></radialGradient><radialGradient id="Degradado_sin_nombre_121-2" cx="546.51" cy="85.47" r="6.41" gradientTransform="translate(0 1.44)" xlink:href="#Degradado_sin_nombre_121"/><radialGradient id="Degradado_sin_nombre_99-2" cx="664.97" cy="102.05" r="8.75" xlink:href="#Degradado_sin_nombre_99"/><linearGradient id="Degradado_sin_nombre_181" x1="561.42" y1="66.91" x2="536.86" y2="95.57" gradientTransform="matrix(1, 0, 0, 1, 0, 0)" xlink:href="#radial-gradient"/><linearGradient id="Degradado_sin_nombre_181-2" x1="563.76" y1="68.91" x2="539.2" y2="97.57" gradientTransform="matrix(1, 0, 0, 1, 0, 0)" xlink:href="#radial-gradient"/><linearGradient id="Degradado_sin_nombre_181-3" x1="593.48" y1="66.91" x2="568.92" y2="95.57" gradientTransform="matrix(1, 0, 0, 1, 0, 0)" xlink:href="#radial-gradient"/><linearGradient id="Degradado_sin_nombre_181-4" x1="595.82" y1="68.91" x2="571.26" y2="97.57" gradientTransform="matrix(1, 0, 0, 1, 0, 0)" xlink:href="#radial-gradient"/><linearGradient id="Degradado_sin_nombre_320" x1="575.76" y1="210.41" x2="583.69" y2="210.41" gradientTransform="translate(1159.45 420.81) rotate(-180)" gradientUnits="userSpaceOnUse"><stop offset="0" stop-color="#76c7a3"/><stop offset="0.01" stop-color="#72c6a1"/><stop offset="0.1" stop-color="#5dc097"/><stop offset="0.16" stop-color="#56be93"/><stop offset="0.34" stop-color="#64c39a"/><stop offset="0.67" stop-color="#89cfae"/><stop offset="1" stop-color="#b2ddc3"/></linearGradient><linearGradient id="Degradado_sin_nombre_379" x1="579.61" y1="198.61" x2="579.04" y2="227.32" gradientUnits="userSpaceOnUse"><stop offset="0" stop-color="#26ada3"/><stop offset="0.28" stop-color="#4abab0"/><stop offset="0.57" stop-color="#69c5bc"/><stop offset="0.82" stop-color="#7cccc3"/><stop offset="1" stop-color="#83cec5"/></linearGradient><linearGradient id="Degradado_sin_nombre_20" x1="579.72" y1="186.28" x2="579.72" y2="179.42" gradientTransform="translate(1159.45 365.17) rotate(-180)" gradientUnits="userSpaceOnUse"><stop offset="0" stop-color="#546b6f"/><stop offset="1" stop-color="#9dcbd5"/></linearGradient><linearGradient id="Degradado_sin_nombre_18" x1="579.72" y1="181.29" x2="579.72" y2="179.19" gradientTransform="translate(1159.45 360.32) rotate(-180)" gradientUnits="userSpaceOnUse"><stop offset="0" stop-color="#ddf2f8" stop-opacity="0"/><stop offset="1" stop-color="#ddf2f8"/></linearGradient><linearGradient id="Degradado_sin_nombre_320-2" x1="570.95" y1="239.41" x2="588.5" y2="239.41" gradientTransform="translate(1159.45 478.81) rotate(-180)" xlink:href="#Degradado_sin_nombre_320"/><linearGradient id="Degradado_sin_nombre_379-2" x1="582.27" y1="239.87" x2="585" y2="254.02" xlink:href="#Degradado_sin_nombre_379"/><linearGradient id="Degradado_sin_nombre_20-2" x1="575.56" y1="118.93" x2="582.45" y2="118.93" gradientTransform="translate(1159.06 237.87) rotate(-180)" xlink:href="#Degradado_sin_nombre_20"/><linearGradient id="Degradado_sin_nombre_20-3" x1="579.46" y1="100.46" x2="579.55" y2="103.8" gradientTransform="translate(1159.06 205.93) rotate(-180)" xlink:href="#Degradado_sin_nombre_20"/><linearGradient id="Degradado_sin_nombre_20-4" x1="579.53" y1="104.8" x2="579.53" y2="99.48" gradientTransform="translate(1159.06 202.86) rotate(-180)" xlink:href="#Degradado_sin_nombre_20"/><linearGradient id="Degradado_sin_nombre_18-2" x1="579.53" y1="101.62" x2="579.53" y2="99.7" gradientTransform="translate(1159.06 200.8) rotate(-180)" xlink:href="#Degradado_sin_nombre_18"/><linearGradient id="Degradado_sin_nombre_20-5" x1="579.72" y1="226.25" x2="579.72" y2="218.34" gradientTransform="translate(1159.45 443.96) rotate(-180)" xlink:href="#Degradado_sin_nombre_20"/><linearGradient id="Degradado_sin_nombre_18-3" x1="579.72" y1="220.16" x2="579.72" y2="218.06" gradientTransform="translate(1159.45 438.05) rotate(-180)" xlink:href="#Degradado_sin_nombre_18"/><mask id="mask-2" x="575.25" y="229.11" width="8.96" height="25.8" maskUnits="userSpaceOnUse"><rect class="cls-2" x="575.25" y="229.11" width="8.96" height="25.8"/></mask><linearGradient id="Degradado_sin_nombre_301" x1="577.74" y1="242.01" x2="584.19" y2="242.01" gradientUnits="userSpaceOnUse"><stop offset="0.01" stop-color="#fff" stop-opacity="0"/><stop offset="0.07" stop-color="#fff" stop-opacity="0.15"/><stop offset="0.19" stop-color="#fff" stop-opacity="0.4"/><stop offset="0.3" stop-color="#fff" stop-opacity="0.62"/><stop offset="0.4" stop-color="#fff" stop-opacity="0.78"/><stop offset="0.49" stop-color="#fff" stop-opacity="0.9"/><stop offset="0.57" stop-color="#fff" stop-opacity="0.97"/><stop offset="0.62" stop-color="#fff"/><stop offset="0.98" stop-color="#fff" stop-opacity="0"/></linearGradient><linearGradient id="Degradado_sin_nombre_19" x1="579.72" y1="266.52" x2="579.72" y2="255.39" gradientTransform="translate(1159.45 521.04) rotate(-180)" gradientUnits="userSpaceOnUse"><stop offset="0.37" stop-color="#546b6f"/><stop offset="1" stop-color="#9dcbd5"/></linearGradient><linearGradient id="Degradado_sin_nombre_18-4" x1="579.72" y1="257.95" x2="579.72" y2="255" gradientTransform="translate(1159.45 512.72) rotate(-180)" xlink:href="#Degradado_sin_nombre_18"/><linearGradient id="Degradado_sin_nombre_4" x1="569.14" y1="156.68" x2="568.84" y2="141.32" gradientUnits="userSpaceOnUse"><stop offset="0" stop-color="#457781"/><stop offset="1" stop-color="#9dcbd5"/></linearGradient><radialGradient id="Degradado_sin_nombre_3" cx="569.3" cy="150.56" r="18.32" gradientTransform="matrix(-0.02, -1, 0.31, 0, 531.93, 718.5)" gradientUnits="userSpaceOnUse"><stop offset="0.69" stop-color="#ddf2f8" stop-opacity="0"/><stop offset="0.81" stop-color="#ddf2f8"/></radialGradient><clipPath id="clip-path"><path class="cls-5" d="M568.94,135.1a2.63,2.63,0,0,0-2.64,2.62v15.61a2.64,2.64,0,0,0,5.28,0V137.72A2.63,2.63,0,0,0,568.94,135.1Z"/></clipPath><linearGradient id="Degradado_sin_nombre_4-2" x1="1938.74" y1="213.02" x2="1938.56" y2="203.48" gradientTransform="matrix(-1, 0, 0, 1, 2523.98, 0)" xlink:href="#Degradado_sin_nombre_4"/><radialGradient id="Degradado_sin_nombre_3-2" cx="1938.84" cy="209.23" r="11.37" gradientTransform="matrix(0.02, -1, -0.31, 0, 619.16, 2139.97)" xlink:href="#Degradado_sin_nombre_3"/><clipPath id="clip-path-2"><path class="cls-5" d="M585.37,199.62a1.63,1.63,0,0,1,1.63,1.63v9.69a1.64,1.64,0,0,1-3.27,0v-9.69A1.63,1.63,0,0,1,585.37,199.62Z"/></clipPath><linearGradient id="Degradado_sin_nombre_323" x1="573.4" y1="151.51" x2="589.01" y2="151.51" gradientTransform="translate(1159.45 303.02) rotate(-180)" gradientUnits="userSpaceOnUse"><stop offset="0" stop-color="#56be93"/><stop offset="0.28" stop-color="#79caa6"/><stop offset="0.57" stop-color="#98d4b6"/><stop offset="0.82" stop-color="#abdbbf"/><stop offset="1" stop-color="#b2ddc3"/></linearGradient><linearGradient id="Degradado_sin_nombre_401" x1="578.31" y1="151.51" x2="589.91" y2="151.51" gradientUnits="userSpaceOnUse"><stop offset="0.36" stop-color="#56be93"/><stop offset="0.44" stop-color="#6fc6a0"/><stop offset="0.56" stop-color="#8cd0af"/><stop offset="0.68" stop-color="#a1d7ba"/><stop offset="0.79" stop-color="#aedcc1"/><stop offset="0.9" stop-color="#b2ddc3"/></linearGradient><mask id="mask-3" x="577.48" y="123.93" width="4.49" height="55.16" maskUnits="userSpaceOnUse"><rect class="cls-3" x="577.48" y="123.93" width="4.49" height="55.16"/></mask><linearGradient id="Degradado_sin_nombre_301-2" x1="578.73" y1="151.51" x2="581.96" y2="151.51" xlink:href="#Degradado_sin_nombre_301"/><mask id="mask-4" x="584.47" y="123.93" width="2.18" height="55.17" maskUnits="userSpaceOnUse"><rect class="cls-4" x="584.47" y="123.93" width="2.18" height="55.16"/></mask><linearGradient id="Degradado_sin_nombre_301-3" x1="585.08" y1="151.52" x2="586.65" y2="151.52" xlink:href="#Degradado_sin_nombre_301"/><linearGradient id="Degradado_sin_nombre_401-2" x1="581.26" y1="151.51" x2="564.26" y2="151.51" xlink:href="#Degradado_sin_nombre_401"/><linearGradient id="Degradado_sin_nombre_396" x1="579.72" y1="121.96" x2="579.72" y2="127.98" gradientUnits="userSpaceOnUse"><stop offset="0.3" stop-color="#56be93"/><stop offset="0.53" stop-color="#86cfad"/><stop offset="0.9" stop-color="#cce7d4"/></linearGradient><linearGradient id="Degradado_sin_nombre_404" x1="579.72" y1="178.59" x2="579.72" y2="126.56" gradientUnits="userSpaceOnUse"><stop offset="0" stop-color="#26ada3"/><stop offset="0.07" stop-color="#30b0a7" stop-opacity="0.89"/><stop offset="0.31" stop-color="#4dbbb1" stop-opacity="0.58"/><stop offset="0.52" stop-color="#64c3ba" stop-opacity="0.33"/><stop offset="0.72" stop-color="#75c9c0" stop-opacity="0.15"/><stop offset="0.88" stop-color="#7fcdc4" stop-opacity="0.04"/><stop offset="1" stop-color="#83cec5" stop-opacity="0"/></linearGradient><linearGradient id="Degradado_sin_nombre_8-2" x1="697.65" y1="172.75" x2="571.91" y2="172.75" xlink:href="#Degradado_sin_nombre_8"/><linearGradient id="Degradado_sin_nombre_7" x1="697.3" y1="192.63" x2="572.04" y2="192.63" gradientUnits="userSpaceOnUse"><stop offset="0" stop-color="#b5dee7"/><stop offset="1" stop-color="#90b7c8"/></linearGradient><linearGradient id="Degradado_sin_nombre_442" x1="599.02" y1="182.56" x2="579.26" y2="176.24" gradientUnits="userSpaceOnUse"><stop offset="0" stop-color="#f37373"/><stop offset="0.11" stop-color="#f37475"/><stop offset="1" stop-color="#f8ada9"/></linearGradient><linearGradient id="Degradado_sin_nombre_279" x1="601.26" y1="174.3" x2="580.97" y2="170.9" gradientUnits="userSpaceOnUse"><stop offset="0" stop-color="#f69d99"/><stop offset="0.65" stop-color="#f9b7b3"/><stop offset="1" stop-color="#fbcdcc"/></linearGradient><linearGradient id="Degradado_sin_nombre_279-2" x1="598.73" y1="181.43" x2="595.47" y2="160.91" xlink:href="#Degradado_sin_nombre_279"/><linearGradient id="Degradado_sin_nombre_279-3" x1="604.96" y1="184.02" x2="604.96" y2="171.2" xlink:href="#Degradado_sin_nombre_279"/><linearGradient id="Degradado_sin_nombre_430" x1="637.99" y1="190.46" x2="608.79" y2="193.48" xlink:href="#Degradado_sin_nombre_94"/><linearGradient id="Degradado_sin_nombre_9" x1="1695.01" y1="-100.24" x2="1758.17" y2="-100.24" gradientTransform="matrix(-0.91, 0.42, 0.42, 0.91, 2131.68, -445.01)" gradientUnits="userSpaceOnUse"><stop offset="0" stop-color="#fff"/><stop offset="0.21" stop-color="#e5f3f6"/><stop offset="0.53" stop-color="#c2e4eb"/><stop offset="0.7" stop-color="#b5dee7"/></linearGradient><linearGradient id="Degradado_sin_nombre_7-2" x1="457.27" y1="141.4" x2="579.74" y2="247.98" xlink:href="#Degradado_sin_nombre_7"/><linearGradient id="Degradado_sin_nombre_668" x1="547.49" y1="156.5" x2="547.49" y2="135.87" gradientUnits="userSpaceOnUse"><stop offset="0" stop-color="#f69d99"/><stop offset="0.5" stop-color="#f9b7b3"/><stop offset="1" stop-color="#fcd5d5"/></linearGradient><linearGradient id="Degradado_sin_nombre_445" x1="437.8" y1="326.08" x2="437.8" y2="320.67" gradientTransform="matrix(0.79, 0.22, -0.27, 0.96, 288.24, -272.65)" gradientUnits="userSpaceOnUse"><stop offset="0" stop-color="#f69d99"/><stop offset="1" stop-color="#f9b7b3"/></linearGradient><linearGradient id="Degradado_sin_nombre_665" x1="552.78" y1="154.2" x2="552.78" y2="132.39" gradientUnits="userSpaceOnUse"><stop offset="0" stop-color="#f69d99"/><stop offset="0.5" stop-color="#f9b7b3"/><stop offset="1" stop-color="#fcdee1"/></linearGradient><linearGradient id="Degradado_sin_nombre_445-2" x1="809.94" y1="541.97" x2="809.94" y2="536.55" gradientTransform="matrix(1, 0.78, -0.61, 0.79, 73.31, -924.74)" xlink:href="#Degradado_sin_nombre_445"/><linearGradient id="Degradado_sin_nombre_665-2" x1="559.32" y1="155.87" x2="559.32" y2="138.84" xlink:href="#Degradado_sin_nombre_665"/><linearGradient id="Degradado_sin_nombre_445-3" x1="776.13" y1="469.81" x2="776.13" y2="464.39" gradientTransform="matrix(1.1, 0.63, -0.5, 0.87, -59.76, -758.07)" xlink:href="#Degradado_sin_nombre_445"/><linearGradient id="Degradado_sin_nombre_665-3" x1="565.27" y1="163.09" x2="565.27" y2="147.32" xlink:href="#Degradado_sin_nombre_665"/><linearGradient id="Degradado_sin_nombre_445-4" x1="766.44" y1="434.06" x2="766.44" y2="428.65" gradientTransform="matrix(1.14, 0.56, -0.44, 0.9, -117.39, -668.91)" xlink:href="#Degradado_sin_nombre_445"/><linearGradient id="Degradado_sin_nombre_430-2" x1="539.49" y1="177.42" x2="562.99" y2="177.42" xlink:href="#Degradado_sin_nombre_94"/></defs><g class="cls-6"><g id="Layer_1" data-name="Layer 1"><rect class="cls-7" width="800" height="298.47"/><path class="cls-8" d="M727.5,298.47V203c0-82.42-61-149.23-136.36-149.23h0c-75.32,0-136.37,66.81-136.37,149.23v95.51Z"/><rect class="cls-9" y="260.24" width="800" height="39.22"/><path class="cls-10" d="M695.67,274.22a1.51,1.51,0,0,0-.53-.67c-.87-.9-2.87-1.76-5.62-2.55l-.06,0-.68-.19-.07,0-.75-.2-.12,0-.64-.15-.2-.05-.77-.19h0c-1-.22-2-.43-3.11-.63l-1.12-.2c-.76-.13-1.55-.25-2.35-.37-1.62-.23-3.32-.45-5.1-.64s-3.64-.37-5.55-.52-3.88-.29-5.89-.4c-1.5-.09-3-.16-4.57-.23l-3.1-.11-1.56,0-1.72,0c-1,0-2,0-3-.06h-1.63l-3,0H641.4c-1.86,0-3.64.07-5.31.15v-7.93H534.38v5.29h0v1.49c-11,.31-21.58,1.27-28.1,2.91l-.8.22h0l-.59.18-.19.07-.69.24-.17.07c-.19.07-.38.14-.55.22l-.07,0-.53.24-.13.07-.38.2-.09.05-.38.25-.1.07-.25.19-.08.07-.25.24-.06.08-.14.18-.06.09c0,.08-.09.16-.12.24l0,.08-.05.17s0,.07,0,.1a.93.93,0,0,0,0,.23h0c.06,2.05,4.69,4.14,10,5.92,8,2.7,18.55,5,32.65,6.78a86.17,86.17,0,0,0,10.58.56c-3.1.2-5.61.84-6.09,1.63-.58,1,2.34,1.91,6.57,2,.64,0,1.27,0,1.88,0V290s0,0,0-.05a5.87,5.87,0,0,0-2,2.76.54.54,0,0,0-.11.26,1.42,1.42,0,0,0-.07.71.7.7,0,0,0,.24.54,3.65,3.65,0,0,0,1.45.53c.36.08.75.15,1.23.21s1,.1,1.52.13,1.12.05,1.71,0a11.28,11.28,0,0,0,1.21-.07c.15.55,1.23,1.09,3.09,1.53a34.93,34.93,0,0,0,3.47.61c1.32.18,2.78.31,4.27.42,3,.23,6.18.36,9.41.41s6.5,0,9.64-.16a128.34,128.34,0,0,0,14.76-1.43,28.64,28.64,0,0,0,3.31-.63,35.69,35.69,0,0,0,4-1.07,9.44,9.44,0,0,0,3.21-1.61h0c1.77-1.73,1.74-2.75,2.26-2.7-1.34-.13-3-.2-4.73-.25v-1c.75,0,1.53.06,2.32,0,4.23-.07,7.16-1,6.58-2a2.85,2.85,0,0,0-1.54-.88c1.66,0,3.32,0,4.93-.08a403,403,0,0,0,44.13-4.24l1.06-.17.36-.06.71-.11.43-.07.64-.11.47-.08.6-.1.5-.08.57-.1.52-.09.53-.1,1.16-.21.35-.06.67-.13.37-.07.67-.13.34-.07.7-.14.28-.06L682,280l.16,0c1.5-.31,2.94-.64,4.29-1l.06,0,.79-.2h0c3.78-1,6.69-2.08,7.82-3.2h0A1.3,1.3,0,0,0,695.67,274.22Zm-38.09,2a183.64,183.64,0,0,1-21.49,3.18v-6.58l1.67,0,3.6,0c2.39,0,4.79,0,7.12.08s4.57.21,6.65.4a50.15,50.15,0,0,1,5.51.77c1.21.25,1.76.58,1.91.91C661.07,275.39,659.26,275.82,657.58,276.21Z"/><g class="cls-11"><path class="cls-12" d="M620.74,272.46v-5.33a1.7,1.7,0,0,0-1.6-1.79H581a1.7,1.7,0,0,0-1.6,1.79v5.33Z"/></g><path class="cls-13" d="M611.69,259.23A35.24,35.24,0,0,0,619,237.69V131.78a35.63,35.63,0,0,0-35.71-35.54H543.48a35.63,35.63,0,0,0-35.71,35.54V237.69a35.29,35.29,0,0,0,7.3,21.54Z"/><path class="cls-14" d="M605.12,259.23a32.53,32.53,0,0,0,9.4-22.89V135.23a32.8,32.8,0,0,0-32.87-32.71H545.12a32.79,32.79,0,0,0-32.87,32.71V236.34a32.52,32.52,0,0,0,9.39,22.89Z"/><path class="cls-15" d="M512.35,238.89a33.89,33.89,0,0,0,.63,4.31v0a32.7,32.7,0,0,0,8.66,16H541.8V222.07a73.36,73.36,0,0,0,8.35-6.59c6.14-5.56,11.8-11.72,15.79-19-4.32-2.2-7.78-5.5-11.2-8.9a.53.53,0,0,1,0-.75c6.21-5.7-1.87-10.66-7.14-12.46a23.1,23.1,0,0,0-5.8-1.13v-77c-19.77.87-29.55,15.47-29.55,32.43V236.34c0,.71,0,1.41.07,2.11Z"/><path class="cls-16" d="M605.12,259.23a32.53,32.53,0,0,0,9.4-22.89V128.67c0-17.57-12-32.69-31.23-32.43l-.13,163Z"/><rect class="cls-17" x="536.25" y="73.4" width="54.26" height="78.58" rx="22.67"/><rect class="cls-18" x="536.25" y="67.6" width="54.26" height="78.58" rx="22.67"/><path class="cls-19" d="M619.47,259.23V131.78a35.6,35.6,0,0,0-29-34.9V259.23Z"/><path class="cls-20" d="M599,200.49c.88.07,2.64.06,3.28.69s1.28,3.25,1.68,4.13a53.91,53.91,0,0,0,13.41,17.86l2.14,1.86V192.6c-2.77-.84-5.61-1.47-8.4-2a125.48,125.48,0,0,0-14.79-2.39c-1.91-.16-3.84-.31-5.76-.5v13.11A76.62,76.62,0,0,1,599,200.49Z"/><path class="cls-21" d="M657.27,120.44c-14.2-12.33-30.26-21.55-48.67-26a19.63,19.63,0,0,0-17.37,4.24v26a15.85,15.85,0,0,0,7.46,4.2,115,115,0,0,1,12.06,3.7l1,.36.84.42c11.45,5.61,22.69,13,30.56,23.18,3.11,4,6.6,8.84,8.16,13.67,1.92,6,2.36,12.1,8.16,16,5.22,3.47,12.61,2.7,17.61-1.07s7.72-10,8.07-16.28C686.23,149.85,670.57,132,657.27,120.44Z"/><path class="cls-22" d="M657.27,120.44c-14.2-12.33-30.26-21.55-48.67-26a19.63,19.63,0,0,0-17.37,4.24v8.14c4.44-5.34,12.24-7.66,19.08-6,18.41,4.5,34.48,13.72,48.67,26.06,9.84,8.55,21,20.54,25.66,33.85C681.77,144.86,668.66,130.35,657.27,120.44Z"/><polygon class="cls-23" points="590.58 112.69 617.42 132.15 603.95 142.27 616.95 156 590.58 213.16 590.58 112.69"/><polygon class="cls-24" points="590.52 96.89 617.36 123.59 602.3 138.57 613.78 150 590.52 215.81 590.52 96.89"/><path class="cls-25" d="M536.25,259.23V96.88a35.6,35.6,0,0,0-28.95,34.9V259.23Z"/><path class="cls-26" d="M527.9,118.2c2.19-6.24,4.77-13.21,2.53-19.68a35.55,35.55,0,0,0-23.13,33.26V187.6C507.93,186.07,522,134.86,527.9,118.2Z"/><path class="cls-27" d="M507.3,207.81v21.33a27.73,27.73,0,0,0,22.75-1.53,36.64,36.64,0,0,0,6.2-4.48V205.85C526.61,206.38,517,208,507.3,207.81Z"/><path class="cls-28" d="M535.75,132.58V100.07A19.54,19.54,0,0,0,517,101.91c-15.56,10.78-27.22,25.13-36,41.71s-16,37.66-6.4,55.57c4.78,8.88,13.26,13.52,23.35,10.05a16.07,16.07,0,0,0,6.73-4.71,19.56,19.56,0,0,0,4.79-10.79,13.76,13.76,0,0,0-.48-5.6c-.4-1.16-.87-2.29-1.36-3.41a14.22,14.22,0,0,1-1.24-7.82c.59-4.19,2.46-8.15,4.19-12,1.26-2.81,2.6-5.58,4.07-8.28.39-.73,2.57-4.31,1.3-2.31.58-.91,1.16-1.83,1.76-2.73a94.82,94.82,0,0,1,6.38-8.41c1-1.21,2.13-2.38,3.21-3.55l.64-.7.82-.7C531,136.26,533.34,134.38,535.75,132.58Z"/><path class="cls-29" d="M535.75,108.23a19.49,19.49,0,0,0-19.44,1.51c-15.55,10.79-27.22,25.13-36,41.72C475.7,160.14,471.54,170,470,180a39.27,39.27,0,0,0,4.58,19.17c4.78,8.88,13.26,13.52,23.35,10.05a16.07,16.07,0,0,0,6.73-4.71,20.11,20.11,0,0,0,4-7.12c-.09-.5,1.11-3.59.94-6.72-.19-2.63-3.46-8.29-3.12-9.45a13,13,0,0,1-.13-4.33c.59-4.19,2.46-8.15,4.19-12,1.26-2.81,2.6-5.58,4.07-8.28.39-.73,2.61-4.36,1.25-2.23.59-.94,1.19-1.88,1.81-2.81a94.82,94.82,0,0,1,6.38-8.41c1-1.21,2.13-2.38,3.21-3.55.28-.29.47-.51.64-.7s.47-.39.82-.7c2.29-2,4.62-3.87,7-5.67Z"/><polygon class="cls-30" points="536.25 112.69 509.41 132.15 522.88 142.27 509.88 156 536.25 213.16 536.25 112.69"/><polygon class="cls-31" points="536.25 96.89 509.41 123.59 524.47 138.57 512.99 150 536.25 215.81 536.25 96.89"/><path class="cls-32" d="M521.92,88.42c.67,6.24,5,10.91,9.62,10.43s7.89-5.94,7.24-12.19-4.95-10.9-9.61-10.42S521.28,82.19,521.92,88.42Z"/><path class="cls-33" d="M530.54,78.47c-3.82.18-6.77,4.15-6.62,9.29s3.38,8.49,7.19,8.31,6.77-3.84,6.61-9S534.36,78.28,530.54,78.47Zm.66,15.26c-1.71,0-3.11-2-3.11-4.54s1.4-4.54,3.11-4.54,3.11,2,3.11,4.54S532.92,93.73,531.2,93.73Z"/><path class="cls-34" d="M604.85,88.42c-.67,6.24-5,10.91-9.62,10.43s-7.89-5.94-7.24-12.19,5-10.9,9.61-10.42S605.49,82.19,604.85,88.42Z"/><path class="cls-35" d="M589,87.09c-.15,5.14,2.79,8.77,6.61,9s7-3.17,7.2-8.31-2.8-9.11-6.62-9.29S589.2,82,589,87.09Zm3.42,2.1c0-2.51,1.39-4.54,3.11-4.54s3.1,2,3.1,4.54-1.39,4.54-3.1,4.54S592.46,91.7,592.46,89.19Z"/><path class="cls-17" d="M595,64.17c0-6.09-8.85-25.92-31.9-24.79-24.15-.75-31.9,17.48-31.9,24.79v36.37a31.81,31.81,0,0,0,31.9,31.74h0A31.81,31.81,0,0,0,595,100.54Z"/><path class="cls-36" d="M592.86,50.63H533.27V71.76a11.2,11.2,0,0,0,.73-1.05c.39-.7.83-1.5,1.28-2.36,2.23-4.25,5.27-13.08,4-17.14a27.22,27.22,0,0,0,15.32,16.63c11.77,4.93,25.26,9.14,38.25,6.24Z"/><path class="cls-37" d="M531.21,100.54a32.39,32.39,0,0,0,9.85,22,31.87,31.87,0,0,0,44.1,0,31.37,31.37,0,0,0,7-10,32.71,32.71,0,0,0,2.84-12,31.11,31.11,0,0,1-2,12.34,31.86,31.86,0,0,1-17.36,17.77,32.32,32.32,0,0,1-25,0,31.79,31.79,0,0,1-10.51-7.15,32.14,32.14,0,0,1-6.85-10.61A31.11,31.11,0,0,1,531.21,100.54Z"/><path class="cls-38" d="M591.51,99.5a29.4,29.4,0,1,1-29.39-29.25A29.32,29.32,0,0,1,591.51,99.5Z"/><path class="cls-39" d="M594.43,102A29.39,29.39,0,1,1,565,72.77,29.32,29.32,0,0,1,594.43,102Z"/><path class="cls-40" d="M574.88,124.45c0,3.49-4.68,6.32-10.45,6.32S554,127.94,554,124.45s4.68-6.32,10.45-6.32S574.88,121,574.88,124.45Z"/><path class="cls-41" d="M587,66.48c-1.77,4.56-7.34,6.66-12.43,4.69s-7.79-7.25-6-11.8,7.34-6.66,12.43-4.69S588.74,61.93,587,66.48Z"/><path class="cls-42" d="M538.71,66.48c1.77,4.56,7.34,6.66,12.43,4.69s7.79-7.25,6-11.8-7.34-6.66-12.43-4.69S536.93,61.93,538.71,66.48Z"/><ellipse class="cls-43" cx="579.93" cy="58.6" rx="2.57" ry="2.56"/><path class="cls-44" d="M531.24,90.11h0V66.35h3.07V87.06A3.07,3.07,0,0,1,531.24,90.11Z"/><path class="cls-45" d="M595,90.11h0V66.35H592V87.06A3.06,3.06,0,0,0,595,90.11Z"/><path class="cls-46" d="M535.31,64.64c2.15-4.1,4.66-8.83,3.7-13.61,1.43,7.13,11.61,10.83,17.52,13.15,9.41,3.69,19.84,6.47,30,6.55,4.12,0,10,0,13.72-2-.57.3-.54-6-2.49-16.62-4.57-20.31-26.39-35-47.1-27.81A29.16,29.16,0,0,0,546.86,26a17.3,17.3,0,0,0-9.68,14.88c0-1.7-5.22.26-5.74.74-1.72,1.56-2.27,4.31-2.39,6.51a93.39,93.39,0,0,0,2.18,23.63c-.21-1,2.29-3.81,2.8-4.73C534.42,66.29,534.86,65.5,535.31,64.64Z"/><path class="cls-47" d="M528.89,47.54a39,39,0,0,0,0,5.62c.07,1.19,0,2.41,1.1,3.15,2.44,1.58,4.74-2,5.51-3.83,1.28-3,1.49-6.22,2.18-9.33-.13.57,3.42,3,3.93,3.37a36.55,36.55,0,0,0,4.52,2.85,35.57,35.57,0,0,0,4.9,2.16c1.73.62,3.31,1.46,5.1,2a51.1,51.1,0,0,0,19.63,1.94,43.36,43.36,0,0,0,9-1.8A30.11,30.11,0,0,0,596.2,47c-6.77-17.56-26.61-29.3-45.53-22.68A29.88,29.88,0,0,0,546.85,26a17.52,17.52,0,0,0-9.67,14.82c-.13-.77-1.92-.79-2.55-.74a5.4,5.4,0,0,0-3,1.25,8.1,8.1,0,0,0-2.56,4.87C529,46.62,528.94,47.08,528.89,47.54Z"/><path class="cls-48" d="M574.52,54.75c2.26-.24,10.17-1.43,7.66-5.06-1.9-2.75-7.54-3.8-10.59-4.3a24.71,24.71,0,0,0-8.58.1,7,7,0,0,0-.67.55,6.51,6.51,0,0,0-2,6.39A27,27,0,0,0,574.52,54.75Z"/><path class="cls-49" d="M570.31,42.67c1.41-.78,6.24-3.72,3.6-5.4-2-1.28-6-.42-8.1.09a17.36,17.36,0,0,0-5.57,2.43c-.1.17-.2.35-.29.53a4.62,4.62,0,0,0,.46,4.72A19,19,0,0,0,570.31,42.67Z"/><path class="cls-50" d="M534.14,50.41c-.63,1.24-3,5.52-4.59,3.3-1.18-1.69-.57-5.16-.2-7a15.1,15.1,0,0,1,1.92-4.9,4.25,4.25,0,0,1,.46-.27,4.06,4.06,0,0,1,4.14.23A16.33,16.33,0,0,1,534.14,50.41Z"/><path class="cls-51" d="M557.83,34.73c2-.92,8.86-4.49,5.42-7-2.61-1.92-8.11-1.12-11-.63a24,24,0,0,0-7.83,2.79,7.42,7.42,0,0,0-.44.7,6.27,6.27,0,0,0,.18,6.48A26,26,0,0,0,557.83,34.73Z"/><path class="cls-52" d="M580.12,39.78c2.56.73,11.67,2.9,10.55-2.14-.85-3.81-6.51-7.42-9.6-9.29a28.76,28.76,0,0,0-9.36-3.64,8.35,8.35,0,0,0-1,.3,7.67,7.67,0,0,0-5,6.06A31.43,31.43,0,0,0,580.12,39.78Z"/><path class="cls-53" d="M597.77,52.14a40.18,40.18,0,0,0-10.46-17.82,39.07,39.07,0,0,0-17.77-10,33.39,33.39,0,0,0-20.15,1.4,19.53,19.53,0,0,0-8.18,5.81,16.23,16.23,0,0,0-3.57,9.36v0a.46.46,0,0,1-.48.44.51.51,0,0,1-.32-.15,2.92,2.92,0,0,0-3-.55,5.83,5.83,0,0,0-2.9,1.8,7.23,7.23,0,0,0-1.69,3.08,20.16,20.16,0,0,0-.48,3.58,20.38,20.38,0,0,1,.21-3.65,7.59,7.59,0,0,1,1.59-3.32,6.58,6.58,0,0,1,3.06-2.17,4.71,4.71,0,0,1,2-.27,3,3,0,0,1,1.89.86l-.79.31a17.32,17.32,0,0,1,3.42-10.16A18.35,18.35,0,0,1,544,26.83a23.06,23.06,0,0,1,4.75-2.64A33.63,33.63,0,0,1,570,22.62a37.81,37.81,0,0,1,18.23,10.85A37.13,37.13,0,0,1,597.77,52.14Z"/><g class="cls-54"><rect class="cls-55" x="558.38" y="73.96" width="8.96" height="25.19"/></g><path class="cls-36" d="M559.31,100.15a7.29,7.29,0,0,0,7.55-.11c1.38-.88.1-3.08-1.29-2.2a4.67,4.67,0,0,1-5,.11,1.28,1.28,0,0,0-1.29,2.2Z"/><path class="cls-56" d="M559.31,100.15a7.29,7.29,0,0,0,7.55-.11c1.38-.88.1-3.08-1.29-2.2a4.67,4.67,0,0,1-5,.11,1.28,1.28,0,0,0-1.29,2.2Z"/><path class="cls-57" d="M573.87,104.55a39.9,39.9,0,0,1-21.78-.36s-1,10.17,11.34,10.57C576,115.17,573.87,104.55,573.87,104.55Z"/><path class="cls-58" d="M569.12,110.45a26.68,26.68,0,0,0-8.62-2.22,17.58,17.58,0,0,0-4.86,0,14.21,14.21,0,0,0-2.68.8c1.21,2.69,4,5.56,10.47,5.77,4.31.14,6.89-1,8.42-2.6A16.27,16.27,0,0,0,569.12,110.45Z"/><path class="cls-59" d="M564.68,111.41a30.84,30.84,0,0,0,5.84-.18c-.45-.28-.92-.54-1.4-.78a26.68,26.68,0,0,0-8.62-2.22,17.58,17.58,0,0,0-4.86,0,10.91,10.91,0,0,0-2,.56A23.5,23.5,0,0,0,564.68,111.41Z"/><path class="cls-60" d="M574,107.27a10.39,10.39,0,0,0-.08-2.72,39.9,39.9,0,0,1-21.78-.36,10.16,10.16,0,0,0,.24,2.87A40.88,40.88,0,0,0,574,107.27Z"/><path class="cls-61" d="M574,105.41a7.18,7.18,0,0,0-.11-.86,39.9,39.9,0,0,1-21.78-.36,8.32,8.32,0,0,0,0,.91A42.57,42.57,0,0,0,574,105.41Z"/><path class="cls-62" d="M578.89,90.46a5.33,5.33,0,1,0-5.61-5.33A5.48,5.48,0,0,0,578.89,90.46Z"/><path class="cls-63" d="M578.89,79.81a5.33,5.33,0,1,1-5.61,5.32A5.48,5.48,0,0,1,578.89,79.81Z"/><path class="cls-64" d="M578.89,81.56a3.58,3.58,0,1,1-3.6,3.57A3.58,3.58,0,0,1,578.89,81.56Z"/><path class="cls-65" d="M588.84,72.42a26.71,26.71,0,0,0-18.29.86"/><circle class="cls-60" cx="580.17" cy="83.8" r="0.81"/><ellipse class="cls-66" cx="578.89" cy="96.37" rx="9.37" ry="4.83"/><g class="cls-67"><path class="cls-68" d="M540.81,89.94a2.69,2.69,0,0,1-2.36-1.39,2.66,2.66,0,0,1,1.08-3.61,16,16,0,0,1,13.74-.65,2.67,2.67,0,1,1-2.1,4.9,10.75,10.75,0,0,0-9.09.43A2.63,2.63,0,0,1,540.81,89.94Z"/></g><path class="cls-65" d="M540.8,87.28a13.44,13.44,0,0,1,11.42-.54"/><path class="cls-65" d="M537.6,79.81h19.19"/><path class="cls-69" d="M547.83,85.4a6.88,6.88,0,0,1,3.61.8"/><ellipse class="cls-70" cx="546.76" cy="96.37" rx="9.37" ry="4.83"/><rect class="cls-71" x="529.93" y="77.33" width="6.61" height="6.58"/><rect class="cls-71" x="589.25" y="77.33" width="6.61" height="6.58"/><path class="cls-72" d="M540.6,75.37h13.12A4.27,4.27,0,0,1,558,79.64V85.3a9,9,0,0,1-9,9h-3.57a9,9,0,0,1-9-9V79.64A4.27,4.27,0,0,1,540.6,75.37Z"/><path class="cls-73" d="M540.05,92.66l16.1-16a2.4,2.4,0,0,0-1.37-.44h-2.24L538,90.65A6,6,0,0,0,540.05,92.66Z"/><path class="cls-74" d="M557.16,78.86v-.3a2.41,2.41,0,0,0-.3-1.13L541.07,93.14a6.1,6.1,0,0,0,1.42.32Z"/><path class="cls-75" d="M555.29,75.27a3.32,3.32,0,0,1,2.8,2.89"/><line class="cls-75" x1="552.58" y1="75.19" x2="543.39" y2="75.19"/><line class="cls-75" x1="543.43" y1="94.19" x2="547.18" y2="94.19"/><path class="cls-72" d="M572.66,75.37h13.12A4.27,4.27,0,0,1,590,79.64V85.3a9,9,0,0,1-9,9h-3.57a9,9,0,0,1-9-9V79.64a4.27,4.27,0,0,1,4.27-4.27Z"/><path class="cls-76" d="M572.11,92.66l16.1-16a2.4,2.4,0,0,0-1.36-.44h-2.24L570.08,90.65A6,6,0,0,0,572.11,92.66Z"/><path class="cls-77" d="M589.22,78.86v-.3a2.41,2.41,0,0,0-.3-1.13L573.13,93.14a6.1,6.1,0,0,0,1.42.32Z"/><path class="cls-75" d="M587.36,75.27a3.31,3.31,0,0,1,2.79,2.89"/><line class="cls-75" x1="584.64" y1="75.19" x2="575.46" y2="75.19"/><line class="cls-75" x1="575.5" y1="94.19" x2="579.25" y2="94.19"/><path class="cls-78" d="M558.05,80.65a5.55,5.55,0,0,1,5.23-3.28c3.05,0,4.75,1.83,5.1,3.28"/><path class="cls-79" d="M589.84,201.3a42.36,42.36,0,0,0,17.27-2.21c4.36-1.55,7.28-5.85,6-10.54-1.16-4.22-6.16-7.54-10.54-6-1.31.46-2.63.91-4,1.25-.59.15-1.19.28-1.79.39q1-.09.12,0a41.73,41.73,0,0,1-7.07-.05c-4.62-.3-8.57,4.16-8.57,8.57,0,4.89,3.94,8.26,8.57,8.57Z"/><rect class="cls-80" x="575.76" y="179.09" width="7.92" height="62.63" transform="translate(1159.45 420.81) rotate(180)"/><rect class="cls-81" x="575.76" y="179.09" width="7.92" height="27.34"/><rect class="cls-82" x="567.69" y="179.09" width="24.06" height="6.98" rx="2.09" transform="translate(1159.45 365.17) rotate(180)"/><path class="cls-83" d="M567.69,179.09h24.06a0,0,0,0,1,0,0v.34a1.8,1.8,0,0,1-1.8,1.8H569.49a1.8,1.8,0,0,1-1.8-1.8v-.34A0,0,0,0,1,567.69,179.09Z" transform="translate(1159.45 360.32) rotate(180)"/><rect class="cls-84" x="570.95" y="223.95" width="17.56" height="30.9" transform="translate(1159.45 478.81) rotate(180)"/><rect class="cls-85" x="570.95" y="223.95" width="17.56" height="5.49"/><path class="cls-86" d="M587,186.07h.78a2,2,0,0,1,2,2v8.24a0,0,0,0,1,0,0H585a0,0,0,0,1,0,0v-8.24A2,2,0,0,1,587,186.07Z" transform="translate(1174.84 382.37) rotate(180)"/><path class="cls-86" d="M579.33,186.07h.78a2,2,0,0,1,2,2v8.24a0,0,0,0,1,0,0h-4.75a0,0,0,0,1,0,0v-8.24a2,2,0,0,1,2-2Z" transform="translate(1159.45 382.37) rotate(180)"/><path class="cls-86" d="M571.64,186.07h.78a2,2,0,0,1,2,2v8.24a0,0,0,0,1,0,0h-4.75a0,0,0,0,1,0,0v-8.24A2,2,0,0,1,571.64,186.07Z" transform="translate(1144.06 382.37) rotate(180)"/><rect class="cls-87" x="585.04" y="186.08" width="4.75" height="2.32" transform="translate(1174.84 374.47) rotate(180)"/><rect class="cls-87" x="577.35" y="186.08" width="4.75" height="2.32" transform="translate(1159.45 374.47) rotate(180)"/><rect class="cls-87" x="569.66" y="186.08" width="4.75" height="2.32" transform="translate(1144.06 374.47) rotate(180)"/><rect class="cls-88" x="574.86" y="101.12" width="9.35" height="35.62" transform="translate(1159.06 237.87) rotate(180)"/><rect class="cls-89" x="574.86" y="101.12" width="9.35" height="3.68" transform="translate(1159.06 205.93) rotate(180)"/><rect class="cls-90" x="573.48" y="99.83" width="12.11" height="3.2" transform="translate(1159.06 202.86) rotate(180)"/><rect class="cls-91" x="573.48" y="99.83" width="12.11" height="1.15" transform="translate(1159.06 200.8) rotate(180)"/><rect class="cls-92" x="567.69" y="217.96" width="24.06" height="8.05" rx="2.09" transform="translate(1159.45 443.96) rotate(180)"/><path class="cls-93" d="M567.69,218h24.06a0,0,0,0,1,0,0v.34a1.8,1.8,0,0,1-1.8,1.8H569.49a1.8,1.8,0,0,1-1.8-1.8V218A0,0,0,0,1,567.69,218Z" transform="translate(1159.45 438.05) rotate(180)"/><g class="cls-94"><rect class="cls-95" x="575.25" y="229.11" width="8.96" height="25.8"/></g><rect class="cls-96" x="556.91" y="254.85" width="45.63" height="11.33" rx="2.93" transform="translate(1159.45 521.04) rotate(180)"/><path class="cls-97" d="M556.91,254.85h45.63a0,0,0,0,1,0,0v.48a2.53,2.53,0,0,1-2.53,2.53H559.43a2.53,2.53,0,0,1-2.53-2.53v-.48A0,0,0,0,1,556.91,254.85Z" transform="translate(1159.45 512.72) rotate(180)"/><path class="cls-98" d="M568.94,156h0a2.63,2.63,0,0,0,2.64-2.62v-14a2.64,2.64,0,0,0-2.64-2.63h0a2.64,2.64,0,0,0-2.64,2.63v14A2.63,2.63,0,0,0,568.94,156Z"/><path class="cls-99" d="M568.94,154.34h0a2.63,2.63,0,0,0,2.64-2.62v-14a2.63,2.63,0,0,0-2.64-2.62h0a2.63,2.63,0,0,0-2.64,2.62v14A2.63,2.63,0,0,0,568.94,154.34Z"/><g class="cls-100"><line class="cls-101" x1="566.3" y1="154.04" x2="571.58" y2="154.04"/><line class="cls-101" x1="566.3" y1="152.07" x2="571.58" y2="152.07"/><line class="cls-101" x1="566.3" y1="150.09" x2="571.58" y2="150.09"/><line class="cls-101" x1="566.3" y1="148.12" x2="571.58" y2="148.12"/><line class="cls-101" x1="566.3" y1="146.15" x2="571.58" y2="146.15"/><line class="cls-101" x1="566.3" y1="144.17" x2="571.58" y2="144.17"/><line class="cls-101" x1="566.3" y1="142.2" x2="571.58" y2="142.2"/><line class="cls-101" x1="566.3" y1="140.23" x2="571.58" y2="140.23"/><line class="cls-101" x1="566.3" y1="138.25" x2="571.58" y2="138.25"/><line class="cls-101" x1="566.3" y1="136.28" x2="571.58" y2="136.28"/><line class="cls-102" x1="566.3" y1="153.81" x2="571.58" y2="153.81"/><line class="cls-102" x1="566.3" y1="151.84" x2="571.58" y2="151.84"/><line class="cls-102" x1="566.3" y1="149.86" x2="571.58" y2="149.86"/><line class="cls-102" x1="566.3" y1="147.89" x2="571.58" y2="147.89"/><line class="cls-102" x1="566.3" y1="145.92" x2="571.58" y2="145.92"/><line class="cls-102" x1="566.3" y1="143.94" x2="571.58" y2="143.94"/><line class="cls-102" x1="566.3" y1="141.97" x2="571.58" y2="141.97"/><line class="cls-102" x1="566.3" y1="140" x2="571.58" y2="140"/><line class="cls-102" x1="566.3" y1="138.02" x2="571.58" y2="138.02"/><line class="cls-102" x1="566.3" y1="136.05" x2="571.58" y2="136.05"/></g><path class="cls-103" d="M569.36,135.14v20.77a2.62,2.62,0,0,0,2.22-2.58V137.72A2.62,2.62,0,0,0,569.36,135.14Z"/><path class="cls-104" d="M585.37,212.57h0a1.63,1.63,0,0,1-1.64-1.63v-8.69a1.63,1.63,0,0,1,1.64-1.63h0a1.63,1.63,0,0,1,1.63,1.63v8.69A1.63,1.63,0,0,1,585.37,212.57Z"/><path class="cls-105" d="M585.37,211.57h0a1.63,1.63,0,0,1-1.64-1.63v-8.69a1.63,1.63,0,0,1,1.64-1.63h0a1.63,1.63,0,0,1,1.63,1.63v8.69A1.63,1.63,0,0,1,585.37,211.57Z"/><g class="cls-106"><line class="cls-107" x1="587" y1="211.38" x2="583.73" y2="211.38"/><line class="cls-107" x1="587" y1="210.16" x2="583.73" y2="210.16"/><line class="cls-107" x1="587" y1="208.93" x2="583.73" y2="208.93"/><line class="cls-107" x1="587" y1="207.71" x2="583.73" y2="207.71"/><line class="cls-107" x1="587" y1="206.48" x2="583.73" y2="206.48"/><line class="cls-107" x1="587" y1="205.26" x2="583.73" y2="205.26"/><line class="cls-107" x1="587" y1="204.03" x2="583.73" y2="204.03"/><line class="cls-107" x1="587" y1="202.81" x2="583.73" y2="202.81"/><line class="cls-107" x1="587" y1="201.58" x2="583.73" y2="201.58"/><line class="cls-107" x1="587" y1="200.36" x2="583.73" y2="200.36"/><line class="cls-108" x1="587" y1="211.24" x2="583.73" y2="211.24"/><line class="cls-108" x1="587" y1="210.02" x2="583.73" y2="210.02"/><line class="cls-108" x1="587" y1="208.79" x2="583.73" y2="208.79"/><line class="cls-108" x1="587" y1="207.57" x2="583.73" y2="207.57"/><line class="cls-108" x1="587" y1="206.34" x2="583.73" y2="206.34"/><line class="cls-108" x1="587" y1="205.12" x2="583.73" y2="205.12"/><line class="cls-108" x1="587" y1="203.89" x2="583.73" y2="203.89"/><line class="cls-108" x1="587" y1="202.66" x2="583.73" y2="202.66"/><line class="cls-108" x1="587" y1="201.44" x2="583.73" y2="201.44"/><line class="cls-108" x1="587" y1="200.21" x2="583.73" y2="200.21"/></g><path class="cls-103" d="M585.1,199.65v12.89a1.62,1.62,0,0,1-1.37-1.6v-9.69A1.62,1.62,0,0,1,585.1,199.65Z"/><rect class="cls-109" x="571.48" y="123.93" width="16.49" height="55.16" rx="4.58" transform="translate(1159.45 303.02) rotate(180)"/><path class="cls-110" d="M585.22,123.93h-2v55.16h2a2.74,2.74,0,0,0,2.75-2.73V126.67A2.75,2.75,0,0,0,585.22,123.93Z"/><g class="cls-111"><rect class="cls-112" x="577.48" y="123.93" width="4.49" height="55.16"/></g><g class="cls-113"><path class="cls-114" d="M586.66,178.68a2.25,2.25,0,0,1-1.17.4,8.93,8.93,0,0,1-1,0V123.93h2.19Z"/></g><path class="cls-115" d="M574.23,123.93h1.95v55.16h-1.95a2.74,2.74,0,0,1-2.75-2.73V126.67A2.75,2.75,0,0,1,574.23,123.93Z"/><path class="cls-116" d="M588,127.37v-.7a2.75,2.75,0,0,0-2.75-2.74h-11a2.75,2.75,0,0,0-2.75,2.74v.7Z"/><path class="cls-117" d="M577,176.34a3.88,3.88,0,0,1-.48,0h-.13V123.93h-2l-.13,0V176.3h-2.81v.06a2.74,2.74,0,0,0,2.75,2.73h11a2.74,2.74,0,0,0,2.75-2.73v0Z"/><path class="cls-118" d="M572,141.66c.07-.13.12-.26.19-.39a4.32,4.32,0,0,0-.7-5.13v40.22a2.73,2.73,0,0,0,2.44,2.7,13,13,0,0,0,3-9.31l-1.13-14.95a28.64,28.64,0,0,1,2-6.55C579.57,144.11,575.09,140.4,572,141.66Z"/><path class="cls-119" d="M646.39,158.07c.45,1,.81,2.08,1.2,3.12.87,2.38,2.25,3.78.36,7.61a14.47,14.47,0,0,1-7.33,6.84c-5.61,2.42-12,2.75-18.14,2.46-9.44-.46-17.59,10.5-16.51,19.26,1.31,10.65,9.28,15.95,19.36,16.43,18.13.87,38-5.31,49.43-20,7.39-9.5,12-20.85,9.79-32.94-2.67-14.69-17.82-37.55-35.07-26C641.32,140.22,643,150.28,646.39,158.07Z"/><path class="cls-60" d="M643,148.26a12.92,12.92,0,0,1,2.6,3.06,26.08,26.08,0,0,1,1.93,3.56,25.49,25.49,0,0,1,2.12,7.87,14.18,14.18,0,0,1-.23,4.2,9.9,9.9,0,0,1-1.79,4,22,22,0,0,1-6.28,5.56,26.91,26.91,0,0,1-7.85,3.12,55.4,55.4,0,0,1-8.23,1c-1.37.08-2.73.13-4.1.14h-2.07c-.65,0-1.51-.06-1.75,0a.8.8,0,0,0-.21,0l-.38.1c-.25.08-.49.16-.73.26a7.56,7.56,0,0,0-1.34.73,9.15,9.15,0,0,0-2.25,2.23,2.5,2.5,0,1,1-4-3l.12-.15,0,0a13.9,13.9,0,0,1,3.69-3.1,12.05,12.05,0,0,1,2.27-1c.4-.13.79-.23,1.19-.32l.6-.11a6.87,6.87,0,0,1,.78-.08,20.45,20.45,0,0,1,2.26.17l1.94.16c1.3.09,2.61.15,3.92.17a52.23,52.23,0,0,0,7.74-.34,24,24,0,0,0,7.2-2.24,20,20,0,0,0,6-4.56,10.1,10.1,0,0,0,2.22-6.92,24.74,24.74,0,0,0-1.45-7.7,27.28,27.28,0,0,0-1.61-3.63A12.77,12.77,0,0,0,643,148.26Z"/><path class="cls-120" d="M676.91,185.22c-11.45,14.73-31.31,20.91-49.44,20-10.08-.48-18-5.77-19.36-16.43,0-.38-.07-.77-.08-1.15a16.67,16.67,0,0,0-2.06,9.68c1.31,10.65,9.28,15.95,19.36,16.43,18.13.87,38-5.31,49.43-20,5.18-6.67,9-14.25,10-22.35A53,53,0,0,1,676.91,185.22Z"/><ellipse class="cls-121" cx="616.75" cy="195.27" rx="10.6" ry="15.97"/><path class="cls-122" d="M612.35,180.75c-3.53,2.44-6,7.69-6.18,13.85a48.69,48.69,0,0,0,20,7.94,22.7,22.7,0,0,0,1.17-7.27,20.66,20.66,0,0,0-3.05-11.21C620.19,183.33,616.42,181.51,612.35,180.75Z"/><path class="cls-123" d="M603,175.08a44.45,44.45,0,0,0-23.92-4.94c-4,.34-7.5,3.2-7.5,7.5,0,3.79,3.44,7.83,7.5,7.49a29.82,29.82,0,0,1,16.36,2.9c8.59,4.34,16.19-8.59,7.56-12.95Z"/><path class="cls-122" d="M624.86,193.87h0a8.84,8.84,0,0,0-5.78-11.12c-9-2.83-21.9-6.94-21.9-6.94l-.62,1.95a15.57,15.57,0,0,0,10.14,19.59l7,2.23A8.86,8.86,0,0,0,624.86,193.87Z"/><path class="cls-124" d="M606.81,179c-3.77-10.18-12-19.07-22.66-22.1-9.29-2.65-13.26,11.81-4,14.46,5.33,1.52,10.28,6.49,12.18,11.62,1.4,3.8,5.08,6.38,9.22,5.24,3.65-1,6.65-5.41,5.24-9.22Z"/><path class="cls-125" d="M608.06,179.11c-1.23-7.29-3.49-15.4-8-21.37-2.44-3.22-6.46-4.9-10.25-2.69-3.18,1.86-5.15,7-2.69,10.26,3.83,5.06,5.45,11.63,6.49,17.78.68,4,5.6,6.23,9.22,5.24,4.23-1.16,5.92-5.22,5.24-9.22Z"/><path class="cls-126" d="M611.61,185.85a41.85,41.85,0,0,0,1.18-14.57c-.42-4-3.15-7.5-7.5-7.5-3.73,0-7.91,3.44-7.5,7.5a28.42,28.42,0,0,1-.63,10.59,7.49,7.49,0,1,0,14.45,4Z"/><path class="cls-127" d="M624.3,184.06a64,64,0,0,1-7.85-2.24c4.23,4.91,5.09,12.41,3.92,19.47a41.47,41.47,0,0,0,5.81,1.25,22.7,22.7,0,0,0,1.17-7.27A20.66,20.66,0,0,0,624.3,184.06Z"/><path class="cls-128" d="M559.6,187.61c-3.11-1.89-5.63-4.88-8.16-7.44-4.75-4.82-9.48-9.88-13.07-15.66a12.21,12.21,0,0,0-2.13,2.89c-3.64,6.95-8.35,13.74-15.82,16.92-5,1.08-11.21,1-14.94-3.1-.64-.71-1.05-1.59-1.64-2.34-.21-.27-.44-.55-.68-.81a15.94,15.94,0,0,0-4.72-3.63c-6.31-3.1-14.54-1.81-20,2.41-8.14,6.25-7.52,17.62-2.1,25.23,10.36,14.55,29.94,20.35,47.12,18.13,17.91-2.31,32.87-15.38,41.44-30.7A16.31,16.31,0,0,1,559.6,187.61Z"/><path class="cls-60" d="M496.05,175.18a20.21,20.21,0,0,0,10.8,7.51,24.92,24.92,0,0,0,6.46,1.14,19.13,19.13,0,0,0,6.36-.84,16.29,16.29,0,0,0,5.5-3,27.49,27.49,0,0,0,4.43-4.59,38.26,38.26,0,0,0,5.84-11.38,2.5,2.5,0,1,1,4.76,1.54.92.92,0,0,1-.09.23,42.55,42.55,0,0,1-7.71,12,31.16,31.16,0,0,1-5.46,4.65,19.26,19.26,0,0,1-6.66,2.84,21.51,21.51,0,0,1-7.1.32,26,26,0,0,1-6.74-1.82C502.2,182.05,498.27,179.17,496.05,175.18Z"/><path class="cls-129" d="M559.79,187.71c-8.81,13.64-22.74,24.81-39.16,26.93-17.18,2.21-36.76-3.59-47.12-18.13,0-.06-.08-.13-.12-.18a22.1,22.1,0,0,0,2.92,5.75c10.36,14.55,29.94,20.35,47.12,18.13,17.91-2.31,32.87-15.38,41.44-30.7A16.7,16.7,0,0,1,559.79,187.71Z"/><path class="cls-121" d="M554.66,173.55c7.06,7,12.07,14.11,10.21,16s-9.88-2.23-16.94-9.26S536.64,166,538.5,164.17,547.6,166.52,554.66,173.55Z"/><path class="cls-122" d="M554.66,173.55a51.69,51.69,0,0,0-10.32-8.18c-.22.22-.44.45-.67.66-1.36,1.27-2.83,2.34-4.18,3.55a49.73,49.73,0,0,0,8.44,10.67,51.38,51.38,0,0,0,10.21,7.85c1.55-1.71,5-5,6.38-6.87C562.79,178.44,557.94,176.81,554.66,173.55Z"/><path class="cls-79" d="M536.75,149.7q5.12,7.71,10.24,15.43c3.63,5.47,12.53.35,8.87-5.17q-5.11-7.71-10.24-15.42c-3.63-5.47-12.53-.35-8.87,5.16Z"/><path class="cls-130" d="M551.88,155.21a32.15,32.15,0,0,1,.85-18c1.81-5.49-6.87-7.84-8.67-2.38a41.15,41.15,0,0,0-.85,22.78c1.34,5.6,10,3.23,8.67-2.38Z"/><path class="cls-131" d="M544.61,139.37l-.81-.23a.93.93,0,0,1-.65-1.15l.92-3.21a1.14,1.14,0,0,1,1.4-.78l.44.12a1.14,1.14,0,0,1,.78,1.4l-.92,3.21A.93.93,0,0,1,544.61,139.37Z"/><path class="cls-122" d="M557.89,183.76h0a13.11,13.11,0,0,1-14.08-12l-1.4-18.61,26.18-2L570,169.75A13.09,13.09,0,0,1,557.89,183.76Z"/><path class="cls-132" d="M555.22,152.91a19.26,19.26,0,0,1,3.63-17.11c3.64-4.42-2.69-10.79-6.36-6.33a28.71,28.71,0,0,0-5.94,25.82c1.43,5.58,10.1,3.21,8.67-2.38Z"/><path class="cls-133" d="M553.16,134.16,551.69,133a1.18,1.18,0,0,1-.2-1.65l1.31-1.68a2.11,2.11,0,0,1,3-.37h0a2.1,2.1,0,0,1,.37,2.94L554.81,134A1.18,1.18,0,0,1,553.16,134.16Z"/><path class="cls-134" d="M561.81,155.86a30.61,30.61,0,0,1,3.46-14.59c2.66-5.1-5.1-9.64-7.77-4.51a40.36,40.36,0,0,0-4.68,19.1c0,5.76,9,5.77,9,0Z"/><path class="cls-135" d="M558.87,141.53l-1.6-.92a1.17,1.17,0,0,1-.43-1.6l1.07-1.85a2.12,2.12,0,0,1,2.88-.77h0a2.1,2.1,0,0,1,.77,2.86l-1.08,1.85A1.17,1.17,0,0,1,558.87,141.53Z"/><path class="cls-136" d="M568.48,163.06a26.38,26.38,0,0,1,2.16-13.32c1-2.23.63-4.79-1.61-6.13-1.91-1.13-5.17-.59-6.16,1.61a35.9,35.9,0,0,0-3.39,17.84c.43,5.71,9.43,5.75,9,0Z"/><path class="cls-137" d="M564.81,149.78l-1.66-.81a1.18,1.18,0,0,1-.54-1.58l.95-1.91a2.1,2.1,0,0,1,2.81-1h0a2.1,2.1,0,0,1,1,2.81l-1,1.91A1.19,1.19,0,0,1,564.81,149.78Z"/><path class="cls-138" d="M561,183.59a28.41,28.41,0,0,1-8.25-5.39,52,52,0,0,1-7.54-7.87,33.71,33.71,0,0,1-2.36-3.59c-1.13,1-2.3,1.86-3.38,2.84a49.73,49.73,0,0,0,8.44,10.67,51.38,51.38,0,0,0,10.21,7.85c1.3-1.43,3-2.76,4.13-4.3C562.07,183.73,561.22,183.67,561,183.59Z"/><rect class="cls-139" x="619.88" y="23.12" width="77.68" height="88.93" rx="19.05"/><path class="cls-140" d="M628.73,51.41a20,20,0,0,0,11.08,14.06A18.56,18.56,0,0,0,657.58,64,17.06,17.06,0,0,0,664.81,48c-1.15-8-8.3-14.08-16.07-16.35-5.43-1.58-11.88-.87-16.17,3.17C628.52,38.59,627.68,46.29,628.73,51.41Z"/><ellipse class="cls-141" cx="645.12" cy="37.9" rx="2.26" ry="2.25"/><path class="cls-141" d="M645.28,46.09a3.87,3.87,0,1,1-3.87-3.85A3.86,3.86,0,0,1,645.28,46.09Z"/><ellipse class="cls-141" cx="657.61" cy="47.38" rx="3.87" ry="3.85"/><path class="cls-141" d="M638.18,39.51a2.26,2.26,0,1,1-2.26-2.25A2.26,2.26,0,0,1,638.18,39.51Z"/><ellipse class="cls-141" cx="651.82" cy="58.36" rx="2.26" ry="2.25"/><path class="cls-141" d="M639.82,56.38a2.26,2.26,0,1,1-2.26-2.25A2.26,2.26,0,0,1,639.82,56.38Z"/><path class="cls-141" d="M644.94,60.16a1.45,1.45,0,1,1-1.45-1.43A1.44,1.44,0,0,1,644.94,60.16Z"/><path class="cls-141" d="M655.51,40.33a1.45,1.45,0,1,1-1.44-1.44A1.44,1.44,0,0,1,655.51,40.33Z"/><path class="cls-141" d="M651.94,50.85a1.45,1.45,0,1,1-1.45-1.44A1.44,1.44,0,0,1,651.94,50.85Z"/><path class="cls-140" d="M668.81,57a45.91,45.91,0,0,1,2.51-7.73c1.22-2.42,3.32-4.6,6-5.07,4.45-.76,8.27,3.35,10,7.48a27.65,27.65,0,0,1,1.71,16.48,21.17,21.17,0,0,1-7.57,12.73c-4,3-9.71,4.11-14.33,2.05-3.73-1.66-8.36-7.36-6.34-11.7.9-1.94,3.17-3.74,4.3-5.71A40.23,40.23,0,0,0,668.81,57Z"/><path class="cls-141" d="M668.42,72.27A1.45,1.45,0,1,1,667,70.83,1.44,1.44,0,0,1,668.42,72.27Z"/><ellipse class="cls-141" cx="676.53" cy="75.81" rx="0.93" ry="0.93"/><path class="cls-141" d="M682.5,64a.93.93,0,1,1-.93-.93A.93.93,0,0,1,682.5,64Z"/><ellipse class="cls-141" cx="682.74" cy="68.98" rx="2.38" ry="2.36"/><path class="cls-141" d="M667.66,77.48a.93.93,0,1,1-.93-.93A.93.93,0,0,1,667.66,77.48Z"/><path class="cls-141" d="M674.75,77.69a2.83,2.83,0,1,1-2.83-2.82A2.82,2.82,0,0,1,674.75,77.69Z"/><ellipse class="cls-141" cx="672.95" cy="67.44" rx="4.14" ry="4.12"/><path class="cls-141" d="M674.42,56.15A1.45,1.45,0,1,1,673,54.71,1.44,1.44,0,0,1,674.42,56.15Z"/><path class="cls-141" d="M685.6,58.63a1.45,1.45,0,1,1-1.44-1.44A1.44,1.44,0,0,1,685.6,58.63Z"/><path class="cls-141" d="M681.87,52.24a3.37,3.37,0,1,1-3.37-3.36A3.36,3.36,0,0,1,681.87,52.24Z"/><path class="cls-140" d="M653.46,71.55a8,8,0,0,1,2.21,10.56,5.6,5.6,0,0,1-4.24,2.73c-2,.11-3.88-1.23-5.17-2.79-1.83-2.23-4.46-7.15-2.42-9.75S651,69.88,653.46,71.55Z"/><path class="cls-141" d="M649.21,75.43A1.45,1.45,0,1,1,647.77,74,1.44,1.44,0,0,1,649.21,75.43Z"/><ellipse class="cls-141" cx="651.93" cy="78.16" rx="2.42" ry="2.41"/><path class="cls-140" d="M625.86,94.5c.92,3.92,2.39,8.06,5.77,10.28a9.33,9.33,0,0,0,10.94-.74,9.22,9.22,0,0,0,2.17-10.7c-1.89-3.86-6.31-6-8.24-9.84-1.19-2.37-1.28-5.11-1.55-7.75s-.83-5.42-2.67-7.34c-1.47-1.52-4.38-2.37-6.27-1.09-2.12,1.42-1.71,4.93-1.85,7.27A69.77,69.77,0,0,0,625.86,94.5Z"/><ellipse class="cls-141" cx="630.94" cy="81.54" rx="2.42" ry="2.41"/><path class="cls-141" d="M630.15,74.36a1,1,0,1,1-1-1A1,1,0,0,1,630.15,74.36Z"/><path class="cls-141" d="M634.32,86.62a1,1,0,1,1-1-1A1,1,0,0,1,634.32,86.62Z"/><path class="cls-141" d="M629.22,89.53a1,1,0,1,1-1-1A1,1,0,0,1,629.22,89.53Z"/><path class="cls-141" d="M634.51,99.18a1,1,0,1,1-1-1A1,1,0,0,1,634.51,99.18Z"/><path class="cls-141" d="M629.06,95.38a2,2,0,1,1,2,2A2,2,0,0,1,629.06,95.38Z"/><path class="cls-141" d="M633.57,92a3,3,0,1,1,3,3A3,3,0,0,1,633.57,92Z"/><path class="cls-141" d="M637.65,98.78a2,2,0,1,1,2,2A2,2,0,0,1,637.65,98.78Z"/><path class="cls-140" d="M652.8,90.35c2.91-1.63,6.5-1,9.77-.36,2.85.58,5.8,1.2,8.11,3s3.73,5,2.48,7.62c-1,2.05-3.26,3.12-5.4,3.93a23,23,0,0,1-7.59,1.77,9.82,9.82,0,0,1-7.17-2.55C649.93,100.65,648.39,92.81,652.8,90.35Z"/><path class="cls-141" d="M657.56,96.12a1.7,1.7,0,1,1-1.7-1.69A1.7,1.7,0,0,1,657.56,96.12Z"/><path class="cls-141" d="M669.44,97.33a2.29,2.29,0,1,1-2.29-2.28A2.28,2.28,0,0,1,669.44,97.33Z"/><path class="cls-141" d="M663.93,101.29a1.14,1.14,0,1,1-1.13-1.13A1.13,1.13,0,0,1,663.93,101.29Z"/><path class="cls-141" d="M662,94.48a1.14,1.14,0,1,1-1.13-1.13A1.14,1.14,0,0,1,662,94.48Z"/><path class="cls-141" d="M657.48,100.85a1.14,1.14,0,1,1-1.14-1.13A1.13,1.13,0,0,1,657.48,100.85Z"/><path class="cls-140" d="M680.63,100.35a6.35,6.35,0,0,0,8.31-2.62,6.54,6.54,0,0,0-2.56-8.37C678.65,85,673.83,96.69,680.63,100.35Z"/><path class="cls-141" d="M685.15,95.93A2,2,0,1,1,683.2,94,2,2,0,0,1,685.15,95.93Z"/><path class="cls-140" d="M667.08,39.38a5.37,5.37,0,0,0,5.75,1.29A5.13,5.13,0,0,0,676,35.34a4.93,4.93,0,0,0-4-4C667.36,30.61,663.64,35.71,667.08,39.38Z"/><rect class="cls-142" x="434.69" y="58.24" width="74.57" height="85.37" rx="18.28"/><g class="cls-143"><line class="cls-144" x1="437.88" y1="61.84" x2="437.88" y2="140.61"/><line class="cls-144" x1="441.09" y1="58.97" x2="441.09" y2="142.47"/><line class="cls-144" x1="444.31" y1="58.97" x2="444.31" y2="142.47"/><line class="cls-144" x1="447.52" y1="58.97" x2="447.52" y2="142.47"/><line class="cls-144" x1="450.74" y1="58.97" x2="450.74" y2="142.47"/><line class="cls-144" x1="453.95" y1="58.97" x2="453.95" y2="142.47"/><line class="cls-144" x1="457.17" y1="58.97" x2="457.17" y2="142.47"/><line class="cls-144" x1="460.39" y1="58.97" x2="460.39" y2="142.47"/><line class="cls-144" x1="463.6" y1="58.97" x2="463.6" y2="142.47"/><line class="cls-144" x1="466.82" y1="58.97" x2="466.82" y2="142.47"/><line class="cls-144" x1="470.03" y1="58.97" x2="470.03" y2="142.47"/><line class="cls-144" x1="473.25" y1="58.97" x2="473.25" y2="142.47"/><line class="cls-144" x1="476.46" y1="58.97" x2="476.46" y2="142.47"/><line class="cls-144" x1="479.68" y1="58.97" x2="479.68" y2="142.47"/><line class="cls-144" x1="482.89" y1="58.97" x2="482.89" y2="142.47"/><line class="cls-144" x1="486.11" y1="58.97" x2="486.11" y2="142.47"/><line class="cls-144" x1="489.33" y1="58.97" x2="489.33" y2="142.47"/><line class="cls-144" x1="492.54" y1="58.97" x2="492.54" y2="142.47"/><line class="cls-144" x1="495.76" y1="58.97" x2="495.76" y2="142.47"/><line class="cls-144" x1="498.97" y1="58.97" x2="498.97" y2="142.47"/><line class="cls-144" x1="502.19" y1="58.97" x2="502.19" y2="142.47"/><line class="cls-144" x1="505.4" y1="60.48" x2="505.4" y2="140.91"/></g><g class="cls-143"><line class="cls-144" x1="507.21" y1="62.95" x2="436.22" y2="62.95"/><line class="cls-144" x1="509.04" y1="66.93" x2="434.24" y2="66.93"/><line class="cls-144" x1="509.04" y1="70.9" x2="434.24" y2="70.9"/><line class="cls-144" x1="509.04" y1="74.88" x2="434.24" y2="74.88"/><line class="cls-144" x1="509.04" y1="78.85" x2="434.24" y2="78.85"/><line class="cls-144" x1="509.04" y1="82.83" x2="434.24" y2="82.83"/><line class="cls-144" x1="509.04" y1="86.8" x2="434.24" y2="86.8"/><line class="cls-144" x1="509.04" y1="90.78" x2="434.24" y2="90.78"/><line class="cls-144" x1="509.04" y1="94.76" x2="434.24" y2="94.76"/><line class="cls-144" x1="509.04" y1="98.73" x2="434.24" y2="98.73"/><line class="cls-144" x1="509.04" y1="102.71" x2="434.24" y2="102.71"/><line class="cls-144" x1="509.04" y1="106.68" x2="434.24" y2="106.68"/><line class="cls-144" x1="509.04" y1="110.66" x2="434.24" y2="110.66"/><line class="cls-144" x1="509.04" y1="114.64" x2="434.24" y2="114.64"/><line class="cls-144" x1="509.04" y1="118.61" x2="434.24" y2="118.61"/><line class="cls-144" x1="509.04" y1="122.59" x2="434.24" y2="122.59"/><line class="cls-144" x1="509.04" y1="126.56" x2="434.24" y2="126.56"/><line class="cls-144" x1="509.04" y1="130.54" x2="434.24" y2="130.54"/><line class="cls-144" x1="509.04" y1="134.52" x2="434.24" y2="134.52"/><line class="cls-144" x1="509.04" y1="138.49" x2="434.24" y2="138.49"/></g><ellipse class="cls-145" cx="472.15" cy="100.78" rx="12.63" ry="20.49"/><path class="cls-145" d="M459.53,141.94c0-11.31,5.65-20.49,12.62-20.49s12.63,9.18,12.63,20.49"/><path class="cls-145" d="M459.53,59.82c0,11.32,5.65,20.49,12.62,20.49s12.63-9.17,12.63-20.49"/><line class="cls-146" x1="458.44" y1="61.65" x2="485.52" y2="61.65"/><line class="cls-146" x1="459.9" y1="64.75" x2="484.1" y2="64.75"/><line class="cls-146" x1="461.36" y1="67.84" x2="482.68" y2="67.84"/><line class="cls-146" x1="462.82" y1="70.93" x2="481.26" y2="70.93"/><line class="cls-146" x1="464.28" y1="74.02" x2="479.84" y2="74.02"/><line class="cls-146" x1="465.73" y1="77.11" x2="478.43" y2="77.11"/><line class="cls-146" x1="467.19" y1="80.2" x2="477.01" y2="80.2"/><line class="cls-146" x1="465.73" y1="83.64" x2="478.43" y2="83.64"/><line class="cls-146" x1="464.28" y1="87.08" x2="479.84" y2="87.08"/><line class="cls-146" x1="462.82" y1="90.52" x2="481.26" y2="90.52"/><line class="cls-146" x1="461.36" y1="93.96" x2="482.68" y2="93.96"/><line class="cls-146" x1="459.9" y1="97.4" x2="484.1" y2="97.4"/><line class="cls-146" x1="458.44" y1="100.84" x2="485.52" y2="100.84"/><line class="cls-146" x1="459.88" y1="104.42" x2="484.16" y2="104.42"/><line class="cls-146" x1="461.24" y1="108.02" x2="482.72" y2="108.02"/><line class="cls-146" x1="462.64" y1="111.61" x2="481.32" y2="111.61"/><line class="cls-146" x1="464.04" y1="115.2" x2="479.92" y2="115.2"/><line class="cls-146" x1="465.44" y1="118.79" x2="478.52" y2="118.79"/><line class="cls-146" x1="467.07" y1="122.35" x2="477.36" y2="122.35"/><line class="cls-146" x1="465.64" y1="125.33" x2="478.72" y2="125.33"/><line class="cls-146" x1="464.2" y1="128.31" x2="480.08" y2="128.31"/><line class="cls-146" x1="462.76" y1="131.3" x2="481.44" y2="131.3"/><line class="cls-146" x1="461.32" y1="134.28" x2="482.8" y2="134.28"/><line class="cls-146" x1="459.88" y1="137.27" x2="484.16" y2="137.27"/><line class="cls-146" x1="458.44" y1="140.25" x2="485.52" y2="140.25"/><ellipse class="cls-141" cx="477.34" cy="100.57" rx="1.46" ry="1.42"/><path class="cls-141" d="M471.59,90.32a1.46,1.46,0,1,1-1.46-1.43A1.44,1.44,0,0,1,471.59,90.32Z"/><path class="cls-141" d="M478.41,64.59A1.46,1.46,0,1,1,477,63.17,1.45,1.45,0,0,1,478.41,64.59Z"/><path class="cls-141" d="M472.27,74a1.46,1.46,0,1,1-1.46-1.42A1.43,1.43,0,0,1,472.27,74Z"/><path class="cls-141" d="M475.29,128.38a1.46,1.46,0,1,1-1.46-1.42A1.44,1.44,0,0,1,475.29,128.38Z"/><path class="cls-141" d="M468.48,140.15a1.46,1.46,0,1,1-1.46-1.42A1.45,1.45,0,0,1,468.48,140.15Z"/><path class="cls-141" d="M467.6,111.49a1.46,1.46,0,1,1-1.46-1.43A1.44,1.44,0,0,1,467.6,111.49Z"/></g></g></svg>