<svg xmlns="http://www.w3.org/2000/svg" viewBox="0 0 33.97 33.97"><defs><style>.cls-1{isolation:isolate;}.cls-2,.cls-5{fill:#d5e5e5;}.cls-3{fill:#4ebfd9;}.cls-4{fill:#364647;}.cls-5{mix-blend-mode:multiply;}</style></defs><g class="cls-1"><g id="Layer_1" data-name="Layer 1"><path class="cls-2" d="M1,0H33a1,1,0,0,1,1,1V33a1,1,0,0,1-1,1H1a1,1,0,0,1-1-1V1A1,1,0,0,1,1,0Z"/><path class="cls-3" d="M22,35.41H14.8a.65.65,0,0,1-.56-.32l-3.59-6.22a.66.66,0,0,1,0-.64L14.24,22a.67.67,0,0,1,.56-.32H22a.67.67,0,0,1,.55.32l3.59,6.22a.66.66,0,0,1,0,.64l-3.59,6.22A.65.65,0,0,1,22,35.41Zm-6.81-1.28h6.44l3.22-5.58L21.61,23H15.17L12,28.55Z" transform="translate(-8.51 -6.97)"/><path class="cls-4" d="M32.76,29.19H25.59a.65.65,0,0,1-.56-.32l-3.59-6.22a.66.66,0,0,1,0-.64L25,15.8a.65.65,0,0,1,.56-.32h7.17a.65.65,0,0,1,.56.32L36.91,22a.66.66,0,0,1,0,.64l-3.59,6.22A.65.65,0,0,1,32.76,29.19ZM26,27.91h6.44l3.22-5.58-3.22-5.57H26l-3.22,5.57Z" transform="translate(-8.51 -6.97)"/><path class="cls-3" d="M14.77,23a.63.63,0,0,1-.55-.32l-1.79-3.09a.64.64,0,1,1,1.11-.64L15.32,22a.64.64,0,0,1-.23.88A.61.61,0,0,1,14.77,23Z" transform="translate(-8.51 -6.97)"/><path class="cls-4" d="M25.68,16.88a.63.63,0,0,1-.55-.32l-1.79-3.09a.64.64,0,1,1,1.11-.64l1.78,3.09a.64.64,0,0,1-.23.88A.72.72,0,0,1,25.68,16.88Z" transform="translate(-8.51 -6.97)"/><path class="cls-4" d="M34.81,32.55a.64.64,0,0,1-.56-.32l-1.78-3.09a.64.64,0,1,1,1.11-.64l1.78,3.09a.65.65,0,0,1-.23.88A.72.72,0,0,1,34.81,32.55Z" transform="translate(-8.51 -6.97)"/><path class="cls-4" d="M33.61,22.43a.64.64,0,0,1-.56-.32L31.27,19a.64.64,0,1,1,1.1-.64l1.79,3.09a.65.65,0,0,1-.23.88A.61.61,0,0,1,33.61,22.43Z" transform="translate(-8.51 -6.97)"/><path class="cls-4" d="M25.09,22.43a.61.61,0,0,1-.32-.08.65.65,0,0,1-.24-.88l1.79-3.09a.64.64,0,0,1,.87-.24.65.65,0,0,1,.24.88l-1.79,3.09A.63.63,0,0,1,25.09,22.43Z" transform="translate(-8.51 -6.97)"/><path class="cls-3" d="M14.28,28.78a.68.68,0,0,1-.32-.09.63.63,0,0,1-.23-.87l1.79-3.09a.63.63,0,0,1,.87-.24.64.64,0,0,1,.23.88l-1.78,3.09A.65.65,0,0,1,14.28,28.78Z" transform="translate(-8.51 -6.97)"/><path class="cls-4" d="M32.71,16.88a.72.72,0,0,1-.32-.08.65.65,0,0,1-.23-.88L34,12.83a.64.64,0,1,1,1.1.64l-1.78,3.09A.64.64,0,0,1,32.71,16.88Z" transform="translate(-8.51 -6.97)"/><path class="cls-4" d="M36.2,23a.64.64,0,0,1-.64-.64.64.64,0,0,1,.64-.64h3.57a.63.63,0,0,1,.64.63.64.64,0,0,1-.63.65H36.2Z" transform="translate(-8.51 -6.97)"/><path class="cls-5" d="M25.38,7H9.49a1,1,0,0,0-1,1V40a1,1,0,0,0,1,1H25.38Z" transform="translate(-8.51 -6.97)"/></g></g></svg>