<svg xmlns="http://www.w3.org/2000/svg" viewBox="0 0 42.58 29.32"><defs><style>.cls-1{isolation:isolate;}.cls-2{fill:#566667;}.cls-3{fill:#364647;}.cls-4{fill:#d5e5e5;mix-blend-mode:multiply;}.cls-5{fill:#fff;}</style></defs><g class="cls-1"><g id="Layer_1" data-name="Layer 1"><path class="cls-2" d="M42.56,14.59,30.1,27.05a2.7,2.7,0,0,1-3.81-3.82L38.74,10.77a2.7,2.7,0,0,1,3.82,3.82Z" transform="translate(-3.2 -7.55)"/><path class="cls-3" d="M45.21,14.73a2,2,0,0,1-2.79,0L38.6,10.92a2,2,0,0,1,0-2.79A1.94,1.94,0,0,1,40,7.55a2,2,0,0,1,1.4.58l3.81,3.81A2,2,0,0,1,45.21,14.73Z" transform="translate(-3.2 -7.55)"/><path class="cls-4" d="M43.3,10l-17,17a2.7,2.7,0,0,1,0-3.82L38.6,10.92a2,2,0,0,1,0-2.79A1.94,1.94,0,0,1,40,7.55a2,2,0,0,1,1.4.58Z" transform="translate(-3.2 -7.55)"/><path class="cls-2" d="M41.31,21v4.56A11.34,11.34,0,0,1,30,36.87H16A11.33,11.33,0,0,1,4.64,25.53V21Z" transform="translate(-3.2 -7.55)"/><path class="cls-3" d="M42.89,20.55a1.55,1.55,0,0,1-1.55,1.56H4.64A1.55,1.55,0,0,1,4.76,19H41.34A1.54,1.54,0,0,1,42.89,20.55Z" transform="translate(-3.2 -7.55)"/><path class="cls-4" d="M23.05,19V36.87H16A11.33,11.33,0,0,1,4.64,25.53V22.1A1.55,1.55,0,0,1,4.76,19Z" transform="translate(-3.2 -7.55)"/><path class="cls-5" d="M37.15,26.35a1.58,1.58,0,0,1-1.58,1.58H29.79a1.58,1.58,0,0,1-1.59-1.58h0a1.59,1.59,0,0,1,1.59-1.58h5.78a1.58,1.58,0,0,1,1.58,1.58Z" transform="translate(-3.2 -7.55)"/></g></g></svg>