<?xml version="1.0" encoding="utf-8"?>
<!-- Generator: Adobe Illustrator 25.0.1, SVG Export Plug-In . SVG Version: 6.00 Build 0)  -->
<svg version="1.1" id="Layer_1" xmlns="http://www.w3.org/2000/svg" xmlns:xlink="http://www.w3.org/1999/xlink" x="0px" y="0px"
	 viewBox="0 0 500 500" style="enable-background:new 0 0 500 500;" xml:space="preserve">
<style type="text/css">
	.st0{fill:#0578AA;}
	.st1{fill:#F5EB3A;}
	.st2{fill:#FAD00A;}
	.st3{fill:#F8F29E;}
	.st4{fill:#2C130E;}
	.st5{fill:#FBF9D3;}
	.st6{fill:#57A261;}
	.st7{fill:#B6CFB3;}
	.st8{fill:#009447;}
	.st9{fill:#EE6730;}
	.st10{fill:#EFCF9F;}
	.st11{fill:#C74927;}
	.st12{fill:#C1785B;}
</style>
<path class="st0" d="M500,101.57c0,0-420.76-39.18-420.76,398.43c7.92,0,420.76,0,420.76,0V101.57z"/>
<g id="Objects_1">
	<g>
		<g>
			<path class="st1" d="M138.09,307.61c-0.8,47.13-70.91,47.12-71.71,0C67.19,260.48,137.29,260.48,138.09,307.61z"/>
		</g>
		<g>
			<path class="st2" d="M128.65,283.37c-6.99,23.43-25.63,42.08-47.72,53.07C115.59,361.76,157.46,315.04,128.65,283.37z"/>
		</g>
		<g>
			<path class="st3" d="M125.18,307.61c-0.52,30.16-45.38,30.16-45.89,0C79.81,277.44,124.67,277.45,125.18,307.61z"/>
			<path class="st4" d="M102.24,332.18c-32.29-0.58-32.29-48.57,0-49.15C134.53,283.61,134.53,331.6,102.24,332.18z M102.24,286.29
				c-28.02,0.5-28.01,42.14,0,42.64C130.26,328.42,130.25,286.78,102.24,286.29z"/>
		</g>
		<g>
			<path class="st5" d="M91.01,289.08c-0.05,11.49-17.51,11.48-17.56,0C73.5,277.59,90.96,277.59,91.01,289.08z"/>
		</g>
		<g>
			<g>
				<path class="st4" d="M100.12,325.12c-0.58-0.46-0.3-2.29-0.37-2.98c-3.78-0.49-6.68-0.82-8.23-2.8
					c-0.04-0.29,1.37-2.29,1.5-2.59c0.33-0.49,0.51-0.43,0.97-0.16c3.63,1.88,12.77,4.06,13.1-1.95c-0.47-5.18-9.48-4.7-12.28-8.21
					c-4.94-4.3-1.69-12.44,4.95-12.63c0.08-1.26-0.5-3.72,1.54-3.53c3.25-0.21,3.5,0.24,3.32,3.41c2.17,0.24,6.92,0.7,6.77,3.12
					c-0.28,0.31-1.26,2.38-1.7,2.39c-3.27-1.95-11.98-3.8-12.08,2.07c-0.01,1.53,0.7,2.4,1.99,3.06c2.36,1.13,7.41,2.76,9.35,4.14
					c6.19,3.86,3.19,13.58-4.32,13.68c-0.07,1.26,0.47,3.54-1.54,3.32C102.38,325.41,100.59,325.65,100.12,325.12z"/>
			</g>
		</g>
		<g>
			<path class="st4" d="M102.24,346c-50.46-0.9-50.45-75.89,0-76.79C152.7,270.12,152.69,345.1,102.24,346z M102.24,274.29
				c-43.78,0.79-43.77,65.84,0,66.62C146.02,340.13,146.01,275.07,102.24,274.29z"/>
		</g>
	</g>
	<g>
		<g>
			<path class="st6" d="M222.53,161.73c0,0-2.46-28.83-25.24-26.42c-10.95,1.16-14.33,15.68-4.86,21.31
				C197.94,159.9,207.2,162.17,222.53,161.73z"/>
		</g>
		<g>
			<path class="st7" d="M196.07,143.96c-1.28-4.73-9.25-2.92-7.86,2C189.48,150.69,197.45,148.88,196.07,143.96z"/>
		</g>
		<g>
			<path class="st8" d="M222.53,161.73c0,0-0.91-10.7-6.78-18.52c-2.95,8.72-7.6,2.45-10.4,4.92c-1.25,5.86-2.51,9.62-7.26,11
				C203.7,160.97,211.56,162.05,222.53,161.73z"/>
		</g>
		<g>
			<path class="st4" d="M222.53,164.27c-0.52,0-1.05-0.16-1.5-0.49l-16.96-12.44c-1.13-0.83-1.38-2.42-0.55-3.55
				c0.83-1.13,2.42-1.38,3.55-0.55l16.96,12.44C226.02,161.03,224.89,164.36,222.53,164.27z"/>
		</g>
		<g>
			<path class="st4" d="M218.81,164.32c-12.22,0-21.52-1.85-27.68-5.52c-11.53-6.29-7.13-25.19,5.89-26.02
				c19.66-3.32,28.07,20.91,28.04,28.73C225.22,164.94,221.07,164.26,218.81,164.32z M199.9,137.71
				c-9.74-0.71-14.69,11.17-6.18,16.73c5.51,3.27,14.2,4.89,25.86,4.8C218.85,151.64,211.53,136.55,199.9,137.71z"/>
		</g>
	</g>
	<g>
		<g>
			<path class="st6" d="M233.65,239.36c0,0-30.66-24.52-49.57,0.14c-9.09,11.86,2.04,28.75,16.42,24.7
				C208.88,261.84,219.77,254.86,233.65,239.36z"/>
		</g>
		<g>
			<path class="st7" d="M191.44,248.79c-5.85-3.16-11.52,6.36-5.38,9.6C191.92,261.55,197.58,252.03,191.44,248.79z"/>
		</g>
		<g>
			<path class="st8" d="M233.65,239.36c0,0-11.38-9.1-24.55-10.64c5.83,11.2-4.82,9.8-4.88,14.83c4.59,6.71,7.12,11.46,4.04,17.42
				C215.31,257.18,223.72,250.45,233.65,239.36z"/>
		</g>
		<g>
			<path class="st4" d="M205.57,246.96c-2.99,0.08-3.45-4.58-0.45-5.04c0,0,28.08-5.06,28.08-5.06c1.38-0.25,2.7,0.67,2.95,2.05
				c0.25,1.38-0.67,2.7-2.05,2.95C233.51,241.92,206.17,246.98,205.57,246.96z"/>
		</g>
		<g>
			<path class="st4" d="M196.22,267.34c-5.82,0-11.29-2.85-14.74-7.95c-10.28-14.4,5.7-32.09,20.25-33.2
				c18.24-1.34,33.36,9.96,34.46,12.97C223.99,255.84,209.81,265.71,196.22,267.34z M205.41,231.04
				c-11.88-0.75-28.18,12.93-19.73,25.49c12.42,14.9,29.94-2.6,44.16-16.78C225.57,236.87,215.66,231.04,205.41,231.04z"/>
		</g>
	</g>
	<g>
		<g>
			<path class="st6" d="M352.99,218.88c0,0,44.37-14.25,54.93,21.1c5.08,16.99-14.41,31.03-28.65,20.46
				C370.98,254.28,361.85,241.94,352.99,218.88z"/>
		</g>
		<g>
			<path class="st7" d="M395.83,247.17c7.83-1.04,10.09,11.92,1.91,12.93C389.92,261.13,387.65,248.17,395.83,247.17z"/>
		</g>
		<g>
			<path class="st8" d="M352.99,218.88c0,0,16.47-5.29,31.72-1.43c-11.23,10.03,1.27,12.96-0.85,18.51
				c-7.93,5.5-12.74,9.71-11.85,17.62C365.81,246.39,359.33,235.38,352.99,218.88z"/>
		</g>
		<g>
			<path class="st4" d="M382,238.9c-0.45,0-0.9-0.12-1.31-0.36l-29.01-17.48c-1.2-0.72-1.59-2.29-0.87-3.49
				c0.72-1.2,2.29-1.59,3.49-0.87l29.01,17.48C385.52,235.41,384.48,239,382,238.9z"/>
		</g>
		<g>
			<path class="st4" d="M390.1,266.62c-4.32,0-8.62-1.38-12.33-4.14c-9.98-7.41-19.11-21.77-27.14-42.69
				c-0.53-1.31,0.23-2.93,1.6-3.33C408.37,198.14,431.81,261.07,390.1,266.62z M356.39,220.59c9.92,22.26,22.28,49.6,42.83,37.99
				c5.83-4.09,8.29-11.11,6.27-17.88C400.15,217.25,370.43,216.24,356.39,220.59z"/>
		</g>
	</g>
	<g>
		<g>
			<path class="st6" d="M274.9,205.09c0,0-2.07-24.27-21.24-22.24c-9.22,0.98-12.06,13.2-4.09,17.94
				C254.2,203.55,261.99,205.46,274.9,205.09z"/>
		</g>
		<g>
			<path class="st7" d="M252.62,190.13c-1.08-3.98-7.78-2.46-6.62,1.69C247.08,195.8,253.79,194.28,252.62,190.13z"/>
		</g>
		<g>
			<path class="st8" d="M274.9,205.09c0,0-0.77-9.01-5.7-15.59c-2.45,7.3-6.36,2.08-8.76,4.14c-1.06,4.93-2.12,8.1-6.11,9.26
				C259.05,204.45,265.66,205.36,274.9,205.09z"/>
		</g>
		<g>
			<path class="st4" d="M274.89,207.63c-0.56,0.8-15.11-10.7-15.78-10.96c-2.68-1.91,0.37-6.09,3.01-4.1
				c0,0,14.27,10.47,14.27,10.47C278.39,204.39,277.25,207.72,274.89,207.63z"/>
		</g>
		<g>
			<path class="st4" d="M271.77,207.67c-10.36,0-18.26-1.58-23.51-4.7c-10.04-5.47-6.21-21.93,5.12-22.65
				c16.59-2.99,24.21,17.99,24.04,24.55C277.62,208.03,273.93,207.71,271.77,207.67z M255.91,185.27
				c-7.79-0.64-11.89,8.86-5.05,13.33c4.5,2.67,11.58,4.02,21.08,3.99C271.15,196.19,265.28,184.43,255.91,185.27z"/>
		</g>
	</g>
	<g>
		<g>
			<path class="st6" d="M335.4,129.89c0,0,23.28,24.79,42.52,5.97c9.25-9.05,1.78-24.9-11.05-23.19
				C359.4,113.66,349.21,118.31,335.4,129.89z"/>
		</g>
		<g>
			<path class="st7" d="M372.75,126.99c4.63,3.43,10.66-4.04,5.79-7.57C373.91,115.99,367.88,123.46,372.75,126.99z"/>
		</g>
		<g>
			<path class="st8" d="M335.4,129.89c0,0,8.64,9.2,19.74,12.14c-3.62-10.32,5.34-7.81,6.01-12.11c-3.11-6.32-4.69-10.7-1.33-15.43
				C353.31,116.86,345.28,121.6,335.4,129.89z"/>
		</g>
		<g>
			<path class="st4" d="M335.4,132.43c-3.23,0.06-3.34-5.02-0.09-5.08c0,0,24.7-0.89,24.7-0.89c3.28-0.17,3.49,5.01,0.18,5.08
				C360.04,131.53,335.53,132.44,335.4,132.43z"/>
		</g>
		<g>
			<path class="st4" d="M361.69,145.45c-14.82-0.37-32.52-14.16-27.93-17.51c17.15-13.38,37.34-27.91,49.13-8.96
				C389.99,132.6,374.38,145.99,361.69,145.45z M339.23,130.03c7.35,7.59,26.21,16.32,36.91,4.01c4.22-4.12,3.81-9.49,2.18-12.83
				C369.71,107.28,352.89,119.91,339.23,130.03z M335.4,129.89L335.4,129.89L335.4,129.89z"/>
		</g>
	</g>
	<g>
		<g>
			<path class="st6" d="M247.45,100.69c0,0-2.46-28.83-25.24-26.42c-10.95,1.16-14.33,15.68-4.86,21.31
				C222.86,98.86,232.12,101.14,247.45,100.69z"/>
		</g>
		<g>
			<path class="st7" d="M220.98,82.92c-1.28-4.73-9.25-2.92-7.86,2C214.4,89.65,222.37,87.84,220.98,82.92z"/>
		</g>
		<g>
			<path class="st8" d="M247.45,100.69c0,0-0.91-10.7-6.78-18.52c-2.95,8.72-7.6,2.45-10.4,4.92c-1.26,5.86-2.51,9.62-7.26,11
				C228.62,99.93,236.48,101.01,247.45,100.69z"/>
		</g>
		<g>
			<path class="st4" d="M247.44,103.23c-0.2,1.03-18.02-12.81-18.46-12.93c-1.13-0.83-1.38-2.42-0.55-3.55
				c0.83-1.13,2.42-1.38,3.55-0.55l16.96,12.44C250.94,99.99,249.8,103.32,247.44,103.23z"/>
		</g>
		<g>
			<path class="st4" d="M243.73,103.28c-12.21,0-21.52-1.85-27.68-5.52c-11.53-6.29-7.13-25.19,5.89-26.02
				c19.66-3.32,28.07,20.91,28.04,28.73C250.14,103.9,245.99,103.22,243.73,103.28z M224.82,76.67
				c-9.74-0.71-14.69,11.17-6.18,16.73c5.51,3.27,14.2,4.89,25.86,4.8C243.76,90.6,236.45,75.52,224.82,76.67z"/>
		</g>
	</g>
	<g>
		<g>
			<path class="st6" d="M391.12,189.69c0,0,24.01-16.15,10.84-34.89c-6.33-9.01-20.67-4.91-20.99,6.1
				C380.79,167.31,383.29,176.51,391.12,189.69z"/>
		</g>
		<g>
			<path class="st7" d="M393.81,157.93c3.52-3.41-1.93-9.5-5.57-5.9C384.73,155.44,390.18,161.53,393.81,157.93z"/>
		</g>
		<g>
			<path class="st8" d="M391.12,189.69c0,0,8.91-5.99,12.9-14.91c-9.06,1.65-5.83-5.45-9.35-6.71c-5.73,1.75-9.63,2.47-13.14-1
				C382.64,172.86,385.52,180.26,391.12,189.69z"/>
		</g>
		<g>
			<path class="st4" d="M391.13,192.23c-1.52,0.01-2.73-1.35-2.52-2.86c0,0,2.64-20.86,2.64-20.86c0.37-3.27,5.51-2.63,5.04,0.64
				c0,0-2.64,20.86-2.64,20.86C393.48,191.3,392.39,192.23,391.13,192.23z"/>
		</g>
		<g>
			<path class="st4" d="M391.12,192.23c-0.88,0-1.74-0.48-2.19-1.24c-7.2-12.12-10.74-22.27-10.5-30.17
				c-0.1-13.13,18.56-18.46,25.61-7.48C416.56,168.63,399.07,189.76,391.12,192.23z M392.6,152.41
				c-16.16,2.21-7.59,20.55-0.72,33.51c3.42-2.83,9.84-9.02,11.23-16.59C404.6,163.06,400.18,152.11,392.6,152.41z"/>
		</g>
	</g>
	<g>
		<g>
			<path class="st9" d="M131.28,451.53c-95.07-0.68-63.58,15.64-76.03-104.4h93.96l-5.77,92.97
				C143.04,446.53,137.72,451.53,131.28,451.53z"/>
		</g>
		<g>
			<path class="st10" d="M64.57,375.08c2.49,10.67,5.4,42.98,3.46,54.03C64.19,418.51,63.21,385.93,64.57,375.08z"/>
		</g>
		<g>
			<path class="st11" d="M106.1,414.41c-13.18,12.63-28.57,20.52-45.06,25.77c0.44,6.39,5.74,11.35,12.15,11.35h58.09
				c6.44,0,11.76-5.01,12.16-11.43l4.59-73.85C137.14,384.32,121.62,400.13,106.1,414.41z"/>
		</g>
		<g>
			<path class="st9" d="M155.53,366.11H48.95c-5.69,0-10.3-4.61-10.3-10.3v-14.52c0-5.69,4.61-10.3,10.3-10.3h106.58
				c5.69,0,10.3,4.61,10.3,10.3v14.52C165.83,361.5,161.22,366.11,155.53,366.11z"/>
		</g>
		<g>
			<path class="st10" d="M53.79,344.87c0.07,8.06-7.99,8.06-7.92,0C45.8,336.81,53.87,336.81,53.79,344.87z"/>
		</g>
		<g>
			<path class="st11" d="M158.25,331h-0.21c-4.95,18.91-19.65,31.81-38.61,35.12h38.82c4.19,0,7.58-3.39,7.58-7.58v-19.96
				C165.83,334.39,162.43,331,158.25,331z"/>
		</g>
		<g>
			<g>
				<path class="st4" d="M131.28,454.07H73.19c-7.76,0-14.22-6.07-14.7-13.81l-4.48-73.63c-0.22-3.26,4.9-3.62,5.07-0.31
					c10.53,97.21-19.02,81.67,72.19,82.67c5.08,0,9.31-3.97,9.62-9.04l4.42-73.64c0.08-1.4,1.29-2.46,2.69-2.38
					c1.4,0.08,2.47,1.29,2.38,2.69l-4.42,73.65C145.5,448.01,139.04,454.07,131.28,454.07z"/>
			</g>
			<g>
				<path class="st4" d="M158.25,368.65H46.23c-14.73-0.27-9.1-21-10.12-30.08c0-5.58,4.54-10.12,10.12-10.12h112.02
					c14.73,0.27,9.1,21,10.12,30.08C168.37,364.11,163.83,368.65,158.25,368.65z M46.23,333.54c-2.78,0-5.04,2.26-5.04,5.04v19.96
					c0,2.78,2.26,5.04,5.04,5.04h112.02c2.78,0,5.04-2.26,5.04-5.04v-19.96c0-2.78-2.26-5.04-5.04-5.04H46.23z"/>
			</g>
		</g>
		<g>
			<path class="st4" d="M71.88,342.36H59.12c-0.86,0-1.56-0.7-1.56-1.56c0-0.86,0.7-1.56,1.56-1.56h12.76
				C73.9,339.21,73.91,342.39,71.88,342.36z"/>
		</g>
		<g>
			<path class="st4" d="M131.25,342.36H80.22c-0.86,0-1.56-0.7-1.56-1.56c0-0.86,0.7-1.56,1.56-1.56h51.03
				C133.26,339.21,133.29,342.39,131.25,342.36z"/>
		</g>
	</g>
	<g>
		<g>
			<path class="st9" d="M319.3,451.53c-95.07-0.68-63.58,15.64-76.03-104.4h93.96l-5.77,92.97
				C331.06,446.53,325.74,451.53,319.3,451.53z"/>
		</g>
		<g>
			<path class="st10" d="M252.63,375.08c2.49,10.67,5.4,42.98,3.46,54.03C252.25,418.51,251.28,385.93,252.63,375.08z"/>
		</g>
		<g>
			<path class="st11" d="M294.12,414.41c-13.18,12.63-28.57,20.52-45.06,25.77c0.44,6.39,5.74,11.35,12.15,11.35h58.09
				c6.44,0,11.76-5.01,12.16-11.43l4.59-73.85C325.16,384.32,309.64,400.13,294.12,414.41z"/>
		</g>
		<g>
			<path class="st9" d="M343.55,366.11H236.97c-5.69,0-10.3-4.61-10.3-10.3v-14.52c0-5.69,4.61-10.3,10.3-10.3h106.58
				c5.69,0,10.3,4.61,10.3,10.3v14.52C353.85,361.5,349.24,366.11,343.55,366.11z"/>
		</g>
		<g>
			<path class="st10" d="M241.81,344.87c0.07,8.06-7.99,8.06-7.92,0C233.82,336.81,241.89,336.81,241.81,344.87z"/>
		</g>
		<g>
			<path class="st11" d="M346.27,331h-0.21c-4.95,18.91-19.65,31.81-38.61,35.12h38.82c4.19,0,7.58-3.39,7.58-7.58v-19.96
				C353.85,334.39,350.45,331,346.27,331z"/>
		</g>
		<g>
			<g>
				<path class="st4" d="M319.3,454.07h-58.09c-7.76,0-14.22-6.07-14.7-13.81l-4.48-73.63c-0.22-3.26,4.9-3.62,5.07-0.31
					c10.53,97.21-19.02,81.67,72.19,82.67c5.08,0,9.31-3.97,9.63-9.04l4.42-73.64c0.08-1.4,1.29-2.46,2.69-2.38
					c1.4,0.08,2.47,1.29,2.38,2.69L334,440.26C333.52,448.01,327.06,454.07,319.3,454.07z"/>
			</g>
			<g>
				<path class="st4" d="M346.27,368.65H234.25c-14.73-0.27-9.1-21-10.12-30.08c0-5.58,4.54-10.12,10.12-10.12h112.02
					c14.73,0.27,9.1,21,10.12,30.08C356.39,364.11,351.85,368.65,346.27,368.65z M234.25,333.54c-2.78,0-5.04,2.26-5.04,5.04v19.96
					c0,2.78,2.26,5.04,5.04,5.04h112.02c2.78,0,5.04-2.26,5.04-5.04v-19.96c0-2.78-2.26-5.04-5.04-5.04H234.25z"/>
			</g>
		</g>
		<g>
			<path class="st4" d="M259.9,342.36h-12.76c-0.86,0-1.56-0.7-1.56-1.56c0-0.86,0.7-1.56,1.56-1.56h12.76
				C261.92,339.21,261.93,342.39,259.9,342.36z"/>
		</g>
		<g>
			<path class="st4" d="M319.27,342.36h-51.03c-0.86,0-1.56-0.7-1.56-1.56c0-0.86,0.7-1.56,1.56-1.56h51.03
				C321.28,339.21,321.31,342.39,319.27,342.36z"/>
		</g>
	</g>
	<g>
		<g>
			<path class="st4" d="M34.99,457.02H9.87c-0.86,0-1.56-0.7-1.56-1.56c0-0.86,0.7-1.56,1.56-1.56h25.12
				C37.01,453.86,37.02,457.05,34.99,457.02z"/>
		</g>
		<g>
			<path class="st4" d="M191.29,457.02h-25.12c-0.86,0-1.56-0.7-1.56-1.56c0-0.86,0.7-1.56,1.56-1.56h25.12
				C193.31,453.86,193.32,457.05,191.29,457.02z"/>
		</g>
		<g>
			<path class="st4" d="M151.87,457.02H51.41c-0.86,0-1.56-0.7-1.56-1.56c0-0.86,0.7-1.56,1.56-1.56h100.46
				C153.87,453.86,153.92,457.05,151.87,457.02z"/>
		</g>
		<g>
			<path class="st4" d="M417.5,457.02c-1.62-1.52-210.46,2.94-210.15-1.56c-0.38-4.51,208.61-0.04,210.15-1.57
				C419.47,453.86,419.58,457.05,417.5,457.02z"/>
		</g>
	</g>
	<g>
		<path class="st12" d="M263.2,329.49c-18.66-63.51,12.46-99.56,21.96-157.33c2.74-32.93-35.68-61.29-35.68-61.29
			s-10.06-10.98,8.23-12.81c18.29-1.83,44.82,38.42,44.82,38.42l34.76-25.61l0.91,10.98c-28.55,30.71-37.73,58.73-38.42,107.02
			c0,15.55,48.48-19.21,48.48-19.21l6.4-39.33l7.32,1.83l-0.91,34.76l44.82-21.04l3.66,12.81c0,0-80.5,26.53-91.47,49.4
			c-10.98,22.87-21.04,57.63,0.91,80.5L263.2,329.49z"/>
		<path class="st4" d="M263.2,332.03c-1.11,0-2.1-0.72-2.43-1.79c-5.55-18.96-8.51-53.85-0.02-83.74
			c9.23-37.49,18.22-38.15,21.87-74.55c1.27-42.48-42.8-55.11-37.98-69.81c16.79-22.07,47.41,14.14,58.5,30.74
			c1.23-0.08,34.1-26.93,35.2-24.32c2.5,0.45,1.84,11.42,2.4,13.08c0.16,2.49-17.8,21.63-26.85,38.06
			c-6.43,12.09-12.48,53.59-11.15,70.41c0.71,0.36,5.18,1.6,24.15-9.58c8.56-5.05,16.49-10.53,19.05-12.33l6.23-38.28
			c0.2-1.43,1.73-2.44,3.13-2.06c1.93,0.92,9.61,1,9.24,4.36c0,0-0.81,30.64-0.81,30.64l41.09-19.29c1.36-0.67,3.14,0.13,3.52,1.6
			c0,0,3.66,12.81,3.66,12.81c0.37,1.31-0.35,2.69-1.65,3.11c-12.85,2.22-91.66,36.99-89.97,48.08
			c-10.74,19.72-19.69,59.53,0.46,77.63c1.55,1.48,0.35,4.35-1.79,4.3C319,331.12,263.24,332.03,263.2,332.03z M251.21,109
			c87.25,70.57-14.53,115.74,13.91,217.92l48.42-0.79c-17.54-19.93-8.44-59.43,2.24-79.14c2.02-14.67,72.87-45.24,90.65-49.93
			l-2.17-7.61c-52.82,21.56-46.13,36.47-44.88-15.32l-2.66-0.66l-5.96,36.61c-0.11,0.67-0.48,1.26-1.03,1.66
			c-0.1,0.07-9.7,6.94-20.26,13.16c-21.83,12.42-30.7,14.36-32.25,3.98c0.89-46.07,8.25-75.55,38.34-107.84l-0.45-5.41l-31.1,22.91
			c-1.12,0.86-2.87,0.55-3.63-0.65c-8.49-12.41-34.99-48.55-51.01-33.94C248.8,105.47,250.29,107.9,251.21,109z"/>
	</g>
	<g>
		<path class="st12" d="M271.43,253.57c-16.02-24.75-42.52-57.02-38.42-96.96l-9.15-0.91l-4.57,44.82l-32.93,3.66l7.32,11.89
			c0,0,22.87,0,32.02,4.57c9.15,4.57,17.38,60.37,45.74,73.18"/>
		<path class="st4" d="M271.43,296.36c-26.76-9.42-33.57-53.86-46.87-73.45c-10.67-5.41-31.23-2.67-33.05-5.51
			c-0.44-1.55-9.09-12.61-7.44-14.34c-0.91-2.38,32.01-4.22,32.89-4.84l4.37-42.78c0.14-1.39,1.38-2.41,2.78-2.27l9.15,0.91
			c1.3,0.13,2.29,1.22,2.29,2.53c0,0.21,0.03,20.95,2.69,34.26c0.74,3.71,4.56,12.85,18.53,35.39
			c8.45,13.63,16.68,25.76,16.76,25.88c0.79,1.16,0.49,2.74-0.67,3.53c-4.38,4.11-35.7-50.4-39.6-63.8
			c-2.25-11.28-2.69-27.07-2.77-32.96l-4.35-0.44l-4.32,42.3c-0.12,1.19-1.06,2.14-2.25,2.27l-28.94,3.22l4.48,7.28
			c5.27,0.08,23.41,0.67,31.72,4.83c14.76,15.06,20.11,62.91,45.65,73.13C274.95,292.51,274.07,296.47,271.43,296.36z"/>
	</g>
	<g>
		<g>
			<path class="st1" d="M364.53,98.95c-17.34,43.83-82.96,19.15-67.12-25.24C314.76,29.88,380.37,54.56,364.53,98.95z"/>
		</g>
		<g>
			<path class="st2" d="M364.23,72.94c-14.78,19.47-38.8,30.37-63.35,32.88C324.41,141.71,380.04,112.72,364.23,72.94z"/>
		</g>
		<g>
			<path class="st3" d="M352.45,94.41c-11.1,28.05-53.09,12.25-42.96-16.16C320.59,50.2,362.59,66,352.45,94.41z"/>
			<path class="st4" d="M330.95,110.9c-16.73,0.29-29.21-17.6-22.97-33.22c11.91-30.02,56.83-13.13,46,17.3l0,0
				C350.27,104.82,340.89,110.9,330.95,110.9z M331,65.01c-23.09-0.41-29.57,33.29-7.53,41.28c11,4.14,23.32-1.45,27.46-12.45l0,0
				C356.34,80.28,345.51,64.75,331,65.01z M352.45,94.41L352.45,94.41L352.45,94.41z"/>
		</g>
		<g>
			<path class="st5" d="M326.98,65.03c-4.09,10.73-20.44,4.58-16.44-6.18C314.63,48.12,330.98,54.27,326.98,65.03z"/>
		</g>
		<g>
			<g>
				<path class="st4" d="M322.82,101.97c-0.39-0.63,0.52-2.25,0.71-2.92c-3.37-1.79-5.97-3.12-6.72-5.51
					c0.07-0.28,2.09-1.67,2.32-1.9c0.48-0.34,0.63-0.22,0.97,0.19c2.73,3.04,10.52,8.29,12.94,2.79c1.38-5.01-7.22-7.74-8.61-12.01
					c-3.11-5.76,2.8-12.24,9.07-10.08c0.52-1.15,0.84-3.66,2.68-2.76c3.12,0.95,3.19,1.46,1.91,4.36c1.95,0.99,6.23,3.09,5.24,5.31
					c-0.37,0.19-2.02,1.79-2.44,1.64c-2.37-2.98-9.87-7.78-12.04-2.32c-0.55,1.43-0.19,2.49,0.78,3.56
					c1.81,1.89,5.96,5.19,7.29,7.16c4.44,5.8-1.79,13.83-8.86,11.29c-0.51,1.15-0.8,3.48-2.61,2.57
					C324.84,103.04,323.08,102.64,322.82,101.97z"/>
			</g>
		</g>
		<g>
			<path class="st4" d="M330.99,124.74c-25.94,0.74-45.86-27.86-35.95-51.93c18.97-46.93,88.47-20.85,71.88,27.03l0,0
				C361.6,114.6,346.58,124.89,330.99,124.74z M330.96,53c-23.39-0.69-40.71,26.03-30.32,47.09c11.32,26.71,51.98,25.37,61.52-2.03
				l0,0C370.6,76.84,353.68,52.61,330.96,53z"/>
		</g>
	</g>
	<g>
		<g>
			<path class="st1" d="M185.49,175.2c30.61,24.17-4.57,70.3-35.98,47.18C118.91,198.21,154.08,152.09,185.49,175.2z"/>
		</g>
		<g>
			<path class="st2" d="M164.81,169.25c11.91,16.35,14.83,37.98,10.98,58.03C209.83,217.17,200.09,166.19,164.81,169.25z"/>
		</g>
		<g>
			<path class="st3" d="M179.01,183.7c19.59,15.47-2.92,44.99-23.03,30.2C136.4,198.42,158.91,168.9,179.01,183.7z"/>
			<path class="st4" d="M167.48,219.4c-16.38,0.63-26.9-20.34-16.37-33.1c6.53-8.95,20.22-10.79,28.89-3.89l0,0
				C195.76,193.57,186.42,220.13,167.48,219.4z M167.54,181.43c-16.28-0.39-23.73,21.59-10.56,31.17
				c18.4,13.52,38.96-13.5,21.05-27.61l0,0C174.97,182.66,171.31,181.43,167.54,181.43z"/>
		</g>
		<g>
			<path class="st5" d="M149.68,196.89c7.53,5.8-1.23,17.29-8.81,11.56C133.33,202.65,142.1,191.16,149.68,196.89z"/>
		</g>
		<g>
			<g>
				<path class="st4" d="M177.96,208.97c-0.59,0.16-1.66-0.95-2.14-1.25c-2.22,2.24-3.89,3.99-5.97,4.01
					c-0.21-0.12-0.82-2.05-0.95-2.29c-0.16-0.46-0.02-0.55,0.38-0.72c3.06-1.44,9.08-6.37,5.29-9.59
					c-3.64-2.29-7.85,3.88-11.57,3.96c-5.31,1.1-9.03-5.13-5.83-9.59c-0.79-0.68-2.7-1.54-1.55-2.78c1.49-2.24,1.92-2.18,3.91-0.48
					c1.34-1.37,3.79-4.14,5.45-2.89c0.06,0.34,0.94,2.02,0.72,2.32c-2.92,1.17-8.51,5.97-4.7,8.99c1,0.78,1.93,0.74,3.01,0.23
					c1.93-0.98,5.53-3.49,7.41-4.07c5.65-2.14,10.53,4.71,6.84,9.71c0.79,0.68,2.57,1.46,1.41,2.68
					C179.28,207.63,178.55,208.93,177.96,208.97z"/>
			</g>
		</g>
		<g>
			<path class="st4" d="M167.46,230.99c-57.29-5.1-29.21-88.51,19.57-57.81l0,0C211.57,191.35,197.58,231.54,167.46,230.99z
				 M167.53,171.68c-24.93-0.96-37.22,33.99-16.48,48.69c28.73,21.11,60.85-21.02,32.89-43.14l0,0
				C179.05,173.49,173.27,171.68,167.53,171.68z"/>
		</g>
	</g>
	<g>
		<g>
			<path class="st1" d="M373.26,166.3c4.59,28.73-38.02,36.28-43.59,7.73C325.08,145.3,367.69,137.75,373.26,166.3z"/>
		</g>
		<g>
			<path class="st2" d="M364.91,152.59c-1.72,14.99-11.04,28.34-23.29,37.4C365.42,201.64,385.83,168.73,364.91,152.59z"/>
		</g>
		<g>
			<path class="st3" d="M365.41,167.69c2.94,18.39-24.33,23.22-27.9,4.95C334.58,154.25,361.85,149.42,365.41,167.69z"/>
			<path class="st4" d="M351.43,185.96c-12.32,0.4-20.35-14.96-12.91-24.84c7.41-11.45,26.6-7.22,28.49,6.29l0,0
				C368.92,176.78,360.97,186.21,351.43,185.96z M351.49,157.63c-17.95,0.49-15.59,27.51,2.16,24.89
				C368.46,179.99,366.49,157.56,351.49,157.63z"/>
		</g>
		<g>
			<path class="st5" d="M342.64,160.12c1.33,6.91-9.55,8.84-10.68,1.89C330.64,155.1,341.51,153.17,342.64,160.12z"/>
		</g>
		<g>
			<g>
				<path class="st4" d="M352.06,181.04c-0.4-0.21-0.43-1.36-0.54-1.77c-2.35,0.11-4.15,0.22-5.3-0.81
					c-0.05-0.17,0.58-1.54,0.63-1.74c0.15-0.33,0.27-0.32,0.57-0.2c2.41,0.75,8.2,1.09,7.75-2.59c-0.84-3.1-6.27-1.84-8.35-3.67
					c-3.47-2.08-2.37-7.38,1.65-8.21c-0.09-0.77-0.71-2.21,0.56-2.31c1.91-0.49,2.18-0.19,2.39,1.71c2.31-0.18,6.02-0.17,3.67,2.81
					c-3.14-1.73-10.7,0.89-5.58,4.21c1.56,0.43,4.8,0.88,6.13,1.51c4.18,1.68,3.4,7.91-1.15,8.78c0.09,0.77,0.67,2.1-0.58,2.19
					C353.47,180.97,352.41,181.31,352.06,181.04z"/>
			</g>
		</g>
		<g>
			<path class="st4" d="M351.45,194.84c-29.73-0.41-33.72-43.3-4.3-48.97C382.21,140.99,386.84,193.5,351.45,194.84z M351.5,150.57
				c-25.94,0.64-25.81,38.55-0.05,39.19C377.21,189.3,377.2,151.05,351.5,150.57z"/>
		</g>
	</g>
	<g>
		<g>
			<path class="st1" d="M444.52,194.83c4.59,28.73-38.02,36.28-43.59,7.73C396.35,173.83,438.96,166.27,444.52,194.83z"/>
		</g>
		<g>
			<path class="st2" d="M436.18,181.12c-1.72,14.99-11.04,28.34-23.29,37.4C436.68,230.17,457.09,197.26,436.18,181.12z"/>
		</g>
		<g>
			<path class="st3" d="M436.68,196.22c2.94,18.39-24.33,23.22-27.9,4.95C405.85,182.78,433.12,177.95,436.68,196.22z"/>
			<path class="st4" d="M422.72,214.49c-18.82,0.13-21.48-28.1-2.75-31.34c8.33-1.65,17,4.4,18.31,12.79l0,0
				C440.19,205.29,432.25,214.73,422.72,214.49z M422.76,186.15c-17.95,0.51-15.58,27.51,2.16,24.89
				C439.73,208.51,437.75,186.08,422.76,186.15z"/>
		</g>
		<g>
			<path class="st5" d="M413.91,188.64c1.33,6.91-9.55,8.84-10.68,1.89C401.9,183.63,412.78,181.7,413.91,188.64z"/>
		</g>
		<g>
			<g>
				<path class="st4" d="M423.33,209.57c-0.4-0.21-0.43-1.36-0.54-1.77c-2.35,0.11-4.15,0.22-5.3-0.81
					c-0.05-0.17,0.58-1.54,0.63-1.74c0.15-0.33,0.27-0.32,0.57-0.2c2.41,0.75,8.2,1.09,7.75-2.59c-0.84-3.1-6.27-1.84-8.35-3.67
					c-3.47-2.08-2.37-7.38,1.65-8.21c-0.09-0.77-0.71-2.21,0.56-2.31c1.91-0.49,2.18-0.19,2.39,1.71c2.31-0.18,6.02-0.17,3.67,2.81
					c-3.14-1.73-10.7,0.89-5.58,4.21c1.56,0.43,4.8,0.88,6.13,1.51c4.18,1.68,3.4,7.91-1.15,8.78c0.09,0.77,0.67,2.1-0.58,2.19
					C424.73,209.5,423.67,209.84,423.33,209.57z"/>
			</g>
		</g>
		<g>
			<path class="st4" d="M422.68,223.38c-19.25,0.63-31.8-23.38-20.17-38.82c11.69-17.86,41.43-11.37,44.52,9.83l0,0
				C450.01,209.02,437.59,223.76,422.68,223.38z M422.74,179.1c-18.77-0.41-26.85,25.23-11.23,35.65
				c13.59,10.12,33.99-2.83,30.51-19.48l0,0C440.34,185.79,432.05,179.1,422.74,179.1z"/>
		</g>
	</g>
	<g>
		<g>
			<path class="st1" d="M264.97,151.82c-3.01,28.94-46.12,25.2-44.1-3.83C223.88,119.05,266.99,122.8,264.97,151.82z"/>
		</g>
		<g>
			<path class="st2" d="M260.46,136.41c-5.55,14.03-18.01,24.51-32.18,30.09C248.24,183.92,276.48,157.42,260.46,136.41z"/>
		</g>
		<g>
			<path class="st3" d="M257.03,151.13c-1.93,18.52-29.52,16.13-28.22-2.45C230.73,130.16,258.32,132.56,257.03,151.13z"/>
			<path class="st4" d="M242.93,165.7c-21.65-0.46-20.25-32.92,1.35-31.53C264.11,136.12,262.77,165.47,242.93,165.7z M242.9,137.37
				c-10.29-0.35-16.5,12.95-9.58,20.61c6.72,8.51,21.48,3.89,22.09-6.98l1.62,0.14l-1.62-0.14
				C256.19,143.87,250.05,137.19,242.9,137.37z"/>
		</g>
		<g>
			<path class="st5" d="M237,137.91c-0.51,7.02-11.51,6.06-10.8-0.94C226.7,129.96,237.71,130.91,237,137.91z"/>
		</g>
		<g>
			<g>
				<path class="st4" d="M240.68,160.56c-0.33-0.31-0.06-1.43-0.07-1.85c-2.3-0.5-4.07-0.86-4.91-2.16
					c-0.01-0.18,0.96-1.34,1.06-1.52c0.23-0.28,0.34-0.24,0.61-0.05c2.13,1.35,7.64,3.18,8.16-0.5c-0.01-3.21-5.58-3.4-7.12-5.71
					c-2.81-2.91-0.37-7.74,3.72-7.5c0.12-0.77-0.11-2.32,1.14-2.09c1.97,0.02,2.16,0.38,1.86,2.27c2.28,0.43,5.86,1.39,2.82,3.66
					c-2.59-2.48-10.57-1.91-6.48,2.62c1.39,0.82,4.41,2.09,5.53,3.04c3.6,2.71,1.24,8.52-3.39,8.18c-0.11,0.77,0.1,2.2-1.12,1.96
					C242.05,160.86,240.94,160.92,240.68,160.56z"/>
			</g>
		</g>
		<g>
			<path class="st4" d="M242.96,174.58c-34.03-1.18-31.9-50.98,2.09-49.26C276,128.4,273.98,174.2,242.96,174.58z M242.9,130.31
				c-24.62,0.28-26.27,36.7-1.68,39.11C267.96,171.15,269.81,130.95,242.9,130.31z"/>
		</g>
	</g>
	<g>
		<path class="st9" d="M482.25,160.09c-8.15,0-12.64-4.49-12.64-12.64c0.04-3.06-4.78-3.08-4.73,0
			c-0.49,16.88-14.32,9.4-15.01,15.01c0.72,5.6,14.56-1.82,15.01,15.01c-0.04,3.06,4.78,3.07,4.73,0c0-8.15,4.49-12.64,12.64-12.64
			C485.31,164.87,485.33,160.05,482.25,160.09z"/>
	</g>
	<g>
		<path class="st9" d="M430.5,285.33c-5.97,0-9.26-3.29-9.26-9.26c0.03-2.24-3.5-2.25-3.46,0c-0.35,12.32-10.35,6.86-10.99,10.99
			c0.6,4.11,10.67-1.31,10.99,10.99c-0.03,2.24,3.5,2.25,3.46,0c0-5.97,3.29-9.26,9.26-9.26
			C432.74,288.82,432.75,285.3,430.5,285.33z"/>
	</g>
	<g>
		<path class="st9" d="M319.41,16.27c-5.97,0-9.26-3.29-9.26-9.26c0.03-2.24-3.5-2.25-3.46,0c-0.35,12.32-10.35,6.86-10.99,10.99
			c0.6,4.11,10.67-1.31,10.99,10.99c-0.03,2.24,3.5,2.25,3.46,0c0-5.97,3.29-9.26,9.26-9.26C321.65,19.76,321.66,16.23,319.41,16.27
			z"/>
	</g>
	<g>
		<path class="st9" d="M122.29,136.8c-5.97,0-9.26-3.29-9.26-9.26c0.03-2.24-3.5-2.25-3.46,0c-0.35,12.32-10.35,6.86-10.99,10.99
			c0.6,4.11,10.67-1.31,10.99,10.99c-0.03,2.24,3.5,2.25,3.46,0c0-5.97,3.29-9.26,9.26-9.26
			C124.53,140.29,124.54,136.76,122.29,136.8z"/>
	</g>
	<g>
		<path class="st2" d="M487.75,202.55c-5.3,0-8.22-2.92-8.22-8.22c0.03-1.99-3.11-2-3.08,0c-0.3,10.93-9.12,6.08-9.76,9.76
			c0.6,3.66,9.48-1.15,9.76,9.76c-0.03,1.99,3.11,2,3.08,0c0-5.3,2.92-8.22,8.22-8.22C489.74,205.65,489.75,202.52,487.75,202.55z"
			/>
	</g>
	<g>
		<path class="st9" d="M75.6,249.78c-8.15,0-12.64-4.49-12.64-12.64c0.04-3.06-4.78-3.08-4.73,0c-0.49,16.88-14.32,9.4-15.01,15.01
			c0.72,5.6,14.56-1.82,15.01,15.01c-0.04,3.06,4.78,3.07,4.73,0c0-8.15,4.49-12.64,12.64-12.64
			C78.66,254.56,78.68,249.74,75.6,249.78z"/>
	</g>
	<g>
		<path class="st2" d="M46.45,289.18c-5.3,0-8.22-2.92-8.22-8.22c0.03-1.99-3.11-2-3.08,0c-0.3,10.93-9.12,6.08-9.76,9.76
			c0.6,3.66,9.48-1.15,9.76,9.76c-0.03,1.99,3.11,2,3.08,0c0-5.3,2.92-8.22,8.22-8.22C48.44,292.28,48.45,289.15,46.45,289.18z"/>
	</g>
	<g>
		<path class="st2" d="M288.26,44.43c-10.76,0-16.68-5.93-16.68-16.68c0.06-4.04-6.3-4.06-6.24,0
			c-0.66,22.31-19.01,12.43-19.81,19.8c0.83,7.36,19.2-2.44,19.8,19.81c-0.06,4.04,6.3,4.06,6.24,0c0-10.76,5.93-16.68,16.68-16.68
			C292.3,50.73,292.32,44.37,288.26,44.43z"/>
	</g>
</g>
</svg>
