<?xml version="1.0" encoding="utf-8"?>
<!-- Generator: Adobe Illustrator 19.0.0, SVG Export Plug-In . SVG Version: 6.00 Build 0)  -->
<svg version="1.1" xmlns="http://www.w3.org/2000/svg" xmlns:xlink="http://www.w3.org/1999/xlink" x="0px" y="0px"
	 viewBox="0 0 750 500" style="enable-background:new 0 0 750 500;" xml:space="preserve">
<style type="text/css">
	.st0{fill:#FFFFFF;}
	.st1{fill:url(#SVGID_1_);}
	.st2{fill:#C1BED7;}
	.st3{fill:#0CC3BE;}
	.st4{fill:#0797A7;}
	.st5{fill:#414C5B;}
	.st6{fill:#343C4B;}
	.st7{fill:#F88859;}
	.st8{fill:#515D6C;}
	.st9{fill:#456997;}
	.st10{fill:#FFA07F;}
	.st11{fill:#FF7D6F;}
	.st12{fill:#FFBF90;}
	.st13{fill:#FD7658;}
	.st14{fill:#FC5B68;}
	.st15{fill:#CF4A57;}
	.st16{fill:#254F79;}
	.st17{fill:#FDA859;}
	.st18{fill:url(#SVGID_2_);}
	.st19{fill:#FCC700;}
	.st20{fill:#DE624C;}
	.st21{fill:#FF7658;}
	.st22{fill:url(#SVGID_3_);}
	.st23{fill:#DFDEEE;}
	.st24{fill:url(#SVGID_4_);}
	.st25{fill:url(#SVGID_5_);}
	.st26{fill:url(#SVGID_6_);}
	.st27{fill:url(#SVGID_7_);}
	.st28{fill:url(#SVGID_8_);}
	.st29{fill:url(#SVGID_9_);}
</style>
<g id="BACKGROUND">
	<rect class="st0" width="750" height="500"/>
</g>
<g id="OBJECTS">
	<g>
		<linearGradient id="SVGID_1_" gradientUnits="userSpaceOnUse" x1="374.7737" y1="164.8632" x2="374.7737" y2="463.2359">
			<stop  offset="0" style="stop-color:#DFDEEE"/>
			<stop  offset="1" style="stop-color:#C1BED7"/>
		</linearGradient>
		<path class="st1" d="M617.8,401.3c-2.3,2.3-4.7,4.4-7.3,6.2c-2.3,1.6-4.6,3.1-7.1,4.4c-1.6,0.9-3.2,1.6-4.9,2.4
			c-2.3,1-4.7,1.9-7.1,2.7c-11,3.5-23,4.6-34.6,4c-22-1.2-43.3-7.8-64.8-12.4c-43.9-9.3-89.5-9.8-133.6-1.7
			c-12.5,2.3-24.9,5.3-37.3,8.4c57.9,1.7,99.2,6.1,99.2,11.2c0,6.6-68.5,12-152.9,12c-84.5,0-152.9-5.4-152.9-12
			c0-3.5,19.2-6.7,49.7-8.9c-6.2-3.3-12-7.2-17.4-11.8c-27.8-23.9-37.5-70.7-12.9-98c17.2-19.1,46.6-25.6,59.4-47.9
			c12.9-22.6,3.1-50.9,5.2-76.8c3.3-41.6,40.1-71.3,78.4-80.7c44.5-10.9,76.9-30.9,115.9-54.7c33.6-20.5,76.4-35.8,111.6-18.1
			c30.2,15.2,44.9,50.3,50.8,83.6c5.9,33.3,5.6,68.1,17.3,99.8c1.7,4.5,3.6,9,5.7,13.3c4.3,9,9.4,17.7,14.7,26.3
			c3,4.9,6.1,9.8,9.2,14.6c0.8,1.3,1.6,2.6,2.4,3.9c1,1.6,2,3.2,3,4.8c5.6,9,11,18.2,15.5,27.8c0.3,0.7,0.6,1.4,1,2.1
			c0.6,1.3,1.2,2.7,1.8,4c1.6,4,3.1,8.1,4.4,12.2C638.5,350,637.6,381.2,617.8,401.3z M511.3,432.6c-50.9,0-92.2,4.3-92.2,9.7
			c0,5.4,41.3,9.7,92.2,9.7c50.9,0,92.2-4.3,92.2-9.7C603.5,436.9,562.2,432.6,511.3,432.6z"/>
		<g>
			<path class="st0" d="M334.7,125.9c-15.7-15.7-41.2-15.7-56.9,0c-0.9,0.9-0.9,2.4,0,3.2c0.9,0.9,2.4,0.9,3.2,0
				c13.9-13.9,36.5-13.9,50.4,0c0.9,0.9,2.4,0.9,3.2,0S335.6,126.8,334.7,125.9z"/>
			<path class="st0" d="M285.1,133.1c-0.9,0.9-0.9,2.4,0,3.2c0.9,0.9,2.4,0.9,3.2,0c9.9-9.9,26-9.9,35.9,0c0.9,0.9,2.4,0.9,3.2,0
				s0.9-2.4,0-3.2C315.8,121.4,296.8,121.4,285.1,133.1z"/>
			<path class="st0" d="M292.3,140.4c-0.9,0.9-0.9,2.4,0,3.2c0.9,0.9,2.4,0.9,3.2,0c5.9-5.9,15.5-5.9,21.4,0c0.9,0.9,2.4,0.9,3.2,0
				c0.9-0.9,0.9-2.4,0-3.2C312.6,132.7,300,132.7,292.3,140.4z"/>
			<circle class="st0" cx="307.2" cy="150" r="6.4"/>
		</g>
		<g>
			<path class="st2" d="M459.2,206.7c-10,0-18.1,8.1-18.1,18.1s8.1,18.1,18.1,18.1c10,0,18.1-8.1,18.1-18.1S469.2,206.7,459.2,206.7
				z M459.2,237.6c-7.1,0-12.8-5.7-12.8-12.8s5.7-12.8,12.8-12.8c7.1,0,12.8,5.7,12.8,12.8S466.3,237.6,459.2,237.6z"/>
			<path class="st2" d="M497,230.9v-12.2h-5.8c-0.3-1.6-0.7-3.2-1.2-4.7l5-2.9l-6.1-10.5l-5,2.9c-1.1-1.2-2.2-2.4-3.4-3.4l2.9-5
				l-10.5-6.1l-2.9,5c-1.5-0.5-3.1-0.9-4.7-1.2V187h-12.2v5.8c-1.6,0.3-3.2,0.7-4.7,1.2l-2.9-5l-10.5,6.1l2.9,5
				c-1.2,1.1-2.4,2.2-3.4,3.4l-5-2.9l-6.1,10.5l5,2.9c-0.5,1.5-0.9,3.1-1.2,4.7h-5.8v12.2h5.8c0.3,1.6,0.7,3.2,1.2,4.7l-5,2.9
				l6.1,10.5l5-2.9c1.1,1.2,2.2,2.4,3.4,3.4l-2.9,5l10.5,6.1l2.9-5c1.5,0.5,3.1,0.9,4.7,1.2v5.8h12.2v-5.8c1.6-0.3,3.2-0.7,4.7-1.2
				l2.9,5l10.5-6.1l-2.9-5c1.2-1.1,2.4-2.2,3.4-3.4l5,2.9l6.1-10.5l-5-2.9c0.5-1.5,0.9-3.1,1.2-4.7H497z M459.2,248.9
				c-13.3,0-24.1-10.8-24.1-24.1c0-13.3,10.8-24.1,24.1-24.1c13.3,0,24.1,10.8,24.1,24.1C483.3,238.1,472.5,248.9,459.2,248.9z"/>
		</g>
		<g>
			<path class="st3" d="M626.3,383.7c-1,1-2,2-3,3.1c-4.9,5-9.9,10.2-11.8,16.9c-0.4,1.2-0.7,2.5-1,3.9c-2.3,1.6-4.6,3.1-7.1,4.4
				c-1.6,0.9-3.2,1.6-4.9,2.4c-2.3,1-4.7,1.9-7.1,2.7c-2.5-6.7-3.6-15.8-4.7-19c-3.2-8.7-11.1-15.3-12.6-24.5
				c-1.7-11,6.6-22.2,3.3-32.9c-2.9-9.3-13.9-14.9-14.6-24.7c-0.7-8.7,7.1-15.3,10.4-23.3c6-14.7-3.9-31.3-2.9-47.3
				c0.4-6.9,3.3-13.5,7.7-18.7c5.3-6.3,12.9-10.5,21-10.6c14.8-0.3,28.8,14.1,27.6,29.4c-0.9,10.9-8.3,21.2-5.6,31.8
				c2.5,10,13.4,16.5,14.4,26.7c0.7,6.5-2.9,12.3-5.4,18.4c-0.9,2.2-1.6,4.4-2,6.7C624.8,348.4,642.7,366.1,626.3,383.7z"/>
			<path class="st4" d="M626.1,309.6c-0.1,0.1-0.3,0.3-0.4,0.5c-7.2,7.9-13.1,16.6-17.9,26.2c0.2,14.3-0.1,28.7-1.1,43
				c3.8-5.7,7.9-11.2,12.3-16.4c1.9-2.2,5.4,0.6,3.5,2.9c-6.2,7.2-11.8,15-16.6,23.2c-0.7,7.7-1.5,15.4-2.5,23.1
				c-1.6,0.9-3.2,1.6-4.9,2.4c2.7-20.5,4-41.6,4.3-46.7c-0.4-0.2-0.7-0.5-0.9-1c-3.9-7.7-9.4-14.2-16.4-19.3
				c-2.3-1.7,0.5-5.3,2.9-3.5c5.9,4.4,10.8,9.7,14.7,15.8c0.2-7.3-0.2-35.5-0.5-41.1c-7.3-8.1-15.5-15.3-24.4-21.7
				c-2.4-1.7,0.5-5.2,2.8-3.5c7.6,5.4,14.7,11.5,21.2,18.2c-1.1-17-3-33.9-5.9-50.7c-4.7-3.2-9.4-6.5-14.2-9.7
				c-2.4-1.6,0.5-5.2,2.9-3.5l7.6,5.2l2.6,1.8c-0.7-3.6-1.3-7.1-2-10.7c-0.6-2.9,3.9-3.6,4.5-0.7c0.7,3.6,2.8,15.9,4.2,24.3
				c0.5,3.3,1,6,1.1,7.3c0.4-1.2,0.8-2.3,1.3-3.5c2.5-6.4,5.5-12.6,9.2-18.5c1.5-2.5,5,0.4,3.5,2.9c-4,6.5-7.2,13.3-9.7,20.4
				c-0.8,2.4-1.6,4.8-2.2,7.3c-0.1,0.6-0.4,1-0.8,1.3c1.7,14.1,2.7,28.2,3.2,42.4c4.2-7.3,9.2-14.1,15-20.4c0.4-0.4,0.9-0.7,1.3-0.7
				C625.8,305.7,627.7,307.9,626.1,309.6z"/>
		</g>
		<path class="st3" d="M301.6,99.1c-4.3,5.1-11,8.5-17.6,9.1c-1,0.6-2.2,1.3-3.5,2.1c6.4,1.1,12.4,4.2,17.3,8.3
			c-6.7-0.1-13.7-3-18.4-7.7c-2.2,1.3-4.6,2.8-7.4,4.4c-1.3,0.8-2.6,1.6-4,2.4c-0.7,0.4-1.3,0.8-2,1.3c9.2,2.3,17.4,7.8,23.6,14.9
			c-9.5-1.2-18.7-6.8-24.1-14.6c-0.6,0.4-1.2,0.8-1.8,1.1c-3,1.8-6,3.9-9.2,6.1c-1.4,1-2.9,2-4.4,3c11.2,1.8,21.5,7.5,29.8,15.3
			c-11.6-0.1-23.5-5.6-31.1-14.3c-3.5,2.4-7,5-10.6,7.7c0,0.1,0,0.1-0.1,0.2c0,0,0-0.1,0-0.1c-1.2,0.9-2.5,1.9-3.7,2.8
			c-0.1,0.1-0.2,0.2-0.4,0.3c12.8,1.5,25.3,8.6,32.8,18.8c-13-2-24.9-8.5-34.3-17.6c-6.1,4.8-11.7,9.5-16.7,13.9
			c-0.4,0.4-0.8,0.7-1.2,1.1c15.8-0.9,32.4,5.3,43.4,16.4c-16-0.1-31.5-6.1-44.4-15.5c-1.9,1.7-3.7,3.3-5.3,4.9
			c-1.1,1.1-2.3,2.1-3.3,3.1c-1,1-2,2-2.9,2.9c0,0-0.1,0.1-0.1,0.1c15,1,30,8.7,39.2,20.4c-15.1-1.8-29.1-9-40.3-19.2
			c-6.7,6.7-10.4,10.9-10.9,10.9c-0.3,0,1.8-3.1,6.5-8.5c-7.8-9.8-11.8-22.1-12.4-34.5c8.8,8.6,13.8,21.4,13.2,33.6
			c0.8-0.8,1.6-1.7,2.4-2.7c0,0-0.1,0-0.1-0.1c0,0,0.1,0,0.1,0c0-0.1,0.1-0.1,0.1-0.2c0.9-0.9,1.8-1.9,2.8-3c1-1,2.1-2.1,3.2-3.2
			c0.4-0.4,0.8-0.8,1.2-1.2c-7.8-13.7-10.5-29.8-9-45.4c9.3,12.2,13.3,28.8,10.7,43.8c1.4-1.4,2.9-2.7,4.5-4.2
			c2-1.8,4.2-3.7,6.4-5.7c-5.3-15-5-31.5-0.5-46.8c6.9,13.8,7.7,31,2.2,45.3c3.3-2.8,6.9-5.7,10.7-8.7c1.7-1.3,3.4-2.6,5.1-3.9
			c-4.8-12.1-5.2-25.5-2.3-38.2c6.2,10.8,7.8,24.6,4.4,36.6c4-2.9,8-5.7,11.9-8.3c-1.9-11.4,1.1-23.9,8.1-32.8
			c1.3,10.8-1,21.6-5.8,31.3c3.1-2,6.1-3.9,9-5.7c1.5-0.9,3-1.8,4.4-2.7c0.6-0.3,1.2-0.7,1.8-1c-2.4-7.1-1.1-15.1,3.7-21
			c1.9,6.8,0.9,13.8-2.2,20.2c0.3-0.2,0.6-0.3,0.9-0.5c2.8-1.6,5.3-2.9,7.5-4.1c0,0,0,0,0,0c0,0,0,0,0.1,0c0.3-0.2,0.7-0.4,1-0.5
			c0.2-6.7,3.2-13.6,8-18.1c-0.4,6.2-2.8,12.1-6.3,17.2c0.7-0.4,1.4-0.7,2.1-1C288.5,102.9,295,100.2,301.6,99.1z"/>
		<path class="st3" d="M434.1,301.9c1.6,6.5,6,12.6,11.6,16.1c0.6,1,1.4,2.1,2.2,3.4c-6.2-2-12.9-1.9-19.2-0.4
			c6,3,13.6,3.5,19.9,1.5c1.3,2.1,2.9,4.6,4.6,7.3c0.8,1.3,1.6,2.6,2.4,4c0.4,0.7,0.8,1.3,1.2,2c-9.3-2.1-19-0.9-27.8,2.5
			c9,3.2,19.8,2.4,28.1-2.1c0.4,0.6,0.7,1.2,1.1,1.8c1.8,3,3.6,6.2,5.5,9.6c0.8,1.5,1.7,3.1,2.5,4.7c-10.8-3.5-22.6-3.1-33.5,0.1
			c10.4,5.2,23.5,5.7,34.2,1.4c2,3.7,4,7.7,6,11.7c0,0.1,0,0.1,0,0.2c0,0,0.1,0,0.1-0.1c0.7,1.4,1.4,2.8,2,4.2
			c0.1,0.1,0.1,0.3,0.2,0.4c-12.1-4.5-26.4-3.9-37.8,1.8c12.5,4.2,26,3.7,38.6-0.1c3.3,7.1,6.1,13.8,8.6,19.9c0.2,0.5,0.4,1,0.6,1.5
			c-13.7-8-31.3-10-46.1-5.1c14.3,7.2,30.8,8.9,46.6,6.4c0.9,2.4,1.8,4.6,2.5,6.7c0.5,1.5,1.1,2.9,1.5,4.3c0.5,1.4,0.9,2.7,1.3,3.9
			c0,0,0,0.1,0,0.1c-13.8-5.9-30.7-5.9-44.1,0.3c14.3,5.3,30,5.2,44.6,1.2c2.9,9,4.3,14.4,4.8,14.7c0.3,0.2-0.2-3.6-1.9-10.5
			c11.4-5.1,20.5-14.3,26.8-25.1c-11.7,3.7-22,12.8-27.1,23.9c-0.3-1.1-0.6-2.3-0.9-3.5c0,0,0.1,0,0.1,0c0,0-0.1,0-0.1-0.1
			c0-0.1,0-0.1-0.1-0.2c-0.4-1.3-0.7-2.6-1.1-3.9c-0.4-1.4-0.9-2.8-1.4-4.3c-0.2-0.5-0.4-1.1-0.5-1.6c13.2-8.6,22.9-21.7,28.7-36.3
			c-13.8,6.6-24.9,19.6-29.5,34.1c-0.7-1.9-1.4-3.8-2.1-5.8c-1-2.6-2-5.2-3.1-8c11.6-11,18.8-25.8,21.8-41.4
			c-12.4,9.2-20.9,24.2-22.6,39.4c-1.7-4-3.5-8.2-5.6-12.6c-0.9-2-1.9-3.9-2.8-5.8c9.7-8.6,16.2-20.4,19.4-33
			c-10.5,6.8-18.1,18.4-20.6,30.6c-2.3-4.5-4.6-8.7-6.8-12.8c6.9-9.3,9.8-21.8,7.7-32.9c-6.1,9-8.9,19.7-9.1,30.5
			c-1.9-3.2-3.6-6.3-5.4-9.1c-0.9-1.5-1.8-3-2.7-4.4c-0.4-0.6-0.8-1.2-1.1-1.7c5.4-5.2,7.8-12.9,6.3-20.4c-4.8,5.2-7,11.9-7.2,19
			c-0.2-0.3-0.4-0.6-0.6-0.9c-1.8-2.7-3.4-5-4.8-7.1c0,0,0,0,0,0c0,0,0,0-0.1,0c-0.2-0.3-0.4-0.6-0.7-0.9c2.8-6.1,3.3-13.6,1.1-19.8
			c-2.4,5.7-3,12.1-2.2,18.2c-0.5-0.7-0.9-1.3-1.4-1.9C444.1,311.3,439.6,305.9,434.1,301.9z"/>
		<g>
			<path class="st3" d="M180,415.1c2.8,2,6.3,2.8,9.6,3.3c16.9,2.7,34.4,1.9,51-2.5c0.9-0.2,1.8-0.5,2.7-0.7l0.2-0.9l0-0.1l1-3.9
				l7.5-29.4c4.2-17,3.5-35.2-2-51.8c-2.4-7.3-5.9-14.6-12.3-18.9c-6.3-4.3-16-4.4-20.8,1.4c-2.9,3.5-3.6,8.4-3.9,13
				c-0.9,14.6,1,29.4,5.6,43.3c-5.3-11-14.5-20.1-25.6-25.3c-7.5-3.5-17.6-4.5-22.8,1.9c-2.8,3.4-3.3,8.2-2.3,12.4
				c1,4.3,3.4,8.1,6,11.5c8.3,11.1,19.6,19.9,32.4,25.3c-8.3,0.2-16.5,2.4-23.8,6.1c-2.7,1.4-5.5,3.2-6.4,6.1
				C175.3,409.5,177.2,413.1,180,415.1z"/>
			<path class="st4" d="M181.1,363.7c4-0.2,8-0.3,12-0.5c6.2,6.2,12.3,12.4,18.5,18.7l-9.7,1c-2,0.2-1.8,3.3,0.2,3.1
				c4.1-0.4,8.2-0.9,12.4-1.3c8.3,8.4,16.6,16.8,24.9,25.2c-2.8-0.3-5.6-0.5-8.4-0.7c0,0-0.1-0.1-0.1-0.2c-3.1-3.1-6.2-6.2-9.2-9.3
				c-1.4-1.4-3.4,0.9-2,2.3c2.2,2.2,4.4,4.5,6.7,6.7c-6.8-0.6-13.7-1.2-20.5-1.8c-1.5-2-3-4-4.5-6c-1.2-1.6-3.8,0.1-2.6,1.7
				c1,1.3,2,2.6,3,4c-1.3-0.1-2.5-0.2-3.8-0.3c-1.9-0.2-2.6,2.8-0.7,3l16.5,1.5c-1.4,1.2-2.9,2.5-4.3,3.7c-0.8,0-1.5,0.6-1.5,1.6
				c0,0.2,0,0.4,0,0.5c0,1.1,1.5,2,2.4,1.2c2.6-2.2,5.1-4.4,7.7-6.6l22.4,2l0.4,3c0.9-0.2,1.8-0.5,2.7-0.7l0.2-0.9
				c0-0.1,0-0.1,0-0.2l0.1,0.1l1-3.9c-0.1,0-0.2,0-0.3-0.1c-0.1,0-0.2,0-0.3,0c-0.3-0.4-0.7-0.7-1.1-1.1l-2.8-23.4
				c0.2-0.1,0.4-0.3,0.6-0.5c2-3,3.9-5.9,5.9-8.9c1.1-1.7-1.7-3-2.7-1.4c-1.4,2.1-2.8,4.3-4.2,6.4c-1-8.5-2-16.9-3.1-25.4
				c0,0,0,0,0-0.1c3.2-4.1,6.3-8.2,9.5-12.4c1.2-1.6-1.1-3.6-2.3-2l-7.7,10.1c-0.9-7.2-1.8-14.5-2.6-21.8c-0.2-2-3.3-1.8-3.1,0.2
				l0.6,5.1c-2.8-1.3-5.6-2.6-8.4-3.9c-1.8-0.8-3.2,1.9-1.4,2.8c3.4,1.6,6.9,3.1,10.3,4.7l3.1,25.9c-3-2.1-6-4.1-9-6.2
				c-1.6-1.1-3.7,1.2-2,2.3l11,7.5c0.2,0.1,0.4,0.2,0.5,0.2c1.5,12.4,3,24.8,4.5,37.2c-3.7-3.8-7.5-7.5-11.2-11.3
				c0-0.1,0.1-0.3,0.1-0.4c-0.2-5.1-0.4-10.3-0.7-15.4c-0.1-2-3.2-1.8-3.1,0.2l0.5,12.5c-6.7-6.8-13.5-13.6-20.2-20.4
				c0-0.1,0.1-0.2,0-0.4c-0.5-3.7-1-7.4-1.6-11.2c-0.3-1.9-3.4-1.8-3.1,0.2c0.4,2.6,0.7,5.2,1.1,7.8c-3.4-3.4-6.8-6.9-10.2-10.3
				c-1.4-1.4-3.4,0.9-2,2.3c0.3,0.4,0.7,0.7,1,1.1c-3.1,0.1-6.1,0.3-9.2,0.4C178.9,360.7,179.1,363.8,181.1,363.7z"/>
		</g>
		<g>
			<path class="st3" d="M353.5,415.1c-2.8,2-6.3,2.8-9.6,3.3c-16.9,2.7-34.4,1.9-51-2.5c-0.9-0.2-1.8-0.5-2.7-0.7l-0.2-0.9l0-0.1
				l-1-3.9l-7.5-29.4c-4.2-17-3.5-35.2,2-51.8c2.4-7.3,5.9-14.6,12.3-18.9c6.3-4.3,16-4.4,20.8,1.4c2.9,3.5,3.6,8.4,3.9,13
				c0.9,14.6-1,29.4-5.6,43.3c5.3-11,14.5-20.1,25.6-25.3c7.5-3.5,17.6-4.5,22.8,1.9c2.8,3.4,3.3,8.2,2.3,12.4
				c-1,4.3-3.4,8.1-6,11.5c-8.3,11.1-19.6,19.9-32.4,25.3c8.3,0.2,16.5,2.4,23.8,6.1c2.7,1.4,5.5,3.2,6.4,6.1
				C358.2,409.5,356.3,413.1,353.5,415.1z"/>
			<path class="st4" d="M352.5,363.7c-4-0.2-8-0.3-12-0.5c-6.2,6.2-12.3,12.4-18.5,18.7l9.7,1c2,0.2,1.8,3.3-0.2,3.1
				c-4.1-0.4-8.2-0.9-12.4-1.3c-8.3,8.4-16.6,16.8-24.9,25.2c2.8-0.3,5.6-0.5,8.4-0.7c0,0,0.1-0.1,0.1-0.2c3.1-3.1,6.2-6.2,9.2-9.3
				c1.4-1.4,3.4,0.9,2,2.3c-2.2,2.2-4.4,4.5-6.7,6.7c6.8-0.6,13.7-1.2,20.5-1.8c1.5-2,3-4,4.5-6c1.2-1.6,3.8,0.1,2.6,1.7
				c-1,1.3-2,2.6-3,4c1.3-0.1,2.5-0.2,3.8-0.3c1.9-0.2,2.6,2.8,0.7,3l-16.5,1.5c1.4,1.2,2.9,2.5,4.3,3.7c0.8,0,1.5,0.6,1.5,1.6
				c0,0.2,0,0.4,0,0.5c0,1.1-1.5,2-2.4,1.2c-2.6-2.2-5.1-4.4-7.7-6.6l-22.4,2l-0.4,3c-0.9-0.2-1.8-0.5-2.7-0.7l-0.2-0.9
				c0-0.1,0-0.1,0-0.2l-0.1,0.1l-1-3.9c0.1,0,0.2,0,0.3-0.1c0.1,0,0.2,0,0.3,0c0.3-0.4,0.7-0.7,1.1-1.1l2.8-23.4
				c-0.2-0.1-0.4-0.3-0.6-0.5c-2-3-3.9-5.9-5.9-8.9c-1.1-1.7,1.7-3,2.7-1.4c1.4,2.1,2.8,4.3,4.2,6.4c1-8.5,2-16.9,3.1-25.4
				c0,0,0,0,0-0.1c-3.2-4.1-6.3-8.2-9.5-12.4c-1.2-1.6,1.1-3.6,2.3-2l7.7,10.1c0.9-7.2,1.8-14.5,2.6-21.8c0.2-2,3.3-1.8,3.1,0.2
				l-0.6,5.1c2.8-1.3,5.6-2.6,8.4-3.9c1.8-0.8,3.2,1.9,1.4,2.8c-3.4,1.6-6.9,3.1-10.3,4.7l-3.1,25.9c3-2.1,6-4.1,9-6.2
				c1.6-1.1,3.7,1.2,2,2.3l-11,7.5c-0.2,0.1-0.4,0.2-0.5,0.2c-1.5,12.4-3,24.8-4.5,37.2c3.7-3.8,7.5-7.5,11.2-11.3
				c0-0.1-0.1-0.3-0.1-0.4c0.2-5.1,0.4-10.3,0.7-15.4c0.1-2,3.2-1.8,3.1,0.2l-0.5,12.5c6.7-6.8,13.5-13.6,20.2-20.4
				c0-0.1-0.1-0.2,0-0.4c0.5-3.7,1-7.4,1.6-11.2c0.3-1.9,3.4-1.8,3.1,0.2c-0.4,2.6-0.7,5.2-1.1,7.8c3.4-3.4,6.8-6.9,10.2-10.3
				c1.4-1.4,3.4,0.9,2,2.3c-0.3,0.4-0.7,0.7-1,1.1c3.1,0.1,6.1,0.3,9.2,0.4C354.6,360.7,354.4,363.8,352.5,363.7z"/>
		</g>
		<g>
			<g>
				<path class="st5" d="M410.7,373.2H123.5c-5,0-9-4-9-9V179.6c0-5,4-9,9-9h287.3c5,0,9,4,9,9v184.6
					C419.7,369.1,415.7,373.2,410.7,373.2z"/>
				<path class="st2" d="M127.1,359.3V184.4c0-1.2,1-2.3,2.3-2.3h275.5c1.2,0,2.2,1,2.2,2.2v174.9c0,1.2-1,2.3-2.3,2.3H129.4
					C128.1,361.5,127.1,360.5,127.1,359.3z"/>
			</g>
			<g>
				<rect x="242.8" y="373.2" class="st5" width="48.5" height="40.3"/>
				<rect x="213.1" y="413.5" class="st6" width="107.9" height="7.6"/>
				<rect x="242.8" y="373.2" class="st6" width="48.5" height="16.6"/>
			</g>
		</g>
		<g>
			<path class="st0" d="M373.4,230.7c-1.4,0-2.7,0-4.1-0.1c-0.3,0-0.5-0.3-0.5-0.6c0-0.3,0.3-0.6,0.6-0.5c1.8,0.1,3.7,0.2,5.6,0.1
				c0.3,0,0.6,0.2,0.6,0.6c0,0.3-0.2,0.6-0.6,0.6C374.4,230.7,373.9,230.7,373.4,230.7z M380.6,230.2c-0.3,0-0.5-0.2-0.6-0.5
				c0-0.3,0.2-0.6,0.5-0.6c1.8-0.2,3.7-0.5,5.5-0.9c0.3-0.1,0.6,0.1,0.7,0.4c0.1,0.3-0.1,0.6-0.4,0.7
				C384.5,229.7,382.6,230,380.6,230.2C380.7,230.2,380.6,230.2,380.6,230.2z M363.7,229.9C363.7,229.9,363.6,229.9,363.7,229.9
				c-2-0.3-3.9-0.8-5.7-1.3c-0.3-0.1-0.5-0.4-0.4-0.7c0.1-0.3,0.4-0.5,0.7-0.4c1.8,0.5,3.6,0.9,5.5,1.2c0.3,0.1,0.5,0.3,0.5,0.7
				C364.2,229.7,364,229.9,363.7,229.9z M391.7,227.9c-0.2,0-0.5-0.2-0.5-0.4c-0.1-0.3,0.1-0.6,0.4-0.7c1.8-0.5,3.6-1.2,5.3-1.8
				c0.3-0.1,0.6,0,0.7,0.3c0.1,0.3,0,0.6-0.3,0.7c-1.8,0.7-3.6,1.3-5.4,1.9C391.8,227.9,391.8,227.9,391.7,227.9z M352.8,226.8
				c-0.1,0-0.1,0-0.2,0c-1.8-0.7-3.5-1.6-5.2-2.5c-0.3-0.2-0.4-0.5-0.2-0.8c0.2-0.3,0.5-0.4,0.8-0.2c1.6,0.9,3.3,1.7,5,2.4
				c0.3,0.1,0.4,0.5,0.3,0.7C353.3,226.6,353.1,226.8,352.8,226.8z M402.2,223.7c-0.2,0-0.4-0.1-0.5-0.3c-0.1-0.3,0-0.6,0.3-0.8
				c0.3-0.2,0.6-0.3,0.9-0.5c1.3-0.7,2.7-1.5,4-2.2c0.3-0.2,0.6-0.1,0.8,0.2c0.2,0.3,0.1,0.6-0.2,0.8c-1.3,0.8-2.7,1.6-4.1,2.3
				c-0.3,0.2-0.6,0.3-0.9,0.5C402.4,223.7,402.3,223.7,402.2,223.7z M411.9,217.9c-0.2,0-0.4-0.1-0.5-0.2c-0.2-0.3-0.1-0.6,0.1-0.8
				c1.5-1.1,3-2.2,4.5-3.4c0.2-0.2,0.6-0.2,0.8,0.1c0.2,0.2,0.2,0.6-0.1,0.8c-1.5,1.2-3,2.4-4.5,3.5
				C412.1,217.9,412,217.9,411.9,217.9z M420.6,210.7c-0.2,0-0.3-0.1-0.4-0.2c-0.2-0.2-0.2-0.6,0-0.8c1.3-1.3,2.7-2.6,4-4
				c0.2-0.2,0.6-0.2,0.8,0c0.2,0.2,0.2,0.6,0,0.8c-1.3,1.4-2.7,2.7-4,4C420.9,210.7,420.8,210.7,420.6,210.7z M502,210.1l-0.4,0
				c-0.3,0-0.6-0.3-0.5-0.6c0-0.3,0.3-0.6,0.6-0.5l0.4,0L502,210.1z M496,209.4c0,0-0.1,0-0.1,0c-1.9-0.4-3.7-1-5.5-1.7
				c-0.3-0.1-0.4-0.5-0.3-0.7c0.1-0.3,0.5-0.4,0.7-0.3c1.7,0.7,3.5,1.3,5.3,1.7c0.3,0.1,0.5,0.4,0.4,0.7
				C496.5,209.2,496.3,209.4,496,209.4z M485.6,205.1c-0.1,0-0.2,0-0.3-0.1c-1.6-1-3.2-2.2-4.6-3.4c-0.2-0.2-0.3-0.6,0-0.8
				c0.2-0.2,0.6-0.3,0.8,0c1.4,1.2,2.9,2.3,4.5,3.3c0.3,0.2,0.3,0.5,0.2,0.8C485.9,205,485.8,205.1,485.6,205.1z M428.4,202.5
				c-0.1,0-0.3,0-0.4-0.1c-0.2-0.2-0.3-0.6-0.1-0.8c1.2-1.4,2.4-2.9,3.5-4.4c0.2-0.3,0.5-0.3,0.8-0.1c0.2,0.2,0.3,0.5,0.1,0.8
				c-1.1,1.5-2.3,3-3.5,4.5C428.7,202.4,428.6,202.5,428.4,202.5z M477.1,197.6c-0.2,0-0.3-0.1-0.4-0.2c-1.2-1.5-2.3-3.1-3.2-4.8
				c-0.1-0.3,0-0.6,0.2-0.8c0.3-0.1,0.6,0,0.8,0.2c0.9,1.6,1.9,3.2,3.1,4.6c0.2,0.2,0.2,0.6-0.1,0.8
				C477.4,197.6,477.2,197.6,477.1,197.6z M435.2,193.4c-0.1,0-0.2,0-0.3-0.1c-0.3-0.2-0.3-0.5-0.2-0.8c1-1.5,2.1-3.1,3-4.7
				c0.2-0.3,0.5-0.4,0.8-0.2c0.3,0.2,0.4,0.5,0.2,0.8c-1,1.6-2,3.2-3.1,4.8C435.6,193.3,435.4,193.4,435.2,193.4z M471.7,187.7
				c-0.2,0-0.5-0.1-0.5-0.4c-0.6-1.7-1.1-3.5-1.6-5.3l0-0.2c-0.1-0.3,0.1-0.6,0.4-0.7c0.3-0.1,0.6,0.1,0.7,0.4l0,0.2
				c0.5,1.7,1,3.5,1.6,5.2c0.1,0.3-0.1,0.6-0.3,0.7C471.9,187.7,471.8,187.7,471.7,187.7z M441.1,183.7c-0.1,0-0.2,0-0.3-0.1
				c-0.3-0.1-0.4-0.5-0.2-0.8c0.3-0.6,0.7-1.3,1-1.9c0.5-1,1.1-2.1,1.6-3.1c0.1-0.3,0.5-0.4,0.8-0.3c0.3,0.1,0.4,0.5,0.3,0.8
				c-0.5,1.1-1,2.1-1.6,3.2c-0.3,0.6-0.7,1.3-1,1.9C441.5,183.6,441.3,183.7,441.1,183.7z M468.4,176.9c-0.2,0-0.5-0.1-0.5-0.4
				c-0.7-2-1.4-3.6-2.3-5.1c-0.2-0.3-0.1-0.6,0.2-0.8c0.3-0.2,0.6-0.1,0.8,0.2c0.9,1.5,1.6,3.2,2.4,5.2c0.1,0.3,0,0.6-0.3,0.7
				C468.5,176.9,468.4,176.9,468.4,176.9z M445.9,173.5c-0.1,0-0.1,0-0.2,0c-0.3-0.1-0.4-0.4-0.3-0.7c0.7-1.8,1.3-3.6,1.7-5.3
				c0.1-0.3,0.4-0.5,0.7-0.4c0.3,0.1,0.5,0.4,0.4,0.7c-0.5,1.7-1.1,3.6-1.8,5.4C446.4,173.4,446.2,173.5,445.9,173.5z M462.6,167.3
				c-0.1,0-0.3-0.1-0.4-0.2c-1.3-1.2-2.8-2.3-4.4-3.3c-0.3-0.2-0.4-0.5-0.2-0.8c0.2-0.3,0.5-0.4,0.8-0.2c1.7,1,3.3,2.1,4.7,3.4
				c0.2,0.2,0.2,0.6,0,0.8C462.9,167.3,462.7,167.3,462.6,167.3z M448.8,162.6C448.7,162.6,448.7,162.6,448.8,162.6
				c-0.4,0-0.6-0.3-0.6-0.6c0.1-0.5,0.1-0.9,0.1-1.4c-0.3-0.1-0.7-0.1-1.1-0.2c-0.3-0.1-0.5-0.3-0.5-0.7c0-0.3,0.3-0.5,0.7-0.5
				c0.3,0.1,0.6,0.1,0.9,0.2c0-0.3,0-0.6,0-0.8c0-0.7,0-1.5-0.1-2.2c0-0.3,0.2-0.6,0.5-0.6c0.3,0,0.6,0.2,0.6,0.5
				c0.1,0.8,0.1,1.5,0.1,2.3c0,0.3,0,0.7,0,1.1c1.2,0.3,2.4,0.6,3.5,1c0.3,0.1,0.5,0.4,0.4,0.7c-0.1,0.3-0.4,0.5-0.7,0.4
				c-1-0.3-2.1-0.6-3.2-0.9c0,0.4-0.1,0.8-0.1,1.3C449.3,162.4,449,162.6,448.8,162.6z M424.7,160.2c-0.3,0-0.6-0.2-0.6-0.6
				c0-0.3,0.2-0.6,0.6-0.6c1.9,0,3.8-0.1,5.6-0.2c0.3,0,0.6,0.2,0.6,0.5c0,0.3-0.2,0.6-0.5,0.6C428.5,160.1,426.6,160.1,424.7,160.2
				C424.7,160.2,424.7,160.2,424.7,160.2z M419.1,160C419.1,160,419,160,419.1,160c-2-0.1-3.9-0.4-5.7-0.7c-0.3-0.1-0.5-0.4-0.5-0.7
				c0.1-0.3,0.3-0.5,0.7-0.5c1.8,0.3,3.6,0.6,5.6,0.7c0.3,0,0.5,0.3,0.5,0.6C419.6,159.8,419.4,160,419.1,160z M441.7,159.8
				C441.7,159.8,441.7,159.8,441.7,159.8c-1.8-0.1-3.7-0.1-5.7,0c-0.3,0-0.6-0.2-0.6-0.6c0-0.3,0.2-0.6,0.6-0.6c2,0,3.9,0,5.7,0
				c0.3,0,0.6,0.3,0.5,0.6C442.3,159.6,442,159.8,441.7,159.8z M408,157.9c-0.1,0-0.1,0-0.2,0c-1.9-0.7-3.6-1.5-5.2-2.5
				c-0.3-0.2-0.3-0.5-0.2-0.8c0.2-0.3,0.5-0.4,0.8-0.2c1.5,0.9,3.2,1.7,5,2.4c0.3,0.1,0.4,0.4,0.3,0.7
				C408.4,157.8,408.2,157.9,408,157.9z M398.5,151.9c-0.1,0-0.3-0.1-0.4-0.2c-0.1-0.1-0.2-0.3-0.4-0.4c-1.2-1.3-2.1-2.8-2.9-4.5
				c-0.1-0.3,0-0.6,0.3-0.7c0.3-0.1,0.6,0,0.7,0.3c0.7,1.6,1.6,3,2.7,4.2c0.1,0.1,0.2,0.2,0.3,0.4c0.2,0.2,0.2,0.6,0,0.8
				C398.8,151.9,398.6,151.9,398.5,151.9z M447.8,151.4c-0.2,0-0.5-0.2-0.5-0.4c-0.5-1.7-1.2-3.5-2.1-5.1c-0.1-0.3,0-0.6,0.2-0.8
				c0.3-0.1,0.6,0,0.8,0.2c0.9,1.7,1.7,3.5,2.2,5.3c0.1,0.3-0.1,0.6-0.4,0.7C447.9,151.4,447.9,151.4,447.8,151.4z M393.9,141.8
				c-0.3,0-0.5-0.2-0.6-0.5c-0.1-0.6-0.1-1.1-0.1-1.7c0-1.4,0.2-2.8,0.6-4.2c0.1-0.3,0.4-0.5,0.7-0.4c0.3,0.1,0.5,0.4,0.4,0.7
				c-0.3,1.2-0.5,2.5-0.5,3.9c0,0.5,0,1,0.1,1.6C394.5,141.5,394.3,141.8,393.9,141.8C394,141.8,394,141.8,393.9,141.8z
				 M442.6,141.4c-0.2,0-0.3-0.1-0.4-0.2c-1.1-1.4-2.4-2.8-3.8-4.1c-0.2-0.2-0.2-0.6,0-0.8c0.2-0.2,0.6-0.2,0.8,0
				c1.4,1.3,2.7,2.7,3.9,4.2c0.2,0.2,0.1,0.6-0.1,0.8C442.8,141.4,442.7,141.4,442.6,141.4z M434.2,133.8c-0.1,0-0.2,0-0.3-0.1
				c-1.5-1-3.2-1.9-4.9-2.7c-0.3-0.1-0.4-0.5-0.3-0.8c0.1-0.3,0.5-0.4,0.8-0.3c1.8,0.8,3.5,1.7,5,2.8c0.3,0.2,0.3,0.5,0.2,0.8
				C434.6,133.7,434.4,133.8,434.2,133.8z M397.1,131.3c-0.1,0-0.3,0-0.4-0.1c-0.2-0.2-0.2-0.6,0-0.8c0.3-0.4,0.7-0.7,1.1-1.1
				c1.1-0.9,2.3-1.6,3.7-2.2c0.3-0.1,0.6,0,0.7,0.3c0.1,0.3,0,0.6-0.3,0.7c-1.3,0.5-2.5,1.2-3.4,2c-0.4,0.3-0.7,0.6-1,1
				C397.4,131.2,397.2,131.3,397.1,131.3z M424,129.1c-0.1,0-0.1,0-0.2,0c-1.7-0.5-3.6-1-5.4-1.4c-0.3-0.1-0.5-0.4-0.5-0.7
				c0.1-0.3,0.4-0.5,0.7-0.5c1.9,0.4,3.8,0.8,5.6,1.4c0.3,0.1,0.5,0.4,0.4,0.7C424.5,128.9,424.2,129.1,424,129.1z M412.9,127
				C412.9,127,412.9,127,412.9,127l-0.3,0c-1.9-0.2-3.7-0.2-5.3,0c-0.3,0-0.6-0.2-0.6-0.5c0-0.3,0.2-0.6,0.5-0.6
				c1.6-0.1,3.5-0.1,5.5,0l0.2,0c0.3,0,0.5,0.3,0.5,0.6C413.4,126.7,413.2,127,412.9,127z"/>
		</g>
		<g>
			<g>
				<g>
					<path class="st7" d="M466.3,441c0.1-0.7,0.5-1.6,1.4-2c2.8-1.2,13-5,15.8-7.2c2.2-1.7,4.1-5.3,4.8-6.9l19,1
						c1.1,4.9,1.8,14.2,1.9,16.2L466.3,441z"/>
					<polygon class="st0" points="466.2,445.2 509.2,446.3 509.4,442.1 466.3,441 					"/>
					<g>
						<path class="st0" d="M487.2,433.1c0,0,0.1,0.1,0.1,0.1c0.2,0.4,0.3,1-0.2,1.2c-0.3,0.1-0.6,0.1-0.8,0
							c-0.9-0.2-1.8-0.6-2.6-1.1c-0.9-0.5-1.8-1.1-2.4-2c-0.6-0.9,0.3-1.7,1.3-1.5C484.3,430.3,486.3,431.5,487.2,433.1z"/>
						<path class="st0" d="M483.9,435.3c0,0,0.1,0.1,0.1,0.1c0.2,0.4,0.3,1-0.2,1.2c-0.3,0.1-0.6,0.1-0.8,0
							c-0.9-0.2-1.8-0.6-2.6-1.1c-0.9-0.5-1.8-1.1-2.4-2c-0.6-0.9,0.3-1.7,1.3-1.5C481,432.5,483,433.7,483.9,435.3z"/>
						<path class="st0" d="M479.8,436.7c0,0,0.1,0.1,0.1,0.1c0.2,0.4,0.3,1-0.2,1.2c-0.3,0.1-0.6,0.1-0.8,0
							c-0.9-0.2-1.8-0.6-2.6-1.1c-0.9-0.5-1.8-1.1-2.4-2c-0.6-0.9,0.3-1.7,1.3-1.5C477,433.9,478.9,435.1,479.8,436.7z"/>
					</g>
				</g>
				<g>
					<path class="st7" d="M531,421.8l17.8-2c2,5.1,4.7,14.6,6.2,19.7c0.6,2.1,0.9,3.4,0.9,3.4s-9.3,6.6-11.9,6.8
						c-2.5,0.2-15.9-3.2-15.9-4.9c0-0.6,0.3-2.7,0.7-5.2C529.3,436.1,530.4,426.6,531,421.8z"/>
					<path class="st0" d="M555.9,442.9c0,0-9.3,6.6-11.9,6.8c-2.5,0.2-15.9-3.2-15.9-4.9c0-0.6,0.3-2.7,0.7-5.2
						c4.3,1.7,13.7,5.1,16.7,4c2.1-0.8,6.1-2.5,9.4-4.1C555.5,441.6,555.9,442.9,555.9,442.9z"/>
				</g>
				<path class="st0" d="M544,430c0.1,0,0.1,0,0.2,0.1c0.4,0.2,0.8,0.6,0.5,1c-0.1,0.2-0.4,0.4-0.7,0.5c-0.9,0.4-1.8,0.6-2.8,0.7
					c-1,0.1-2.1,0.2-3.1-0.1c-1-0.4-0.8-1.5,0.1-2C540,429.5,542.3,429.3,544,430z"/>
				<path class="st0" d="M544,433.7c0.1,0,0.1,0,0.2,0.1c0.4,0.2,0.8,0.6,0.5,1c-0.1,0.2-0.4,0.4-0.7,0.5c-0.9,0.4-1.8,0.6-2.8,0.7
					c-1,0.1-2.1,0.2-3.1-0.1c-1-0.4-0.8-1.5,0.1-2C540,433.2,542.3,433,544,433.7z"/>
				<path class="st0" d="M544.3,437.1c0.1,0,0.1,0,0.2,0.1c0.4,0.2,0.8,0.6,0.5,1c-0.1,0.2-0.4,0.4-0.7,0.5
					c-0.9,0.4-1.8,0.6-2.8,0.7c-1,0.1-2.1,0.2-3.1-0.1c-1-0.4-0.8-1.5,0.1-2C540.3,436.5,542.7,436.3,544.3,437.1z"/>
				<g>
					<path class="st5" d="M481.3,355.6c-0.2-3.3,2-37.8,3.5-61.6c0.4-5.6,0.7-10.6,1-14.4h59.6l-0.1,11.6l1.5,60.1
						c0,0,5.8,47.6,8.5,69.4c-9.9,1.9-20,2.9-30.2,3.1l-2.9-69.9l-10.1-57l-0.6-3.6l-0.2,3.6l-2.6,54.4l4.3,76.5
						c-10.7-0.3-21.4-1.3-32-2.7C481.6,404.9,481.5,358.6,481.3,355.6z"/>
					<path class="st6" d="M505,351.2l5.5-65.6l1.1,7.6l-0.2,3.6l-2.6,54.4l4.3,76.5c-1.1,0-2.1-0.1-3.2-0.1L505,351.2z"/>
					<path class="st6" d="M542.1,279.5h3.3l-0.1,11.6l1.5,60.1c0,0,5.8,47.6,8.5,69.4c-0.8,0.2-1.5,0.3-2.3,0.4l-10.2-69.8
						L542.1,279.5z"/>
				</g>
				<path class="st8" d="M530.1,350.2c-2.2,0.8-3.7,3.4-4.1,5.9c-0.4,2.5,0.3,5.2,1.8,7.2c0.9,1.1,2.1,2,3.5,2.1
					c1.2,0.1,2.4-0.5,3.3-1.3c0.9-0.9,1.5-2,2-3.2c0.8-2,1.1-4.2,0.6-6.2c-0.6-2.5-3-4.6-5.4-4.7C531.2,349.9,530.6,350,530.1,350.2
					z"/>
				<path class="st8" d="M488,349.1c-2.2,0.8-3.7,3.4-4.1,5.9c-0.4,2.5,0.3,5.2,1.8,7.2c0.9,1.1,2.1,2,3.5,2.1
					c1.2,0.1,2.4-0.5,3.3-1.3c0.9-0.9,1.5-2,2-3.2c0.8-2,1.1-4.2,0.6-6.2c-0.6-2.5-3-4.6-5.4-4.7C489.1,348.8,488.5,348.9,488,349.1
					z"/>
			</g>
			<path class="st9" d="M546.1,296.7v-0.5c0-1.5,0.8-26.5,1.7-50.5c0.7-20.2,1.4-39.8,1.5-44.3c-2.9-2-5.2-3.4-5.4-3.5c0,0,0,0,0,0
				l-8-3.7l-5-2.3l-22.5-0.4l-0.2,0.1l-0.3,0.1l-0.6,0.2l-0.8,0.3l-1,0.4c-0.7,0.3-1.5,0.6-2.3,0.9l-1.3,0.5
				c-0.2,0.1-0.4,0.2-0.6,0.2c-3.2,1.2-6.4,2.5-7.3,3.1c0,0-9.7,86.2-9.9,99.4H546.1z"/>
			<g>
				<g>
					<g>
						<g>
							<g>
								<g>
									<g>
										<path class="st10" d="M526.2,189.6c-0.3,0.3-14.5,10.8-14.5,10.8s0.3-6.4,0.5-9.8c0-1,0.1-1.8,0.1-1.9
											c0-1.3-1.1-7.2-1.1-7.2l14.3-6.5c0,0,0.2,2.9,0.4,6.2C526.2,185.1,526.4,189.4,526.2,189.6z"/>
										<path class="st10" d="M501.3,194.2C501.3,194.2,501.3,194.2,501.3,194.2c0,0.5,0,11.4,9.9,14.3
											c10.1,3,24.8-14.4,24.8-14.4l-4.8-2.2l-0.2-0.1l-4.8-2.2l-14,1l-3.8,0.9l-0.2,0.1l-0.3,0.1l-0.6,0.2l-0.8,0.3l-1,0.4
											l-1.9,0.7l-0.4,0.1l-1.3,0.5L501.3,194.2z"/>
										<path class="st0" d="M501.3,194.2C501.3,194.2,501.3,194.2,501.3,194.2c0,0.5,0,11.4,9.9,14.3c10.1,3,24.8-14.4,24.8-14.4
											l-4.8-2.2c-3.1,3.9-12.3,15-18.4,13.8c-5.3-1.1-8.1-8.3-9.2-12.4l-0.4,0.1l-1.3,0.5L501.3,194.2z"/>
										<path class="st11" d="M525.9,181.1c-4,2.9-12.7,9.2-13.6,9.4c0,0-0.1,0-0.1,0c0-1,0.1-1.8,0.1-1.9c0-1.3-1.1-7.2-1.1-7.2
											l14.3-6.5C525.5,175,525.7,177.9,525.9,181.1z"/>
									</g>
								</g>
								<g>
									<g>
										<path class="st10" d="M527.4,175.4c0,0-0.4,1-2,2.4h0c-0.3,0.3-0.7,0.6-1.1,0.9c-1.7,1.2-17.4,7.9-19.8,7.6
											c-2.4-0.3-4.7-8.6-4.8-9.5c-0.8-5.4-2.9-21.9-2.9-21.9c6-18,27.2-8.7,29.6-6.9S527.4,175.4,527.4,175.4z"/>
										<path class="st12" d="M525.5,177.9c-0.3,0.3-0.7,0.6-1.1,0.9c-1.7,1.2-17.4,7.9-19.8,7.6c-2.4-0.3-4.7-8.6-4.8-9.5
											c1.5,3.6,3.2,8.7,4.9,8.5C507.2,185.2,523.6,178.9,525.5,177.9z"/>
										<path class="st13" d="M490.3,155.8c13,5.1,34.1-6.9,34.1-6.9l-1.4,5.7l2.7,2.1v10.6c1.5-3.2,5.5-4.9,5.5-4.9
											s0.7-1.5,1.4-4.9v0c0.4-1.8,0.7-4.1,1-7c0.1-1.4,0-2.6-0.3-3.6c-0.6-1.9-1.8-2.9-3-3.5c-0.5-0.2-1-0.4-1.5-0.5
											c-1.3-0.3-2.4-0.2-2.4-0.2c-6-7.6-16.7-6.1-23.5-4.2c-3.6,1-6,2.2-6,2.2l2.9,1.3c-3.5,0.9-6.3,4.1-7.8,6.4
											c-1.1,1.6-1.6,2.8-1.6,2.8l3.7,0.8C492.1,153,490.3,155.8,490.3,155.8z"/>
										<g>
											<path class="st7" d="M530.2,143.3c-0.2,2.3-0.4,4.6-0.6,6.9c1.2-1.1,2.4-2.2,3.6-3.4C532.7,145,531.5,143.9,530.2,143.3z
												"/>
											<path class="st7" d="M513.8,143.4c-0.9,1.4-1.8,2.8-2.6,4.2c6.1-0.7,12-2.4,17.5-4.9c-1.3-0.3-2.4-0.2-2.4-0.2
												c-6-7.6-16.7-6.1-23.5-4.2c1.8,0.6,3.6,1.2,5.3,1.8c-2.5,1.4-5,2.8-7.5,4.2C505.1,144,509.4,143.7,513.8,143.4z"/>
										</g>
									</g>
									<g>
										<path class="st13" d="M499.3,160.3c0,0,3.2-3.6,4.7-1.9c1.5,1.7,0.7,1.8,0.7,1.8L499.3,160.3z"/>
										<path class="st13" d="M522.4,156.4c0,0-7.3-3.5-8.5-0.6c-0.7,1.7,0.5,2.1,0.5,2.1L522.4,156.4z"/>
										<g>
											<ellipse class="st6" cx="502.1" cy="165" rx="1.4" ry="2.3"/>
											<path class="st0" d="M499.4,163.9c0,0,0.5,0.7,1.3,1c0.8,0.3,1.6,0.2,1.6,0.2s-0.5-0.7-1.3-1S499.4,163.9,499.4,163.9z"
												/>
											<ellipse class="st6" cx="516.6" cy="163.1" rx="1.8" ry="2.9"/>
											<path class="st0" d="M519.9,161.7c0,0-0.6,0.8-1.7,1.3c-1,0.4-2.1,0.2-2.1,0.2s0.6-0.8,1.7-1.3
												C518.8,161.5,519.9,161.7,519.9,161.7z"/>
										</g>
										
											<ellipse transform="matrix(0.9365 0.3506 -0.3506 0.9365 91.6189 -164.2109)" class="st11" cx="499.3" cy="170.9" rx="2.9" ry="1.3"/>
										
											<ellipse transform="matrix(0.968 -0.2508 0.2508 0.968 -26.0963 135.0696)" class="st11" cx="516.9" cy="169.9" rx="4.3" ry="1.9"/>
										<path class="st0" d="M516.5,173.6l-10.9,1.3c0,0,0.9,6.1,6.5,5.3C517.6,179.3,516.5,173.6,516.5,173.6z"/>
										<g>
											<path class="st11" d="M505.7,169.4c0,0,3,0.8,4.9-0.1l-1.5,2.5C509.1,171.8,506.2,171.3,505.7,169.4z"/>
											<path class="st14" d="M507.5,162.5c0,0,0.2,4.7-1.4,7.1c0,0,1.3,1.8,2.9,2.2c0,0-2.5,0.3-4.5-2.1
												C504.6,169.7,506.1,168.4,507.5,162.5z"/>
										</g>
									</g>
								</g>
							</g>
						</g>
						<g>
							<path class="st12" d="M525.1,176.1c3.2-0.3,5.6-2.2,6.8-3.8c0.3-0.4,0.5-0.7,0.7-1c0.9-1.7,1.2-7.5-1.2-8.8
								c-1.7-0.9-2.9,0.4-3.5,1.3c0,0,0,0,0,0c-0.2,0.4-0.4,0.7-0.4,0.7L525.1,176.1z"/>
							<path class="st10" d="M525.1,176.1c3.2-0.3,5.6-2.2,6.8-3.8c0.1-0.2,0.2-0.3,0.3-0.5c0.9-1.7,1.2-7.5-1.2-8.8
								c-1.3-0.8-2.4,0-3.1,0.8c0,0,0,0,0,0c-0.2,0.4-0.4,0.7-0.4,0.7L525.1,176.1z"/>
							<path class="st11" d="M532.2,167.1c0.1,0.5,0,0.9-0.1,1.4c-0.6,1.9-2.6,3.4-4.5,4.8c0.6-0.9,0.8-2,0.7-3
								c0-0.4-0.1-0.7-0.1-1.1C528.1,167.7,531.5,164.3,532.2,167.1z"/>
							<g>
								<path class="st15" d="M526.7,173.9c0,0,0,0,0.1-0.1c0.1,0,0.2-0.1,0.3-0.2c0.2-0.2,0.6-0.4,0.9-0.8c0.3-0.4,0.6-0.9,0.8-1.5
									c0.1-0.6,0.1-1.3-0.2-2c0-0.1-0.1-0.2-0.1-0.3l0-0.1c0,0,0,0,0,0l0,0l0,0l0,0c0,0,0,0,0,0l0-0.1l0.1-0.1
									c0-0.1,0.1-0.1,0.1-0.2c0.2-0.3,0.4-0.6,0.6-0.8c0.2-0.2,0.4-0.5,0.6-0.7c0.2-0.2,0.4-0.4,0.6-0.5c0.2-0.1,0.4-0.2,0.6-0.3
									c0.2,0,0.4,0,0.5,0.1c0.1,0.1,0.2,0.1,0.2,0.2c0,0.1,0,0.1,0,0.1c0,0,0,0,0-0.1c0-0.1-0.1-0.2-0.2-0.3
									c-0.1-0.1-0.3-0.2-0.6-0.2c-0.3,0-0.5,0.1-0.8,0.2c-0.3,0.1-0.5,0.3-0.7,0.5c-0.2,0.2-0.5,0.4-0.7,0.7
									c-0.2,0.2-0.5,0.5-0.7,0.8c-0.1,0.1-0.1,0.2-0.1,0.2l-0.1,0.1l-0.1,0.2l-0.1,0.1c0,0,0,0.1,0.1,0.1l0.1,0.2
									c0,0.1,0.1,0.1,0.1,0.2c0.3,0.6,0.4,1.2,0.3,1.8c-0.1,0.6-0.3,1.1-0.5,1.5c-0.2,0.4-0.5,0.7-0.7,0.9
									C526.9,173.7,526.8,173.7,526.7,173.9C526.7,173.8,526.7,173.9,526.7,173.9z"/>
							</g>
						</g>
					</g>
				</g>
			</g>
			<g>
				<path class="st10" d="M470.2,264.3c0.3,4.9,4.4,12.3,6.9,12.6c1.1,0.1,10.7-2.9,20.6-6.3c0,0,0,0,0,0c7-2.4,14.2-4.8,18.5-6.3
					c2.5-0.9,4.1-1.4,4.1-1.4l-7.7-9.3l-19.3,3.1l-5.8,0.9l2.2-14.1l-9.7-5.8l-2.9-1.7C477.1,235.9,469.9,259.3,470.2,264.3z"/>
				<path class="st11" d="M493.3,256.6c1.8,1.6,5,4.3,5.5,4.3c0.8,0.1,13.4,0,13.4,0l4,3.3c2.5-0.9,4.1-1.4,4.1-1.4l-7.7-9.3
					L493.3,256.6z"/>
				<path class="st12" d="M470.2,264.3c0.3,4.9,4.4,12.3,6.9,12.6c1.1,0.1,10.7-2.9,20.6-6.3c-7.6,1.6-17.7,3.5-19.2,2.8
					c-2.4-1.1-5.8-8.4-5.8-8.4l7.2-27.4l-2.9-1.7C477.1,235.9,469.9,259.3,470.2,264.3z"/>
			</g>
			<g>
				<g>
					<path class="st9" d="M494,197.3c0,0-6.2,4.6-10.1,9c-3.9,4.4-9,28.3-9,28.3l14.8,8.8L494,197.3z"/>
					<polygon class="st0" points="489.6,243.4 490.1,238.2 475.8,230.3 474.2,236.8 					"/>
				</g>
				<path class="st16" d="M496,204.2c0.2-0.7,1.2-0.4,1,0.3c-3,12.1-5.3,24.3-7.1,36.6c-0.1,0.7-1.2,0.5-1.2-0.2
					C490.2,228.5,492.8,216.3,496,204.2z"/>
			</g>
			<g>
				<path class="st9" d="M536.7,245.8l11.1,1.4l14.5,1.9c0,0,1.5-32.1-0.7-37c-1.2-2.8-7.5-7.4-12.2-10.7c-3-2-5.4-3.5-5.5-3.6
					c0,0,0,0,0,0l-4.2,30.7L536.7,245.8z"/>
				<path class="st16" d="M543.2,210.7c0-0.1,0.2-0.1,0.2,0.1c-1.9,10.9-3.4,21.8-3.2,32.9c0,0.9-1.4,0.9-1.4,0
					C538.6,232.5,539.6,221.3,543.2,210.7z"/>
				<polygon class="st0" points="562.3,247.6 562.1,253.5 538.7,249.8 538.7,243.6 				"/>
			</g>
			<g>
				<path class="st17" d="M513.1,211.9l-3,4.8l-18.1-1.8c-2.5-0.3-4.6,1.7-4.7,4.1l-0.1,22.1c-0.1,2.2,1.6,4.1,3.8,4.4l40.8,4.2
					c2.2,0.2,4.3-1.3,4.6-3.5l5.2-29c0.4-2.4-1.3-4.7-3.8-5l-20.7-2.1C515.5,209.8,513.9,210.6,513.1,211.9z"/>
				
					<rect x="501.4" y="206.2" transform="matrix(-0.1014 0.9948 -0.9948 -0.1014 777.6474 -258.1656)" class="st0" width="8" height="31.8"/>
				<g>
					<linearGradient id="SVGID_2_" gradientUnits="userSpaceOnUse" x1="483.2762" y1="202.931" x2="482.0493" y2="235.7747">
						<stop  offset="0" style="stop-color:#E1E0F0;stop-opacity:0"/>
						<stop  offset="1" style="stop-color:#C3C0D9"/>
					</linearGradient>
					<path class="st18" d="M487.4,230.2L462,217c-2-1-2.8-3.5-1.7-5.5l13.1-25.4c1-2,3.5-2.8,5.5-1.7l25.4,13.1c2,1,2.8,3.5,1.7,5.5
						l-13.1,25.4C491.8,230.4,489.4,231.2,487.4,230.2z"/>
					<path class="st3" d="M492.4,228.8L467,215.7c-2-1-2.8-3.5-1.7-5.5l13.1-25.4c1-2,3.5-2.8,5.5-1.7l25.4,13.1
						c2,1,2.8,3.5,1.7,5.5l-13.1,25.4C496.8,229.1,494.3,229.9,492.4,228.8z"/>
					<g>
						<path class="st0" d="M486.7,214.3l-12-6.2c-1.1-0.6-1.5-1.9-1-3l5.3-10.2c0.6-1.1,1.9-1.5,3-1l12,6.2c1.1,0.6,1.5,1.9,1,3
							l-5.3,10.2C489.2,214.4,487.8,214.8,486.7,214.3z"/>
						<path class="st0" d="M502.2,203.5l-11.8,3.7l3.7,11.8c0.3,0.9,1.5,1,1.9,0.2l7.3-14.2C503.9,204.1,503.1,203.2,502.2,203.5z"
							/>
					</g>
				</g>
				<path class="st19" d="M512.4,216.6l-3.3,5.2l-19.7-2c-2.7-0.3-5.1,1.8-5.1,4.5l-0.2,24.5c-0.1,2.4,1.8,4.5,4.2,4.7l44.4,4.5
					c2.4,0.2,4.6-1.4,5.1-3.9l5.7-32c0.4-2.6-1.4-5.1-4.1-5.4l-22.6-2.3C515.1,214.3,513.4,215.1,512.4,216.6z"/>
			</g>
			<path class="st20" d="M490.3,155.8c13,5.1,34.1-6.9,34.1-6.9l-1.4,5.7l2.7,2.1v10.6c1.5-3.2,5.5-4.9,5.5-4.9s0.7-1.5,1.4-4.9
				c-1.3,0.5-2.6,1.1-4,1.4c0.1-0.5,1.5-5.8,1.8-5.8c-1.3,0-2.6,0.1-4,0.1c0.4-2.4,0.8-4.8,1.2-7.2c-8,2.1-16,4.2-24.1,6.2
				c1.3-1.6,2.6-3.1,3.9-4.7c-5.1,0.6-10.3,0.9-15.5,0.7c-1.1,1.6-1.6,2.8-1.6,2.8l3.7,0.8C492.1,153,490.3,155.8,490.3,155.8z"/>
			<g>
				<path class="st10" d="M513.2,259.1c0,0,0.1,0.1,0.4,0.3l0.1,0.1v0c3.2,2.1,36.5,26.1,41.7,20c1.4-1.6,2-15.6,2.3-26.6h0l-10-1.6
					l-2.5-0.4l1,10.6l-3.3-1.4l-23.5-9.8l-0.4-0.2c0,0-0.1,0-0.1-0.1c-0.1,0-0.1-0.1-0.2-0.1l-0.7-0.3c0,0,0,0,0,0c0,0,0,0,0,0
					s0,0,0,0l-0.7,1.3l-0.3,0.5l-0.1,0.2l0,0l-2.5,5.1l-0.8,1.8L513.2,259.1L513.2,259.1z"/>
				<path class="st10" d="M491.7,242.1c0.4,0.4,2.7,1.3,2.7,1.3s-0.5,2.4-0.8,4.1c-0.3,1.7,0.8,3.9,0.8,3.9s-0.4,2.1,0,3.4
					c0.4,1.2,2.8,2.7,3.1,2.8c0,0,0,0,0,0c0,0,6.2,0.6,8.1,0.6c1.9,0,7.6,0.9,7.6,0.9l3.6-7.3l0,0l1-2.1c0,0-7-7.8-8-8.5
					c-1-0.7-16.6-3.3-18.1-2.9C490.3,238.7,491.3,241.7,491.7,242.1z"/>
				<path class="st12" d="M516.8,251.8l30,13.6l1-14.2l-2.5-0.4l-2.1-0.3l-0.2,9.5l-23.5-9.8l-0.4-0.2c0,0-0.1,0-0.1-0.1
					c-0.1,0-0.1-0.1-0.2-0.1l-0.7-0.3c0,0,0,0,0,0c0,0,0,0,0,0s0,0,0,0l-0.7,1.5l-0.2,0.4L516.8,251.8L516.8,251.8z"/>
				<path class="st12" d="M491.7,242.1c0.4,0.4,2.7,1.3,2.7,1.3s-0.5,2.4-0.8,4.1c-0.3,1.7,0.8,3.9,0.8,3.9s-0.4,2.1,0,3.4
					c0.4,1.2,2.8,2.7,3.1,2.8c-2.7-1.9-1.8-6.1-1.8-6.1s-1-1.3-1.2-2.3s0.7-5.5,0.7-5.5l-2.2-2.1c0,0-0.8-1.3-0.3-2
					c0.5-0.7,16,3.1,16.3,3.1c0.3,0,7.9,9.1,7.9,9.1l0,0l1-2.1c0,0-7-7.8-8-8.5c-1-0.7-16.6-3.3-18.1-2.9
					C490.3,238.7,491.3,241.7,491.7,242.1z"/>
			</g>
		</g>
		<g>
			<rect x="127.1" y="182.2" class="st9" width="280" height="22.7"/>
			<g>
				<circle class="st3" cx="359.6" cy="193.5" r="4.1"/>
				<circle class="st19" cx="376.3" cy="193.5" r="4.1"/>
				<circle class="st21" cx="392.9" cy="193.5" r="4.1"/>
			</g>
		</g>
		<g>
			<linearGradient id="SVGID_3_" gradientUnits="userSpaceOnUse" x1="178.2755" y1="185.8854" x2="178.2755" y2="296.4931">
				<stop  offset="0" style="stop-color:#E1E0F0;stop-opacity:0"/>
				<stop  offset="1" style="stop-color:#C3C0D9"/>
			</linearGradient>
			<path class="st22" d="M220.3,198.7v79.4c0,2-1.6,3.6-3.6,3.6h-76.8c-2,0-3.6-1.6-3.6-3.6v-79.4c0-2,1.6-3.6,3.6-3.6h76.8
				C218.7,195.1,220.3,196.7,220.3,198.7z"/>
			<g>
				<path class="st0" d="M223.3,195.1v79.4c0,2-1.6,3.6-3.6,3.6h-76.8c-2,0-3.6-1.6-3.6-3.6v-79.4c0-2,1.6-3.6,3.6-3.6h76.8
					C221.7,191.6,223.3,193.2,223.3,195.1z"/>
				<g>
					<rect x="145.4" y="197.5" class="st23" width="57.7" height="7.5"/>
					<path class="st23" d="M217.2,203.9l-1.7-1.7c0.8-1.1,0.6-2.7-0.4-3.7c-1.1-1.1-3-1.1-4.2,0c-1.1,1.1-1.1,3,0,4.2
						c1,1,2.6,1.1,3.7,0.4l1.7,1.7L217.2,203.9z M211.8,201.8c-0.7-0.7-0.7-1.8,0-2.5c0.7-0.7,1.8-0.7,2.5,0c0.7,0.7,0.7,1.8,0,2.5
						C213.6,202.5,212.5,202.5,211.8,201.8z"/>
				</g>
				<rect x="145.4" y="214.9" class="st6" width="38.3" height="3.7"/>
				<rect x="145.4" y="222.7" class="st6" width="55.6" height="3.7"/>
				<g>
					<rect x="145.4" y="257.8" class="st3" width="63.2" height="3.7"/>
					<rect x="145.4" y="265.7" class="st3" width="30.1" height="3.7"/>
				</g>
				<g>
					<g>
						<rect x="152.4" y="232.2" class="st23" width="64.8" height="3.7"/>
						<circle class="st23" cx="147.1" cy="234.1" r="1.7"/>
					</g>
					<g>
						<rect x="152.4" y="240.1" class="st23" width="64.8" height="3.7"/>
						<circle class="st23" cx="147.1" cy="242" r="1.7"/>
					</g>
					<g>
						<rect x="152.4" y="248.1" class="st23" width="64.8" height="3.7"/>
						<circle class="st23" cx="147.1" cy="249.9" r="1.7"/>
					</g>
				</g>
			</g>
		</g>
		<g>
			<linearGradient id="SVGID_4_" gradientUnits="userSpaceOnUse" x1="382.1464" y1="320.2446" x2="382.1464" y2="403.3468">
				<stop  offset="0" style="stop-color:#E1E0F0;stop-opacity:0"/>
				<stop  offset="1" style="stop-color:#C3C0D9"/>
			</linearGradient>
			<path class="st24" d="M426.2,316.9h-88.2c-1.6,0-2.9,1.3-2.9,2.9v57.8c0,1.6,1.3,2.9,2.9,2.9h88.2c1.6,0,2.9-1.3,2.9-2.9v-57.8
				C429.2,318.3,427.9,316.9,426.2,316.9z"/>
			<g>
				<path class="st0" d="M428.8,313.6h-88.2c-1.6,0-2.9,1.3-2.9,2.9v57.8c0,1.6,1.3,2.9,2.9,2.9h88.2c1.6,0,2.9-1.3,2.9-2.9v-57.8
					C431.8,314.9,430.5,313.6,428.8,313.6z"/>
				<g>
					<rect x="343.4" y="363.4" class="st23" width="82.7" height="7.7"/>
					<rect x="343.4" y="363.4" class="st21" width="16.8" height="7.7"/>
					<rect x="343.4" y="349.6" class="st23" width="82.7" height="7.7"/>
					<rect x="343.4" y="349.6" class="st3" width="72.6" height="7.7"/>
					<rect x="343.4" y="335.8" class="st23" width="82.7" height="7.7"/>
					<rect x="343.4" y="335.8" class="st21" width="33.5" height="7.7"/>
					<rect x="343.4" y="322" class="st23" width="82.7" height="7.7"/>
					<rect x="343.4" y="322" class="st3" width="57" height="7.7"/>
				</g>
			</g>
		</g>
		<g>
			<path class="st5" d="M160.7,331c-5.4-3.2-7.6-9.7-5.8-15.4l-7.4-4.4c-4.2,9.8-0.5,21.5,8.9,27.1c5.2,3.1,11.3,3.8,16.8,2.3
				l-3.6-7.9C166.5,333.2,163.4,332.7,160.7,331z"/>
			<path class="st21" d="M174.2,308.3c2.6,1.5,4.4,3.8,5.5,6.4l8.3-2.1c-1.6-4.7-4.8-8.9-9.4-11.6c-8.9-5.3-20.2-3.5-27,3.8l7.6,4.5
				C163.4,306,169.4,305.4,174.2,308.3z"/>
			<path class="st0" d="M189.2,320.2l-8.8,2.2c-0.3,1.4-0.8,2.7-1.6,4c-0.7,1.1-1.5,2.1-2.4,3l3.6,8c2.4-1.7,4.5-3.9,6.1-6.6
				C188.1,327.5,189.1,323.9,189.2,320.2z"/>
		</g>
		<g>
			<path class="st17" d="M263.3,242.8l-5.1,10l-36.3-0.2c-5,0-8.9,4.2-8.5,9.1l3.9,43.9c0.3,4.4,4,7.9,8.4,7.9l81.8,0.5
				c4.5,0,8.2-3.4,8.5-7.9l4.8-58.6c0.3-4.9-3.5-9.1-8.4-9.1l-41.6-0.3C267.7,238.1,264.7,239.9,263.3,242.8z"/>
			
				<rect x="242" y="232.7" transform="matrix(-6.211758e-003 1 -1 -6.211758e-003 515.9966 16.1138)" class="st0" width="16" height="63.5"/>
			<g>
				<linearGradient id="SVGID_5_" gradientUnits="userSpaceOnUse" x1="263.9836" y1="226.4876" x2="263.9836" y2="275.0508">
					<stop  offset="0" style="stop-color:#E1E0F0;stop-opacity:0"/>
					<stop  offset="1" style="stop-color:#C3C0D9"/>
				</linearGradient>
				<path class="st25" d="M279.3,215.2l11.4,32.5c0.9,2.7-0.5,5.7-3.2,6.6l-28.7,10.1c-2.7,0.9-5.6-0.5-6.6-3.2l-14.9-42.4
					c-0.9-2.7,0.5-5.6,3.2-6.6l18.8-6.6L279.3,215.2z"/>
				<path class="st0" d="M281.5,211.8l11.4,32.5c0.9,2.7-0.5,5.7-3.2,6.6L261,260.9c-2.7,0.9-5.6-0.5-6.6-3.2l-14.9-42.4
					c-0.9-2.7,0.5-5.6,3.2-6.6l18.8-6.6L281.5,211.8z"/>
				<polygon class="st23" points="281.5,211.8 266.7,217 261.5,202.2 				"/>
				<g>
					
						<rect x="259" y="233.7" transform="matrix(0.9435 -0.3312 0.3312 0.9435 -62.6433 103.1358)" class="st6" width="24.5" height="3.2"/>
					
						<rect x="260.9" y="239.3" transform="matrix(0.9435 -0.3312 0.3312 0.9435 -64.3688 104.0939)" class="st6" width="24.5" height="3.2"/>
					
						<rect x="262.9" y="244.8" transform="matrix(0.9435 -0.3312 0.3312 0.9435 -66.0932 105.0493)" class="st6" width="24.5" height="3.2"/>
					<circle class="st6" cx="255.8" cy="240.8" r="1.6"/>
					<circle class="st6" cx="257.7" cy="246.3" r="1.6"/>
					<circle class="st6" cx="259.6" cy="251.9" r="1.6"/>
				</g>
				
					<rect x="250.5" y="225.5" transform="matrix(0.9435 -0.3312 0.3312 0.9435 -61.7527 97.3927)" class="st3" width="8.8" height="8.8"/>
			</g>
			<path class="st19" d="M262.9,252.2l-5.5,10.9l-39.4-0.2c-5.4,0-9.7,4.5-9.3,9.9l4.3,48.6c0.3,4.8,4.3,8.6,9.2,8.6l89,0.6
				c4.9,0,9-3.7,9.3-8.6l5.2-64.6c0.4-5.3-3.8-9.9-9.2-9.9l-45.2-0.3C267.7,247.1,264.5,249.1,262.9,252.2z"/>
		</g>
		<g>
			<g>
				<linearGradient id="SVGID_6_" gradientUnits="userSpaceOnUse" x1="333.4218" y1="205.8628" x2="333.4218" y2="242.861">
					<stop  offset="0" style="stop-color:#E1E0F0;stop-opacity:0"/>
					<stop  offset="1" style="stop-color:#C3C0D9"/>
				</linearGradient>
				<path class="st26" d="M359.8,211.5L344,242.1c-1.3,2.6-4.4,3.5-7,2.2l-27.1-14c-2.5-1.3-3.5-4.4-2.2-7l20.7-40.1
					c1.3-2.5,4.4-3.5,7-2.2l17.7,9.1L359.8,211.5z"/>
				<path class="st0" d="M363.2,210.3L347.4,241c-1.3,2.6-4.4,3.5-7,2.2l-27.1-14c-2.5-1.3-3.5-4.4-2.2-7l20.7-40.1
					c1.3-2.5,4.4-3.5,7-2.2l17.7,9.1L363.2,210.3z"/>
				<polygon class="st23" points="363.2,210.3 349.2,203.1 356.4,189.1 				"/>
				
					<rect x="328.4" y="197.2" transform="matrix(0.8886 0.4587 -0.4587 0.8886 129.8685 -131.5111)" class="st21" width="14.5" height="8.8"/>
			</g>
			
				<rect x="323.4" y="211.8" transform="matrix(0.8886 0.4587 -0.4587 0.8886 135.5686 -131.5506)" class="st23" width="30.5" height="3"/>
			
				<rect x="320.7" y="216.9" transform="matrix(0.8886 0.4587 -0.4587 0.8886 137.6288 -129.7651)" class="st23" width="30.5" height="3"/>
			
				<rect x="318.1" y="222.1" transform="matrix(0.8886 0.4587 -0.4587 0.8886 139.6863 -127.9781)" class="st23" width="30.5" height="3"/>
			
				<rect x="315.4" y="227.2" transform="matrix(0.8886 0.4587 -0.4587 0.8886 141.746 -126.1922)" class="st23" width="30.5" height="3"/>
			<circle class="st6" cx="334.4" cy="191.3" r="1.4"/>
			<circle class="st6" cx="339" cy="193.7" r="1.4"/>
		</g>
		<g>
			<g>
				<path class="st0" d="M256.5,211c-0.2,0-0.4-0.1-0.5-0.3c-0.4-0.9-0.7-1.8-1-2.7c-0.1-0.3,0.1-0.6,0.4-0.7
					c0.3-0.1,0.6,0.1,0.7,0.4c0.3,0.9,0.6,1.8,0.9,2.6c0.1,0.3,0,0.6-0.3,0.7C256.6,211,256.5,211,256.5,211z"/>
			</g>
			<g>
				<path class="st0" d="M254.3,202.7c-0.3,0-0.5-0.2-0.6-0.5c-0.1-1.2-0.2-2.5-0.2-3.7c0-0.7,0-1.4,0.1-2.1c0-0.3,0.3-0.6,0.6-0.5
					c0.3,0,0.5,0.3,0.5,0.6c0,0.7-0.1,1.3-0.1,2c0,1.2,0.1,2.4,0.2,3.6C254.9,202.4,254.7,202.7,254.3,202.7
					C254.4,202.7,254.3,202.7,254.3,202.7z M255.1,191.4c0,0-0.1,0-0.1,0c-0.3-0.1-0.5-0.4-0.4-0.7c0.4-1.7,1-3.3,1.7-4.9
					c0.1-0.2,0.2-0.4,0.3-0.6c0.1-0.3,0.5-0.4,0.8-0.3c0.3,0.1,0.4,0.5,0.3,0.8c-0.1,0.2-0.2,0.4-0.2,0.5c-0.7,1.5-1.2,3.1-1.6,4.7
					C255.5,191.2,255.3,191.4,255.1,191.4z M288.5,189.2c-0.8,0-1.6-0.1-2.4-0.4c-0.3-0.1-0.5-0.4-0.4-0.7c0.1-0.3,0.4-0.5,0.7-0.4
					c0.8,0.3,1.7,0.4,2.5,0.3c0.9-0.1,1.7-0.3,2.5-0.7c0.3-0.1,0.6,0,0.8,0.2c0.1,0.3,0,0.6-0.2,0.8c-0.9,0.5-2,0.8-3,0.9
					C288.9,189.2,288.7,189.2,288.5,189.2z M281.8,185.4c-0.2,0-0.3-0.1-0.5-0.2c-1.2-1.6-1.9-3.6-2.1-5.5c0-0.3,0.2-0.6,0.5-0.6
					c0.3,0,0.6,0.2,0.6,0.5c0.2,1.7,0.8,3.5,1.9,5c0.2,0.3,0.1,0.6-0.1,0.8C282,185.4,281.9,185.4,281.8,185.4z M295.7,184.3
					c-0.1,0-0.2,0-0.2-0.1c-0.3-0.1-0.4-0.5-0.3-0.8c0.6-1.2,0.9-2.5,0.9-3.8c0-0.3,0-0.5,0-0.8c0-0.2,0-0.4-0.1-0.6
					c-0.1-0.3,0.2-0.6,0.5-0.7c0.3-0.1,0.6,0.2,0.7,0.5c0,0.2,0.1,0.4,0.1,0.7c0,0.3,0,0.6,0,0.9c0,1.5-0.4,3-1,4.3
					C296.1,184.1,295.9,184.3,295.7,184.3z M259.9,181.1c-0.1,0-0.2,0-0.3-0.1c-0.3-0.2-0.3-0.5-0.1-0.8c1.1-1.6,2.4-3,3.8-4.4
					c0.2-0.2,0.6-0.2,0.8,0c0.2,0.2,0.2,0.6,0,0.8c-1.3,1.3-2.6,2.7-3.7,4.2C260.2,181.1,260,181.1,259.9,181.1z M331.4,179.8
					c-0.2,0-0.4-0.1-0.5-0.3c-0.7-1.7-1.6-3.4-2.7-4.9c-0.2-0.3-0.1-0.6,0.2-0.8c0.3-0.2,0.6-0.1,0.8,0.2c1.1,1.6,2,3.3,2.8,5.1
					c0.1,0.3,0,0.6-0.3,0.7C331.5,179.8,331.5,179.8,331.4,179.8z M280.8,174.6c-0.1,0-0.1,0-0.2,0c-0.3-0.1-0.4-0.5-0.3-0.7
					c0.7-1.7,1.8-3.4,3.2-4.9c0.2-0.2,0.6-0.2,0.8,0c0.2,0.2,0.2,0.6,0,0.8c-1.3,1.4-2.4,3-3,4.6C281.2,174.4,281,174.6,280.8,174.6
					z M294.1,173.6c-0.2,0-0.3-0.1-0.4-0.2c-1.1-1.4-2.6-2.5-4.3-3.4c-0.3-0.1-0.4-0.5-0.3-0.8c0.1-0.3,0.5-0.4,0.8-0.3
					c1.8,0.9,3.4,2.2,4.6,3.7c0.2,0.2,0.2,0.6-0.1,0.8C294.4,173.6,294.2,173.6,294.1,173.6z M268,173.3c-0.2,0-0.4-0.1-0.5-0.3
					c-0.2-0.3-0.1-0.6,0.2-0.8c1.6-1.1,3.3-2,5.1-2.7c0.3-0.1,0.6,0,0.7,0.3c0.1,0.3,0,0.6-0.3,0.7c-1.7,0.7-3.4,1.6-4.9,2.6
					C268.3,173.3,268.1,173.3,268,173.3z M325.1,170.4c-0.1,0-0.3-0.1-0.4-0.2c-1.3-1.3-2.8-2.5-4.3-3.6c-0.3-0.2-0.3-0.5-0.1-0.8
					c0.2-0.3,0.5-0.3,0.8-0.1c1.6,1.1,3.1,2.3,4.4,3.7c0.2,0.2,0.2,0.6,0,0.8C325.3,170.3,325.2,170.4,325.1,170.4z M278.5,168.9
					c-0.3,0-0.5-0.2-0.6-0.5c-0.1-0.3,0.1-0.6,0.5-0.7c1.4-0.3,2.8-0.4,4.1-0.4c0,0,0,0,0,0c0.6,0,1.1,0,1.7,0.1
					c0.3,0,0.5,0.3,0.5,0.6c0,0.3-0.3,0.5-0.6,0.5c-0.5,0-1.1-0.1-1.6-0.1c0,0,0,0,0,0c-1.3,0-2.6,0.1-3.9,0.4
					C278.6,168.9,278.5,168.9,278.5,168.9z M288.3,166.2c-0.2,0-0.4-0.1-0.5-0.3c-0.2-0.3-0.1-0.6,0.2-0.8c0.2-0.1,0.4-0.3,0.7-0.4
					c1.4-0.8,2.9-1.6,4.5-2.2c0.3-0.1,0.6,0,0.7,0.3c0.1,0.3,0,0.6-0.3,0.7c-1.5,0.6-3,1.3-4.3,2.1c-0.2,0.1-0.4,0.3-0.6,0.4
					C288.5,166.2,288.4,166.2,288.3,166.2z M315.7,164c-0.1,0-0.1,0-0.2,0c-1.7-0.7-3.5-1.3-5.3-1.6c-0.3-0.1-0.5-0.4-0.4-0.7
					c0.1-0.3,0.4-0.5,0.7-0.4c1.9,0.4,3.8,1,5.5,1.7c0.3,0.1,0.4,0.5,0.3,0.7C316.1,163.9,315.9,164,315.7,164z M298.9,162.2
					c-0.3,0-0.5-0.2-0.6-0.5c-0.1-0.3,0.2-0.6,0.5-0.7c1.8-0.3,3.6-0.5,5.3-0.5l0.4,0c0.3,0,0.6,0.3,0.6,0.6c0,0.3-0.2,0.6-0.6,0.6
					l-0.4,0C302.4,161.7,300.7,161.9,298.9,162.2C299,162.2,298.9,162.2,298.9,162.2z"/>
			</g>
			<g>
				<path class="st0" d="M333.6,188.1c-0.3,0-0.5-0.2-0.6-0.5c-0.1-0.9-0.2-1.8-0.4-2.7c-0.1-0.3,0.1-0.6,0.4-0.7
					c0.3-0.1,0.6,0.1,0.7,0.4c0.2,0.9,0.4,1.9,0.5,2.9C334.2,187.8,334,188.1,333.6,188.1C333.6,188.1,333.6,188.1,333.6,188.1z"/>
			</g>
		</g>
		<g>
			<path class="st0" d="M374.7,291.9C374.6,291.9,374.6,291.9,374.7,291.9c-2-0.1-3.9-0.3-5.7-0.7c-0.3-0.1-0.5-0.4-0.4-0.7
				c0.1-0.3,0.4-0.5,0.7-0.4c1.8,0.4,3.6,0.6,5.5,0.7c0.3,0,0.6,0.3,0.5,0.6C375.2,291.7,375,291.9,374.7,291.9z M380.3,291.8
				c-0.3,0-0.5-0.2-0.6-0.5c0-0.3,0.2-0.6,0.5-0.6c1.8-0.2,3.7-0.4,5.5-0.8c0.3-0.1,0.6,0.1,0.7,0.4c0.1,0.3-0.1,0.6-0.4,0.7
				C384.1,291.4,382.2,291.7,380.3,291.8C380.3,291.8,380.3,291.8,380.3,291.8z M363.6,289.7c-0.1,0-0.1,0-0.2,0
				c-1.8-0.7-3.5-1.6-5.2-2.6c-0.3-0.2-0.3-0.5-0.2-0.8c0.2-0.3,0.5-0.3,0.8-0.2c1.6,1,3.2,1.8,5,2.5c0.3,0.1,0.4,0.4,0.3,0.7
				C364.1,289.5,363.8,289.7,363.6,289.7z M391.4,289.5c-0.2,0-0.5-0.2-0.5-0.4c-0.1-0.3,0.1-0.6,0.4-0.7c1.8-0.6,3.5-1.3,5.2-2.1
				c0.3-0.1,0.6,0,0.8,0.3c0.1,0.3,0,0.6-0.3,0.8c-1.7,0.8-3.5,1.5-5.3,2.1C391.5,289.5,391.4,289.5,391.4,289.5z M401.6,284.8
				c-0.2,0-0.4-0.1-0.5-0.3c-0.2-0.3-0.1-0.6,0.2-0.8c1.6-0.9,3.2-2,4.7-3.1c0.3-0.2,0.6-0.1,0.8,0.1c0.2,0.3,0.1,0.6-0.1,0.8
				c-1.6,1.1-3.2,2.2-4.8,3.1C401.8,284.8,401.7,284.8,401.6,284.8z M354,283.7c-0.1,0-0.3,0-0.4-0.1c-1.4-1.2-2.7-2.6-4-4.1
				c-0.2-0.2-0.2-0.6,0.1-0.8c0.2-0.2,0.6-0.2,0.8,0.1c1.3,1.5,2.6,2.8,3.9,4c0.2,0.2,0.3,0.6,0,0.8
				C354.4,283.7,354.2,283.7,354,283.7z M410.9,278.3c-0.2,0-0.3-0.1-0.4-0.2c-0.2-0.2-0.2-0.6,0.1-0.8c1.4-1.1,2.8-2.4,4.3-3.7
				c0.2-0.2,0.6-0.2,0.8,0c0.2,0.2,0.2,0.6,0,0.8c-1.5,1.3-2.9,2.6-4.3,3.7C411.2,278.2,411,278.3,410.9,278.3z M346.6,275.2
				c-0.2,0-0.4-0.1-0.5-0.2c-1-1.4-2-2.9-3.2-4.7c-0.2-0.3-0.1-0.6,0.2-0.8c0.3-0.2,0.6-0.1,0.8,0.2c1.2,1.8,2.2,3.3,3.1,4.7
				c0.2,0.3,0.1,0.6-0.1,0.8C346.9,275.2,346.7,275.2,346.6,275.2z M419.3,270.7c-0.1,0-0.3-0.1-0.4-0.2c-0.2-0.2-0.2-0.6,0-0.8
				c1.3-1.3,2.5-2.6,3.9-4.1c0.2-0.2,0.6-0.2,0.8,0c0.2,0.2,0.2,0.6,0,0.8c-1.4,1.5-2.7,2.8-3.9,4.1
				C419.5,270.6,419.4,270.7,419.3,270.7z M340.5,265.7c-0.2,0-0.4-0.1-0.5-0.3c-0.9-1.5-1.9-3.1-3-4.8c-0.2-0.3-0.1-0.6,0.2-0.8
				c0.3-0.2,0.6-0.1,0.8,0.2c1.1,1.7,2.1,3.3,3,4.8c0.2,0.3,0.1,0.6-0.2,0.8C340.7,265.7,340.6,265.7,340.5,265.7z M427,262.4
				c-0.1,0-0.3,0-0.4-0.1c-0.2-0.2-0.3-0.6,0-0.8c1.3-1.4,2.5-2.8,3.7-4.2c0.2-0.2,0.6-0.3,0.8-0.1c0.2,0.2,0.3,0.6,0.1,0.8
				c-1.2,1.4-2.5,2.8-3.8,4.2C427.3,262.3,427.2,262.4,427,262.4z M334.3,256.2c-0.2,0-0.4-0.1-0.5-0.2c-1.2-1.7-2.3-3.2-3.3-4.5
				c-0.2-0.2-0.2-0.6,0.1-0.8c0.2-0.2,0.6-0.2,0.8,0.1c1.1,1.4,2.2,2.9,3.4,4.6c0.2,0.3,0.1,0.6-0.1,0.8
				C334.6,256.1,334.5,256.2,334.3,256.2z M434.5,253.9c-0.1,0-0.3,0-0.4-0.1c-0.2-0.2-0.3-0.6,0-0.8c1.3-1.4,2.5-2.8,3.8-4.2
				c0.2-0.2,0.6-0.2,0.8,0c0.2,0.2,0.2,0.6,0,0.8c-1.3,1.4-2.5,2.8-3.8,4.2C434.8,253.8,434.7,253.9,434.5,253.9z M293.9,247.9
				c-0.1,0-0.3,0-0.4-0.1c-0.2-0.2-0.3-0.6-0.1-0.8c0.3-0.3,0.6-0.7,1-1c0.2-0.2,0.6-0.2,0.8,0.1c0.2,0.2,0.2,0.6-0.1,0.8
				c-0.3,0.3-0.6,0.5-0.9,0.8C294.3,247.8,294.1,247.9,293.9,247.9z M327.3,247.3c-0.1,0-0.3-0.1-0.4-0.2c-0.2-0.2-0.3-0.3-0.5-0.4
				c-0.9-0.8-2.3-1.6-4.2-2.2c-0.3-0.1-0.5-0.4-0.4-0.7c0.1-0.3,0.4-0.5,0.7-0.4c2,0.6,3.6,1.5,4.6,2.4c0.2,0.1,0.3,0.3,0.5,0.5
				c0.2,0.2,0.2,0.6,0,0.8C327.5,247.3,327.4,247.3,327.3,247.3z M442.1,245.5c-0.1,0-0.3-0.1-0.4-0.2c-0.2-0.2-0.2-0.6,0-0.8
				c1.4-1.4,2.7-2.8,4-4c0.2-0.2,0.6-0.2,0.8,0c0.2,0.2,0.2,0.6,0,0.8c-1.3,1.2-2.6,2.6-4,4C442.4,245.5,442.3,245.5,442.1,245.5z
				 M300,244.5c-0.2,0-0.5-0.2-0.5-0.4c-0.1-0.3,0.1-0.6,0.4-0.7c1.7-0.5,3.6-0.9,5.6-1.1c0.3,0,0.6,0.2,0.6,0.5
				c0,0.3-0.2,0.6-0.5,0.6c-2,0.2-3.8,0.6-5.5,1.1C300.1,244.5,300,244.5,300,244.5z M316.8,243.5
				C316.8,243.5,316.8,243.4,316.8,243.5c-1.9-0.2-3.7-0.3-5.7-0.3c-0.3,0-0.6-0.3-0.6-0.6c0-0.3,0.3-0.6,0.6-0.6h0
				c2,0,3.9,0.1,5.7,0.3c0.3,0,0.5,0.3,0.5,0.6C317.4,243.2,317.1,243.5,316.8,243.5z M450.3,237.7c-0.2,0-0.3-0.1-0.4-0.2
				c-0.2-0.2-0.2-0.6,0.1-0.8c1.5-1.3,3-2.5,4.4-3.6c0.2-0.2,0.6-0.1,0.8,0.1c0.2,0.2,0.1,0.6-0.1,0.8c-1.4,1.1-2.9,2.3-4.4,3.6
				C450.6,237.7,450.4,237.7,450.3,237.7z M459.3,230.9c-0.2,0-0.4-0.1-0.5-0.3c-0.2-0.3-0.1-0.6,0.2-0.8c1.5-1,3-1.9,4.5-2.7
				l0.4-0.2c0.3-0.1,0.6,0,0.8,0.2c0.1,0.3,0,0.6-0.2,0.8l-0.4,0.2c-1.5,0.8-3,1.7-4.4,2.6C459.5,230.8,459.4,230.9,459.3,230.9z
				 M469.3,225.6c-0.2,0-0.4-0.1-0.5-0.3c-0.1-0.3,0-0.6,0.3-0.7c1.7-0.7,3.6-1.4,5.4-1.9c0.3-0.1,0.6,0.1,0.7,0.4
				c0.1,0.3-0.1,0.6-0.4,0.7c-1.8,0.6-3.6,1.2-5.3,1.9C469.5,225.6,469.4,225.6,469.3,225.6z M508.2,222.8c0,0-0.1,0-0.1,0
				c-1.8-0.5-3.6-0.8-5.5-1.1c-0.3,0-0.5-0.3-0.5-0.6c0-0.3,0.3-0.5,0.6-0.5c1.9,0.3,3.8,0.7,5.6,1.2c0.3,0.1,0.5,0.4,0.4,0.7
				C508.7,222.6,508.4,222.8,508.2,222.8z M480.1,222.2c-0.3,0-0.5-0.2-0.6-0.4c-0.1-0.3,0.1-0.6,0.4-0.7c1.9-0.4,3.8-0.7,5.6-0.9
				c0.3,0,0.6,0.2,0.6,0.5c0,0.3-0.2,0.6-0.5,0.6c-1.9,0.2-3.7,0.5-5.5,0.9C480.2,222.2,480.2,222.2,480.1,222.2z M497,221
				C497,221,497,221,497,221c-1.9-0.1-3.8-0.2-5.6-0.1c-0.4,0-0.6-0.2-0.6-0.6c0-0.3,0.2-0.6,0.6-0.6c1.9-0.1,3.8,0,5.7,0.1
				c0.3,0,0.5,0.3,0.5,0.6C497.6,220.8,497.3,221,497,221z"/>
		</g>
		<g>
			<g>
				<linearGradient id="SVGID_7_" gradientUnits="userSpaceOnUse" x1="399.826" y1="250.3637" x2="399.826" y2="304.5887">
					<stop  offset="0" style="stop-color:#E1E0F0;stop-opacity:0"/>
					<stop  offset="1" style="stop-color:#C3C0D9"/>
				</linearGradient>
				<path class="st27" d="M430,284l-37.1,22.3c-1.6,0.9-3.6,0.4-4.5-1.1l-19.8-33c-0.9-1.6-0.4-3.6,1.1-4.5l37.1-22.3
					c1.6-0.9,3.6-0.4,4.5,1.1l19.8,33C432.1,281,431.5,283,430,284z"/>
				<path class="st6" d="M431.1,279.4L394,301.7c-1.6,0.9-3.6,0.4-4.5-1.1l-19.8-33c-0.9-1.6-0.4-3.6,1.1-4.5l37.1-22.3
					c1.6-0.9,3.6-0.4,4.5,1.1l19.8,33C433.2,276.5,432.7,278.5,431.1,279.4z"/>
				<path class="st0" d="M410.8,244.5l18.3,30.5c0.6,1.1,0.3,2.4-0.8,3.1l-34.2,20.5c-1.1,0.6-2.4,0.3-3.1-0.8l-18.3-30.5
					c-0.6-1.1-0.3-2.4,0.8-3.1l34.2-20.5C408.8,243.1,410.2,243.5,410.8,244.5z"/>
			</g>
			<g>
				<g>
					<polygon class="st4" points="423.7,275.4 426.2,279.5 397.6,296.6 400.6,270.5 407.4,272 					"/>
					<path class="st3" d="M426,269.8l3.2,5.3c0.6,1.1,0.3,2.4-0.8,3.1l-23.3,13.9l2.3-20.1l0.7-5.9L426,269.8z"/>
				</g>
				<circle class="st17" cx="388.9" cy="269.6" r="7.6"/>
			</g>
		</g>
		<g>
			<linearGradient id="SVGID_8_" gradientUnits="userSpaceOnUse" x1="410.8167" y1="188.2276" x2="410.8167" y2="227.6778">
				<stop  offset="0" style="stop-color:#E1E0F0;stop-opacity:0"/>
				<stop  offset="1" style="stop-color:#C3C0D9"/>
			</linearGradient>
			<path class="st28" d="M420.2,233.1l-32.5-11c-2.2-0.7-3.4-3.1-2.6-5.3l11-32.5c0.7-2.2,3.1-3.4,5.3-2.6l32.5,11
				c2.2,0.7,3.4,3.1,2.6,5.3l-11,32.5C424.8,232.7,422.4,233.9,420.2,233.1z"/>
			<path class="st21" d="M424.3,231.4l-32.5-11c-2.2-0.7-3.4-3.1-2.6-5.3l11-32.5c0.7-2.2,3.1-3.4,5.3-2.6l32.5,11
				c2.2,0.7,3.4,3.1,2.6,5.3l-11,32.5C428.9,230.9,426.5,232.1,424.3,231.4z"/>
			<g>
				<g>
					
						<ellipse transform="matrix(0.9921 -0.1252 0.1252 0.9921 -23.3103 52.2511)" class="st0" cx="404.1" cy="211.6" rx="5.9" ry="3.7"/>
					
						<rect x="409.1" y="195.3" transform="matrix(0.9474 0.3199 -0.3199 0.9474 86.7362 -120.7339)" class="st0" width="3.5" height="16.6"/>
				</g>
				<g>
					
						<ellipse transform="matrix(0.9921 -0.1252 0.1252 0.9921 -23.5536 54.0129)" class="st0" cx="418.1" cy="214.4" rx="5.9" ry="3.7"/>
					
						<rect x="423" y="198.1" transform="matrix(0.9474 0.3199 -0.3199 0.9474 88.3741 -125.042)" class="st0" width="3.5" height="16.6"/>
				</g>
				<polygon class="st0" points="411.8,195.2 429.9,196.8 428.1,201.9 410.2,200 				"/>
			</g>
		</g>
		<g>
			<linearGradient id="SVGID_9_" gradientUnits="userSpaceOnUse" x1="451.2984" y1="146.6483" x2="451.2984" y2="180.2145">
				<stop  offset="0" style="stop-color:#E1E0F0;stop-opacity:0"/>
				<stop  offset="1" style="stop-color:#C3C0D9"/>
			</linearGradient>
			<path class="st29" d="M475.5,163.3L446.9,179c-2,1.1-4.5,0.4-5.6-1.6l-15.8-28.6c-1.1-2-0.4-4.5,1.6-5.6l28.6-15.8
				c2-1.1,4.5-0.4,5.6,1.6l15.8,28.6C478.2,159.6,477.5,162.2,475.5,163.3z"/>
			<path class="st19" d="M476.6,158.7L448,174.5c-2,1.1-4.5,0.4-5.6-1.6l-15.8-28.6c-1.1-2-0.4-4.5,1.6-5.6l28.6-15.8
				c2-1.1,4.5-0.4,5.6,1.6l15.8,28.6C479.3,155.1,478.6,157.6,476.6,158.7z"/>
			<g>
				<g>
					<path class="st0" d="M459,160.6c-6.6,3.6-14.8,1.2-18.5-5.3s-1.2-14.8,5.3-18.5c6.6-3.6,14.8-1.2,18.5,5.3
						C468,148.7,465.6,157,459,160.6z M447,138.8c-5.5,3-7.5,9.9-4.4,15.4c3,5.5,9.9,7.5,15.4,4.4c5.5-3,7.5-9.9,4.4-15.4
						S452.4,135.8,447,138.8z"/>
				</g>
				<path class="st0" d="M445.3,145.4l6.1,11.1c0.3,0.5,1,0.5,1.2,0l5.8-10.4c0.3-0.5-0.1-1-0.6-1l-11.9-0.6
					C445.4,144.3,445,144.9,445.3,145.4z"/>
			</g>
		</g>
		<g>
			<g>
				<path class="st6" d="M366.9,305.2c-20,7.9-42.2,5-59.4-8l10.4-13.8C334.4,304.5,366.9,305.2,366.9,305.2z"/>
			</g>
			<g>
				<g>
					<polygon class="st6" points="327.6,278.7 288.3,274.6 304.3,310.7 					"/>
				</g>
			</g>
		</g>
		<g>
			<g>
				<path class="st6" d="M335.4,160.7c8.2-19.9,25.7-33.8,47-37.3l2.7,17C358.4,137.8,335.4,160.7,335.4,160.7z"/>
			</g>
			<g>
				<g>
					<polygon class="st6" points="381.8,150.8 412,125.4 374.9,111.9 					"/>
				</g>
			</g>
		</g>
		<g>
			<path class="st2" d="M473.7,56.3c-0.8,0-1.6,0.1-2.4,0.2c-3.9-8.3-12.4-14-22.2-14c-11.3,0-20.8,7.6-23.6,18
				c-1-0.2-1.9-0.3-3-0.3c-7.5,0-13.6,6.1-13.6,13.6c-4,0-7.3,3.3-7.3,7.3c0,0.6,0.1,1.1,0.2,1.6h10.5h3.8h14.3h2.5h28.9h6.3h17.6
				c2.4-2.8,3.9-6.4,3.9-10.5C489.7,63.4,482.5,56.3,473.7,56.3z"/>
			<polygon class="st0" points="442.3,93.5 454.9,93.5 454.9,70.2 461.9,70.2 448.6,54.9 435.3,70.2 442.3,70.2 			"/>
		</g>
		<g>
			<g>
				<g>
					<path class="st17" d="M554.5,154.6l-1.2-3.5l-1.2,3.5c-1.5,4.5-4.6,8.2-8.8,10.4l0,0l0,0c4.1,2.3,7.3,6,8.8,10.4l1.2,3.5
						l1.2-3.5c1.5-4.5,4.6-8.2,8.8-10.4l0,0l0,0C559.1,162.7,556,159,554.5,154.6z"/>
				</g>
				<g>
					<path class="st17" d="M569.1,177l-0.8-2.4l-0.8,2.4c-1,3.1-3.2,5.7-6.1,7.2l0,0l0,0c2.9,1.6,5,4.1,6.1,7.2l0.8,2.4l0.8-2.4
						c1-3.1,3.2-5.7,6.1-7.2h0h0C572.3,182.7,570.2,180.1,569.1,177z"/>
				</g>
			</g>
		</g>
		<g>
			<polygon class="st0" points="488,103.7 500.4,99.4 504.1,123.4 			"/>
			<polygon class="st0" points="512,103.5 518.5,107.4 509.4,118.1 			"/>
			<polygon class="st0" points="481.3,118.5 484.5,111.6 496,119.8 			"/>
		</g>
	</g>
</g>
<g id="DESIGNED_BY_FREEPIK">
</g>
</svg>
